 <svg version="1.0" xmlns="http://www.w3.org/2000/svg" width="700.000000pt" height="933.000000pt" viewBox="0 0 700.000000 933.000000" preserveAspectRatio="xMidYMid meet">
<metadata>
Created by potrace 1.12, written by Peter Selinger 2001-2015
</metadata>
<g transform="translate(0.000000,933.000000) scale(0.100000,-0.100000)" fill="#000000" stroke="none">
<path d="M5230 9298 c0 -89 41 -1237 50 -1393 5 -99 10 -240 10 -312 0 -92 3
-133 11 -133 13 0 6 509 -10 825 -13 239 -28 593 -37 843 -3 111 -10 202 -15
202 -5 0 -9 -15 -9 -32z"></path>
<path d="M5530 9295 c0 -8 5 -15 10 -15 6 0 10 7 10 15 0 8 -4 15 -10 15 -5 0
-10 -7 -10 -15z"></path>
<path d="M5540 9115 c0 -77 4 -125 10 -125 6 0 10 48 10 125 0 77 -4 125 -10
125 -6 0 -10 -48 -10 -125z"></path>
<path d="M5550 8850 c0 -67 4 -110 10 -110 6 0 10 43 10 110 0 67 -4 110 -10
110 -6 0 -10 -43 -10 -110z"></path>
<path d="M3110 8929 c-282 -43 -509 -184 -594 -370 -9 -19 -20 -41 -25 -49
-43 -73 -118 -299 -127 -388 -4 -34 -11 -65 -15 -68 -5 -3 -25 0 -44 7 -34 13
-37 12 -65 -17 -29 -29 -30 -32 -41 -186 -8 -118 -8 -167 1 -193 15 -45 23
-49 60 -30 17 9 34 13 39 11 14 -9 -1 -100 -18 -113 -9 -6 -13 -15 -8 -19 6
-6 38 6 87 33 3 2 5 -39 5 -89 1 -58 7 -115 18 -153 35 -118 41 -746 8 -828
-6 -15 -21 -31 -35 -37 -15 -6 -30 -25 -41 -55 -20 -51 -23 -26 39 -373 7 -40
18 -78 24 -84 7 -7 12 -20 12 -30 0 -18 16 -23 44 -12 23 9 20 39 -14 110 -16
34 -34 90 -39 122 -5 33 -19 78 -30 101 -28 55 -28 99 1 110 33 12 54 3 111
-49 67 -60 105 -80 159 -80 30 0 68 -12 118 -36 41 -20 114 -51 162 -69 78
-29 106 -44 211 -110 50 -32 69 -97 71 -236 l1 -116 -42 -84 c-25 -51 -43
-103 -46 -132 -7 -71 -44 -107 -111 -108 -70 0 -120 -19 -124 -45 -2 -15 4
-23 20 -28 39 -10 183 -7 219 6 55 19 162 92 217 148 78 80 181 237 221 337
11 28 29 70 39 94 11 24 30 70 41 102 21 57 72 175 91 209 6 10 10 29 10 43 0
14 5 25 10 25 6 0 26 18 46 40 20 22 71 64 113 94 43 30 92 68 109 85 35 36
56 98 44 130 -7 20 -55 54 -94 67 -10 4 -18 10 -18 15 0 5 -7 9 -15 9 -8 0
-14 5 -13 12 2 6 -17 15 -42 21 -25 5 -52 15 -60 22 -31 26 -78 43 -157 55
l-83 12 0 113 0 112 46 82 c47 82 68 98 82 60 l8 -20 18 20 c11 12 16 27 12
37 -3 9 -2 22 4 29 6 7 39 70 75 139 35 70 73 138 84 153 39 48 21 103 -33
103 -18 0 -35 3 -39 6 -3 3 5 27 18 52 26 52 75 197 95 282 20 83 18 300 -4
385 -9 39 -22 81 -28 95 -24 59 -84 169 -118 215 -46 62 -215 235 -231 235 -6
0 -23 8 -37 18 -70 48 -261 72 -402 51z m-803 -995 c-3 -3 -12 -4 -19 -1 -8 3
-5 6 6 6 11 1 17 -2 13 -5z m432 -23 c18 -16 47 -35 66 -41 19 -6 35 -16 35
-20 0 -5 23 -17 50 -27 41 -15 52 -23 58 -48 7 -25 17 -32 63 -47 50 -16 51
-17 14 -13 -102 11 -129 9 -121 -10 3 -8 0 -15 -7 -15 -7 -1 -21 -15 -32 -33
-22 -35 -60 -46 -94 -27 -18 9 -106 117 -153 189 -22 33 -23 79 -1 103 26 29
85 24 122 -11z m-429 -5 c0 -2 -7 -6 -15 -10 -8 -3 -15 -1 -15 4 0 6 7 10 15
10 8 0 15 -2 15 -4z m860 -196 c9 -16 8 -22 -5 -26 -24 -10 -82 5 -89 22 -3 8
-2 12 4 9 6 -3 10 -1 10 4 0 6 16 11 35 11 24 0 37 -6 45 -20z m-910 -32 c0
-13 -23 -5 -28 10 -2 7 2 10 12 6 9 -3 16 -11 16 -16z m1470 -452 c0 -3 -4 -8
-10 -11 -5 -3 -10 -1 -10 4 0 6 5 11 10 11 6 0 10 -2 10 -4z"></path>
<path d="M6235 8830 c-4 -6 8 -10 29 -10 20 0 36 5 36 10 0 6 -13 10 -29 10
-17 0 -33 -4 -36 -10z"></path>
<path d="M6390 8814 c0 -4 8 -13 18 -20 14 -10 15 -15 5 -25 -19 -19 -17 -89
2 -89 10 0 15 -10 15 -30 0 -16 5 -30 10 -30 7 0 10 35 8 98 l-3 97 -27 3
c-16 2 -28 0 -28 -4z"></path>
<path d="M6140 8796 c0 -19 30 -29 46 -15 22 18 16 29 -16 29 -19 0 -30 -5
-30 -14z"></path>
<path d="M6295 8770 c-3 -5 -1 -10 4 -10 6 0 11 5 11 10 0 6 -2 10 -4 10 -3 0
-8 -4 -11 -10z"></path>
<path d="M6240 8745 c0 -8 5 -15 10 -15 6 0 10 7 10 15 0 8 -4 15 -10 15 -5 0
-10 -7 -10 -15z"></path>
<path d="M6438 8493 c-1 -60 -1 -117 -1 -128 1 -11 5 -152 9 -312 4 -184 11
-293 17 -293 7 0 8 92 4 272 -4 149 -7 338 -7 420 0 92 -4 148 -10 148 -6 0
-11 -44 -12 -107z"></path>
<path d="M5570 8210 c0 -53 4 -90 10 -90 6 0 10 37 10 90 0 53 -4 90 -10 90
-6 0 -10 -37 -10 -90z"></path>
<path d="M6360 8000 c0 -11 5 -20 10 -20 6 0 10 9 10 20 0 11 -4 20 -10 20 -5
0 -10 -9 -10 -20z"></path>
<path d="M6460 7731 c0 -12 5 -21 10 -21 6 0 10 6 10 14 0 8 -4 18 -10 21 -5
3 -10 -3 -10 -14z"></path>
<path d="M6460 7644 c0 -8 5 -12 10 -9 6 3 10 10 10 16 0 5 -4 9 -10 9 -5 0
-10 -7 -10 -16z"></path>
<path d="M6460 7543 c0 -43 5 -85 10 -93 7 -10 10 14 10 78 0 55 -4 92 -10 92
-6 0 -10 -32 -10 -77z"></path>
<path d="M5300 7410 c0 -11 5 -20 10 -20 6 0 10 9 10 20 0 11 -4 20 -10 20 -5
0 -10 -9 -10 -20z"></path>
<path d="M6470 7406 c0 -9 5 -16 10 -16 6 0 10 4 10 9 0 6 -4 13 -10 16 -5 3
-10 -1 -10 -9z"></path>
<path d="M6470 7340 c0 -11 5 -20 10 -20 6 0 10 9 10 20 0 11 -4 20 -10 20 -5
0 -10 -9 -10 -20z"></path>
<path d="M5300 7275 c0 -37 4 -65 10 -65 6 0 10 28 10 65 0 37 -4 65 -10 65
-6 0 -10 -28 -10 -65z"></path>
<path d="M6472 7131 c3 -94 1 -174 -4 -179 -11 -11 -11 -16 -3 -302 6 -223 15
-364 33 -528 4 -46 4 -76 -2 -80 -6 -3 -35 -6 -66 -7 l-55 -1 4 -79 c4 -92 5
-95 33 -95 19 0 20 1 4 25 -18 28 -22 115 -5 115 10 0 32 -21 70 -68 6 -7 8
-23 5 -35 -3 -12 1 -28 8 -37 10 -11 16 -64 21 -187 l8 -173 -34 -2 c-19 -1
-51 0 -72 1 -26 2 -39 -2 -43 -13 -8 -21 -87 -22 -107 -2 -7 8 -22 40 -32 71
-15 49 -16 62 -5 96 7 21 17 39 22 39 5 0 7 10 5 23 -4 30 -30 87 -39 87 -5 0
-8 5 -8 10 0 6 7 10 15 10 8 0 15 5 15 11 0 6 -14 9 -32 7 -20 -2 -32 -8 -31
-15 2 -7 -1 -13 -7 -13 -5 0 -7 -7 -4 -15 4 -9 0 -15 -9 -15 -25 0 -38 -71
-23 -118 8 -23 -5 -127 -27 -212 -11 -45 -27 -70 -45 -70 -8 0 -36 -13 -81
-37 -7 -4 19 -63 36 -82 57 -60 150 -71 233 -28 59 30 191 77 218 77 48 0 49
-6 61 -340 15 -400 40 -1289 47 -1660 3 -157 9 -388 13 -515 5 -126 9 -357 10
-513 2 -271 1 -285 -19 -317 -11 -18 -26 -61 -31 -94 -6 -33 -17 -65 -25 -72
-20 -16 -166 -24 -204 -10 -45 15 -54 5 -106 -106 -48 -103 -73 -126 -151
-137 -85 -11 -134 -59 -147 -143 -5 -35 -37 -109 -95 -222 -13 -25 -39 -37
-52 -24 -7 7 -20 76 -30 154 -16 126 -22 147 -51 192 -26 41 -33 61 -31 97 0
25 2 79 4 121 1 52 -5 105 -19 165 -12 49 -24 111 -28 137 -4 33 -11 50 -22
53 -9 3 -28 11 -42 18 l-25 12 3 -52 c3 -43 7 -51 21 -47 18 5 41 -32 41 -66
0 -32 -34 -66 -56 -56 -10 4 -27 7 -37 6 -20 -3 -151 114 -181 161 -20 30 -32
110 -43 278 -3 54 -12 103 -19 115 -19 26 -18 79 2 118 33 63 58 54 69 -24 5
-35 17 -61 40 -88 28 -35 34 -51 44 -132 13 -101 28 -138 64 -162 l24 -16 -12
36 c-19 55 2 112 42 113 7 0 16 6 20 12 4 7 17 18 28 24 35 19 45 54 45 157 0
76 -4 106 -17 129 -20 33 -81 64 -96 49 -6 -6 -23 1 -46 19 -26 21 -56 32
-106 41 -81 13 -105 24 -105 45 0 18 28 71 50 93 62 65 113 61 125 -8 9 -54
36 -70 72 -44 31 22 40 27 75 43 21 10 29 24 37 62 6 27 11 57 11 67 0 12 15
25 43 36 65 29 124 72 150 110 20 30 24 48 26 137 1 56 4 105 7 109 5 9 5 291
-1 349 -11 109 -31 206 -65 315 -12 39 -26 92 -31 119 -4 26 -15 67 -23 90
-19 55 -49 165 -86 316 -35 140 -99 305 -166 428 -35 63 -64 121 -64 128 0 7
-3 14 -7 16 -14 6 -49 62 -73 118 -20 48 -24 77 -31 240 -7 184 -19 258 -63
380 -9 25 -24 65 -32 89 -9 25 -27 62 -40 83 -13 20 -24 42 -24 47 0 6 -11 30
-24 55 -44 83 -97 149 -154 193 -32 24 -34 25 -27 4 4 -12 2 -21 -4 -21 -12 0
-94 26 -128 41 -57 23 -70 28 -103 37 -19 6 -53 13 -75 17 -21 4 -45 14 -52
23 -8 11 -12 12 -13 5 0 -7 -7 -13 -15 -13 -15 0 -17 -12 -21 -200 -1 -36 2
-97 7 -135 4 -39 11 -100 14 -135 4 -36 11 -81 16 -100 6 -19 13 -112 16 -206
l6 -170 -30 -35 c-47 -55 -63 -86 -74 -142 -15 -82 -20 -165 -10 -172 6 -3 5
-18 -3 -38 -10 -22 -14 -95 -15 -242 -3 -280 -17 -352 -118 -610 -40 -103 -65
-150 -91 -178 -41 -42 -188 -117 -230 -117 -15 0 -51 -9 -80 -20 -89 -34 -125
-22 -129 42 -3 40 24 160 56 248 25 67 27 142 5 164 -8 9 -19 16 -22 16 -11 0
-51 -109 -58 -158 -4 -23 -11 -45 -15 -48 -5 -3 -9 -20 -9 -37 -1 -18 -7 -43
-15 -57 -8 -14 -14 -39 -15 -56 0 -17 -7 -37 -15 -44 -9 -7 -13 -21 -10 -30 6
-18 -25 -133 -48 -180 -17 -34 -71 -49 -95 -26 -10 9 -24 16 -31 16 -24 0 -91
-41 -133 -82 -45 -44 -67 -60 -108 -78 -14 -6 -63 -30 -110 -54 -83 -42 -248
-85 -271 -71 -5 4 -12 -1 -15 -9 -3 -9 -14 -16 -24 -16 -10 0 -23 -7 -30 -15
-10 -12 -32 -16 -79 -16 -36 0 -90 0 -119 -1 -51 -1 -55 1 -103 48 -58 57
-135 200 -197 365 -22 59 -61 142 -86 185 -25 43 -46 86 -46 95 0 24 -36 52
-57 45 -16 -5 -22 8 -46 107 -15 61 -30 148 -33 192 -3 44 -9 96 -14 115 -4
19 -11 57 -15 83 -4 29 -12 50 -21 54 -8 3 -13 12 -10 20 3 7 -1 16 -9 19 -8
4 -15 19 -15 35 0 46 -26 132 -59 194 -17 32 -31 65 -31 74 0 18 -41 176 -59
226 -6 17 -22 68 -37 115 -14 47 -30 90 -34 95 -4 6 -11 27 -14 48 -4 22 -23
73 -43 115 -19 43 -44 95 -54 117 -10 22 -32 56 -49 75 -26 30 -31 33 -40 19
-5 -9 -29 -27 -52 -39 -76 -39 -244 -188 -283 -250 -68 -109 -102 -304 -92
-532 6 -143 32 -275 73 -368 64 -146 74 -174 84 -233 10 -61 1 -231 -20 -376
-11 -80 -15 -354 -5 -370 3 -5 10 -58 15 -118 36 -393 125 -798 225 -1028 44
-102 57 -126 131 -240 86 -133 115 -153 220 -156 38 -1 78 1 90 5 30 9 46 -14
50 -75 5 -57 18 -86 81 -178 24 -36 51 -91 60 -123 9 -31 27 -67 39 -79 26
-24 214 -78 273 -79 49 0 99 35 124 88 19 40 33 53 107 94 47 26 103 53 125
59 22 6 69 23 105 39 36 15 92 33 124 40 33 7 88 23 123 36 43 16 95 26 156
30 51 3 106 10 122 16 51 19 204 122 205 138 0 9 -20 33 -45 53 -25 21 -45 46
-45 56 0 20 40 61 58 61 7 0 15 6 18 13 3 9 22 14 50 15 38 0 47 -3 54 -22 20
-54 70 -62 166 -27 36 14 78 21 113 21 91 -2 93 -2 161 10 36 6 76 13 90 15
14 2 44 9 68 16 37 10 45 9 62 -6 24 -21 25 -40 6 -77 -8 -15 -22 -53 -31 -85
-9 -32 -23 -65 -30 -73 -7 -8 -21 -40 -31 -70 -9 -30 -20 -59 -23 -65 -4 -5
-6 -30 -6 -55 0 -40 3 -45 24 -48 16 -3 35 8 62 34 22 21 39 44 39 51 0 7 4
21 9 31 5 9 22 43 37 75 19 40 44 71 77 98 61 48 95 50 217 14 47 -13 105 -30
130 -36 50 -12 107 -64 139 -127 22 -43 46 -67 78 -76 36 -11 38 -46 6 -117
-25 -58 -28 -75 -28 -179 0 -113 1 -116 38 -187 43 -83 45 -116 16 -199 -11
-32 -25 -97 -30 -144 -13 -111 -12 -108 -37 -157 -38 -74 -72 -189 -72 -246 0
-58 -35 -177 -76 -258 -16 -32 -28 -86 -39 -170 -23 -175 -29 -192 -100 -260
l-60 -59 147 0 c141 0 148 1 170 24 49 50 68 105 68 199 0 101 13 141 60 177
62 47 100 94 100 123 0 11 20 60 45 111 25 50 48 105 51 123 6 28 3 33 -19 38
-25 7 -87 -17 -87 -33 0 -10 -73 -52 -89 -52 -16 0 -14 42 7 112 13 47 29 75
70 119 87 95 124 240 94 377 -14 67 -14 76 1 107 26 54 56 44 107 -35 32 -50
33 -56 41 -193 4 -78 10 -151 13 -162 3 -11 7 -36 11 -56 3 -21 24 -60 51 -95
75 -96 97 -147 102 -240 3 -62 1 -88 -12 -113 -10 -17 -14 -41 -11 -52 5 -16
-2 -23 -40 -39 -26 -11 -57 -20 -70 -20 -53 0 -139 -58 -128 -86 2 -6 -4 -15
-14 -18 -17 -7 -17 -8 0 -21 20 -15 47 -10 47 9 1 27 120 76 154 63 9 -4 31 0
51 8 48 21 57 17 82 -35 31 -63 28 -84 -16 -147 -22 -30 -43 -69 -47 -86 -8
-39 -37 -63 -91 -76 -24 -6 -43 -16 -43 -21 0 -7 209 -10 590 -10 l591 0 -6
158 c-3 86 -10 261 -15 387 -23 557 -52 1580 -65 2270 -3 154 -9 415 -15 580
-5 165 -12 426 -15 580 -3 154 -7 339 -10 410 -3 72 -10 301 -15 510 -16 604
-29 1050 -36 1210 -3 61 -7 148 -9 195 -5 123 -20 706 -24 918 -1 54 -5 82
-12 82 -9 0 -10 -47 -7 -169z m-4852 -1323 c40 -55 48 -87 25 -104 -23 -17
-14 -68 17 -101 20 -21 22 -21 34 -5 11 15 14 13 30 -20 22 -47 13 -59 -72
-98 -95 -43 -97 -51 -84 -273 6 -100 15 -216 20 -257 5 -41 9 -140 9 -220 1
-166 2 -168 101 -280 81 -91 134 -178 154 -251 16 -55 16 -72 6 -143 -15 -97
-20 -107 -80 -172 -26 -28 -57 -69 -69 -91 -23 -46 -94 -103 -128 -103 -39 0
-82 57 -98 130 -4 19 -19 61 -33 93 -25 59 -26 60 -15 206 9 121 16 163 44
246 26 79 33 116 33 177 l0 76 -91 184 c-51 101 -95 198 -98 215 -4 19 0 56
10 88 8 30 19 86 24 123 9 71 64 233 106 313 30 57 31 79 4 113 -17 21 -28 26
-57 24 -21 -1 -48 -8 -62 -16 -35 -20 86 92 135 124 22 15 51 35 65 45 14 10
28 18 32 18 5 1 22 -18 38 -41z m3457 -718 c18 -36 40 -95 49 -133 16 -63 16
-71 0 -130 -9 -34 -21 -98 -25 -141 -9 -81 -24 -106 -60 -106 -8 0 -34 20 -57
45 -55 57 -74 119 -74 239 0 108 10 150 57 234 47 83 66 82 110 -8z m-406
-415 c17 -39 39 -88 49 -111 11 -22 20 -50 20 -61 0 -12 5 -44 12 -71 10 -47
9 -55 -15 -104 -17 -36 -35 -57 -54 -65 -15 -6 -56 -23 -90 -37 -48 -21 -67
-24 -87 -16 -14 5 -26 16 -26 23 0 8 16 50 36 93 19 43 39 88 44 99 5 11 14
47 20 80 7 33 18 83 26 112 8 29 14 58 13 65 -4 34 2 69 12 66 6 -2 24 -35 40
-73z m1989 -4239 c0 -17 -7 -26 -26 -30 -15 -4 -51 -23 -81 -42 -30 -19 -73
-42 -96 -51 -23 -8 -83 -35 -133 -59 -49 -24 -93 -44 -97 -44 -3 0 -32 -15
-64 -33 -32 -18 -78 -40 -103 -47 -25 -8 -49 -20 -55 -26 -14 -17 -55 -28 -55
-15 0 6 4 11 9 11 5 0 12 9 16 19 3 11 11 18 18 15 15 -5 77 32 77 46 0 5 6
10 13 10 15 0 98 41 112 56 5 6 30 19 55 29 25 10 52 24 60 30 8 6 28 17 44
24 16 6 52 27 80 46 68 45 102 58 161 61 27 1 51 7 53 13 6 19 12 12 12 -13z
m-753 -352 c-3 -3 -12 -4 -19 -1 -8 3 -5 6 6 6 11 1 17 -2 13 -5z"></path>
<path d="M5300 7160 c0 -5 5 -10 10 -10 6 0 10 5 10 10 0 6 -4 10 -10 10 -5 0
-10 -4 -10 -10z"></path>
<path d="M5310 7000 c0 -80 4 -130 10 -130 6 0 10 50 10 130 0 80 -4 130 -10
130 -6 0 -10 -50 -10 -130z"></path>
<path d="M6220 6950 c0 -27 5 -50 10 -50 6 0 10 23 10 50 0 28 -4 50 -10 50
-5 0 -10 -22 -10 -50z"></path>
<path d="M5320 6710 c0 -53 4 -90 10 -90 6 0 10 37 10 90 0 53 -4 90 -10 90
-6 0 -10 -37 -10 -90z"></path>
<path d="M3930 6650 c0 -5 9 -10 21 -10 11 0 17 5 14 10 -3 6 -13 10 -21 10
-8 0 -14 -4 -14 -10z"></path>
<path d="M4050 6620 c0 -5 5 -10 10 -10 6 0 10 5 10 10 0 6 -4 10 -10 10 -5 0
-10 -4 -10 -10z"></path>
<path d="M4130 6591 c0 -8 81 -23 88 -16 2 2 1 8 -3 14 -7 13 -85 15 -85 2z"></path>
<path d="M5330 6565 c0 -19 5 -35 10 -35 6 0 10 16 10 35 0 19 -4 35 -10 35
-5 0 -10 -16 -10 -35z"></path>
<path d="M4302 6549 c2 -7 10 -15 17 -17 8 -3 12 1 9 9 -2 7 -10 15 -17 17 -8
3 -12 -1 -9 -9z"></path>
<path d="M4570 6501 c0 -10 47 -27 90 -34 14 -2 38 -9 54 -16 47 -19 42 -4 -5
17 -85 39 -139 51 -139 33z"></path>
<path d="M5330 6410 c0 -11 5 -20 10 -20 6 0 10 9 10 20 0 11 -4 20 -10 20 -5
0 -10 -9 -10 -20z"></path>
<path d="M1995 6159 c-10 -15 3 -25 16 -12 7 7 7 13 1 17 -6 3 -14 1 -17 -5z"></path>
<path d="M1810 6030 c0 -5 5 -10 10 -10 6 0 10 5 10 10 0 6 -4 10 -10 10 -5 0
-10 -4 -10 -10z"></path>
<path d="M6445 5860 c-3 -5 -1 -10 4 -10 6 0 11 5 11 10 0 6 -2 10 -4 10 -3 0
-8 -4 -11 -10z"></path>
<path d="M6116 5841 c-43 -9 -42 -26 1 -26 28 0 39 5 41 18 4 18 3 18 -42 8z"></path>
<path d="M6020 5830 c0 -5 5 -10 10 -10 6 0 10 5 10 10 0 6 -4 10 -10 10 -5 0
-10 -4 -10 -10z"></path>
<path d="M6260 5831 c0 -5 12 -11 28 -13 22 -2 29 -10 36 -40 5 -21 13 -38 18
-38 13 0 9 75 -4 88 -14 14 -78 16 -78 3z"></path>
<path d="M5912 5808 c-13 -13 -16 -38 -4 -38 9 1 52 36 52 44 0 11 -36 6 -48
-6z"></path>
<path d="M2430 5766 c0 -15 94 -185 99 -181 4 2 9 29 10 59 2 48 -2 59 -23 81
-14 14 -34 25 -46 25 -11 0 -20 5 -20 10 0 6 -4 10 -10 10 -5 0 -10 -2 -10 -4z"></path>
<path d="M5920 5342 c0 -20 26 -60 33 -52 2 3 0 20 -5 38 -9 34 -28 44 -28 14z"></path>
<path d="M2070 5330 c0 -5 5 -10 10 -10 6 0 10 5 10 10 0 6 -4 10 -10 10 -5 0
-10 -4 -10 -10z"></path>
<path d="M2185 5330 c3 -5 8 -10 11 -10 2 0 4 5 4 10 0 6 -5 10 -11 10 -5 0
-7 -4 -4 -10z"></path>
<path d="M3500 5314 c0 -8 5 -12 10 -9 6 3 10 10 10 16 0 5 -4 9 -10 9 -5 0
-10 -7 -10 -16z"></path>
<path d="M3290 5310 c0 -5 4 -10 9 -10 6 0 13 5 16 10 3 6 -1 10 -9 10 -9 0
-16 -4 -16 -10z"></path>
<path d="M3156 5243 c-105 -46 -212 -53 -301 -18 -15 6 -13 2 8 -18 15 -15 32
-27 36 -27 5 0 14 -7 21 -15 10 -12 27 -13 86 -8 71 6 74 5 83 -18 7 -19 5
-27 -12 -41 l-22 -18 23 0 c13 0 21 -4 17 -9 -3 -5 -30 -7 -60 -4 -33 3 -74 0
-102 -8 l-48 -13 35 -9 c72 -17 113 -17 176 3 35 10 70 17 78 14 8 -3 17 -1
21 5 3 6 14 11 24 11 10 0 28 11 41 25 13 14 29 25 37 25 7 0 13 5 13 10 0 6
-2 10 -5 10 -3 0 -14 -4 -25 -10 -11 -5 -29 -14 -40 -20 -27 -14 -27 -13 -34
15 -4 16 -13 25 -26 25 -11 0 -20 3 -20 6 0 3 20 29 45 57 69 79 65 81 -49 30z"></path>
<path d="M2086 5221 c-4 -5 -2 -12 3 -15 5 -4 12 -2 15 3 4 5 2 12 -3 15 -5 4
-12 2 -15 -3z"></path>
<path d="M3400 5219 c0 -5 5 -7 10 -4 6 3 10 8 10 11 0 2 -4 4 -10 4 -5 0 -10
-5 -10 -11z"></path>
<path d="M2092 5160 c0 -14 2 -19 5 -12 2 6 2 18 0 25 -3 6 -5 1 -5 -13z"></path>
<path d="M2179 5118 c0 -2 -2 -63 -3 -135 -3 -124 2 -151 20 -121 13 20 6 246
-8 254 -4 3 -8 4 -9 2z"></path>
<path d="M2187 4796 c-4 -15 -6 -31 -2 -34 10 -10 16 6 13 35 l-3 28 -8 -29z"></path>
<path d="M4220 4420 c0 -5 4 -10 9 -10 6 0 13 5 16 10 3 6 -1 10 -9 10 -9 0
-16 -4 -16 -10z"></path>
<path d="M4305 4420 c-3 -5 -1 -10 4 -10 6 0 11 5 11 10 0 6 -2 10 -4 10 -3 0
-8 -4 -11 -10z"></path>
<path d="M4180 4400 c0 -5 5 -10 10 -10 6 0 10 5 10 10 0 6 -4 10 -10 10 -5 0
-10 -4 -10 -10z"></path>
<path d="M4090 4381 c0 -16 19 -23 40 -16 30 10 24 25 -10 25 -16 0 -30 -4
-30 -9z"></path>
<path d="M4165 4349 c-37 -18 -69 -27 -82 -24 -13 3 -23 1 -23 -5 0 -11 20
-14 59 -11 24 2 95 42 106 61 8 13 9 14 -60 -21z"></path>
<path d="M411 2377 c-40 -20 -37 -37 3 -18 20 9 35 19 36 24 0 10 -11 9 -39
-6z"></path>
<path d="M423 2330 c-31 -19 -44 -40 -24 -40 14 0 80 44 81 53 0 13 -24 7 -57
-13z"></path>
<path d="M630 2340 c0 -5 5 -10 11 -10 5 0 7 5 4 10 -3 6 -8 10 -11 10 -2 0
-4 -4 -4 -10z"></path>
<path d="M530 2260 c0 -5 5 -10 10 -10 6 0 10 5 10 10 0 6 -4 10 -10 10 -5 0
-10 -4 -10 -10z"></path>
<path d="M1 2102 c-1 -100 2 -151 9 -147 11 7 12 163 0 245 -5 42 -8 18 -9
-98z"></path>
<path d="M1272 2228 c-7 -7 -12 -17 -12 -24 0 -20 -25 -34 -71 -39 -42 -5 -86
-13 -204 -36 -30 -6 -64 -7 -75 -4 -12 4 -27 1 -35 -5 -22 -19 -240 -26 -271
-9 -23 12 -28 11 -39 -4 -16 -23 -25 -22 -25 3 0 15 -7 20 -25 20 -51 0 -22
-52 41 -74 50 -17 77 -6 43 17 -32 23 -19 30 19 11 17 -8 44 -16 59 -17 15 -1
33 -7 38 -14 8 -9 30 -8 95 3 47 8 110 19 140 24 323 52 465 89 465 120 0 28
-120 51 -143 28z"></path>
<path d="M694 2209 c-4 -8 -26 -10 -60 -6 -43 4 -54 3 -54 -9 0 -11 16 -14 73
-14 79 0 93 5 76 27 -14 16 -26 17 -35 2z"></path>
<path d="M750 2160 c0 -5 5 -10 10 -10 6 0 10 5 10 10 0 6 -4 10 -10 10 -5 0
-10 -4 -10 -10z"></path>
<path d="M1880 2055 c0 -8 5 -15 10 -15 6 0 10 7 10 15 0 8 -4 15 -10 15 -5 0
-10 -7 -10 -15z"></path>
<path d="M345 2025 c10 -16 27 -41 39 -53 36 -41 106 -68 106 -42 0 6 -7 10
-15 10 -23 0 -65 29 -109 75 -33 35 -36 36 -21 10z"></path>
<path d="M1880 1885 c0 -43 4 -75 10 -75 6 0 10 32 10 75 0 43 -4 75 -10 75
-6 0 -10 -32 -10 -75z"></path>
<path d="M13 1773 c-20 -7 -18 -213 1 -213 11 0 16 -25 21 -109 7 -97 17 -145
28 -131 5 7 -27 447 -33 453 -3 2 -11 2 -17 0z"></path>
<path d="M1880 1750 c0 -5 5 -10 10 -10 6 0 10 5 10 10 0 6 -4 10 -10 10 -5 0
-10 -4 -10 -10z"></path>
<path d="M4331 1554 c-45 -58 -36 -96 16 -65 30 19 66 74 55 85 -14 15 -52 4
-71 -20z"></path>
<path d="M61 1284 c0 -11 3 -14 6 -6 3 7 2 16 -1 19 -3 4 -6 -2 -5 -13z"></path>
<path d="M50 1230 c0 -11 5 -20 10 -20 6 0 10 9 10 20 0 11 -4 20 -10 20 -5 0
-10 -9 -10 -20z"></path>
<path d="M60 1110 c0 -27 5 -50 10 -50 6 0 10 23 10 50 0 28 -4 50 -10 50 -5
0 -10 -22 -10 -50z"></path>
<path d="M70 978 c0 -52 -7 -63 -43 -72 l-27 -6 0 -250 c0 -247 0 -250 21
-250 12 0 23 -8 26 -20 3 -12 14 -20 25 -20 14 0 18 -5 14 -15 -3 -8 -2 -15 3
-15 5 0 12 -20 15 -45 4 -25 12 -45 18 -45 7 0 8 25 3 75 -4 42 -8 101 -10
133 -2 31 -8 102 -14 157 -6 55 -10 111 -9 125 3 103 -5 290 -13 290 -5 0 -9
-19 -9 -42z"></path>
<path d="M4405 592 c-66 -41 -159 -172 -137 -194 17 -17 50 1 89 49 21 25 55
56 76 70 42 27 66 71 45 85 -20 12 -40 9 -73 -10z"></path>
<path d="M4157 253 c-27 -54 -50 -131 -44 -147 9 -22 56 -20 87 4 29 22 32 73
7 133 -19 44 -32 47 -50 10z"></path>
<path d="M5330 260 c-14 -11 -20 -20 -14 -20 14 0 50 27 44 33 -3 3 -16 -3
-30 -13z"></path>
<path d="M108 225 c-11 -11 11 -225 23 -225 7 0 8 39 3 108 -6 100 -13 130
-26 117z"></path>
<path d="M5250 200 c0 -5 7 -7 15 -4 8 4 15 8 15 10 0 2 -7 4 -15 4 -8 0 -15
-4 -15 -10z"></path>
<path d="M5215 180 c-3 -5 -1 -10 4 -10 6 0 11 5 11 10 0 6 -2 10 -4 10 -3 0
-8 -4 -11 -10z"></path>
<path d="M4292 118 c-7 -7 -12 -24 -12 -39 0 -15 -4 -39 -10 -53 -9 -26 -9
-26 35 -26 36 0 45 3 45 18 0 9 7 26 15 36 20 26 19 62 -1 70 -25 10 -59 7
-72 -6z"></path>
</g>
</svg>
