 <svg version="1.0" xmlns="http://www.w3.org/2000/svg" width="700.000000pt" height="933.000000pt" viewBox="0 0 700.000000 933.000000" preserveAspectRatio="xMidYMid meet">
<metadata>
Created by potrace 1.12, written by Peter Selinger 2001-2015
</metadata>
<g transform="translate(0.000000,933.000000) scale(0.100000,-0.100000)" fill="#000000" stroke="none">
<path d="M3224 7970 c-9 -9 -68 -14 -114 -8 -18 2 -24 -1 -22 -13 2 -18 -29
-35 -85 -45 -21 -3 -52 -15 -69 -25 -17 -11 -59 -22 -93 -25 -33 -4 -66 -13
-72 -20 -6 -8 -24 -14 -40 -14 -38 0 -115 -40 -98 -51 17 -10 -28 -48 -57 -49
-12 0 -24 -6 -27 -14 -3 -8 -33 -25 -67 -37 -53 -19 -64 -28 -81 -63 -11 -23
-38 -57 -59 -76 -27 -25 -48 -61 -75 -125 -20 -49 -43 -103 -50 -120 -8 -16
-17 -56 -20 -87 -4 -31 -13 -62 -21 -69 -8 -6 -14 -17 -14 -24 0 -7 -7 -26
-15 -41 -32 -61 -10 -77 44 -34 44 36 76 37 99 2 15 -23 15 -23 -11 -11 -23
10 -31 9 -66 -14 -56 -37 -70 -70 -73 -171 -2 -47 0 -86 3 -86 4 0 17 28 29
63 27 74 84 137 124 137 19 0 26 5 26 20 0 11 3 20 6 20 4 0 37 -27 74 -60
l68 -60 42 58 c24 31 60 75 80 97 29 30 39 51 43 84 3 24 9 46 14 50 6 3 20
28 32 55 24 55 66 100 123 135 21 12 77 65 124 116 48 52 98 102 112 111 36
24 197 34 284 17 131 -24 231 -72 259 -124 19 -36 39 -113 39 -151 0 -33 -3
-38 -24 -38 -12 0 -36 4 -52 10 -16 5 -68 16 -116 25 -48 8 -95 19 -105 23
-27 14 -83 31 -139 41 -42 8 -63 6 -112 -8 -70 -22 -127 -54 -136 -77 -8 -21
11 -44 38 -45 32 -1 81 -33 81 -54 0 -12 -12 -21 -40 -30 -58 -17 -125 -62
-125 -84 0 -10 10 -31 22 -46 18 -23 47 -39 173 -95 120 -54 298 -33 323 38 6
17 22 38 36 47 56 37 109 -11 145 -130 12 -38 24 -78 27 -87 4 -12 -6 -23 -35
-37 -34 -18 -47 -19 -92 -11 -28 6 -80 10 -113 10 -39 0 -69 5 -82 15 -33 25
-88 17 -194 -26 -114 -48 -162 -90 -180 -161 -6 -24 -20 -65 -30 -93 -11 -27
-27 -73 -35 -101 -17 -57 -17 -57 -138 -93 -78 -24 -173 -29 -205 -12 -12 7
-39 33 -60 59 -29 38 -41 65 -55 132 -29 131 -25 128 -77 80 -92 -84 -133 -75
-190 44 -23 47 -28 51 -59 51 -19 0 -36 -6 -39 -13 -3 -9 3 -11 21 -7 35 9 46
-13 47 -90 1 -16 9 -48 19 -70 11 -23 17 -52 14 -65 -2 -14 2 -38 11 -54 16
-32 4 -66 -25 -66 -19 0 -55 -37 -46 -46 4 -4 13 -1 22 6 13 11 15 7 15 -25 0
-31 7 -45 40 -76 36 -34 39 -41 30 -64 -6 -15 -10 -37 -10 -51 0 -15 -16 -42
-42 -70 l-42 -45 30 -24 c16 -13 61 -41 99 -61 39 -20 77 -42 85 -49 31 -26
118 -69 195 -95 226 -77 301 -101 420 -135 72 -21 166 -46 210 -57 84 -21 109
-31 137 -55 16 -14 16 -18 3 -44 -20 -39 -19 -60 5 -66 11 -3 20 -9 20 -14 0
-5 17 -9 38 -9 49 0 93 -28 170 -108 34 -36 65 -62 69 -58 4 4 2 15 -4 25 -14
22 0 41 29 41 10 0 18 5 18 11 0 7 11 8 33 3 17 -4 44 -6 60 -5 21 1 27 -3 27
-19 0 -12 -5 -30 -11 -42 -19 -36 -1 -31 36 11 42 46 55 51 55 20 0 -12 8 -23
20 -26 14 -4 21 -17 25 -52 15 -116 58 -182 149 -228 28 -14 71 -41 95 -59 56
-43 90 -44 114 -3 9 17 22 29 29 27 20 -7 31 -34 25 -59 -11 -42 -30 -59 -73
-63 -23 -2 -47 -7 -55 -12 -8 -5 -34 -11 -59 -14 -40 -4 -47 -9 -65 -45 -11
-22 -27 -40 -35 -40 -25 0 -23 -34 4 -66 14 -17 26 -37 26 -45 0 -17 57 -54
83 -54 9 0 17 5 17 10 0 6 -8 10 -19 10 -27 0 -38 18 -50 84 -15 83 -14 94 11
107 38 20 142 40 176 34 23 -4 32 -3 27 4 -3 6 1 14 10 17 22 9 30 -2 15 -21
-7 -8 -9 -15 -5 -15 17 0 33 36 28 66 -5 28 1 36 50 79 74 66 181 131 366 221
144 71 238 129 270 167 7 9 19 34 26 54 13 37 15 38 76 47 74 10 129 -3 284
-65 86 -34 111 -50 178 -112 55 -52 92 -98 132 -165 30 -51 55 -99 55 -108 0
-8 9 -49 20 -92 11 -42 29 -120 41 -172 11 -52 25 -115 31 -140 5 -25 12 -76
14 -115 3 -38 8 -122 12 -185 14 -224 -13 -423 -53 -390 -11 9 -13 24 -9 54 4
28 2 36 -4 26 -13 -20 -29 -115 -37 -220 -9 -120 -12 -128 -41 -122 -13 2 -24
8 -24 13 0 13 -24 11 -38 -3 -7 -7 -8 -17 -2 -29 7 -11 7 -20 0 -24 -19 -12
-10 -34 20 -51 29 -18 29 -18 10 -36 -21 -19 -50 -24 -50 -8 0 23 -22 7 -36
-26 -10 -24 -20 -34 -30 -30 -11 4 -14 -5 -14 -43 0 -34 -5 -51 -15 -55 -10
-4 -15 1 -15 14 0 18 -1 18 -34 -3 -37 -23 -46 -42 -46 -95 0 -34 -32 -94 -68
-125 -24 -22 -58 -19 -54 5 3 21 -26 44 -39 31 -6 -6 -4 -24 6 -52 13 -38 13
-44 0 -58 -8 -8 -15 -20 -15 -27 0 -15 -42 -56 -57 -56 -5 0 -13 25 -16 56
-11 103 -82 213 -177 275 -36 23 -50 39 -50 55 0 19 -13 27 -85 53 -47 17
-102 34 -123 37 -45 7 -156 -26 -204 -62 -18 -13 -53 -37 -78 -54 -25 -17 -61
-48 -81 -70 -35 -38 -36 -38 -79 -29 -31 7 -52 7 -71 -1 -25 -11 -27 -16 -22
-48 3 -21 10 -45 14 -54 15 -28 10 -36 -26 -49 -19 -7 -35 -17 -35 -21 0 -11
42 0 123 33 l69 27 14 -36 c8 -20 21 -50 29 -66 9 -16 18 -55 22 -87 6 -64 20
-78 25 -27 l3 33 23 -37 c18 -28 22 -46 17 -68 -7 -32 -22 -39 -31 -15 -9 22
-24 18 -24 -5 0 -11 12 -26 29 -35 27 -13 33 -13 75 6 25 11 56 33 68 49 27
37 60 39 94 5 14 -14 31 -25 38 -25 7 0 65 -16 127 -35 l114 -35 48 22 c49 24
57 37 32 58 -8 7 -15 16 -15 21 0 20 66 47 137 58 64 10 80 9 111 -5 47 -21
110 -88 147 -155 25 -46 29 -64 29 -139 l1 -85 -60 -89 c-33 -48 -69 -104 -79
-124 -11 -20 -55 -72 -98 -115 -43 -43 -78 -81 -78 -83 0 -3 -15 -18 -34 -35
-19 -16 -47 -49 -61 -72 -15 -23 -44 -54 -64 -69 -20 -14 -64 -51 -98 -80 -34
-30 -87 -67 -118 -83 -31 -15 -79 -50 -107 -76 -44 -41 -142 -97 -243 -139
-21 -9 -88 -24 -115 -25 -8 -1 -24 -5 -36 -8 -11 -4 -42 -9 -69 -11 -48 -4
-175 -59 -175 -76 0 -5 -15 -24 -34 -42 -27 -26 -36 -45 -42 -83 -8 -58 -8
-46 1 -155 10 -119 -29 -285 -67 -285 -6 0 -13 -6 -16 -14 -3 -9 0 -11 8 -6 9
5 11 4 6 -3 -4 -7 -14 -12 -22 -12 -8 0 -24 -11 -36 -25 -12 -14 -27 -25 -33
-25 -6 0 -17 -6 -23 -12 -13 -13 -41 -18 -99 -18 -18 1 -33 -4 -33 -10 0 -19
-38 -10 -68 15 -17 14 -43 47 -57 73 -29 50 -74 121 -134 212 -20 30 -77 98
-128 150 -91 95 -123 143 -102 156 6 3 21 -3 33 -15 12 -12 26 -21 30 -21 10
0 -3 82 -15 94 -5 6 -9 18 -9 28 0 22 -18 24 -27 2 -3 -8 -11 -13 -19 -10 -7
3 -15 0 -17 -7 -7 -20 -36 47 -43 100 -4 35 -1 68 11 109 14 50 25 67 78 114
33 30 92 86 131 124 85 83 124 109 196 131 30 9 102 40 159 68 77 39 109 60
123 84 16 26 27 33 51 33 18 0 63 18 105 40 101 57 94 78 -8 25 -17 -9 -36
-13 -43 -8 -22 13 -97 88 -97 97 0 5 16 6 36 3 20 -4 44 -3 53 2 9 5 37 11 62
14 41 6 48 4 52 -13 8 -32 54 -44 93 -25 47 22 48 30 9 53 -41 25 -60 66 -70
153 -4 35 -13 79 -21 98 -8 18 -14 46 -14 61 0 30 -20 53 -36 42 -6 -4 -17
-24 -23 -44 -15 -46 -46 -71 -72 -58 -44 24 -189 -45 -189 -90 0 -11 -7 -20
-15 -20 -8 0 -15 9 -15 20 0 17 -5 19 -25 14 -22 -5 -25 -3 -25 22 0 15 -6 43
-12 62 -11 29 -10 36 3 46 9 6 20 27 24 46 4 19 16 52 28 72 l20 37 -31 39
c-43 54 -83 142 -76 167 4 11 15 28 25 38 25 24 24 43 -5 72 -30 30 -71 41
-91 25 -20 -16 -19 -34 1 -26 13 5 15 -6 11 -87 -3 -79 -8 -112 -17 -137 -1
-3 -2 -8 -1 -12 0 -5 -8 -8 -20 -8 -11 0 -17 4 -14 10 3 5 6 34 6 65 1 40 5
55 15 55 10 0 14 12 14 38 0 21 -2 41 -5 44 -12 11 -53 -5 -58 -23 -3 -12 -14
-19 -30 -19 -19 0 -26 -6 -31 -31 -3 -17 -1 -40 5 -52 9 -17 8 -23 -7 -34 -17
-12 -37 -16 -50 -10 -8 3 -72 -120 -90 -177 -14 -44 -46 -117 -74 -166 -50
-91 -60 -124 -60 -205 0 -78 -2 -87 -49 -182 -27 -54 -58 -121 -70 -148 -12
-28 -30 -66 -40 -85 -11 -19 -22 -50 -26 -69 -7 -32 -22 -68 -83 -202 -40 -88
-97 -123 -135 -84 -8 8 -38 17 -66 19 -29 3 -56 8 -61 11 -16 10 -12 31 10 50
23 21 17 37 -12 33 -16 -2 -24 5 -33 32 -6 19 -18 35 -26 35 -8 0 -24 10 -36
23 -15 14 -35 22 -56 22 -43 0 -50 -8 -32 -34 20 -27 19 -33 -6 -41 -11 -4
-18 -9 -15 -12 3 -3 1 -14 -4 -24 -12 -21 11 -49 40 -49 11 0 30 -5 43 -11 18
-8 22 -17 19 -39 -5 -36 -38 -49 -138 -57 -98 -8 -132 1 -188 47 -26 22 -66
45 -89 51 -69 18 -133 26 -153 18 -10 -4 -14 -8 -9 -8 7 -1 7 -4 0 -9 -33 -24
-60 -168 -59 -307 0 -87 19 -129 83 -193 74 -75 138 -108 268 -137 133 -30
224 -32 300 -5 127 44 297 80 393 82 86 1 100 -1 149 -26 56 -29 124 -93 270
-254 46 -51 113 -117 150 -147 36 -29 84 -69 106 -89 90 -81 195 -109 303 -82
34 9 109 25 166 35 56 11 127 31 157 45 75 36 170 110 262 205 72 73 84 81
135 92 107 24 168 18 251 -25 41 -21 101 -63 133 -94 51 -48 65 -56 101 -58
45 -2 46 -5 17 -44 -16 -21 -21 -23 -37 -12 -65 44 -87 36 -154 -58 -24 -34
-68 -86 -96 -116 -29 -29 -53 -58 -53 -63 0 -5 -18 -30 -39 -55 -55 -63 -77
-126 -63 -174 9 -29 9 -39 -3 -52 -25 -28 -18 -40 24 -40 l39 0 -19 50 c-21
55 -25 105 -9 115 6 3 10 14 10 24 0 9 14 30 31 47 17 16 38 43 46 59 20 39
63 85 80 85 8 0 23 19 33 43 24 51 87 131 107 135 25 6 53 -28 53 -65 0 -40
12 -42 31 -6 7 16 31 49 51 75 54 66 108 158 108 184 0 59 107 123 251 150 46
9 104 13 133 10 28 -3 111 -10 185 -15 98 -8 141 -15 161 -28 15 -10 48 -31
74 -48 27 -16 87 -59 135 -96 48 -36 110 -75 137 -86 75 -33 114 -84 114 -153
0 -20 11 -37 35 -59 38 -33 50 -37 61 -20 8 13 103 77 152 102 20 11 54 19 76
19 82 1 101 -9 182 -100 43 -48 84 -94 91 -102 11 -12 13 13 13 148 0 139 -2
161 -15 156 -8 -3 -19 -23 -25 -44 -11 -41 -20 -46 -88 -55 -38 -4 -43 -3 -38
13 32 111 -20 352 -90 413 -11 9 -37 19 -58 22 -21 4 -49 16 -62 28 -30 28
-62 104 -77 187 -11 56 -22 80 -60 128 -25 32 -58 86 -72 119 -15 34 -50 84
-80 115 -69 74 -87 111 -93 195 -2 38 -12 99 -22 135 -10 36 -23 85 -30 109
-8 29 -29 62 -62 97 -57 61 -70 97 -93 274 -8 63 -26 151 -40 195 -14 44 -25
96 -25 115 0 19 -14 64 -30 98 -17 35 -30 76 -30 92 0 15 -6 61 -14 101 -48
243 -48 246 -41 397 4 81 13 183 21 227 32 170 48 674 26 781 -6 28 -10 109
-10 180 1 71 -1 150 -5 176 -7 50 -40 122 -51 111 -3 -3 -6 0 -6 8 -1 17 -39
98 -40 84 0 -7 -3 -7 -8 0 -4 6 -18 16 -32 23 -14 7 -42 41 -63 75 -20 34 -43
69 -49 78 -10 14 -6 21 18 43 59 52 91 61 209 61 88 0 125 -5 185 -24 136 -43
410 -160 543 -232 106 -57 383 -189 398 -189 5 0 9 149 9 350 l0 350 -26 10
c-14 6 -40 22 -59 36 -22 16 -54 28 -92 34 -32 4 -74 16 -94 25 -52 25 -79 15
-109 -42 -15 -30 -33 -49 -45 -51 -36 -5 -85 57 -147 186 -33 67 -71 136 -85
153 -14 16 -69 59 -122 94 -53 36 -131 94 -173 129 -65 54 -85 66 -135 75 -32
6 -80 21 -108 32 -160 67 -226 83 -345 83 -95 1 -121 -2 -143 -17 l-27 -17 14
37 c8 21 21 63 30 93 8 30 31 82 51 114 26 44 30 55 14 40 -45 -40 -98 -148
-99 -200 0 -12 -7 -27 -15 -34 -8 -7 -19 -26 -24 -44 -5 -17 -15 -47 -22 -66
-6 -19 -14 -41 -15 -48 -5 -19 -44 4 -44 25 0 9 -8 25 -17 36 -16 16 -18 44
-20 196 -3 175 -2 178 22 211 29 39 35 81 10 60 -8 -7 -15 -9 -15 -5 0 4 7 13
16 20 14 10 12 16 -19 48 -19 20 -41 37 -49 37 -17 0 -86 71 -121 127 -30 47
-62 67 -122 77 -40 7 -105 55 -105 77 0 6 -13 26 -29 44 -16 18 -30 38 -33 45
-6 18 -93 30 -181 25 -49 -3 -86 0 -93 6 -16 13 -35 3 -28 -15 8 -21 -45 -26
-93 -10 -37 13 -47 13 -78 0 -19 -8 -35 -19 -35 -24 0 -5 -21 -6 -47 -1 -27 4
-52 3 -58 -2 -5 -5 -12 -9 -16 -9 -12 0 -21 72 -10 83 7 7 5 19 -5 39 -9 18
-14 53 -13 96 2 85 -21 195 -51 247 -48 82 -52 95 -41 109 8 10 6 20 -10 40
-11 14 -26 26 -33 26 -14 0 -52 49 -66 85 -5 14 -17 25 -26 25 -24 0 -88 60
-89 83 0 11 -6 22 -14 25 -10 3 -12 0 -8 -12 6 -14 1 -15 -36 -10 -23 4 -51
12 -63 19 -11 7 -43 16 -70 20 -27 4 -60 15 -74 24 -18 11 -48 16 -105 17 -44
0 -89 3 -100 7 -12 4 -25 3 -31 -3z m1441 -900 c-3 -5 -13 -10 -21 -10 -8 0
-14 5 -14 10 0 6 9 10 21 10 11 0 17 -4 14 -10z m-1365 -385 c42 -22 55 -49
39 -88 -7 -18 -19 -38 -27 -44 -32 -26 -133 -8 -152 27 -15 27 -1 78 28 100
30 24 72 26 112 5z m1114 -162 c63 -23 96 -54 96 -91 0 -35 -64 -127 -116
-167 -68 -52 -178 -44 -229 16 -58 69 -14 165 105 233 53 30 79 32 144 9z
m-1144 -88 c15 -18 5 -35 -20 -35 -22 0 -34 15 -26 35 7 19 30 19 46 0z m85
-35 c23 -26 13 -54 -17 -45 -33 10 -52 31 -45 49 9 22 40 20 62 -4z m-174 -3
c78 -16 125 -46 134 -87 10 -43 -8 -65 -88 -108 -39 -21 -94 -51 -120 -66 -38
-22 -55 -27 -83 -21 -70 13 -145 110 -130 168 3 14 25 33 58 50 29 15 73 38
97 52 51 29 45 28 132 12z m253 -44 c9 -22 -5 -34 -32 -27 -31 9 -30 44 2 44
13 0 27 -8 30 -17z m-1116 -26 c4 -31 -55 -140 -70 -131 -5 3 -5 11 -1 17 4 6
6 26 4 44 -1 18 3 49 9 69 9 28 17 34 33 32 16 -2 23 -11 25 -31z m-128 -57
c0 -5 -2 -10 -4 -10 -3 0 -8 5 -11 10 -3 6 -1 10 4 10 6 0 11 -4 11 -10z m49
-149 c-8 -55 -24 -91 -40 -91 -6 0 -8 8 -5 18 3 9 8 31 12 47 4 17 9 35 13 40
3 6 6 13 7 18 3 15 4 17 13 17 4 0 5 -22 0 -49z m2202 -201 c32 -22 62 -40 67
-40 5 0 15 -7 23 -16 24 -29 87 -54 138 -54 27 0 57 -3 66 -6 40 -16 60 -118
30 -160 -18 -27 -75 -54 -112 -54 -40 0 -67 22 -92 75 -24 52 -46 65 -65 40
-10 -14 -21 -16 -57 -11 -24 4 -72 9 -106 12 -62 6 -63 6 -73 42 -14 50 -13
71 6 125 18 53 54 87 92 87 15 0 52 -18 83 -40z m-313 -222 c24 -24 10 -109
-22 -130 -31 -21 -66 9 -66 57 0 25 8 40 31 59 35 29 40 31 57 14z m420 -2500
c22 -22 13 -62 -23 -100 -51 -57 -105 -51 -105 11 0 33 5 39 52 69 60 36 60
36 76 20z m-483 -940 c26 -12 33 -32 14 -43 -12 -8 -61 34 -53 46 7 11 8 11
39 -3z m-1622 -555 c-7 -2 -19 -2 -25 0 -7 3 -2 5 12 5 14 0 19 -2 13 -5z"></path>
<path d="M0 7807 c0 -11 31 -14 153 -13 150 1 152 1 155 -21 5 -36 22 -27 22
12 l0 35 -165 0 c-131 0 -165 -3 -165 -13z"></path>
<path d="M295 7719 c-4 -6 -5 -13 -2 -16 7 -7 27 6 27 18 0 12 -17 12 -25 -2z"></path>
<path d="M0 7700 c0 -6 48 -10 125 -10 77 0 125 4 125 10 0 6 -48 10 -125 10
-77 0 -125 -4 -125 -10z"></path>
<path d="M1772 7523 c-91 -3 -122 -7 -119 -16 2 -6 21 -13 43 -15 26 -2 45
-10 56 -25 15 -19 20 -20 39 -9 18 12 24 11 45 -9 21 -19 24 -20 30 -5 7 17
49 22 59 6 3 -5 17 -10 30 -10 13 0 26 -6 29 -12 3 -9 8 -8 16 5 22 35 75 10
75 -36 0 -11 6 -22 13 -24 23 -8 12 36 -17 64 -22 22 -38 28 -72 29 -84 2
-161 16 -150 27 7 7 93 13 221 15 116 3 210 8 210 13 0 8 -218 9 -508 2z"></path>
<path d="M108 7493 c-107 -4 -108 -4 -108 -28 0 -25 0 -25 100 -25 91 0 100 2
111 21 l11 21 24 -23 c23 -21 26 -22 41 -6 23 23 1 48 -41 45 -17 -1 -79 -4
-138 -5z"></path>
<path d="M2180 7370 c0 -5 5 -10 10 -10 6 0 10 5 10 10 0 6 -4 10 -10 10 -5 0
-10 -4 -10 -10z"></path>
<path d="M5 7199 c-10 -15 -7 -16 56 -22 58 -5 86 3 75 22 -9 14 -123 14 -131
0z"></path>
<path d="M4355 7109 c-4 -6 -5 -13 -2 -16 7 -7 27 6 27 18 0 12 -17 12 -25 -2z"></path>
<path d="M1510 7016 c0 -8 5 -18 10 -21 6 -3 10 3 10 14 0 12 -4 21 -10 21 -5
0 -10 -6 -10 -14z"></path>
<path d="M1500 6926 c0 -16 24 -38 33 -30 7 7 -14 44 -25 44 -5 0 -8 -6 -8
-14z"></path>
<path d="M1070 6913 c0 -3 11 -21 25 -39 14 -18 25 -40 25 -49 0 -37 47 -84
70 -70 13 8 -8 48 -60 113 -36 46 -60 64 -60 45z"></path>
<path d="M2100 6898 c0 -7 -23 -36 -51 -64 -28 -28 -47 -54 -42 -57 5 -3 26
14 47 38 20 25 42 44 49 42 7 -1 13 10 15 26 2 15 -1 27 -7 27 -6 0 -11 -5
-11 -12z"></path>
<path d="M6900 6900 c0 -5 23 -10 50 -10 28 0 50 5 50 10 0 6 -22 10 -50 10
-27 0 -50 -4 -50 -10z"></path>
<path d="M6575 6885 c-182 -14 -335 -35 -510 -70 -117 -24 -322 -78 -333 -89
-16 -17 15 -12 109 15 234 67 498 109 837 130 105 7 192 16 192 21 0 10 -96 8
-295 -7z"></path>
<path d="M2267 6836 c-26 -7 -49 -15 -50 -17 -39 -48 -50 -114 -23 -125 21 -8
77 24 111 64 37 44 45 64 33 80 -12 14 -10 14 -71 -2z"></path>
<path d="M943 6787 c2 -50 6 -54 25 -35 16 16 15 29 -8 58 l-19 25 2 -48z"></path>
<path d="M2100 6810 c0 -5 5 -10 10 -10 6 0 10 5 10 10 0 6 -4 10 -10 10 -5 0
-10 -4 -10 -10z"></path>
<path d="M1645 6783 c7 -30 13 -39 19 -32 8 8 -6 59 -16 59 -6 0 -7 -11 -3
-27z"></path>
<path d="M1846 6784 c-9 -22 3 -32 14 -14 12 19 12 30 1 30 -5 0 -12 -7 -15
-16z"></path>
<path d="M2080 6761 c0 -6 5 -13 10 -16 6 -3 10 1 10 9 0 9 -4 16 -10 16 -5 0
-10 -4 -10 -9z"></path>
<path d="M1680 6745 c0 -8 5 -15 10 -15 6 0 10 7 10 15 0 8 -4 15 -10 15 -5 0
-10 -7 -10 -15z"></path>
<path d="M1520 6733 c0 -10 -3 -29 -6 -43 -5 -18 -4 -22 4 -15 17 15 27 75 13
75 -6 0 -11 -8 -11 -17z"></path>
<path d="M1887 6743 c-4 -3 -7 -15 -7 -26 0 -16 3 -17 15 -7 8 7 15 19 15 26
0 15 -12 19 -23 7z"></path>
<path d="M455 6730 c-8 -12 20 -24 35 -15 6 3 8 11 5 16 -8 12 -32 12 -40 -1z"></path>
<path d="M2130 6725 c0 -8 2 -15 4 -15 2 0 6 7 10 15 3 8 1 15 -4 15 -6 0 -10
-7 -10 -15z"></path>
<path d="M905 6710 c8 -25 -4 -48 -16 -29 -10 17 -23 5 -16 -16 8 -19 41 -20
56 -2 8 10 7 21 -2 40 -14 31 -31 36 -22 7z"></path>
<path d="M970 6711 c-6 -12 -6 -22 -1 -26 6 -3 15 3 21 14 6 12 6 22 1 26 -6
3 -15 -3 -21 -14z"></path>
<path d="M5680 6713 c-39 -14 -87 -38 -109 -55 -31 -24 -20 -23 23 1 19 11 53
25 75 32 23 7 41 16 41 21 0 9 -7 9 -30 1z"></path>
<path d="M1327 6694 c-4 -4 -7 -17 -7 -30 0 -16 -5 -21 -17 -18 -13 3 -23 -7
-37 -35 -23 -48 -11 -71 35 -71 33 0 36 7 12 26 -15 11 -15 15 -5 22 12 8 28
32 48 70 8 15 -18 46 -29 36z"></path>
<path d="M1190 6680 c0 -5 5 -10 10 -10 6 0 10 5 10 10 0 6 -4 10 -10 10 -5 0
-10 -4 -10 -10z"></path>
<path d="M1940 6670 c-9 -16 -7 -22 7 -27 10 -4 21 -11 25 -17 4 -6 10 -7 14
-3 4 4 2 13 -4 19 -7 7 -12 20 -12 30 0 24 -17 23 -30 -2z"></path>
<path d="M1667 6658 c-6 -21 -2 -36 7 -27 10 11 16 49 8 49 -5 0 -12 -10 -15
-22z"></path>
<path d="M1595 6658 c-2 -7 -6 -26 -7 -43 -3 -28 -1 -30 31 -30 19 0 36 6 39
13 2 8 -5 11 -20 10 -19 -3 -23 1 -20 24 3 28 -15 49 -23 26z"></path>
<path d="M930 6625 c-13 -14 -21 -28 -18 -31 9 -9 58 27 58 42 0 21 -14 17
-40 -11z"></path>
<path d="M1478 6600 c-18 -43 -38 -53 -38 -20 0 23 -13 26 -29 6 -16 -19 16
-73 32 -57 19 19 29 12 23 -15 -9 -33 14 -28 31 7 15 32 21 111 8 115 -5 2
-18 -14 -27 -36z"></path>
<path d="M853 6609 c3 -12 1 -29 -5 -36 -15 -18 6 -43 23 -26 14 14 7 75 -10
81 -10 3 -12 -1 -8 -19z"></path>
<path d="M1210 6606 c0 -17 14 -29 23 -20 8 8 -3 34 -14 34 -5 0 -9 -6 -9 -14z"></path>
<path d="M1720 6610 c0 -5 5 -10 10 -10 6 0 10 5 10 10 0 6 -4 10 -10 10 -5 0
-10 -4 -10 -10z"></path>
<path d="M5485 6590 c-16 -16 -25 -33 -22 -37 4 -3 8 -4 10 -2 1 2 15 19 31
37 37 40 20 43 -19 2z"></path>
<path d="M1058 6565 c-25 -18 -58 -50 -73 -69 -15 -20 -33 -36 -41 -36 -22 0
-28 -22 -9 -36 17 -13 17 -15 2 -32 -19 -20 -22 -42 -8 -42 6 0 13 5 16 10 15
24 35 9 35 -25 0 -39 15 -47 23 -12 3 12 9 32 12 45 7 19 4 22 -23 22 -21 0
-31 6 -35 20 -3 11 1 23 8 28 7 4 14 16 16 27 3 12 14 21 27 23 24 4 29 -7 11
-25 -6 -6 -8 -17 -4 -23 11 -18 44 28 45 61 0 15 12 37 30 54 29 28 38 45 23
45 -5 0 -29 -16 -55 -35z"></path>
<path d="M1360 6585 c0 -9 5 -15 11 -13 6 2 11 8 11 13 0 5 -5 11 -11 13 -6 2
-11 -4 -11 -13z"></path>
<path d="M1881 6559 c-18 -22 -31 -43 -28 -46 8 -7 96 60 97 75 0 26 -38 10
-69 -29z"></path>
<path d="M971 6566 c-13 -14 -29 -22 -35 -20 -7 3 -19 -2 -26 -11 -11 -13 -11
-19 4 -33 17 -16 20 -15 57 27 21 24 39 47 39 52 0 16 -16 10 -39 -15z"></path>
<path d="M1680 6580 c0 -5 5 -10 11 -10 5 0 7 5 4 10 -3 6 -8 10 -11 10 -2 0
-4 -4 -4 -10z"></path>
<path d="M2020 6555 c-9 -11 -10 -19 -3 -26 7 -7 14 -5 23 6 9 11 10 19 3 26
-7 7 -14 5 -23 -6z"></path>
<path d="M806 6535 c4 -8 11 -15 16 -15 6 0 5 6 -2 15 -7 8 -14 15 -16 15 -2
0 -1 -7 2 -15z"></path>
<path d="M1170 6520 c-8 -5 -11 -12 -8 -15 9 -10 88 5 88 16 0 12 -61 11 -80
-1z"></path>
<path d="M1905 6498 c-9 -14 -11 -24 -5 -26 13 -5 60 25 60 38 0 19 -39 10
-55 -12z"></path>
<path d="M1546 6494 c-4 -10 -1 -14 6 -12 15 5 23 28 10 28 -5 0 -13 -7 -16
-16z"></path>
<path d="M2065 6500 c-3 -5 1 -10 10 -10 9 0 13 5 10 10 -3 6 -8 10 -10 10 -2
0 -7 -4 -10 -10z"></path>
<path d="M1260 6491 c0 -6 6 -11 13 -11 7 0 18 -9 25 -20 13 -22 67 -29 60 -7
-3 6 -13 14 -24 16 -10 2 -21 7 -24 11 -9 13 -50 22 -50 11z"></path>
<path d="M1586 6455 c-22 -19 -37 -38 -34 -41 12 -11 87 47 88 69 0 14 -15 6
-54 -28z"></path>
<path d="M1725 6471 c-3 -5 -2 -12 3 -15 12 -7 52 4 52 15 0 12 -47 12 -55 0z"></path>
<path d="M810 6457 c0 -8 9 -22 20 -32 16 -15 23 -16 33 -6 9 9 7 16 -13 31
-30 23 -40 25 -40 7z"></path>
<path d="M755 6450 c-7 -12 2 -30 16 -30 12 0 12 27 0 35 -5 3 -12 1 -16 -5z"></path>
<path d="M1220 6450 c0 -5 9 -10 20 -10 11 0 20 5 20 10 0 6 -9 10 -20 10 -11
0 -20 -4 -20 -10z"></path>
<path d="M1860 6434 c-15 -38 -12 -54 9 -54 12 0 20 9 24 27 10 52 -16 73 -33
27z"></path>
<path d="M1145 6441 c-16 -4 -41 -13 -54 -21 l-25 -13 26 -21 c13 -12 28 -29
31 -38 8 -22 27 -24 27 -4 0 20 16 29 40 21 26 -8 25 -21 -1 -28 -42 -11 -7
-24 67 -25 84 -1 96 -6 70 -25 -17 -12 -16 -14 9 -31 28 -18 47 -14 27 6 -9 9
-8 16 5 30 23 26 2 46 -58 54 -42 6 -47 9 -37 21 8 11 24 14 50 10 27 -4 38
-1 38 8 0 18 -76 30 -94 16 -10 -8 -17 -7 -26 4 -7 8 -19 15 -27 15 -7 0 -16
7 -19 15 -4 8 -9 15 -13 14 -3 -1 -19 -4 -36 -8z m56 -48 c13 -15 12 -15 -8
-4 -24 12 -29 21 -14 21 5 0 15 -7 22 -17z"></path>
<path d="M1423 6423 c-22 -8 -14 -21 17 -28 35 -8 51 0 43 20 -5 15 -35 19
-60 8z"></path>
<path d="M1735 6411 c-6 -11 9 -23 19 -14 9 9 7 23 -3 23 -6 0 -12 -4 -16 -9z"></path>
<path d="M1500 6400 c0 -5 5 -10 10 -10 6 0 10 5 10 10 0 6 -4 10 -10 10 -5 0
-10 -4 -10 -10z"></path>
<path d="M2005 6390 c-3 -5 -15 -10 -26 -10 -10 0 -19 -4 -19 -10 0 -13 4 -13
51 2 22 6 39 15 39 20 0 11 -38 10 -45 -2z"></path>
<path d="M874 6370 c3 -14 6 -28 6 -32 0 -5 5 -8 10 -8 15 0 12 24 -6 46 -15
18 -15 18 -10 -6z"></path>
<path d="M1630 6379 c0 -5 5 -7 10 -4 6 3 10 8 10 11 0 2 -4 4 -10 4 -5 0 -10
-5 -10 -11z"></path>
<path d="M1498 6363 c-26 -7 -22 -40 8 -59 31 -21 46 -9 36 31 -9 30 -16 35
-44 28z"></path>
<path d="M1920 6360 c0 -5 5 -10 10 -10 6 0 10 5 10 10 0 6 -4 10 -10 10 -5 0
-10 -4 -10 -10z"></path>
<path d="M1035 6350 c-3 -6 -3 -19 0 -31 6 -19 8 -20 26 -3 10 9 19 23 19 31
0 15 -36 18 -45 3z"></path>
<path d="M670 6343 c0 -14 19 -38 25 -32 8 8 -5 39 -16 39 -5 0 -9 -3 -9 -7z"></path>
<path d="M1565 6340 c3 -5 8 -10 11 -10 2 0 4 5 4 10 0 6 -5 10 -11 10 -5 0
-7 -4 -4 -10z"></path>
<path d="M2015 6324 c-29 -24 -30 -25 -10 -40 17 -13 21 -12 44 10 14 15 21
31 18 40 -8 21 -17 20 -52 -10z"></path>
<path d="M724 6314 c3 -9 6 -18 6 -20 0 -3 12 -9 26 -14 22 -9 24 -13 14 -25
-10 -12 -8 -25 13 -67 32 -67 41 -98 29 -98 -13 0 -62 72 -62 91 0 18 -47 65
-56 56 -4 -3 2 -19 12 -34 38 -56 41 -67 25 -79 -12 -10 -6 -16 37 -38 75 -38
77 -37 79 44 1 40 -2 70 -7 70 -6 0 -10 -7 -10 -15 0 -8 -4 -15 -10 -15 -5 0
-10 16 -10 35 0 40 -26 99 -40 90 -5 -3 -14 4 -20 15 -13 24 -35 27 -26 4z"></path>
<path d="M820 6325 c0 -14 31 -65 40 -65 5 0 12 10 16 22 4 15 1 25 -12 35
-18 13 -44 18 -44 8z"></path>
<path d="M1080 6305 c-7 -8 -10 -19 -6 -22 9 -9 38 8 38 22 -1 16 -18 16 -32
0z"></path>
<path d="M1406 6274 c2 -55 8 -62 32 -40 11 9 26 14 36 10 9 -3 16 -3 16 0 0
11 -66 76 -76 76 -6 0 -9 -21 -8 -46z"></path>
<path d="M1850 6310 c0 -5 11 -10 24 -10 14 0 28 5 31 10 4 6 -7 10 -24 10
-17 0 -31 -4 -31 -10z"></path>
<path d="M913 6264 c-7 -7 -10 -20 -7 -28 9 -23 26 -20 19 3 -4 14 0 20 12 23
15 3 15 5 3 10 -8 3 -21 0 -27 -8z"></path>
<path d="M1800 6272 c0 -14 73 -34 94 -26 27 10 18 24 -16 24 -18 0 -43 3 -55
6 -14 4 -23 2 -23 -4z"></path>
<path d="M1747 6263 c-10 -17 13 -53 33 -53 11 0 20 2 20 4 0 12 -49 56 -53
49z"></path>
<path d="M1960 6260 c0 -5 7 -10 15 -10 8 0 15 5 15 10 0 6 -7 10 -15 10 -8 0
-15 -4 -15 -10z"></path>
<path d="M1215 6251 c-3 -5 -1 -12 5 -16 12 -7 30 2 30 16 0 12 -27 12 -35 0z"></path>
<path d="M1140 6221 c-14 -4 -25 -13 -25 -21 0 -22 18 -21 50 5 30 25 23 29
-25 16z"></path>
<path d="M1470 6212 c0 -10 51 -24 59 -16 7 6 -2 12 -32 19 -16 4 -27 3 -27
-3z"></path>
<path d="M2045 6200 c-11 -5 -32 -9 -47 -9 -16 -1 -28 -6 -28 -11 0 -7 21 -9
63 -4 69 7 72 8 62 23 -7 13 -22 13 -50 1z"></path>
<path d="M874 6167 c-9 -25 0 -90 14 -95 6 -2 12 4 12 13 0 14 3 15 15 5 21
-18 19 -41 -5 -47 -11 -3 -20 -9 -20 -14 0 -5 -13 -15 -30 -24 -16 -9 -30 -20
-30 -25 0 -15 26 -12 40 5 7 9 35 28 61 43 54 30 63 57 24 72 -13 5 -31 23
-39 39 -20 37 -34 47 -42 28z"></path>
<path d="M1046 6172 c-3 -6 -1 -14 5 -17 15 -10 25 3 12 16 -7 7 -13 7 -17 1z"></path>
<path d="M1830 6170 c0 -5 7 -10 15 -10 8 0 15 5 15 10 0 6 -7 10 -15 10 -8 0
-15 -4 -15 -10z"></path>
<path d="M1745 6160 c-3 -6 1 -13 10 -16 19 -8 30 0 20 15 -8 14 -22 14 -30 1z"></path>
<path d="M420 6150 c0 -5 5 -10 10 -10 6 0 10 5 10 10 0 6 -4 10 -10 10 -5 0
-10 -4 -10 -10z"></path>
<path d="M1898 6153 c-19 -5 -25 -23 -9 -23 17 0 41 12 41 21 0 9 -4 10 -32 2z"></path>
<path d="M1070 6130 c0 -5 5 -10 11 -10 5 0 7 5 4 10 -3 6 -8 10 -11 10 -2 0
-4 -4 -4 -10z"></path>
<path d="M1966 6115 c-27 -20 -8 -42 22 -26 14 8 29 8 47 1 32 -12 35 -12 35
-1 0 9 -61 41 -77 41 -4 0 -17 -7 -27 -15z"></path>
<path d="M646 6093 c11 -52 14 -57 26 -45 8 8 8 19 -2 41 -16 38 -32 41 -24 4z"></path>
<path d="M1010 6101 c0 -6 5 -13 10 -16 6 -3 10 1 10 9 0 9 -4 16 -10 16 -5 0
-10 -4 -10 -9z"></path>
<path d="M434 6085 c-4 -8 -1 -21 4 -28 6 -7 9 -22 6 -34 -4 -15 0 -23 15 -28
36 -11 24 -28 -15 -21 -30 6 -35 5 -32 -10 7 -37 77 -26 102 17 15 25 16 34 5
58 -7 16 -25 36 -40 45 -33 20 -38 20 -45 1z m62 -52 c-10 -10 -19 5 -10 18 6
11 8 11 12 0 2 -7 1 -15 -2 -18z"></path>
<path d="M2102 6078 c5 -15 37 -18 41 -3 1 6 -9 12 -22 13 -16 3 -22 -1 -19
-10z"></path>
<path d="M760 6040 c0 -13 28 -25 38 -16 3 4 0 11 -8 16 -20 13 -30 12 -30 0z"></path>
<path d="M2036 6041 c-3 -5 -14 -7 -25 -4 -13 3 -20 -2 -24 -18 -8 -31 -4 -33
26 -9 14 11 30 20 36 20 6 0 11 5 11 10 0 12 -17 13 -24 1z"></path>
<path d="M673 6013 c-9 -22 16 -41 60 -46 23 -3 49 -7 57 -9 8 -1 16 2 18 7 2
6 -5 12 -15 13 -10 2 -29 15 -43 28 -27 24 -69 28 -77 7z"></path>
<path d="M620 5960 c0 -5 5 -10 10 -10 6 0 10 5 10 10 0 6 -4 10 -10 10 -5 0
-10 -4 -10 -10z"></path>
<path d="M290 5940 c0 -11 5 -20 10 -20 6 0 10 9 10 20 0 11 -4 20 -10 20 -5
0 -10 -9 -10 -20z"></path>
<path d="M353 5900 c-9 -25 -9 -30 3 -30 18 0 18 -24 0 -39 -21 -17 -29 -66
-16 -90 14 -26 46 -29 35 -3 -21 47 -12 66 43 92 58 28 63 40 27 64 -32 21
-35 21 -35 -10 0 -22 -2 -25 -15 -14 -8 7 -15 23 -15 36 0 33 -13 30 -27 -6z"></path>
<path d="M750 5920 c0 -5 5 -10 10 -10 6 0 10 5 10 10 0 6 -4 10 -10 10 -5 0
-10 -4 -10 -10z"></path>
<path d="M680 5900 c0 -13 28 -25 38 -16 3 4 0 11 -8 16 -20 13 -30 12 -30 0z"></path>
<path d="M488 5859 c-6 -4 -2 -9 11 -14 21 -6 41 0 41 13 0 10 -37 10 -52 1z"></path>
<path d="M230 5836 c0 -9 5 -16 10 -16 6 0 10 4 10 9 0 6 -4 13 -10 16 -5 3
-10 -1 -10 -9z"></path>
<path d="M264 5803 c-4 -10 -12 -32 -20 -50 -8 -17 -14 -40 -14 -51 0 -12 -4
-24 -10 -27 -19 -12 -10 -26 11 -20 20 7 21 5 15 -21 -4 -16 -14 -36 -22 -45
-20 -22 -18 -29 9 -29 32 0 69 40 57 60 -14 21 -12 30 5 30 19 0 19 14 0 30
-15 12 -12 55 6 74 7 8 -16 66 -27 66 -2 0 -7 -8 -10 -17z m6 -83 c0 -5 -4
-10 -10 -10 -5 0 -10 5 -10 10 0 6 5 10 10 10 6 0 10 -4 10 -10z"></path>
<path d="M165 5620 c-10 -11 -15 -23 -12 -27 8 -7 47 25 47 39 0 14 -16 9 -35
-12z"></path>
<path d="M1315 5520 c-71 -41 -194 -83 -274 -94 -27 -4 -103 -38 -194 -87 -82
-43 -186 -92 -231 -108 -131 -46 -199 -82 -184 -96 9 -10 267 93 403 160 110
55 174 80 241 94 108 24 123 30 226 81 44 22 93 40 111 40 33 0 223 -91 282
-135 50 -37 86 -52 192 -78 93 -24 140 -44 262 -112 24 -14 57 -25 72 -25 33
0 114 -18 146 -33 12 -5 27 -24 33 -41 6 -17 28 -65 48 -106 33 -70 36 -84 44
-205 4 -71 12 -161 18 -200 23 -161 24 -204 5 -225 -10 -11 -23 -54 -31 -100
-16 -88 -27 -116 -84 -200 -46 -67 -244 -286 -300 -332 -23 -18 -62 -50 -87
-71 -24 -20 -57 -44 -71 -51 -33 -17 -85 -72 -141 -148 -43 -58 -73 -84 -149
-132 l-44 -27 7 31 c9 40 132 168 275 285 58 47 138 125 179 173 152 179 175
229 49 106 -46 -44 -99 -91 -118 -104 l-35 -24 33 39 c91 110 115 142 133 178
25 48 17 60 -13 21 -12 -16 -49 -56 -82 -89 -86 -85 -194 -167 -130 -98 56 60
116 145 140 199 36 81 26 102 -15 30 -36 -65 -162 -191 -256 -257 l-60 -42 76
79 c76 78 179 234 155 234 -6 0 -51 -42 -99 -94 -80 -87 -261 -236 -286 -236
-6 0 -18 14 -26 31 -16 30 -16 31 20 72 20 23 57 61 83 85 l46 42 -35 0 c-24
0 -57 -14 -106 -44 -63 -39 -73 -42 -86 -29 -10 10 -13 27 -10 53 5 35 3 38
-33 56 -36 18 -40 23 -48 76 -4 32 -5 73 -2 91 6 32 10 35 63 47 55 12 191 77
281 134 48 30 97 100 113 161 15 55 -3 135 -41 175 -30 32 -37 35 -59 21 -12
-8 -9 -15 13 -42 26 -30 27 -37 21 -88 -4 -31 -12 -62 -17 -68 -19 -23 -28 -2
-22 50 3 31 0 70 -8 97 -11 36 -19 46 -43 51 -50 12 -114 38 -235 94 -63 29
-142 59 -175 65 -33 7 -91 19 -130 27 -82 17 -163 10 -197 -16 -74 -58 -224
-95 -348 -87 -47 3 -102 8 -123 12 -21 4 -37 3 -37 -3 0 -5 43 -15 95 -23 106
-14 248 -7 324 16 56 17 51 17 51 1 0 -59 -164 -79 -410 -51 -41 4 -59 3 -67
-8 -10 -11 -5 -13 28 -10 21 2 78 -4 126 -13 58 -12 110 -16 154 -12 75 6 86
2 62 -25 -21 -23 -72 -23 -207 -1 -95 15 -156 13 -156 -5 0 -4 28 -7 63 -8 74
0 219 -33 214 -48 -2 -6 -17 -10 -33 -8 -166 14 -204 14 -229 -2 -33 -22 -40
-18 -40 24 0 29 -6 38 -38 60 l-39 24 28 23 c16 12 25 25 22 28 -3 4 -21 -7
-39 -23 -26 -23 -44 -29 -76 -29 -24 0 -43 4 -43 8 0 5 5 9 12 9 6 0 9 3 5 6
-3 3 -19 -3 -35 -15 -17 -12 -35 -21 -41 -21 -21 0 -11 20 18 35 44 22 48 38
6 20 -21 -8 -55 -31 -76 -50 -26 -24 -49 -35 -69 -35 -39 0 -41 -27 -2 -33
l27 -4 -27 -2 c-19 -1 -28 -6 -28 -18 0 -18 3 -19 100 -27 48 -4 100 -24 100
-38 0 -5 6 -6 13 -2 8 5 8 2 -2 -9 -7 -9 -10 -17 -5 -17 16 -1 -41 -29 -59
-30 -9 0 -47 -13 -82 -29 l-65 -30 0 -570 0 -571 43 0 c23 0 60 -5 82 -10 22
-6 106 -14 187 -20 l148 -10 115 -116 c63 -65 113 -119 111 -121 -2 -2 -31 -8
-65 -14 -54 -8 -67 -7 -112 12 -42 18 -61 21 -122 16 -57 -5 -101 0 -217 23
-80 17 -151 30 -157 30 -9 0 -13 -15 -13 -44 l0 -44 73 -12 c39 -6 105 -18
146 -26 40 -8 121 -14 180 -14 73 -1 114 -5 131 -15 32 -19 111 -19 180 0 79
21 115 19 160 -11 22 -15 40 -30 40 -34 0 -4 -21 -28 -47 -53 -33 -32 -52 -62
-64 -99 l-17 -53 30 -55 c17 -30 35 -58 40 -61 5 -3 -7 -16 -27 -28 -43 -25
-52 -27 -35 -6 10 12 10 15 -1 15 -23 0 -42 -17 -35 -29 5 -7 -6 -17 -28 -26
-44 -19 -57 -19 -50 -2 8 21 -65 44 -194 63 -120 17 -145 15 -140 -13 2 -15
-6 -19 -47 -21 -62 -4 -75 -19 -75 -92 l0 -56 -48 -17 c-26 -9 -75 -17 -109
-17 l-63 0 0 -500 c0 -344 3 -500 11 -500 9 0 70 34 182 102 21 13 46 30 55
38 29 26 145 98 184 114 20 9 57 20 83 26 26 6 83 28 128 50 45 22 87 40 93
40 7 0 33 9 59 20 26 11 90 25 143 31 54 6 142 19 197 29 161 30 379 43 511
30 106 -10 116 -10 159 9 25 11 45 19 45 17 0 -2 -9 -29 -20 -62 -22 -66 -25
-100 -10 -109 6 -4 10 6 10 22 0 15 7 37 15 47 8 11 15 30 15 42 0 13 4 33 9
46 5 13 12 35 15 49 7 33 56 94 98 122 35 24 183 113 208 126 15 8 65 195 90
336 16 92 56 250 77 300 45 107 89 197 135 273 27 45 60 109 73 142 43 110
172 294 240 343 14 10 25 21 25 25 0 4 -60 7 -133 7 -135 1 -219 14 -270 44
l-28 16 -76 -80 c-268 -282 -279 -290 -312 -227 -21 40 -51 27 -127 -54 l-72
-77 -42 7 c-49 8 -100 32 -100 47 0 10 154 182 229 257 19 19 53 46 75 60 58
38 259 226 317 297 27 33 78 95 112 137 35 43 82 111 106 152 37 65 43 85 52
166 5 52 16 104 26 120 15 26 15 38 4 127 -8 54 -17 158 -21 230 -7 132 -7
134 -53 225 -25 51 -49 105 -52 119 -4 15 -19 38 -33 52 -33 31 -136 67 -192
67 -32 0 -60 12 -126 52 -67 41 -108 58 -196 80 -94 24 -125 37 -192 82 -45
29 -117 72 -162 95 -109 55 -153 56 -249 1z m-150 -699 c6 -3 -25 -8 -68 -12
-73 -5 -79 -7 -112 -41 -18 -21 -39 -56 -45 -79 -23 -83 11 -201 77 -271 l25
-26 -73 -4 c-70 -3 -129 8 -189 35 -24 10 -24 11 -4 14 41 7 58 40 65 121 6
66 14 90 54 166 59 108 76 119 185 110 41 -4 80 -9 85 -13z m-95 -45 c0 -2
-16 -16 -36 -31 l-36 -28 17 26 c9 14 24 28 33 30 9 3 18 5 20 6 1 0 2 -1 2
-3z m-430 -216 c21 -11 28 -54 10 -65 -5 -3 -29 -1 -52 6 -24 6 -74 14 -113
18 -76 7 -92 24 -45 49 29 15 167 10 200 -8z m1030 -20 c-6 -12 -14 -20 -17
-17 -2 3 1 14 8 26 17 26 24 19 9 -9z m-642 -18 c12 -20 30 -48 39 -61 14 -19
15 -23 3 -19 -19 6 -80 85 -80 104 0 24 14 15 38 -24z m345 31 c11 -10 -24
-43 -45 -43 -18 0 -26 29 -11 43 8 9 48 9 56 0z m-800 -87 c43 -8 80 -16 83
-19 3 -2 -9 -10 -27 -17 -17 -7 -42 -30 -55 -51 -52 -82 -109 -56 -148 69 -11
34 30 39 147 18z m825 -3 c29 -3 49 -9 45 -13 -14 -13 -93 -23 -93 -12 0 6
-10 12 -22 14 -12 2 -24 9 -26 17 -4 11 1 12 19 7 13 -4 48 -9 77 -13z m-210
-104 c17 -7 29 -6 36 1 5 5 22 10 37 10 38 0 47 -40 18 -81 -18 -25 -27 -30
-50 -25 -17 3 -32 0 -39 -9 -7 -8 -21 -17 -32 -21 -12 -3 -41 -21 -65 -40 -25
-19 -65 -39 -89 -45 -25 -6 -66 -29 -93 -50 -50 -40 -79 -49 -85 -26 -23 78
-40 108 -69 121 -38 16 -61 40 -87 92 -25 48 -25 75 -1 105 18 22 20 22 77 10
33 -7 80 -19 107 -28 29 -9 62 -12 85 -8 28 4 59 -1 114 -19 86 -29 99 -31
115 -15 9 9 0 23 -35 56 -34 33 -37 37 -8 13 21 -17 50 -36 64 -41z m270 53
c10 -7 9 -15 -3 -39 -13 -26 -22 -32 -57 -35 -26 -2 -45 1 -52 10 -6 7 -20 22
-30 32 -20 20 -18 23 29 33 35 8 99 7 113 -1z m-807 -238 c62 -43 119 -94 119
-106 0 -19 -68 -7 -95 18 -15 14 -33 23 -39 21 -13 -5 -50 44 -61 81 -10 33
14 28 76 -14z m1024 -674 c-21 -22 -41 -37 -44 -34 -5 5 68 73 79 74 2 0 -13
-18 -35 -40z m-1519 -151 c16 -6 73 -13 128 -14 75 -3 102 -8 117 -21 52 -47
-8 -58 -126 -24 -39 11 -95 24 -125 29 -77 13 -111 27 -104 44 6 15 50 10 110
-14z m1324 -353 c0 -59 -8 -70 -52 -72 -41 -2 -54 20 -33 53 56 88 85 95 85
19z m-1013 -548 c6 -5 28 -6 49 -2 29 5 36 4 32 -7 -6 -18 -78 -59 -93 -52 -7
2 -30 -3 -50 -12 -45 -18 -55 -13 -30 15 10 11 14 20 9 20 -13 0 -16 43 -3 50
13 8 71 0 86 -12z"></path>
<path d="M840 4290 c0 -5 4 -10 9 -10 6 0 13 5 16 10 3 6 -1 10 -9 10 -9 0
-16 -4 -16 -10z"></path>
<path d="M950 4290 c-21 -13 -13 -17 53 -24 48 -6 57 -5 57 8 0 12 -10 16 -34
16 -19 0 -40 2 -48 5 -7 3 -20 1 -28 -5z"></path>
<path d="M890 4270 c0 -5 7 -10 15 -10 8 0 15 5 15 10 0 6 -7 10 -15 10 -8 0
-15 -4 -15 -10z"></path>
<path d="M160 5535 c-21 -25 -1 -31 23 -7 17 18 18 22 5 22 -8 0 -21 -7 -28
-15z"></path>
<path d="M1402 5313 c-133 -157 -184 -229 -169 -241 29 -23 53 -22 77 3 28 30
38 31 85 8 31 -15 35 -21 35 -55 0 -32 5 -40 31 -54 41 -21 45 -14 53 96 4 49
15 129 26 177 27 122 26 147 -5 161 -14 7 -30 12 -34 12 -4 0 -49 -48 -99
-107z m43 -139 c-6 -36 -24 -44 -45 -19 -10 12 -7 22 16 52 24 31 29 35 32 19
2 -10 1 -33 -3 -52z"></path>
<path d="M1183 5379 c-18 -5 -47 -12 -65 -17 -29 -7 -38 -20 -100 -142 -81
-159 -86 -188 -30 -173 15 3 25 18 32 43 12 46 38 78 65 82 21 3 21 4 8 -75
l-6 -38 34 3 c30 3 34 7 37 33 4 51 23 109 43 130 29 32 62 135 48 152 -13 15
-20 15 -66 2z m1 -71 c-17 -56 -25 -69 -50 -78 -38 -15 -45 -4 -27 38 25 54
33 62 60 62 21 0 23 -3 17 -22z"></path>
<path d="M831 5274 c-62 -29 -73 -37 -68 -54 10 -39 -122 -117 -242 -141 -33
-7 -61 -17 -61 -21 0 -12 28 -9 105 11 79 20 109 34 180 85 29 21 53 32 58 27
15 -15 0 -28 -96 -86 -72 -42 -105 -56 -149 -61 -77 -9 -77 -28 0 -21 46 4 77
15 148 56 62 35 92 47 99 40 11 -13 15 -10 -99 -74 -98 -56 -136 -66 -203 -58
-35 4 -53 2 -53 -5 0 -6 30 -14 67 -18 66 -7 67 -6 166 45 69 35 104 48 111
41 14 -14 4 -22 -99 -75 l-90 -47 -92 6 c-101 8 -129 -6 -40 -19 91 -14 144
-7 230 30 88 38 103 41 109 23 4 -10 10 -9 28 3 23 15 23 20 24 165 l1 149 34
5 c19 3 36 11 39 18 6 20 -29 13 -107 -24z"></path>
<path d="M0 5262 c0 -17 4 -33 8 -36 5 -3 21 -23 36 -45 l28 -40 -26 -31 c-14
-18 -26 -42 -26 -56 0 -13 -4 -24 -10 -24 -6 0 -10 -57 -10 -150 0 -82 3 -150
6 -150 3 0 31 20 62 43 31 24 78 56 105 71 26 15 47 31 47 34 0 4 -18 17 -40
30 -42 24 -114 106 -126 144 -5 16 -2 25 11 33 62 37 62 34 0 120 -31 44 -59
82 -61 84 -2 2 -4 -10 -4 -27z"></path>
<path d="M1759 5254 c-10 -13 -10 -17 2 -25 8 -5 17 -9 22 -9 16 0 4 -19 -78
-123 -73 -92 -88 -107 -108 -102 -26 7 -67 -29 -51 -44 5 -5 42 -18 83 -31
l75 -22 17 24 c17 22 17 24 -7 43 l-25 20 83 107 c79 101 85 107 114 102 21
-4 34 0 44 11 18 22 6 30 -68 49 -79 20 -86 20 -103 0z"></path>
<path d="M5295 5230 c-3 -5 3 -10 14 -10 12 0 21 5 21 10 0 6 -6 10 -14 10 -8
0 -18 -4 -21 -10z"></path>
<path d="M422 5218 c-16 -16 -15 -28 2 -28 7 0 16 9 19 20 6 23 -3 26 -21 8z"></path>
<path d="M5020 5211 c0 -11 40 -22 52 -15 5 3 6 10 3 15 -8 12 -55 12 -55 0z"></path>
<path d="M5160 5180 c-12 -7 -11 -12 4 -29 22 -25 12 -44 -21 -38 -31 6 -42
-18 -19 -41 16 -16 18 -16 27 1 6 9 19 17 30 17 23 0 36 27 20 43 -6 6 -11 19
-11 28 0 23 -12 30 -30 19z"></path>
<path d="M1995 5129 c-27 -22 -94 -84 -147 -137 -75 -74 -95 -99 -86 -109 21
-26 47 -12 112 58 37 40 68 70 70 68 2 -2 -14 -43 -37 -92 -22 -48 -37 -90
-34 -93 16 -16 60 14 152 102 55 52 122 111 148 132 43 33 46 38 30 49 -9 7
-20 13 -23 13 -3 0 -35 -22 -70 -49 -36 -27 -67 -47 -68 -46 -2 2 13 29 33 60
28 45 33 60 24 71 -19 24 -52 15 -104 -27z"></path>
<path d="M5480 5131 c0 -21 20 -61 30 -61 19 0 7 64 -12 68 -10 2 -18 -1 -18
-7z"></path>
<path d="M390 5090 c0 -5 5 -10 10 -10 6 0 10 5 10 10 0 6 -4 10 -10 10 -5 0
-10 -4 -10 -10z"></path>
<path d="M4883 5076 c-24 -11 -31 -26 -12 -26 5 0 9 -10 7 -22 -2 -15 2 -23
12 -23 10 0 14 9 13 29 -1 17 3 36 9 43 12 15 2 15 -29 -1z"></path>
<path d="M375 5018 c-9 -55 -17 -64 -77 -90 -26 -11 -48 -25 -48 -30 0 -6 8
-7 18 -3 9 4 36 15 60 23 49 17 57 28 65 95 8 58 -9 63 -18 5z"></path>
<path d="M440 5010 c0 -5 5 -10 10 -10 6 0 10 5 10 10 0 6 -4 10 -10 10 -5 0
-10 -4 -10 -10z"></path>
<path d="M968 5001 c-16 -5 -51 -26 -78 -46 -28 -20 -97 -55 -153 -77 -101
-39 -103 -39 -222 -36 l-120 3 -13 -28 c-8 -15 -23 -32 -35 -37 -29 -12 -85
-59 -70 -60 6 0 38 21 72 46 l61 46 102 -11 c113 -11 142 -7 259 35 67 24 99
42 169 91 20 15 45 18 155 17 157 -2 231 -16 310 -59 33 -19 101 -45 150 -59
50 -14 122 -37 160 -51 50 -18 81 -24 106 -20 34 6 39 3 65 -31 28 -36 29 -42
27 -139 -1 -56 -9 -129 -17 -162 -9 -34 -16 -74 -16 -90 0 -16 -6 -51 -14 -78
-57 -206 -67 -247 -63 -251 2 -3 23 3 46 12 37 15 42 21 60 78 38 122 64 287
77 486 6 86 4 100 -16 143 -28 60 -60 83 -90 67 -17 -9 -35 -4 -103 26 -45 21
-129 50 -185 65 -59 16 -124 41 -151 58 -84 54 -123 63 -291 67 -85 2 -167 0
-182 -5z"></path>
<path d="M3792 4998 c-14 -14 -16 -38 -4 -38 14 0 43 36 35 43 -9 10 -17 9
-31 -5z"></path>
<path d="M5352 4972 c2 -11 -3 -26 -11 -35 -14 -18 -9 -47 9 -47 6 0 13 8 16
18 3 9 11 29 19 44 15 29 11 38 -17 38 -13 0 -18 -6 -16 -18z"></path>
<path d="M2366 4943 c-15 -4 -17 -11 -13 -39 7 -39 1 -44 -78 -64 -27 -7 -96
-30 -152 -52 -98 -38 -103 -41 -103 -69 0 -40 19 -45 75 -20 49 22 240 81 261
81 7 0 17 -14 23 -31 9 -26 14 -29 33 -24 13 4 27 11 32 15 11 11 -8 139 -26
176 -14 30 -23 34 -52 27z"></path>
<path d="M5000 4920 c0 -11 5 -20 10 -20 6 0 10 9 10 20 0 11 -4 20 -10 20 -5
0 -10 -9 -10 -20z"></path>
<path d="M5290 4930 c0 -5 5 -10 10 -10 6 0 10 5 10 10 0 6 -4 10 -10 10 -5 0
-10 -4 -10 -10z"></path>
<path d="M4573 4918 c-27 -13 -30 -38 -5 -38 21 0 42 18 42 37 0 15 -7 15 -37
1z"></path>
<path d="M3830 4914 c0 -5 9 -20 20 -34 14 -18 20 -21 20 -9 0 9 -9 24 -20 34
-11 10 -20 14 -20 9z"></path>
<path d="M3502 4890 c-14 -23 -16 -40 -4 -40 8 0 32 43 32 55 0 12 -16 3 -28
-15z"></path>
<path d="M4772 4892 c-33 -10 -27 -27 7 -24 16 2 32 -1 36 -7 3 -6 11 -11 16
-11 5 0 2 11 -7 25 -9 14 -19 25 -23 24 -3 -1 -16 -4 -29 -7z"></path>
<path d="M5682 4888 c6 -18 28 -21 28 -4 0 9 -7 16 -16 16 -9 0 -14 -5 -12
-12z"></path>
<path d="M5560 4870 c-11 -21 -6 -40 11 -40 5 0 9 7 9 15 0 21 27 30 45 15 18
-15 20 1 3 18 -19 19 -56 14 -68 -8z"></path>
<path d="M230 4840 c0 -5 9 -10 19 -10 11 0 23 5 26 10 4 6 -5 10 -19 10 -14
0 -26 -4 -26 -10z"></path>
<path d="M3950 4831 c0 -6 9 -15 21 -21 20 -11 23 -32 4 -31 -6 0 -19 -9 -31
-20 -19 -17 -22 -18 -34 -4 -20 24 -34 17 -17 -9 9 -13 13 -33 10 -45 -8 -31
2 -26 48 24 23 25 45 42 50 39 5 -3 9 4 9 15 0 11 -13 29 -30 41 -16 12 -30
17 -30 11z"></path>
<path d="M4845 4830 c-7 -12 12 -40 27 -40 16 0 21 32 7 41 -18 12 -26 11 -34
-1z"></path>
<path d="M3882 4813 c2 -10 10 -18 18 -18 8 0 16 8 18 18 2 12 -3 17 -18 17
-15 0 -20 -5 -18 -17z"></path>
<path d="M3418 4785 c-26 -50 -174 -261 -227 -325 -60 -71 -193 -218 -313
-346 -67 -71 -90 -104 -74 -104 7 0 139 90 155 106 12 11 12 16 1 29 -11 13
-1 28 69 103 45 48 122 135 172 195 50 59 95 107 100 107 5 0 9 8 9 18 0 9 32
64 70 121 39 57 70 108 70 112 0 18 -19 8 -32 -16z"></path>
<path d="M135 4790 c-3 -5 -1 -10 4 -10 6 0 11 5 11 10 0 6 -2 10 -4 10 -3 0
-8 -4 -11 -10z"></path>
<path d="M283 4775 c-15 -13 -23 -25 -17 -25 6 0 21 11 34 25 30 32 19 32 -17
0z"></path>
<path d="M5525 4790 c-9 -15 14 -40 36 -40 24 0 33 18 19 35 -14 17 -46 20
-55 5z"></path>
<path d="M5117 4773 c-4 -3 -7 -13 -7 -22 0 -9 -7 -29 -15 -45 -17 -33 -19
-46 -5 -46 12 0 60 82 60 103 0 17 -21 23 -33 10z"></path>
<path d="M4555 4720 c-23 -24 -26 -33 -16 -43 10 -10 18 -5 41 23 26 32 30 50
11 50 -4 0 -20 -14 -36 -30z"></path>
<path d="M4973 4704 c21 -144 21 -144 -1 -144 -11 0 -25 -7 -32 -15 -10 -13
-10 -19 5 -35 9 -10 22 -18 28 -17 5 1 14 -13 19 -32 9 -32 10 -33 29 -15 20
18 26 44 9 44 -6 0 -10 21 -10 48 2 68 -23 195 -39 200 -10 3 -12 -5 -8 -34z"></path>
<path d="M5242 4708 c-21 -21 -15 -38 11 -29 23 9 30 32 12 38 -6 2 -16 -2
-23 -9z"></path>
<path d="M3678 4693 c-10 -2 -18 -9 -18 -15 0 -5 7 -7 16 -4 9 3 20 6 25 6 5
0 9 5 9 10 0 10 -3 11 -32 3z"></path>
<path d="M3970 4670 c0 -5 5 -10 10 -10 6 0 10 5 10 10 0 6 -4 10 -10 10 -5 0
-10 -4 -10 -10z"></path>
<path d="M5250 4655 c-12 -15 -7 -45 7 -45 18 1 55 38 49 49 -10 16 -41 14
-56 -4z"></path>
<path d="M4497 4653 c-10 -9 -9 -43 1 -43 14 0 43 36 35 43 -8 9 -28 9 -36 0z"></path>
<path d="M5208 4654 c-5 -4 -8 -16 -8 -28 0 -14 3 -17 11 -9 6 6 9 19 7 28 -1
9 -6 13 -10 9z"></path>
<path d="M3900 4616 c0 -34 -24 -97 -78 -204 -52 -104 -100 -155 -321 -341
-72 -61 -127 -116 -133 -131 -5 -15 -24 -36 -43 -46 -19 -10 -39 -30 -45 -44
-5 -14 -14 -32 -20 -40 -5 -8 -22 -41 -36 -73 -29 -62 -62 -95 -106 -104 -39
-8 -35 -26 5 -20 17 2 72 -1 122 -9 49 -7 91 -11 93 -9 2 2 -4 15 -13 29 -13
20 -16 41 -13 86 2 33 9 65 14 70 6 6 8 -5 6 -31 -2 -22 1 -53 8 -70 14 -33
76 -80 130 -98 19 -6 45 -23 57 -38 12 -16 31 -39 41 -53 17 -20 22 -22 35
-11 9 7 26 11 39 9 22 -3 23 -6 20 -86 -1 -46 4 -109 12 -145 26 -111 30 -179
13 -238 -8 -30 -18 -73 -22 -96 -6 -39 -4 -45 36 -88 51 -55 83 -59 85 -9 1
35 30 84 50 84 8 0 14 6 14 14 0 10 9 14 28 12 24 -3 27 -8 30 -41 4 -45 -31
-150 -60 -182 -11 -12 -33 -25 -49 -28 -16 -4 -29 -11 -29 -16 0 -14 44 -11
76 6 26 13 30 13 49 -4 11 -10 35 -21 53 -25 31 -5 33 -4 26 17 -14 44 -34 65
-60 62 -28 -3 -28 -1 -6 45 14 28 24 36 50 38 40 4 41 15 2 42 -26 19 -30 27
-30 71 0 45 -11 62 -24 40 -12 -19 -52 1 -62 32 -7 23 -17 33 -42 39 -51 13
-77 64 -97 193 -9 61 -15 146 -13 190 l3 80 30 0 c29 0 30 -1 35 -60 l5 -60
35 3 c43 5 50 11 27 23 -21 12 -23 71 -2 89 16 14 35 6 35 -16 0 -8 11 -24 24
-35 28 -25 124 -60 131 -49 6 9 -8 20 -60 45 -45 23 -123 97 -144 137 -12 24
-12 33 3 72 24 63 74 134 99 142 12 4 42 8 67 9 42 1 45 4 45 28 1 32 28 63
45 52 6 -4 10 -16 7 -26 -7 -25 7 -33 24 -13 11 14 10 19 -11 38 -14 11 -31
33 -37 49 -7 15 -18 27 -24 27 -7 0 -26 11 -43 24 -17 13 -46 27 -63 30 -35 8
-73 57 -73 95 0 32 54 26 58 -6 2 -14 10 -23 21 -23 22 0 45 -25 37 -38 -7
-12 22 -38 31 -28 10 10 -23 71 -62 114 -19 22 -35 44 -35 50 0 6 -7 15 -15
20 -14 7 -14 12 0 44 8 20 19 39 25 43 19 12 10 24 -35 46 -50 25 -54 45 -9
42 58 -4 74 -14 114 -68 44 -60 83 -79 52 -26 -13 23 -14 36 -6 58 9 26 13 28
59 27 28 0 66 -2 85 -5 30 -3 35 -1 35 16 0 18 -7 20 -60 21 -91 1 -160 21
-195 57 -29 29 -30 35 -30 114 0 49 -4 83 -10 83 -5 0 -10 -11 -10 -24z"></path>
<path d="M2183 4586 c-99 -11 -105 -13 -139 -48 -30 -29 -38 -45 -41 -85 -4
-42 -1 -53 21 -80 24 -29 26 -38 26 -126 0 -53 -4 -107 -10 -121 -10 -28 2
-43 19 -22 11 13 31 91 48 186 6 36 12 45 28 45 19 0 20 -6 18 -83 -1 -46 -6
-89 -13 -97 -7 -9 -7 -15 -1 -19 17 -11 41 38 52 105 18 110 18 111 42 107 20
-3 22 -9 23 -73 2 -91 2 -91 17 -77 6 7 17 45 22 85 9 62 13 72 32 75 26 4 38
-25 28 -74 -6 -34 4 -44 22 -21 6 6 13 29 16 50 4 22 20 54 41 79 30 35 36 49
36 89 0 42 -4 50 -40 83 -46 41 -62 43 -247 22z m202 -111 c0 -29 -2 -30 -55
-37 -30 -3 -97 -6 -147 -7 -85 -1 -93 1 -93 18 0 10 7 24 15 31 19 16 116 28
210 26 l70 -1 0 -30z"></path>
<path d="M4774 4585 c-8 -20 13 -45 37 -45 21 0 24 12 9 41 -13 23 -38 25 -46
4z"></path>
<path d="M5555 4580 c-17 -19 -17 -20 9 -29 16 -7 35 -7 50 -1 25 9 46 -3 46
-28 0 -7 6 -12 13 -9 25 8 13 41 -19 49 -17 4 -37 15 -44 23 -17 20 -33 19
-55 -5z"></path>
<path d="M3700 4567 c0 -14 -115 -133 -144 -149 -17 -10 -22 -28 -7 -28 14 0
118 102 146 143 28 42 29 47 15 47 -5 0 -10 -6 -10 -13z"></path>
<path d="M4230 4515 c0 -9 -7 -18 -15 -21 -37 -15 -5 -68 37 -62 30 4 37 44
11 63 -10 9 -13 14 -5 15 21 0 13 20 -8 20 -11 0 -20 -7 -20 -15z"></path>
<path d="M4900 4517 c0 -11 29 -67 35 -67 3 0 5 6 5 14 0 14 -39 67 -40 53z"></path>
<path d="M4155 4500 c-4 -6 -3 -16 3 -22 6 -6 12 -6 17 2 4 6 3 16 -3 22 -6 6
-12 6 -17 -2z"></path>
<path d="M5646 4476 c7 -17 44 -22 44 -6 0 6 -4 10 -9 10 -5 0 -17 3 -25 6
-12 5 -15 2 -10 -10z"></path>
<path d="M4439 4449 c-30 -43 -12 -58 29 -24 18 15 36 24 42 20 19 -12 11 -54
-14 -70 -25 -16 -25 -16 -5 -36 12 -12 27 -18 39 -14 21 7 33 32 20 40 -15 9
-12 45 5 62 21 21 1 45 -30 37 -13 -3 -32 -1 -43 5 -18 9 -24 6 -43 -20z"></path>
<path d="M5200 4420 c0 -5 5 -10 11 -10 5 0 7 5 4 10 -3 6 -8 10 -11 10 -2 0
-4 -4 -4 -10z"></path>
<path d="M5015 4400 c-3 -5 -3 -10 2 -10 4 0 1 -5 -7 -10 -10 -6 -20 -4 -32 7
-10 9 -18 11 -18 5 0 -16 22 -62 29 -62 12 1 50 70 41 75 -5 3 -11 1 -15 -5z"></path>
<path d="M5310 4400 c0 -5 5 -10 11 -10 5 0 7 5 4 10 -3 6 -8 10 -11 10 -2 0
-4 -4 -4 -10z"></path>
<path d="M3480 4354 c-25 -18 -57 -42 -72 -53 -14 -12 -31 -21 -37 -21 -6 0
-11 -4 -11 -10 0 -13 17 -13 25 0 4 6 23 19 43 29 43 23 109 77 102 84 -3 3
-25 -10 -50 -29z"></path>
<path d="M5085 4348 c-35 -33 -57 -88 -36 -88 6 0 11 4 11 9 0 4 18 29 40 54
22 25 40 48 40 51 0 15 -23 3 -55 -26z"></path>
<path d="M5322 4359 c-17 -27 -5 -40 14 -15 8 11 14 23 14 28 0 15 -15 8 -28
-13z"></path>
<path d="M5580 4312 c0 -10 47 -45 72 -54 23 -9 33 33 11 50 -19 13 -83 17
-83 4z"></path>
<path d="M4647 4279 c-24 -14 -5 -49 23 -42 27 7 34 21 20 38 -14 17 -19 18
-43 4z"></path>
<path d="M4733 4273 c-25 -9 -13 -22 25 -25 28 -2 36 -7 34 -19 -2 -14 11 -17
78 -21 84 -5 94 -9 104 -45 6 -19 3 -22 -26 -25 -25 -2 -34 -8 -36 -25 -3 -18
2 -23 18 -23 11 0 23 7 27 16 5 13 9 12 28 -6 13 -12 26 -33 29 -46 4 -13 11
-24 17 -24 7 0 9 8 4 23 -4 12 -8 32 -9 44 -1 12 -7 28 -13 35 -7 7 -13 31
-15 52 l-3 40 -50 3 c-27 3 -67 4 -89 3 -29 0 -44 6 -62 25 -23 24 -36 29 -61
18z"></path>
<path d="M5030 4225 c0 -8 5 -15 10 -15 6 0 10 7 10 15 0 8 -4 15 -10 15 -5 0
-10 -7 -10 -15z"></path>
<path d="M3910 4210 c0 -13 5 -20 13 -17 6 2 12 10 12 17 0 7 -6 15 -12 18 -8
2 -13 -5 -13 -18z"></path>
<path d="M4214 4199 c-10 -11 -27 -25 -36 -30 -15 -8 -17 -6 -15 12 1 12 -4
24 -10 26 -8 3 -13 -4 -13 -15 0 -11 -9 -22 -20 -25 -11 -3 -27 -21 -35 -40
-18 -44 -7 -88 38 -147 56 -74 58 -81 53 -141 -3 -31 -8 -63 -12 -72 -9 -23
-79 -57 -119 -57 -40 0 -44 11 -12 33 19 14 20 16 4 16 -47 2 -83 -47 -71 -95
7 -29 20 -31 26 -6 4 14 18 20 58 25 28 4 68 14 88 24 30 15 38 26 49 68 7 28
13 71 13 97 0 38 -6 53 -35 88 -41 49 -41 49 -17 66 14 11 15 15 3 23 -8 5
-20 7 -26 4 -16 -6 -26 57 -13 75 6 6 23 12 37 12 26 0 101 63 89 75 -2 3 -13
-4 -24 -16z"></path>
<path d="M4333 4209 c-9 -9 -8 -18 0 -38 16 -37 47 -56 47 -29 0 6 7 19 16 29
9 10 14 25 11 34 -7 18 -58 20 -74 4z"></path>
<path d="M4595 4191 c-87 -32 -105 -40 -105 -47 0 -11 75 5 124 26 25 10 46
24 46 30 0 13 -6 13 -65 -9z"></path>
<path d="M4435 4181 c-9 -15 8 -35 24 -30 8 3 7 10 -2 23 -10 14 -16 16 -22 7z"></path>
<path d="M5320 4175 c-10 -12 -9 -16 3 -21 25 -9 51 0 55 19 4 22 -40 24 -58
2z"></path>
<path d="M4623 4136 c-84 -31 -143 -68 -131 -81 3 -3 23 4 45 17 21 13 71 34
111 47 40 13 77 30 83 38 18 21 -16 15 -108 -21z"></path>
<path d="M4252 4119 c-34 -7 -60 -24 -50 -34 6 -6 69 14 82 26 15 14 4 16 -32
8z"></path>
<path d="M5687 4073 c-21 -11 -26 -18 -18 -26 8 -8 14 -8 23 1 18 18 75 15 87
-5 5 -10 13 -14 17 -10 11 11 -26 45 -56 51 -14 2 -38 -3 -53 -11z"></path>
<path d="M4368 4049 c-10 -5 -18 -15 -18 -21 0 -7 5 -6 15 2 9 8 27 10 46 6
22 -4 29 -2 27 7 -6 16 -48 20 -70 6z"></path>
<path d="M3318 4037 c-16 -6 -28 -15 -28 -20 0 -5 7 -6 16 -3 9 3 21 6 28 6 7
0 21 7 32 15 19 14 19 14 -1 14 -11 -1 -32 -6 -47 -12z"></path>
<path d="M4265 4030 c-3 -5 -1 -10 4 -10 6 0 11 5 11 10 0 6 -2 10 -4 10 -3 0
-8 -4 -11 -10z"></path>
<path d="M4661 4003 c0 -15 -2 -41 -3 -58 -3 -26 0 -30 25 -33 26 -3 28 -1 21
20 -4 13 -8 39 -8 58 -1 24 -7 36 -19 38 -12 3 -16 -4 -16 -25z"></path>
<path d="M5283 4020 c-14 -6 -21 -15 -17 -24 3 -8 0 -17 -5 -21 -34 -20 47
-34 94 -16 18 7 18 9 -8 26 -15 9 -27 24 -27 31 0 16 -6 16 -37 4z"></path>
<path d="M5056 4013 c-3 -3 -6 -26 -6 -49 0 -31 -5 -46 -17 -53 -15 -7 -17
-20 -15 -65 2 -31 7 -56 11 -56 7 0 39 122 48 181 5 34 -6 56 -21 42z"></path>
<path d="M5730 4010 c0 -5 5 -10 10 -10 6 0 10 5 10 10 0 6 -4 10 -10 10 -5 0
-10 -4 -10 -10z"></path>
<path d="M5220 3989 c0 -5 5 -7 10 -4 6 3 10 8 10 11 0 2 -4 4 -10 4 -5 0 -10
-5 -10 -11z"></path>
<path d="M3140 3980 c0 -5 6 -10 14 -10 8 0 18 5 21 10 3 6 -3 10 -14 10 -12
0 -21 -4 -21 -10z"></path>
<path d="M4410 3974 c0 -9 5 -14 12 -12 18 6 21 28 4 28 -9 0 -16 -7 -16 -16z"></path>
<path d="M3090 3970 c0 -5 7 -10 15 -10 8 0 15 5 15 10 0 6 -7 10 -15 10 -8 0
-15 -4 -15 -10z"></path>
<path d="M4375 3950 c4 -6 11 -8 16 -5 14 9 11 15 -7 15 -8 0 -12 -5 -9 -10z"></path>
<path d="M3170 3920 c0 -5 16 -10 35 -10 19 0 35 5 35 10 0 6 -16 10 -35 10
-19 0 -35 -4 -35 -10z"></path>
<path d="M4950 3912 c0 -10 -5 -23 -12 -30 -19 -19 4 -35 27 -19 13 10 16 21
11 40 -7 30 -26 37 -26 9z"></path>
<path d="M4357 3913 c-11 -10 -8 -41 4 -49 16 -9 43 21 36 40 -7 16 -28 21
-40 9z"></path>
<path d="M5556 3873 c-3 -10 -8 -23 -11 -29 -7 -15 55 -28 69 -14 6 6 2 18
-14 35 -28 30 -36 31 -44 8z"></path>
<path d="M5471 3849 c-13 -11 -22 -21 -20 -22 57 -32 68 -36 75 -26 4 6 -1 16
-10 21 -12 7 -14 13 -6 29 14 26 -7 25 -39 -2z"></path>
<path d="M4407 3833 c-4 -3 -7 -19 -7 -33 0 -15 -7 -33 -15 -40 -21 -17 -19
-57 4 -69 14 -8 22 -6 35 7 13 15 14 23 4 50 -10 26 -9 34 6 51 10 11 15 25
11 30 -7 12 -28 14 -38 4z"></path>
<path d="M5180 3761 c-6 -12 -8 -26 -5 -31 10 -16 111 -12 125 5 12 14 15 14
31 -1 11 -10 22 -15 25 -11 11 11 -15 42 -38 45 -129 15 -126 15 -138 -7z m70
-11 c0 -5 -7 -10 -15 -10 -8 0 -15 5 -15 10 0 6 7 10 15 10 8 0 15 -4 15 -10z"></path>
<path d="M4070 3755 c0 -8 5 -15 10 -15 6 0 10 7 10 15 0 8 -4 15 -10 15 -5 0
-10 -7 -10 -15z"></path>
<path d="M5035 3759 c-11 -17 1 -21 15 -4 8 9 8 15 2 15 -6 0 -14 -5 -17 -11z"></path>
<path d="M5100 3750 c-8 -5 -12 -12 -8 -15 9 -9 48 4 48 16 0 12 -21 11 -40
-1z"></path>
<path d="M5357 3643 c-10 -10 -8 -43 2 -43 9 0 21 24 21 41 0 11 -14 12 -23 2z"></path>
<path d="M2439 3614 c-23 -25 -23 -26 -2 -15 23 12 38 29 31 37 -3 2 -15 -8
-29 -22z"></path>
<path d="M5607 3634 c-13 -13 -7 -40 11 -57 22 -20 42 -22 42 -4 0 18 -44 70
-53 61z"></path>
<path d="M3028 3623 c-10 -2 -18 -9 -18 -15 0 -5 7 -7 16 -4 9 3 22 6 30 6 8
0 14 5 14 10 0 10 -12 11 -42 3z"></path>
<path d="M4560 3614 c-11 -12 -11 -18 2 -30 16 -16 48 -9 48 10 0 13 -20 36
-31 36 -4 0 -12 -7 -19 -16z"></path>
<path d="M4649 3614 c-12 -15 -11 -16 8 -10 23 7 39 -7 28 -24 -5 -8 -11 -8
-20 0 -17 14 -32 -7 -17 -22 18 -18 59 -1 66 27 8 32 26 23 26 -12 0 -21 2
-24 15 -13 32 26 1 65 -42 54 -12 -3 -24 -1 -27 5 -10 15 -21 14 -37 -5z"></path>
<path d="M4000 3606 c0 -16 26 -46 41 -46 14 0 10 13 -10 38 -22 26 -31 28
-31 8z"></path>
<path d="M2970 3600 c0 -5 5 -10 10 -10 6 0 10 5 10 10 0 6 -4 10 -10 10 -5 0
-10 -4 -10 -10z"></path>
<path d="M3910 3586 c0 -34 22 -49 46 -32 18 14 18 15 0 35 -25 28 -46 27 -46
-3z"></path>
<path d="M5110 3575 c-13 -16 -4 -19 83 -29 l47 -6 -16 25 c-18 28 -25 30 -41
14 -8 -8 -13 -8 -17 0 -10 16 -41 14 -56 -4z"></path>
<path d="M2868 3569 c-10 -5 -18 -14 -18 -19 0 -16 23 -11 50 10 23 18 23 20
5 19 -11 0 -28 -4 -37 -10z"></path>
<path d="M5570 3561 c0 -13 29 -35 37 -28 7 8 -15 37 -28 37 -5 0 -9 -4 -9 -9z"></path>
<path d="M3280 3540 c0 -14 46 -60 60 -60 17 0 12 15 -12 37 -32 28 -48 36
-48 23z"></path>
<path d="M3355 3539 c-11 -16 27 -40 43 -27 9 8 9 14 1 24 -14 17 -35 18 -44
3z"></path>
<path d="M4897 3513 c-28 -43 -24 -68 5 -32 31 40 39 57 28 64 -5 3 -20 -11
-33 -32z"></path>
<path d="M4060 3535 c0 -14 21 -45 30 -45 18 0 10 29 -10 40 -11 6 -20 8 -20
5z"></path>
<path d="M5275 3510 c-8 -12 20 -24 35 -15 6 3 8 11 5 16 -8 12 -32 12 -40 -1z"></path>
<path d="M5610 3490 c0 -5 5 -10 10 -10 6 0 10 5 10 10 0 6 -4 10 -10 10 -5 0
-10 -4 -10 -10z"></path>
<path d="M4300 3453 c0 -28 48 -93 69 -93 14 0 23 18 12 24 -5 4 -7 22 -4 40
6 36 8 34 -59 52 -14 4 -18 -1 -18 -23z"></path>
<path d="M3120 3464 c0 -21 57 -94 74 -94 5 0 6 3 3 7 -4 3 0 14 8 23 15 16
13 20 -15 44 -28 23 -70 35 -70 20z"></path>
<path d="M4100 3451 c0 -6 5 -13 10 -16 6 -3 10 1 10 9 0 9 -4 16 -10 16 -5 0
-10 -4 -10 -9z"></path>
<path d="M4420 3430 c0 -11 7 -20 15 -20 17 0 18 2 9 24 -9 23 -24 20 -24 -4z"></path>
<path d="M4796 3435 c4 -8 1 -15 -5 -15 -6 0 -11 -4 -11 -10 0 -5 7 -10 15
-10 8 0 15 4 15 9 0 5 3 16 6 25 4 10 1 16 -10 16 -10 0 -13 -6 -10 -15z"></path>
<path d="M3590 3432 c0 -5 7 -17 15 -28 15 -19 20 -8 9 20 -6 17 -24 22 -24 8z"></path>
<path d="M5278 3423 c-14 -13 -20 -14 -32 -4 -11 9 -20 9 -34 2 -32 -17 -34
-39 -7 -57 24 -15 26 -15 43 6 16 19 22 21 40 11 18 -10 23 -9 28 3 8 20 1 49
-11 53 -6 2 -18 -4 -27 -14z"></path>
<path d="M2846 3385 c-10 -8 -15 -18 -12 -23 7 -12 -48 -24 -69 -16 -26 11
-16 -11 12 -23 39 -19 52 -16 63 13 6 14 19 28 30 31 11 3 20 9 20 13 0 15
-26 18 -44 5z"></path>
<path d="M4700 3385 c-12 -15 -11 -16 16 -13 16 1 28 8 27 13 -3 17 -29 17
-43 0z"></path>
<path d="M3240 3371 c0 -13 29 -35 37 -28 7 8 -15 37 -28 37 -5 0 -9 -4 -9 -9z"></path>
<path d="M5013 3373 c-32 -6 -30 -33 2 -33 14 0 25 -4 25 -10 0 -18 18 -11 23
9 4 18 -10 43 -22 40 -4 -1 -16 -4 -28 -6z"></path>
<path d="M5150 3365 c-8 -9 -8 -15 -2 -15 12 0 26 19 19 26 -2 2 -10 -2 -17
-11z"></path>
<path d="M2706 3334 c-37 -32 -30 -39 9 -9 16 13 27 26 25 29 -3 2 -18 -7 -34
-20z"></path>
<path d="M3780 3337 c0 -9 11 -28 23 -43 30 -35 57 -27 57 16 0 25 -4 30 -24
30 -13 0 -31 3 -40 6 -10 4 -16 1 -16 -9z"></path>
<path d="M4000 3311 c0 -5 12 -19 26 -30 26 -21 28 -21 57 -3 44 25 46 42 4
42 -20 0 -37 -6 -40 -12 -4 -10 -7 -10 -18 0 -15 14 -29 16 -29 3z"></path>
<path d="M3447 3304 c-7 -12 22 -74 34 -74 5 0 9 9 9 19 0 23 -35 68 -43 55z"></path>
<path d="M3739 3276 c-15 -31 -3 -139 14 -133 7 2 11 17 9 33 -1 16 -3 50 -4
77 -1 26 -3 47 -5 47 -2 0 -8 -11 -14 -24z"></path>
<path d="M5475 3290 c3 -5 8 -10 11 -10 2 0 4 5 4 10 0 6 -5 10 -11 10 -5 0
-7 -4 -4 -10z"></path>
<path d="M5445 3261 c-6 -11 9 -23 19 -14 9 9 7 23 -3 23 -6 0 -12 -4 -16 -9z"></path>
<path d="M5055 3241 c-6 -11 9 -23 19 -14 9 9 7 23 -3 23 -6 0 -12 -4 -16 -9z"></path>
<path d="M2 3203 l3 -38 145 -16 c139 -15 320 -14 320 1 0 12 -56 20 -132 20
-58 0 -206 30 -321 66 -16 5 -18 1 -15 -33z"></path>
<path d="M3496 3203 c-9 -22 -7 -63 2 -63 12 0 62 54 62 67 0 16 -58 14 -64
-4z"></path>
<path d="M3842 3179 c-17 -26 -12 -31 33 -34 41 -2 43 4 12 33 -29 27 -29 27
-45 1z"></path>
<path d="M5255 3140 c-3 -11 0 -29 8 -40 21 -30 42 -4 27 34 -11 31 -26 34
-35 6z"></path>
<path d="M3180 3140 c0 -5 5 -10 10 -10 6 0 10 5 10 10 0 6 -4 10 -10 10 -5 0
-10 -4 -10 -10z"></path>
<path d="M2680 3104 c0 -11 5 -14 16 -10 9 3 20 6 25 6 5 0 9 5 9 10 0 6 -11
10 -25 10 -16 0 -25 -6 -25 -16z"></path>
<path d="M3220 3100 c11 -20 30 -28 30 -12 0 11 -22 32 -32 32 -5 0 -4 -9 2
-20z"></path>
<path d="M3900 3050 c0 -50 8 -61 28 -37 7 8 7 18 2 27 -6 8 -10 25 -10 38 0
12 -4 22 -10 22 -5 0 -10 -22 -10 -50z"></path>
<path d="M2657 3062 c-27 -30 -20 -40 29 -44 33 -2 48 1 52 11 15 39 -51 67
-81 33z"></path>
<path d="M3077 3074 c-14 -14 26 -74 50 -74 19 0 16 44 -5 63 -19 18 -34 21
-45 11z"></path>
<path d="M3645 3070 c-8 -12 5 -60 16 -60 5 0 9 16 9 35 0 33 -12 46 -25 25z"></path>
<path d="M3240 3040 c0 -11 5 -20 10 -20 6 0 10 9 10 20 0 11 -4 20 -10 20 -5
0 -10 -9 -10 -20z"></path>
<path d="M3986 2931 c-4 -5 -2 -12 3 -15 5 -4 12 -2 15 3 4 5 2 12 -3 15 -5 4
-12 2 -15 -3z"></path>
<path d="M4137 2869 c-9 -5 -22 -7 -27 -4 -6 3 -10 2 -10 -4 0 -19 75 -71 102
-71 27 0 37 13 19 24 -4 3 -11 19 -14 36 -7 32 -34 40 -70 19z"></path>
<path d="M4265 2870 c-3 -5 -1 -10 4 -10 6 0 11 5 11 10 0 6 -2 10 -4 10 -3 0
-8 -4 -11 -10z"></path>
<path d="M3064 2789 c1 -23 8 -34 23 -40 26 -9 41 6 19 18 -8 4 -14 17 -13 28
1 11 -5 21 -14 23 -13 2 -16 -4 -15 -29z"></path>
<path d="M3030 2794 c0 -8 5 -12 10 -9 6 4 8 11 5 16 -9 14 -15 11 -15 -7z"></path>
<path d="M4350 2771 c0 -10 30 -24 37 -17 3 3 2 9 -2 15 -8 13 -35 15 -35 2z"></path>
<path d="M2425 2740 c-13 -14 -15 -24 -8 -31 13 -13 59 23 49 39 -10 17 -20
15 -41 -8z"></path>
<path d="M4310 2750 c0 -5 5 -10 10 -10 6 0 10 5 10 10 0 6 -4 10 -10 10 -5 0
-10 -4 -10 -10z"></path>
<path d="M2560 2719 c0 -5 5 -7 10 -4 6 3 10 8 10 11 0 2 -4 4 -10 4 -5 0 -10
-5 -10 -11z"></path>
<path d="M4275 2720 c4 -6 11 -8 16 -5 14 9 11 15 -7 15 -8 0 -12 -5 -9 -10z"></path>
<path d="M2495 2711 c-3 -2 -2 -7 0 -11 6 -10 45 -1 45 11 0 8 -37 8 -45 0z"></path>
<path d="M2623 2706 c-27 -12 -30 -26 -7 -26 21 0 54 18 54 30 0 12 -18 11
-47 -4z"></path>
<path d="M3116 2698 c-9 -35 -8 -38 15 -38 16 0 20 5 17 27 -4 34 -24 41 -32
11z"></path>
<path d="M3990 2708 c0 -18 18 -34 28 -24 3 4 -2 14 -11 23 -16 16 -17 16 -17
1z"></path>
<path d="M4351 2675 c-39 -42 -51 -65 -33 -65 14 0 103 96 96 103 -13 13 -21
8 -63 -38z"></path>
<path d="M3050 2701 c0 -6 5 -13 10 -16 6 -3 10 1 10 9 0 9 -4 16 -10 16 -5 0
-10 -4 -10 -9z"></path>
<path d="M3704 2696 c22 -18 46 -21 46 -6 0 6 -6 10 -14 10 -8 0 -23 3 -33 6
-16 5 -16 4 1 -10z"></path>
<path d="M4130 2700 c0 -5 11 -10 25 -10 14 0 25 5 25 10 0 6 -11 10 -25 10
-14 0 -25 -4 -25 -10z"></path>
<path d="M4650 2700 c0 -5 11 -10 25 -10 14 0 25 5 25 10 0 6 -11 10 -25 10
-14 0 -25 -4 -25 -10z"></path>
<path d="M4235 2680 c-11 -17 5 -70 21 -70 8 0 19 12 24 26 9 21 7 29 -7 40
-22 16 -30 17 -38 4z"></path>
<path d="M3071 2645 c0 -5 6 -19 14 -29 8 -11 15 -15 15 -10 0 6 -7 19 -15 30
-8 10 -14 15 -14 9z"></path>
<path d="M4669 2641 c-20 -4 -57 -20 -83 -35 -33 -19 -55 -26 -72 -22 -17 5
-24 2 -24 -8 0 -8 -3 -21 -6 -30 -10 -25 12 -19 79 24 61 38 147 63 147 42 0
-5 -9 -12 -19 -15 -20 -5 -38 -58 -26 -77 10 -15 35 -12 35 5 0 10 10 15 29
15 40 0 48 17 22 44 -28 29 -27 40 3 32 34 -8 43 12 11 24 -29 11 -43 11 -96
1z"></path>
<path d="M3870 2606 c0 -32 14 -55 26 -43 8 8 -7 77 -17 77 -5 0 -9 -15 -9
-34z"></path>
<path d="M4273 2577 c-11 -12 -32 -41 -47 -64 -21 -35 -25 -50 -20 -82 6 -35
4 -39 -12 -35 -15 4 -19 -1 -20 -26 -1 -33 13 -41 23 -12 3 9 13 25 21 34 8
10 15 33 14 50 -1 22 11 53 34 91 38 62 41 82 7 44z"></path>
<path d="M4377 2553 c-4 -3 -7 -17 -7 -31 0 -19 4 -23 20 -19 15 4 20 0 20
-14 0 -22 11 -24 28 -7 17 17 15 28 -4 28 -11 0 -14 5 -10 17 9 23 -29 45 -47
26z"></path>
<path d="M210 2535 c0 -10 10 -15 26 -15 22 0 25 2 14 15 -7 8 -19 15 -26 15
-8 0 -14 -7 -14 -15z"></path>
<path d="M5373 2533 c-6 -16 26 -133 37 -133 14 0 30 55 28 92 -2 20 -6 34
-10 31 -5 -2 -8 0 -8 5 0 17 -41 22 -47 5z"></path>
<path d="M4780 2500 c-12 -7 -12 -12 -3 -21 15 -15 26 -7 21 15 -2 11 -7 13
-18 6z"></path>
<path d="M2951 2491 c-14 -9 -9 -53 12 -103 15 -35 22 -35 36 0 20 49 -15 123
-48 103z"></path>
<path d="M2618 2468 c9 -9 15 -9 24 0 9 9 7 12 -12 12 -19 0 -21 -3 -12 -12z"></path>
<path d="M2481 2446 c-8 -9 -22 -16 -32 -16 -23 0 -47 -46 -33 -60 7 -7 21 -5
43 6 21 10 45 14 67 11 40 -7 46 9 9 23 -14 5 -29 19 -33 31 -7 19 -9 19 -21
5z"></path>
<path d="M2670 2411 c0 -23 33 -30 45 -10 8 13 6 15 -22 23 -19 6 -23 3 -23
-13z"></path>
<path d="M5070 2415 c-11 -13 -9 -20 15 -46 26 -26 31 -28 44 -14 13 13 13 18
-5 42 -25 34 -38 38 -54 18z"></path>
<path d="M2591 2376 c-10 -12 -8 -17 9 -26 25 -13 50 -7 50 14 0 13 -20 26
-40 26 -4 0 -13 -6 -19 -14z"></path>
<path d="M4500 2352 c0 -4 9 -13 21 -20 17 -11 20 -20 15 -43 -4 -22 -2 -29 9
-29 22 0 19 63 -3 83 -19 18 -42 23 -42 9z"></path>
<path d="M5030 2326 c0 -9 5 -16 10 -16 6 0 10 4 10 9 0 6 -4 13 -10 16 -5 3
-10 -1 -10 -9z"></path>
<path d="M4305 2310 c-9 -15 3 -30 24 -30 21 0 44 23 34 33 -10 11 -51 8 -58
-3z"></path>
<path d="M5135 2310 c-3 -5 1 -10 10 -10 9 0 13 5 10 10 -3 6 -8 10 -10 10 -2
0 -7 -4 -10 -10z"></path>
<path d="M5105 2287 c-4 -10 0 -28 10 -43 23 -35 27 -26 10 21 -10 31 -15 36
-20 22z"></path>
<path d="M4461 2281 c-10 -6 -10 -10 -1 -16 7 -4 19 0 28 9 14 13 14 16 2 16
-8 0 -21 -4 -29 -9z"></path>
<path d="M4420 2220 c0 -5 5 -10 11 -10 5 0 7 5 4 10 -3 6 -8 10 -11 10 -2 0
-4 -4 -4 -10z"></path>
<path d="M2457 2162 c-25 -28 -21 -34 21 -26 49 9 55 13 41 30 -16 19 -43 18
-62 -4z"></path>
<path d="M4122 2171 c-10 -6 -10 -11 3 -21 14 -12 18 -11 25 0 15 24 -2 38
-28 21z"></path>
<path d="M5120 2170 c0 -10 32 -30 49 -30 21 0 11 28 -11 34 -32 8 -38 7 -38
-4z"></path>
<path d="M2850 2150 c0 -5 5 -10 10 -10 6 0 10 5 10 10 0 6 -4 10 -10 10 -5 0
-10 -4 -10 -10z"></path>
<path d="M4133 2126 c-31 -15 -29 -22 9 -30 35 -7 54 5 45 28 -7 18 -22 19
-54 2z"></path>
<path d="M4777 2108 c-4 -15 3 -33 24 -60 29 -36 49 -42 49 -14 0 8 7 19 15
26 18 15 11 30 -14 30 -10 0 -21 9 -24 20 -7 27 -43 26 -50 -2z"></path>
<path d="M2857 2113 c-11 -10 -8 -26 8 -47 22 -29 38 -10 20 25 -17 31 -18 32
-28 22z"></path>
<path d="M4027 2093 c-11 -10 13 -33 34 -33 24 0 24 9 2 26 -21 15 -27 17 -36
7z"></path>
<path d="M2276 2043 c-3 -3 -3 -10 0 -14 7 -12 34 -11 34 0 0 11 -26 22 -34
14z"></path>
<path d="M3820 2021 c-13 -25 -13 -48 1 -56 6 -4 13 3 16 15 3 13 11 19 19 16
17 -7 18 16 2 32 -17 17 -26 15 -38 -7z"></path>
<path d="M2347 2003 c-27 -7 -18 -51 15 -71 26 -15 29 -15 44 0 15 15 14 18
-7 47 -12 17 -25 30 -28 30 -3 -1 -14 -3 -24 -6z m23 -33 c0 -5 -2 -10 -4 -10
-3 0 -8 5 -11 10 -3 6 -1 10 4 10 6 0 11 -4 11 -10z"></path>
<path d="M2480 1999 c0 -5 5 -7 10 -4 6 3 10 8 10 11 0 2 -4 4 -10 4 -5 0 -10
-5 -10 -11z"></path>
<path d="M4830 1980 c0 -11 5 -20 10 -20 6 0 10 9 10 20 0 11 -4 20 -10 20 -5
0 -10 -9 -10 -20z"></path>
<path d="M4460 1960 c0 -5 5 -10 10 -10 6 0 10 5 10 10 0 6 -4 10 -10 10 -5 0
-10 -4 -10 -10z"></path>
<path d="M4826 1925 c-17 -45 -9 -53 54 -52 33 1 60 4 59 7 -4 29 -20 45 -45
46 -16 0 -36 4 -45 8 -11 5 -19 1 -23 -9z"></path>
<path d="M4430 1919 c0 -5 5 -7 10 -4 6 3 10 8 10 11 0 2 -4 4 -10 4 -5 0 -10
-5 -10 -11z"></path>
<path d="M2654 1883 c12 -50 29 -84 40 -80 19 6 17 41 -4 75 -25 40 -45 43
-36 5z"></path>
<path d="M4550 1865 c-16 -19 1 -65 25 -65 19 0 20 19 0 26 -8 4 -15 12 -15
20 0 8 6 11 16 7 11 -4 15 -2 12 7 -6 20 -23 23 -38 5z"></path>
<path d="M2820 1855 c0 -8 5 -15 10 -15 6 0 10 7 10 15 0 8 -4 15 -10 15 -5 0
-10 -7 -10 -15z"></path>
<path d="M4047 1863 c-12 -11 -8 -43 9 -68 13 -20 20 -23 36 -14 21 11 17 41
-10 72 -16 18 -25 21 -35 10z"></path>
<path d="M4456 1854 c-20 -19 -20 -51 -1 -88 8 -15 15 -37 15 -48 0 -19 1 -18
29 4 47 38 45 97 -6 133 -19 13 -23 13 -37 -1z"></path>
<path d="M3930 1780 c0 -11 5 -20 10 -20 6 0 10 9 10 20 0 11 -4 20 -10 20 -5
0 -10 -9 -10 -20z"></path>
<path d="M3414 1765 c-4 -9 -3 -19 0 -23 9 -8 42 12 39 24 -4 16 -33 16 -39
-1z"></path>
<path d="M3665 1771 c-3 -6 8 -25 24 -43 24 -26 32 -30 42 -21 10 10 9 17 -7
34 -26 28 -51 41 -59 30z"></path>
<path d="M3770 1768 c1 -7 15 -22 33 -33 17 -11 33 -29 35 -40 6 -39 12 -49
23 -38 13 13 -6 58 -40 96 -26 28 -51 36 -51 15z"></path>
<path d="M4076 1734 c-17 -17 -21 -44 -7 -44 5 0 11 7 15 15 8 22 37 18 43 -5
5 -21 23 -28 23 -10 0 18 -32 60 -45 60 -8 0 -21 -7 -29 -16z"></path>
<path d="M2820 1711 c0 -6 5 -13 10 -16 6 -3 10 1 10 9 0 9 -4 16 -10 16 -5 0
-10 -4 -10 -9z"></path>
<path d="M3415 1690 c-18 -19 -18 -20 3 -20 24 0 38 18 25 31 -6 6 -16 2 -28
-11z"></path>
<path d="M3940 1685 c0 -8 5 -15 10 -15 6 0 10 7 10 15 0 8 -4 15 -10 15 -5 0
-10 -7 -10 -15z"></path>
<path d="M3780 1670 c0 -5 7 -10 15 -10 8 0 15 5 15 10 0 6 -7 10 -15 10 -8 0
-15 -4 -15 -10z"></path>
<path d="M4095 1630 c3 -5 10 -10 16 -10 5 0 9 5 9 10 0 6 -7 10 -16 10 -8 0
-12 -4 -9 -10z"></path>
<path d="M3950 1610 c0 -11 5 -20 10 -20 6 0 10 9 10 20 0 11 -4 20 -10 20 -5
0 -10 -9 -10 -20z"></path>
<path d="M3620 1606 c0 -10 9 -16 21 -16 24 0 21 23 -4 28 -10 2 -17 -3 -17
-12z"></path>
<path d="M4140 1601 c0 -6 5 -13 10 -16 6 -3 10 1 10 9 0 9 -4 16 -10 16 -5 0
-10 -4 -10 -9z"></path>
<path d="M4070 1576 c0 -22 45 -47 59 -33 17 17 13 27 -8 27 -11 0 -23 5 -26
10 -9 15 -25 12 -25 -4z"></path>
<path d="M3703 1523 c-7 -3 -13 -10 -13 -17 0 -14 58 -38 65 -27 7 12 -38 49
-52 44z"></path>
<path d="M3600 1503 c0 -12 40 -48 62 -56 30 -11 31 12 1 24 -15 6 -36 18 -45
26 -10 9 -18 12 -18 6z"></path>
<path d="M3671 1192 c-9 -22 -9 -34 4 -60 18 -36 19 -36 46 -22 25 14 26 71 1
93 -26 24 -38 21 -51 -11z"></path>
<path d="M3355 1199 c-4 -5 -5 -11 -4 -12 2 -2 12 -8 21 -15 14 -11 16 -10 11
8 -7 25 -19 34 -28 19z"></path>
<path d="M3587 1113 c-4 -3 -7 -11 -7 -17 0 -6 5 -5 12 2 6 6 9 14 7 17 -3 3
-9 2 -12 -2z"></path>
<path d="M3664 1036 c-7 -19 26 -76 43 -76 8 0 5 8 -7 20 -14 14 -18 28 -14
45 7 27 -12 36 -22 11z"></path>
<path d="M3740 1042 c0 -10 43 -52 53 -52 15 0 6 23 -15 41 -25 20 -38 24 -38
11z"></path>
<path d="M3427 993 c-3 -5 4 -27 17 -48 26 -43 43 -34 20 11 -20 37 -30 48
-37 37z"></path>
<path d="M3666 931 c-9 -14 52 -74 70 -67 17 7 19 26 2 26 -7 0 -24 12 -39 26
-16 15 -29 21 -33 15z"></path>
<path d="M3760 901 c0 -6 5 -13 10 -16 6 -3 10 1 10 9 0 9 -4 16 -10 16 -5 0
-10 -4 -10 -9z"></path>
<path d="M5582 823 c2 -10 10 -18 18 -18 22 0 18 29 -3 33 -14 3 -18 -1 -15
-15z"></path>
<path d="M5910 556 c0 -9 5 -16 10 -16 6 0 10 4 10 9 0 6 -4 13 -10 16 -5 3
-10 -1 -10 -9z"></path>
<path d="M6360 393 c0 -3 18 -21 40 -40 32 -28 40 -41 40 -69 0 -19 5 -34 10
-34 6 0 10 8 10 18 0 9 7 30 15 46 19 36 11 72 -9 45 -11 -15 -16 -14 -54 12
-44 30 -52 33 -52 22z"></path>
<path d="M5100 363 c0 -15 -9 -36 -19 -47 -17 -18 -18 -27 -10 -68 6 -27 14
-48 18 -48 4 0 12 15 19 33 15 40 16 157 2 157 -5 0 -10 -12 -10 -27z"></path>
<path d="M5864 366 c-67 -34 -75 -45 -72 -90 3 -42 22 -53 24 -13 1 42 4 47
43 66 32 17 59 48 49 56 -2 1 -21 -7 -44 -19z"></path>
<path d="M6672 358 c-20 -25 -24 -84 -8 -116 9 -17 16 -40 16 -52 0 -30 49
-105 62 -92 6 6 2 24 -12 51 -11 23 -18 46 -15 52 4 5 1 16 -5 24 -7 8 -10 22
-6 30 4 10 -1 15 -17 16 -17 1 -18 2 -4 6 13 3 17 15 17 49 0 44 -9 54 -28 32z"></path>
<path d="M6776 288 c10 -34 32 -76 44 -83 5 -3 10 -17 10 -29 0 -13 8 -34 19
-47 10 -13 21 -34 25 -46 4 -11 13 -27 21 -33 12 -10 16 -9 21 4 4 10 -19 61
-62 136 -65 112 -94 150 -78 98z"></path>
<path d="M6241 258 c-16 -24 -48 -74 -70 -113 -23 -38 -52 -87 -66 -107 -22
-34 -23 -38 -8 -38 10 0 24 9 31 20 7 11 21 20 32 20 14 0 20 7 20 23 0 12 9
33 20 47 11 14 20 35 20 46 0 12 7 27 15 34 8 7 15 20 15 29 0 9 9 27 20 41
22 28 25 40 11 40 -5 0 -23 -19 -40 -42z"></path>
<path d="M5490 260 c-19 -4 -58 -16 -85 -28 -28 -11 -62 -22 -75 -24 -14 -1
-23 -7 -20 -13 2 -5 10 -9 17 -7 19 4 16 -18 -4 -41 -17 -18 -17 -19 6 -16 14
3 31 16 41 33 13 24 26 32 74 41 38 8 66 20 84 38 28 29 24 30 -38 17z"></path>
<path d="M6432 113 l3 -48 -31 2 c-35 3 -64 -21 -47 -38 6 -6 28 -6 64 1 82
17 81 17 54 44 -16 16 -25 36 -25 56 0 16 -5 30 -11 30 -7 0 -10 -18 -7 -47z"></path>
<path d="M5103 105 c11 -23 27 -34 27 -17 -1 9 -26 42 -33 42 -3 0 0 -11 6
-25z"></path>
<path d="M5852 45 c-28 -39 -29 -45 -13 -45 22 0 36 15 50 52 17 45 -4 40 -37
-7z"></path>
<path d="M4720 35 c0 -19 5 -35 10 -35 6 0 10 16 10 35 0 19 -4 35 -10 35 -5
0 -10 -16 -10 -35z"></path>
</g>
</svg>