 <svg version="1.0" xmlns="http://www.w3.org/2000/svg" width="700.000000pt" height="526.000000pt" viewBox="0 0 700.000000 526.000000" preserveAspectRatio="xMidYMid meet">
<metadata>
Created by potrace 1.12, written by Peter Selinger 2001-2015
</metadata>
<g transform="translate(0.000000,526.000000) scale(0.100000,-0.100000)" fill="#000000" stroke="none">
<path d="M2640 5241 c0 -26 17 -36 35 -21 23 19 18 40 -10 40 -18 0 -25 -5
-25 -19z"></path>
<path d="M2990 5254 c0 -2 19 -13 42 -25 23 -12 67 -46 98 -75 31 -30 60 -51
63 -47 4 3 -3 17 -15 31 l-23 24 33 26 c19 16 32 36 32 50 0 22 -2 22 -115 21
-63 -1 -115 -3 -115 -5z"></path>
<path d="M3470 5256 c0 -15 24 -66 31 -66 11 0 11 0 -2 39 -6 17 -15 31 -20
31 -5 0 -9 -2 -9 -4z"></path>
<path d="M4500 5255 c0 -3 11 -23 25 -44 18 -30 29 -38 45 -34 21 6 29 -12 8
-19 -17 -6 29 -78 50 -78 9 0 41 9 71 20 29 12 59 19 65 17 17 -7 -95 -57
-126 -57 -16 0 -28 -5 -28 -10 0 -22 31 -21 92 1 35 12 85 30 113 40 27 10 51
23 54 30 4 12 -13 10 -66 -6 -41 -13 -25 13 20 33 67 30 74 44 38 84 -33 37
-51 32 -32 -9 12 -25 10 -29 -16 -50 -15 -12 -39 -27 -53 -31 -127 -45 -150
-48 -150 -19 0 12 51 50 82 62 9 4 26 22 37 41 l20 34 -124 0 c-69 0 -125 -2
-125 -5z m120 -14 c0 -12 -28 -22 -34 -12 -3 5 -3 11 1 15 9 9 33 7 33 -3z
m-62 -26 c-3 -3 -9 2 -12 12 -6 14 -5 15 5 6 7 -7 10 -15 7 -18z"></path>
<path d="M5451 5243 c14 -16 193 -163 217 -177 14 -9 102 31 102 46 0 6 -8 7
-17 3 -10 -4 -30 -8 -44 -10 -14 -1 -30 -4 -35 -8 -10 -6 -164 111 -193 146
-7 10 -20 17 -28 17 -13 0 -13 -2 -2 -17z"></path>
<path d="M6174 5213 c14 -27 27 -56 30 -65 3 -11 20 -19 50 -23 59 -9 290
-149 346 -210 14 -15 50 -47 81 -71 31 -24 86 -78 122 -121 l66 -78 63 0 c48
0 63 4 66 15 2 12 -8 14 -52 12 -52 -4 -55 -2 -70 27 -9 17 -30 37 -46 46 -16
8 -43 32 -60 53 -17 21 -49 52 -71 68 -22 16 -62 50 -88 77 -27 26 -55 47 -63
47 -8 0 -29 16 -48 35 -19 19 -39 35 -45 35 -7 0 -32 13 -56 30 -24 16 -52 30
-62 30 -23 0 -33 26 -17 45 7 9 10 19 6 23 -4 4 -18 -6 -31 -22 -28 -35 -50
-30 -58 13 -10 48 -36 81 -64 81 l-24 0 25 -47z"></path>
<path d="M6395 5249 c-11 -17 0 -20 21 -4 17 13 17 14 2 15 -9 0 -20 -5 -23
-11z"></path>
<path d="M4437 5188 c11 -13 26 -34 33 -46 6 -13 14 -21 17 -19 7 7 -48 87
-60 87 -6 0 -1 -10 10 -22z"></path>
<path d="M6020 5160 c0 -5 11 -10 25 -10 14 0 25 5 25 10 0 6 -11 10 -25 10
-14 0 -25 -4 -25 -10z"></path>
<path d="M6876 5141 c-4 -5 -2 -12 3 -15 5 -4 12 -2 15 3 4 5 2 12 -3 15 -5 4
-12 2 -15 -3z"></path>
<path d="M2550 5130 c0 -5 5 -10 10 -10 6 0 10 5 10 10 0 6 -4 10 -10 10 -5 0
-10 -4 -10 -10z"></path>
<path d="M5810 5130 c0 -5 11 -10 25 -10 14 0 25 5 25 10 0 6 -11 10 -25 10
-14 0 -25 -4 -25 -10z"></path>
<path d="M3324 5075 c23 -53 30 -59 55 -43 25 15 26 26 6 52 -12 15 -18 17
-27 8 -9 -9 -16 -8 -31 6 -19 17 -19 16 -3 -23z"></path>
<path d="M4532 5028 c5 -15 48 -18 48 -3 0 6 -11 11 -26 13 -18 3 -25 0 -22
-10z"></path>
<path d="M3567 4912 c-16 -17 -15 -20 8 -42 34 -32 34 -83 0 -106 -15 -10 -25
-26 -25 -39 0 -25 61 -135 86 -156 24 -20 29 0 6 24 -26 28 -28 43 -6 51 21 8
34 -1 34 -24 0 -11 6 -31 12 -46 10 -22 10 -28 0 -32 -21 -7 -13 -30 19 -52
36 -26 42 -23 30 16 -5 16 -22 70 -37 119 -15 50 -35 110 -44 135 -10 25 -26
73 -35 108 -10 34 -21 62 -25 62 -4 0 -14 -8 -23 -18z m51 -182 c3 -7 0 -10
-7 -6 -7 5 -11 -1 -11 -16 -1 -20 -2 -21 -10 -6 -12 19 -2 50 13 45 6 -2 13
-9 15 -17z"></path>
<path d="M5525 4910 c-82 -17 -170 -41 -220 -61 -11 -4 -76 -26 -145 -48 -377
-121 -623 -222 -598 -246 5 -5 87 17 133 35 72 29 189 44 181 24 -3 -7 -10
-30 -15 -51 -10 -37 -15 -41 -76 -62 -36 -13 -67 -27 -70 -31 -13 -22 23 -16
151 21 176 52 443 123 742 196 154 39 232 62 232 71 0 21 -46 105 -68 125 -26
24 -89 46 -127 46 -16 -1 -70 -9 -120 -19z m210 -39 c34 -20 74 -96 59 -111
-5 -4 -43 -10 -84 -12 -71 -3 -75 -2 -87 22 -7 14 -13 18 -13 10 0 -12 -2 -12
-9 -2 -4 8 -10 12 -13 10 -2 -1 -24 14 -48 34 l-45 37 35 15 c51 22 167 21
205 -3z m-252 -35 c10 -8 15 -20 11 -30 -7 -19 -18 -20 -45 -6 -15 9 -17 15
-9 30 12 23 19 24 43 6z m-147 -57 c4 -8 -1 -9 -16 -4 -15 5 -20 4 -16 -4 7
-10 1 -19 -33 -57 -12 -13 -15 -13 -30 1 -10 8 -23 15 -29 15 -7 0 -12 7 -12
15 0 9 6 12 16 8 10 -4 22 0 28 9 10 14 32 22 73 27 6 0 15 -4 19 -10z m-251
-79 c-3 -5 -10 -10 -16 -10 -5 0 -9 5 -9 10 0 6 7 10 16 10 8 0 12 -4 9 -10z
m-145 -59 c0 -9 -24 -21 -41 -21 -16 0 -10 18 9 23 28 8 32 7 32 -2z"></path>
<path d="M4216 4802 c-3 -6 -1 -14 5 -17 15 -10 25 3 12 16 -7 7 -13 7 -17 1z"></path>
<path d="M2410 4772 c0 -5 7 -17 15 -28 15 -19 20 -8 9 20 -6 17 -24 22 -24 8z"></path>
<path d="M4260 4772 c0 -5 15 -13 33 -18 24 -7 35 -18 43 -44 12 -36 28 -48
38 -31 9 13 -19 55 -47 74 -30 20 -67 30 -67 19z"></path>
<path d="M3294 4688 c-6 -7 -16 -42 -23 -78 -7 -36 -17 -69 -22 -74 -12 -13
-12 -26 1 -26 6 0 10 7 10 15 0 17 26 32 71 40 18 3 35 7 36 9 2 1 -1 29 -5
62 -6 54 -9 59 -33 62 -14 2 -30 -3 -35 -10z"></path>
<path d="M6153 4666 c14 -36 136 -229 196 -311 37 -49 78 -108 91 -130 13 -22
42 -65 65 -95 97 -130 186 -370 146 -394 -14 -9 -42 41 -34 60 5 14 2 16 -14
12 -16 -4 -19 -1 -17 21 2 14 1 18 -2 8 -4 -13 -12 -15 -32 -10 -15 3 -30 10
-33 15 -3 5 -21 9 -40 8 -88 -2 -129 2 -135 11 -3 6 -19 7 -37 3 -17 -3 -49
-7 -72 -8 -22 -1 -44 -4 -50 -8 -5 -3 -32 -9 -60 -13 -27 -4 -57 -11 -65 -15
-31 -15 -72 -21 -65 -9 5 7 1 9 -11 5 -11 -3 -37 -10 -59 -15 -22 -5 -55 -14
-72 -19 -18 -6 -33 -7 -33 -4 0 4 -15 7 -32 7 -28 0 -33 4 -35 25 -1 14 -5 40
-9 59 -4 19 -2 36 4 40 7 4 5 26 -5 66 -18 71 -18 71 -38 55 -8 -7 -23 -9 -32
-5 -17 6 -17 7 0 20 15 11 16 17 8 34 -14 26 -48 35 -92 24 -24 -7 -42 -5 -63
6 l-30 15 34 12 c19 7 46 13 60 14 24 1 24 1 6 15 -12 9 -16 18 -10 24 11 11
54 -4 54 -19 0 -13 27 -13 35 0 3 5 -7 16 -22 24 -15 8 -37 29 -48 46 -16 24
-25 30 -45 26 -29 -5 -60 9 -60 28 0 9 -7 12 -21 9 -21 -6 -21 -4 -15 42 l8
48 -27 -7 c-19 -5 -33 -2 -46 10 -23 21 -25 36 -3 27 12 -4 15 -2 12 8 -3 8
-15 13 -27 12 -25 -3 -26 3 -6 23 25 25 18 43 -16 42 -25 -1 -31 -6 -36 -29
-5 -26 -7 -27 -59 -24 -30 2 -56 -1 -59 -6 -4 -5 -16 -9 -28 -9 -14 0 -28 -11
-39 -31 l-18 -30 -87 2 c-80 2 -88 0 -106 -22 -17 -21 -20 -22 -28 -6 -6 9
-17 17 -26 17 -9 0 -13 6 -9 15 11 30 -22 15 -50 -22 -15 -21 -29 -40 -30 -42
-2 -2 -10 2 -18 8 -10 8 -16 9 -21 1 -8 -13 -35 -13 -35 0 0 6 10 10 21 10 19
0 21 4 15 32 -9 44 -29 62 -73 64 -52 3 -132 40 -129 59 2 17 7 18 31 8 17 -6
32 3 23 13 -3 3 -29 7 -58 10 -47 4 -51 3 -45 -15 5 -15 -1 -20 -30 -25 -19
-4 -50 -4 -68 -1 -24 5 -39 2 -50 -9 -18 -18 -43 -21 -52 -6 -12 19 -35 10
-35 -14 0 -13 -6 -28 -12 -33 -46 -36 -118 -8 -161 61 -16 25 -35 46 -42 46
-7 0 -22 3 -32 7 -17 6 -17 5 -1 -13 19 -22 19 -22 -52 -27 -14 -1 -28 -10
-32 -20 -6 -14 -12 -16 -27 -7 -30 15 -36 12 -17 -9 10 -11 15 -25 11 -31 -3
-6 5 -24 19 -41 29 -34 28 -32 31 -74 1 -16 5 -43 9 -58 7 -31 -6 -57 -30 -57
-8 0 -14 7 -14 15 0 23 -18 18 -46 -12 -21 -23 -28 -25 -44 -15 -16 10 -22 8
-38 -13 -11 -14 -31 -29 -44 -34 -14 -5 -32 -25 -42 -45 -20 -43 -24 -46 -59
-39 -22 4 -25 8 -16 19 6 8 18 14 25 14 8 0 14 7 14 15 0 8 -4 15 -10 15 -5 0
-10 -4 -10 -10 0 -5 -6 -10 -13 -10 -8 0 -23 -10 -35 -22 -18 -21 -19 -25 -6
-42 8 -11 12 -27 9 -37 -8 -23 11 -68 38 -89 19 -16 20 -22 10 -39 -7 -11 -13
-30 -13 -40 0 -23 -16 -36 -25 -21 -9 14 -78 12 -99 -3 -26 -19 -17 -57 19
-78 36 -21 67 -23 83 -7 9 9 12 9 12 -4 0 -8 -23 -38 -51 -65 l-51 -51 -64 3
c-35 1 -64 -1 -64 -5 0 -4 -11 -12 -25 -18 -21 -10 -27 -9 -31 3 -8 20 4 35
23 28 11 -4 14 -2 11 8 -6 19 -35 24 -53 9 -23 -19 -18 -46 13 -70 15 -12 29
-31 32 -43 3 -12 17 -28 32 -34 19 -10 27 -23 32 -55 4 -27 3 -44 -3 -46 -6
-2 -8 -14 -5 -26 5 -22 -20 -44 -57 -49 -39 -6 -136 -95 -145 -134 -4 -16 -14
-23 -29 -23 -13 0 -27 -4 -30 -10 -3 -5 -19 -10 -34 -10 -15 0 -31 -4 -37 -9
-12 -12 -158 -25 -151 -14 7 11 -27 10 -65 -1 -16 -5 -25 -13 -21 -19 4 -6 -2
-8 -15 -5 -13 4 -20 2 -16 -3 6 -11 -60 -41 -93 -43 -13 0 -23 -4 -23 -8 0 -8
-34 -4 -67 7 -22 7 -53 59 -53 88 0 17 -14 30 -23 21 -3 -3 6 -38 19 -77 27
-79 28 -85 15 -71 -6 5 -26 53 -45 107 -26 73 -33 103 -26 117 12 22 -16 61
-70 95 -46 29 -297 135 -320 135 -9 0 -19 3 -23 6 -18 18 -375 129 -385 119
-10 -9 11 -25 43 -31 20 -3 38 -10 41 -15 3 -5 14 -9 25 -9 10 0 27 -4 37 -9
9 -5 96 -35 192 -66 198 -64 223 -77 276 -141 56 -66 114 -213 105 -264 -12
-72 -23 -89 -69 -116 -26 -15 -58 -28 -72 -28 -22 -1 -25 -6 -28 -40 -3 -29
-6 -36 -13 -25 -8 12 -11 11 -19 -3 -6 -9 -17 -15 -25 -12 -8 4 -15 1 -15 -5
0 -6 -5 -11 -11 -11 -7 0 -9 11 -6 28 l6 27 -11 -26 c-9 -22 -16 -25 -64 -25
-30 0 -54 3 -54 8 0 5 -11 6 -24 2 -13 -3 -27 -1 -30 4 -4 7 -18 7 -37 2 -25
-8 -30 -6 -25 5 3 8 1 15 -4 15 -5 0 -27 31 -49 68 -40 68 -63 86 -139 107
-12 4 -22 12 -22 19 0 11 -35 47 -116 118 -10 9 -39 37 -64 62 -26 27 -49 42
-55 37 -18 -15 -141 -34 -169 -27 -30 7 -132 95 -163 141 -11 17 -23 51 -26
77 l-6 46 62 41 c87 56 146 80 216 87 61 7 76 16 45 28 -49 19 -215 -37 -301
-100 -87 -64 -263 -248 -280 -294 -4 -8 -14 -26 -23 -40 -10 -14 -38 -65 -63
-115 -46 -93 -59 -127 -213 -564 -2 -8 -7 -11 -10 -8 -3 2 27 100 67 216 39
117 69 215 66 218 -7 7 -35 -58 -51 -120 l-12 -49 -17 26 c-19 28 -40 36 -31
11 9 -22 -16 -18 -43 7 -18 17 -28 20 -40 12 -33 -21 -53 -60 -67 -135 -8 -41
-24 -104 -36 -140 -12 -35 -25 -95 -30 -132 -6 -55 -13 -75 -36 -99 -25 -26
-74 -55 -109 -64 -5 -2 -41 -12 -80 -23 -38 -10 -87 -22 -107 -26 l-38 -6 0
-203 0 -203 59 -6 c32 -4 84 -16 116 -28 l56 -21 -6 -41 c-4 -23 -11 -43 -16
-45 -5 -2 -9 -13 -9 -24 0 -12 3 -18 7 -15 8 8 43 -22 43 -36 0 -6 8 -20 18
-31 26 -30 43 -74 31 -81 -5 -4 -7 -11 -4 -16 4 -5 -1 -9 -9 -9 -11 0 -16 -10
-16 -34 0 -29 3 -33 20 -29 25 7 36 -32 19 -72 -6 -17 -11 -45 -10 -62 2 -31
0 -33 -28 -33 -24 0 -31 -4 -31 -20 0 -12 -5 -17 -14 -14 -8 3 -17 1 -21 -5
-3 -6 -17 -11 -31 -11 -21 0 -24 4 -19 20 4 11 2 20 -4 20 -6 0 -11 -6 -11
-14 0 -11 -8 -10 -37 5 -21 10 -53 21 -70 25 l-33 7 0 -93 0 -92 78 -87 c85
-94 98 -130 68 -189 -23 -44 -10 -77 84 -212 25 -36 72 -109 106 -162 34 -53
88 -129 120 -169 126 -155 144 -182 138 -213 -5 -21 -3 -27 7 -24 8 3 15 17
17 31 4 35 15 34 29 -3 l11 -30 391 0 390 0 -2 27 c-1 16 -6 31 -12 35 -5 4 7
8 28 8 23 0 36 -4 32 -10 -3 -5 -2 -10 4 -10 10 0 29 27 30 43 0 12 61 67 61
55 0 -5 9 -6 20 -3 11 4 20 2 20 -4 0 -6 5 -11 11 -11 7 0 9 9 5 24 -6 26 9
38 43 31 15 -3 22 6 34 43 11 32 13 52 6 64 -6 10 -7 23 -4 28 4 6 -1 13 -9
16 -9 3 -16 12 -16 20 0 17 12 18 28 2 7 -7 12 -8 12 -3 0 4 9 0 20 -10 19
-18 20 -17 20 2 0 13 -9 23 -22 27 -22 6 -23 7 -4 21 22 17 14 30 -16 30 -14
0 -22 8 -24 23 -3 19 1 22 26 22 23 0 37 -10 65 -47 20 -27 45 -51 55 -55 11
-4 31 -26 46 -49 25 -40 27 -42 40 -24 20 26 18 31 -21 80 -22 26 -47 45 -65
49 -22 4 -30 11 -30 27 0 11 -7 37 -16 56 -15 30 -15 37 -3 60 8 14 13 46 12
72 -1 25 3 49 9 52 6 4 21 30 33 58 12 28 24 48 28 45 4 -4 7 5 7 20 0 19 7
29 25 36 27 10 32 29 13 48 -8 8 -5 14 16 21 14 6 29 19 32 28 3 10 13 33 21
51 14 27 18 30 25 17 13 -23 25 -10 33 34 4 22 13 45 21 52 8 6 14 20 14 30 0
21 12 30 27 21 6 -4 23 -33 37 -66 19 -43 57 -92 145 -185 140 -149 161 -186
227 -404 l47 -157 -102 -98 c-68 -66 -101 -105 -101 -120 0 -40 -18 -23 -33
31 -8 28 -49 196 -92 372 -42 176 -80 331 -85 345 -5 14 -18 58 -29 98 -12 39
-26 72 -31 72 -13 0 -14 3 20 -118 34 -126 129 -510 164 -667 32 -145 39 -161
70 -167 21 -4 30 1 45 26 11 17 44 54 73 83 55 53 202 163 219 163 5 0 12 7
15 15 4 8 15 15 26 15 12 0 37 5 58 11 30 9 48 8 93 -5 54 -16 57 -18 67 -59
6 -23 14 -51 17 -61 3 -11 27 -43 53 -70 64 -69 72 -111 30 -159 -16 -19 -30
-37 -30 -41 0 -3 160 -6 356 -6 242 0 353 3 349 10 -10 16 -45 143 -41 147 2
2 16 -32 32 -77 l29 -80 116 0 c105 0 118 2 135 21 14 16 27 20 51 16 18 -3
33 -2 33 2 0 13 -42 63 -75 91 -68 56 -105 98 -105 118 0 12 -6 22 -12 22 -19
1 -104 82 -112 106 -3 12 -17 26 -30 32 -17 7 -23 17 -20 30 4 13 -2 22 -20
30 -33 15 -61 71 -52 105 5 21 15 27 56 36 28 6 62 11 75 11 37 0 38 15 5 48
-31 32 -39 69 -18 90 17 17 69 15 94 -3 23 -15 36 -11 28 9 -3 7 3 19 12 27
15 12 20 9 50 -26 19 -22 39 -52 46 -67 7 -14 25 -32 42 -40 44 -20 67 -57 69
-114 2 -45 0 -49 -26 -54 l-27 -5 64 -67 c36 -36 77 -90 92 -120 15 -29 35
-63 45 -76 10 -13 25 -47 35 -75 9 -29 25 -73 36 -99 l20 -48 123 0 123 0 22
48 c12 26 60 126 105 222 86 182 91 192 150 331 20 46 42 93 49 104 7 11 17
38 24 61 21 71 112 164 162 164 10 0 22 5 25 10 4 6 15 8 26 5 23 -8 24 -3 4
36 l-16 30 -27 -21 c-44 -35 -247 -184 -268 -198 -10 -7 -32 -21 -49 -32 -90
-60 -306 -70 -440 -20 -27 10 -97 33 -154 51 -137 42 -187 75 -351 229 -43 40
-140 177 -140 197 0 4 -7 21 -15 37 -22 43 -72 194 -80 246 -7 45 -18 69 -88
207 l-37 71 22 66 c27 80 20 93 -40 74 l-41 -13 6 -45 c3 -25 7 -47 9 -48 6
-8 -29 -107 -48 -132 -29 -40 -37 -90 -33 -229 2 -100 8 -145 29 -216 29 -102
30 -105 16 -105 -6 0 -10 6 -9 13 1 6 -1 19 -4 27 -4 8 -8 29 -11 45 -2 17 -5
30 -6 30 -1 0 -3 7 -5 15 -1 8 -8 35 -15 59 -10 40 -14 197 -6 264 5 39 -9 33
-33 -15 -12 -24 -29 -56 -39 -73 -28 -47 -52 -137 -52 -193 0 -29 -3 -52 -8
-52 -4 0 -18 28 -31 63 -33 90 -61 149 -81 172 -27 32 -38 73 -50 178 -16 135
-3 187 56 228 24 16 50 29 58 29 9 0 24 4 34 9 9 5 61 30 115 56 53 26 97 48
97 51 0 2 -17 32 -38 66 -86 143 -109 245 -87 378 4 22 36 111 71 197 84 203
144 369 144 396 1 12 10 47 21 77 11 30 22 66 24 80 27 139 72 277 93 284 9 3
25 11 35 18 15 11 20 10 28 -4 6 -10 14 -18 19 -18 12 0 61 53 94 103 32 47
90 107 103 107 5 0 18 9 29 21 10 12 32 28 49 37 50 27 203 17 305 -19 27 -10
202 -5 220 6 14 9 131 9 152 0 9 -4 21 -5 25 -2 5 3 31 -5 58 -18 28 -13 63
-24 78 -24 15 -1 46 -10 68 -21 22 -12 44 -18 50 -15 15 10 39 -15 39 -41 0
-28 -7 -30 -32 -7 -29 26 -21 -1 10 -30 37 -35 56 -55 98 -104 20 -24 42 -43
49 -43 8 0 27 -11 43 -25 17 -14 34 -25 40 -25 5 0 25 15 43 33 l35 32 -18 35
c-19 39 -23 80 -8 80 6 0 15 -11 20 -25 5 -14 14 -25 20 -25 6 0 10 -10 8 -22
-1 -13 10 -49 25 -81 21 -44 32 -57 45 -53 27 9 44 -8 40 -39 -4 -37 -24 -43
-32 -10 -13 50 -26 24 -26 -50 0 -61 -3 -73 -15 -69 -11 5 -13 -1 -8 -29 3
-20 0 -44 -8 -58 -7 -13 -13 -35 -15 -49 -19 -223 -19 -211 7 -230 20 -16 22
-22 13 -42 -22 -47 -45 -125 -51 -176 -3 -29 -11 -52 -17 -52 -6 0 -3 -7 8
-15 16 -12 17 -18 6 -44 -17 -41 -21 -131 -6 -131 6 0 20 14 30 31 13 22 24
29 37 26 11 -3 35 6 56 20 38 26 63 36 116 47 24 6 27 3 27 -18 0 -17 -11 -32
-32 -47 -45 -31 -58 -49 -53 -73 3 -12 14 -60 25 -107 11 -48 20 -107 20 -133
0 -34 4 -46 15 -46 9 0 15 -9 15 -25 0 -14 5 -25 11 -25 6 0 9 17 7 43 -3 37
0 42 19 45 27 4 48 -38 38 -75 -5 -22 -45 -41 -63 -29 -5 3 -28 -15 -53 -40
-24 -24 -74 -63 -111 -85 -37 -22 -74 -52 -83 -65 -21 -32 -76 -58 -107 -51
-69 18 -104 79 -82 142 7 22 11 41 9 44 -10 9 -57 -45 -86 -99 -26 -46 -32
-72 -39 -159 -5 -58 -14 -117 -21 -133 -9 -22 -9 -31 1 -43 19 -23 -22 -69
-140 -155 -161 -117 -160 -116 -160 -160 0 -31 6 -43 29 -59 49 -35 70 -28
148 51 65 67 143 174 143 197 0 5 11 23 25 39 14 17 50 81 80 144 62 128 115
192 140 167 51 -51 70 -230 41 -381 -19 -97 -77 -243 -118 -297 -22 -29 -18
-37 10 -20 16 10 23 10 36 0 19 -16 21 -11 45 118 5 28 18 53 37 70 43 39 100
70 121 65 24 -6 30 0 82 71 25 33 69 87 98 121 29 34 53 66 53 73 0 6 -9 16
-20 23 -24 15 -26 28 -3 28 24 0 83 -48 83 -68 0 -9 -33 -54 -73 -99 -126
-143 -136 -163 -83 -163 12 0 26 -4 32 -8 5 -4 27 -14 49 -21 22 -7 67 -26
101 -42 85 -41 100 -39 69 7 -29 42 -31 62 -9 71 21 8 55 -9 102 -52 22 -19
47 -35 56 -35 9 0 16 -8 16 -19 0 -33 31 -95 65 -131 48 -49 121 -198 105
-213 -9 -9 -19 -4 -41 21 -31 35 -48 37 -34 5 5 -10 10 -37 12 -60 2 -22 17
-73 33 -111 41 -98 58 -198 39 -237 -8 -16 -23 -31 -34 -33 -11 -2 -26 -9 -34
-16 -8 -6 -22 -10 -33 -8 -10 2 -18 -1 -18 -6 0 -6 20 -14 46 -18 54 -11 62
-28 16 -32 -42 -4 -86 23 -77 46 3 9 3 13 -1 10 -10 -10 -44 10 -44 26 0 16
-27 29 -41 20 -5 -3 -4 -14 2 -26 25 -47 29 -80 12 -109 -10 -16 -21 -29 -27
-29 -5 0 -24 17 -41 38 -18 20 -35 35 -37 32 -2 -3 0 -51 6 -108 9 -95 8 -103
-10 -125 -11 -12 -28 -35 -38 -50 -24 -39 -97 -70 -186 -77 -41 -4 95 -7 303
-8 315 -2 377 0 377 12 0 7 -29 33 -65 56 -96 62 -139 124 -137 193 0 16 -3
40 -8 53 -9 22 -7 24 19 24 35 0 55 22 46 50 -5 15 0 29 15 46 45 47 39 138
-22 292 -15 40 -28 80 -28 88 0 34 23 5 51 -66 16 -41 40 -95 53 -120 13 -25
26 -58 30 -73 4 -16 18 -46 31 -67 13 -21 40 -78 59 -127 l34 -88 -24 -3 c-13
-2 -24 -9 -24 -16 0 -21 45 -117 79 -171 17 -27 31 -57 31 -67 0 -17 17 -18
285 -18 l286 0 -2 69 -2 70 -51 43 c-28 24 -70 57 -93 73 -24 17 -43 33 -43
37 0 4 12 10 28 14 84 19 156 42 159 51 4 10 -25 11 -42 1 -14 -7 -77 -4 -92
5 -6 4 -14 1 -16 -5 -4 -10 -6 -10 -6 0 -1 21 -28 45 -34 29 -3 -7 -8 -5 -13
8 -10 27 -54 79 -54 65 0 -7 -15 -3 -37 10 -31 17 -52 47 -111 151 -41 72 -84
142 -98 157 -50 57 -80 93 -104 126 -14 19 -36 42 -50 51 -14 10 -55 54 -93
99 -37 44 -105 122 -152 171 -90 97 -90 96 -28 132 125 73 379 217 433 245
155 83 239 131 276 154 13 9 30 14 38 11 17 -7 50 -56 97 -145 17 -31 44 -79
60 -107 l29 -50 0 52 c0 28 -4 54 -9 57 -5 3 -35 51 -66 106 -31 55 -61 103
-67 106 -13 8 11 34 31 34 9 0 35 -31 61 -73 l45 -72 3 350 c1 192 0 356 -3
362 -2 7 -13 13 -24 13 -11 0 -26 9 -34 20 -13 18 -16 19 -43 6 -17 -8 -74
-17 -134 -20 -58 -3 -117 -8 -132 -12 -23 -5 -28 -3 -28 13 0 15 16 27 63 47
34 15 69 31 77 35 13 7 15 51 12 322 -2 173 -7 359 -12 414 -5 55 -14 183 -20
285 -10 185 -14 219 -30 275 -5 17 -14 50 -21 75 -7 25 -16 50 -20 55 -4 6
-13 30 -20 55 -7 25 -18 52 -24 60 -7 8 -31 47 -53 86 -23 39 -48 76 -56 84
-9 7 -16 22 -16 34 0 13 -19 41 -45 66 -28 27 -45 53 -45 67 0 15 -9 27 -25
35 -14 6 -25 18 -25 25 0 8 -14 28 -30 45 -17 16 -42 55 -57 86 -15 31 -41 72
-58 89 -34 35 -51 42 -42 19z m-1683 -211 c0 -8 -6 -15 -13 -15 -8 0 -14 7
-14 15 0 8 6 15 14 15 7 0 13 -7 13 -15z m-60 -15 c12 -8 9 -10 -12 -10 -16 0
-28 5 -28 10 0 13 20 13 40 0z m880 -10 c13 -9 13 -11 1 -19 -16 -10 -51 3
-51 19 0 13 31 13 50 0z m-60 -20 c0 -5 -4 -10 -10 -10 -5 0 -10 5 -10 10 0 6
5 10 10 10 6 0 10 -4 10 -10z m-266 -85 c-6 -16 -44 -21 -44 -7 0 14 12 22 31
22 12 0 16 -5 13 -15z m-347 -1 c-3 -3 -12 -4 -19 -1 -8 3 -5 6 6 6 11 1 17
-2 13 -5z m108 -33 c3 -5 -3 -12 -13 -16 -22 -6 -52 3 -52 16 0 12 57 12 65 0z
m-725 -61 c0 -5 -4 -10 -9 -10 -6 0 -13 5 -16 10 -3 6 1 10 9 10 9 0 16 -4 16
-10z m1469 -136 c3 -16 1 -17 -13 -5 -19 16 -21 34 -3 29 6 -3 14 -13 16 -24z
m-2 -54 c18 0 16 -11 -6 -39 -14 -19 -24 -22 -44 -17 -17 4 -24 11 -21 20 4
10 -10 21 -41 35 -28 13 -44 25 -40 32 4 6 16 9 26 6 10 -3 23 1 30 9 9 11 17
9 47 -16 20 -17 42 -30 49 -30z m-1781 -207 c-10 -10 -19 5 -10 18 6 11 8 11
12 0 2 -7 1 -15 -2 -18z m-122 -39 c23 -9 20 -31 -5 -39 -25 -8 -44 7 -36 29
7 17 16 19 41 10z m2176 -144 c0 -5 -4 -10 -9 -10 -6 0 -13 5 -16 10 -3 6 1
10 9 10 9 0 16 -4 16 -10z m117 -57 c3 -7 -3 -9 -17 -6 -29 8 -37 25 -9 21 12
-1 24 -8 26 -15z m-29 -43 c7 0 12 -9 12 -20 0 -41 -42 -12 -59 40 l-11 35 23
-27 c13 -16 28 -28 35 -28z m-431 -60 c1 -48 -13 -53 -20 -7 -3 25 3 42 19 47
0 0 0 -18 1 -40z m-3083 -641 c-9 -15 -20 -10 -20 10 0 15 3 17 13 9 7 -6 10
-14 7 -19z m-604 -150 c0 -4 12 -14 27 -21 15 -7 30 -22 33 -33 3 -11 11 -21
19 -23 8 -2 11 3 8 13 -5 12 1 15 26 15 40 0 57 -15 57 -50 0 -20 -5 -26 -25
-28 -13 -1 -27 3 -30 8 -12 19 -24 10 -21 -17 2 -14 14 -34 27 -44 42 -30 229
-108 247 -103 14 5 15 4 2 -5 -10 -7 -11 -11 -2 -11 6 0 12 -4 12 -8 0 -5 -20
-9 -45 -10 -25 0 -45 4 -45 10 0 5 -9 7 -19 3 -11 -3 -22 -1 -26 5 -3 5 -13
10 -21 10 -9 0 -43 16 -76 35 -33 20 -65 34 -72 33 -16 -4 -66 37 -66 55 0 8
-7 20 -15 27 -8 7 -15 17 -15 23 0 6 -7 19 -16 28 -23 25 -27 75 -8 93 14 15
44 12 44 -5z m3908 -206 c6 -19 -25 -16 -32 3 -4 11 -1 14 11 12 9 -2 18 -9
21 -15z m-3680 -163 c34 -12 62 -27 62 -32 0 -23 -121 12 -247 73 -43 21 -61
35 -60 48 1 15 13 12 92 -24 49 -23 118 -52 153 -65z m535 -323 c-14 -37 -28
-65 -30 -63 -2 2 8 34 23 70 14 37 28 65 30 63 2 -2 -8 -33 -23 -70z m-1239 9
c3 -11 3 -23 0 -28 -7 -12 -72 -10 -95 3 -19 10 -18 12 17 39 41 30 68 26 78
-14z m4229 -238 c33 -44 40 -58 30 -58 -15 1 -84 71 -78 80 11 17 23 11 48
-22z m-3948 -71 c34 -19 41 -29 47 -66 5 -30 4 -49 -4 -59 -9 -10 -8 -16 3
-22 12 -8 11 -11 -5 -23 -10 -7 -18 -26 -18 -41 0 -42 -44 -139 -72 -160 -25
-19 -25 -19 -94 12 -38 18 -74 32 -80 32 -6 0 -17 6 -24 13 -7 7 -45 25 -85
41 l-72 29 1 38 c0 45 6 51 77 78 51 21 54 21 66 4 12 -15 16 -16 27 -4 10 10
10 15 1 18 -18 6 71 89 120 112 55 25 64 25 112 -2z m3994 -21 c6 -8 24 -19
39 -25 21 -9 31 -23 41 -56 l13 -45 -48 -55 c-93 -106 -116 -130 -110 -112 3
9 1 17 -4 17 -6 0 -10 7 -10 15 0 8 -9 24 -20 35 -15 15 -20 33 -20 74 0 45 6
62 37 110 37 56 60 68 82 42z m392 -143 c35 -38 49 -76 49 -128 0 -47 12 -58
29 -28 7 13 9 -6 8 -63 -2 -91 -4 -93 -69 -43 -20 16 -52 36 -71 45 -33 16
-38 16 -61 1 -13 -9 -26 -27 -28 -39 -2 -13 -9 -22 -18 -21 -27 3 -154 59
-157 70 -2 5 21 38 51 71 31 34 60 70 65 81 6 10 23 22 37 25 22 6 34 1 64
-29 l37 -37 22 35 c17 28 19 40 11 61 -12 34 0 33 31 -1z m-4213 -148 c-2 -12
-12 -21 -25 -23 -26 -4 -29 11 -12 55 10 27 11 28 25 8 8 -11 13 -29 12 -40z
m912 -47 c0 -16 18 -8 22 10 4 13 14 17 34 16 16 -1 29 -2 29 -4 0 -1 19 -3
43 -5 23 -2 50 -9 58 -16 13 -10 17 -10 24 1 10 17 44 5 37 -14 -3 -7 -15 -50
-27 -94 -17 -61 -26 -82 -39 -82 -13 0 -19 -17 -30 -82 -39 -252 -40 -507 -2
-484 5 3 9 79 9 168 1 177 12 249 62 405 17 50 30 98 30 106 0 21 27 71 49 91
17 15 28 16 91 7 46 -6 81 -6 97 0 32 12 38 7 62 -45 26 -60 34 -103 22 -111
-19 -11 -13 -45 8 -45 11 0 22 -4 25 -9 16 -26 -130 -351 -232 -516 -30 -49
-61 -103 -68 -120 -9 -23 -29 -40 -76 -63 -89 -44 -102 -45 -106 -4 -4 41 -22
42 -22 0 l0 -31 -23 21 c-28 27 -42 28 -59 4 -30 -41 -36 -34 -77 94 -47 145
-83 213 -155 294 -29 32 -57 73 -63 92 -43 125 -85 228 -95 228 -12 0 -9 -29
6 -63 31 -73 36 -90 31 -95 -9 -10 -52 40 -79 92 -15 27 -23 52 -18 55 4 3 13
17 20 31 7 14 22 43 33 65 12 22 32 56 45 76 24 35 27 36 82 34 71 -2 122 -24
145 -64 29 -50 47 -122 47 -191 0 -55 5 -72 30 -110 18 -27 30 -58 30 -77 0
-18 5 -33 10 -33 12 0 13 32 1 81 -5 21 -4 43 1 53 5 10 6 25 2 34 -4 9 -9 31
-11 47 -3 17 -13 56 -24 88 -20 59 -40 176 -32 189 5 9 53 -12 53 -24z m2810
11 c0 -5 -7 -9 -15 -9 -15 0 -20 12 -9 23 8 8 24 -1 24 -14z m-1967 -271 c4
-31 2 -46 -7 -37 -10 11 -17 69 -8 69 5 0 12 -15 15 -32z m17 -100 c0 -19 -2
-20 -10 -8 -13 19 -13 30 0 30 6 0 10 -10 10 -22z m7 -60 c-3 -7 -5 -2 -5 12
0 14 2 19 5 13 2 -7 2 -19 0 -25z m28 -84 c9 -50 1 -52 -12 -4 -5 22 -7 40 -3
40 4 0 11 -16 15 -36z m59 -259 c8 -33 16 -73 18 -90 2 -16 6 -32 10 -35 10
-8 37 -120 28 -120 -17 0 -54 127 -85 295 -10 53 13 13 29 -50z m-1874 -205
c0 -5 -2 -10 -4 -10 -3 0 -8 5 -11 10 -3 6 -1 10 4 10 6 0 11 -4 11 -10z
m1959 -91 c7 -23 15 -48 18 -58 4 -9 3 -13 -1 -10 -11 11 -45 109 -37 109 4 0
13 -18 20 -41z m41 -114 c0 -5 -5 -3 -10 5 -5 8 -10 20 -10 25 0 6 5 3 10 -5
5 -8 10 -19 10 -25z"></path>
<path d="M1462 1595 c-17 -36 -15 -80 3 -95 20 -17 29 -7 17 17 -6 11 -8 38
-5 61 6 48 1 53 -15 17z"></path>
<path d="M1304 1534 c0 -30 3 -54 7 -54 20 0 27 95 7 103 -10 3 -13 -11 -14
-49z"></path>
<path d="M1220 1517 c0 -20 30 -57 46 -57 20 0 17 11 -11 43 -27 30 -35 33
-35 14z"></path>
<path d="M2958 1320 c-37 -20 -54 -37 -45 -46 4 -5 107 55 107 62 0 9 -28 2
-62 -16z"></path>
<path d="M3061 1270 c-45 -53 -67 -64 -56 -29 12 37 -14 11 -31 -31 -9 -21
-22 -41 -30 -44 -16 -6 -19 -36 -4 -36 11 0 190 173 190 183 0 21 -32 1 -69
-43z"></path>
<path d="M2780 1285 c0 -14 5 -25 10 -25 6 0 10 11 10 25 0 14 -4 25 -10 25
-5 0 -10 -11 -10 -25z"></path>
<path d="M2596 1228 c4 -18 13 -43 20 -55 8 -12 14 -31 14 -43 0 -11 5 -20 11
-20 7 0 8 14 4 43 -9 54 -31 107 -44 107 -6 0 -8 -13 -5 -32z"></path>
<path d="M2770 1220 c0 -11 5 -20 10 -20 6 0 10 9 10 20 0 11 -4 20 -10 20 -5
0 -10 -9 -10 -20z"></path>
<path d="M2905 1110 c4 -6 11 -8 16 -5 14 9 11 15 -7 15 -8 0 -12 -5 -9 -10z"></path>
<path d="M2640 1010 c0 -47 4 -80 10 -80 6 0 10 33 10 80 0 47 -4 80 -10 80
-6 0 -10 -33 -10 -80z"></path>
<path d="M2620 785 c0 -14 5 -25 10 -25 6 0 10 11 10 25 0 14 -4 25 -10 25 -5
0 -10 -11 -10 -25z"></path>
<path d="M2900 780 c0 -5 7 -10 15 -10 8 0 15 5 15 10 0 6 -7 10 -15 10 -8 0
-15 -4 -15 -10z"></path>
<path d="M2830 770 c0 -5 5 -10 10 -10 6 0 10 5 10 10 0 6 -4 10 -10 10 -5 0
-10 -4 -10 -10z"></path>
<path d="M2660 720 c0 -11 5 -20 10 -20 6 0 10 9 10 20 0 11 -4 20 -10 20 -5
0 -10 -9 -10 -20z"></path>
<path d="M2635 635 c3 -14 7 -36 10 -50 7 -34 23 -32 18 3 -9 57 -14 72 -23
72 -6 0 -8 -11 -5 -25z"></path>
<path d="M3493 4610 c-12 -5 -29 -20 -38 -34 -16 -24 -16 -28 1 -57 21 -36 49
-57 60 -46 4 4 -8 23 -27 43 l-34 35 28 25 c37 32 54 30 95 -8 l34 -33 -16 32
c-24 49 -56 62 -103 43z"></path>
<path d="M4100 4586 c0 -8 7 -16 15 -20 13 -4 14 -2 5 14 -13 23 -20 26 -20 6z"></path>
<path d="M6390 4570 c-8 -5 -12 -12 -9 -15 8 -8 39 5 39 16 0 11 -11 11 -30
-1z"></path>
<path d="M6330 4550 c0 -5 5 -10 10 -10 6 0 10 5 10 10 0 6 -4 10 -10 10 -5 0
-10 -4 -10 -10z"></path>
<path d="M2236 4526 c6 -16 34 -30 34 -18 0 10 -22 32 -32 32 -4 0 -5 -6 -2
-14z"></path>
<path d="M3910 4520 c0 -5 5 -10 10 -10 6 0 10 5 10 10 0 6 -4 10 -10 10 -5 0
-10 -4 -10 -10z"></path>
<path d="M3549 4490 c-17 -13 -19 -19 -9 -19 16 0 50 22 50 33 0 12 -18 6 -41
-14z"></path>
<path d="M4615 4490 c3 -5 8 -10 11 -10 2 0 4 5 4 10 0 6 -5 10 -11 10 -5 0
-7 -4 -4 -10z"></path>
<path d="M5145 4489 c-4 -6 -5 -12 -4 -14 7 -7 59 8 59 16 0 13 -47 11 -55 -2z"></path>
<path d="M5055 4460 c3 -5 8 -10 11 -10 2 0 4 5 4 10 0 6 -5 10 -11 10 -5 0
-7 -4 -4 -10z"></path>
<path d="M4930 4426 c0 -9 5 -16 10 -16 6 0 10 4 10 9 0 6 -4 13 -10 16 -5 3
-10 -1 -10 -9z"></path>
<path d="M5480 4330 c0 -5 5 -10 10 -10 6 0 10 5 10 10 0 6 -4 10 -10 10 -5 0
-10 -4 -10 -10z"></path>
<path d="M3730 4305 c18 -19 26 -22 32 -13 9 14 -17 38 -41 38 -10 0 -8 -7 9
-25z"></path>
<path d="M5607 4313 c-13 -12 -7 -23 11 -23 23 0 47 -25 61 -63 13 -34 31 -27
31 13 0 45 -77 100 -103 73z"></path>
<path d="M3670 4275 c0 -19 46 -49 61 -40 7 5 2 15 -17 31 -34 27 -44 29 -44
9z"></path>
<path d="M3582 4160 c-36 -8 -49 -17 -40 -26 8 -8 88 17 88 28 0 9 -2 9 -48
-2z"></path>
<path d="M1834 4111 c-44 -39 -114 -123 -114 -137 0 -4 19 10 43 33 23 22 50
43 60 46 9 4 17 13 17 21 0 8 8 21 18 28 23 17 34 35 25 41 -5 3 -26 -12 -49
-32z"></path>
<path d="M1933 4043 c-11 -15 -25 -41 -30 -58 -6 -19 -17 -31 -31 -33 -23 -4
-30 -18 -11 -24 6 -2 12 -28 14 -57 2 -39 8 -58 21 -68 25 -18 38 -16 29 5 -5
9 -10 45 -13 79 -3 51 0 71 22 119 29 63 29 80 -1 37z"></path>
<path d="M3490 3946 c0 -2 7 -9 15 -16 12 -10 15 -10 15 4 0 9 -7 16 -15 16
-8 0 -15 -2 -15 -4z"></path>
<path d="M1780 3905 c-7 -9 -8 -15 -2 -15 5 0 12 7 16 15 3 8 4 15 2 15 -2 0
-9 -7 -16 -15z"></path>
<path d="M6742 3873 c2 -9 23 -32 48 -51 25 -19 45 -41 45 -50 0 -8 7 -19 16
-25 21 -13 149 20 149 39 0 17 -43 18 -69 2 -17 -10 -25 -7 -60 25 -23 20 -47
37 -55 37 -7 0 -25 9 -39 20 -31 24 -39 25 -35 3z"></path>
<path d="M6952 3868 c5 -15 48 -24 48 -10 0 10 -23 22 -42 22 -5 0 -8 -6 -6
-12z"></path>
<path d="M1700 3790 c0 -5 5 -10 10 -10 6 0 10 5 10 10 0 6 -4 10 -10 10 -5 0
-10 -4 -10 -10z"></path>
<path d="M6756 3792 c-2 -4 -1 -14 4 -22 5 -8 7 -25 3 -37 -4 -18 -1 -23 13
-23 36 0 49 16 36 44 -12 27 -48 51 -56 38z"></path>
<path d="M1497 3736 c-6 -16 2 -28 14 -20 12 7 11 34 0 34 -5 0 -11 -6 -14
-14z"></path>
<path d="M1625 3739 c-12 -19 5 -23 22 -6 16 16 16 17 1 17 -9 0 -20 -5 -23
-11z"></path>
<path d="M6940 3723 c-25 -8 -70 -21 -100 -29 -30 -9 -61 -18 -69 -20 -12 -4
-13 -66 -7 -397 13 -711 15 -769 20 -775 3 -2 11 0 18 5 7 6 47 18 88 28 41 9
83 19 93 22 16 4 17 41 17 594 0 324 -3 588 -7 588 -5 -1 -28 -8 -53 -16z"></path>
<path d="M1995 3680 c3 -5 10 -10 16 -10 5 0 9 5 9 10 0 6 -7 10 -16 10 -8 0
-12 -4 -9 -10z"></path>
<path d="M2050 3656 c0 -9 7 -16 16 -16 9 0 14 5 12 12 -6 18 -28 21 -28 4z"></path>
<path d="M1561 3636 c-18 -21 -12 -26 57 -48 63 -20 82 -22 82 -10 0 9 -59 32
-82 32 -9 0 -22 10 -30 21 -12 20 -15 20 -27 5z"></path>
<path d="M1500 3636 c0 -2 7 -6 15 -10 8 -3 15 -1 15 4 0 6 -7 10 -15 10 -8 0
-15 -2 -15 -4z"></path>
<path d="M2140 3620 c0 -5 11 -10 25 -10 14 0 25 5 25 10 0 6 -11 10 -25 10
-14 0 -25 -4 -25 -10z"></path>
<path d="M1593 3477 c5 -15 37 -22 37 -9 0 5 -9 12 -21 15 -13 3 -19 1 -16 -6z"></path>
<path d="M1828 3483 c7 -3 16 -2 19 1 4 3 -2 6 -13 5 -11 0 -14 -3 -6 -6z"></path>
<path d="M2478 3395 c2 -14 8 -25 13 -25 5 0 9 11 9 25 0 14 -6 25 -14 25 -9
0 -12 -8 -8 -25z"></path>
<path d="M1569 3396 c16 -19 44 -21 39 -3 -3 6 -15 14 -28 15 -21 3 -22 2 -11
-12z"></path>
<path d="M1670 3382 c0 -13 23 -32 39 -32 11 0 10 4 -4 20 -19 21 -35 26 -35
12z"></path>
<path d="M1830 3380 c0 -5 11 -10 25 -10 14 0 25 5 25 10 0 6 -11 10 -25 10
-14 0 -25 -4 -25 -10z"></path>
<path d="M3632 3311 c-38 -35 -39 -44 -9 -59 21 -10 82 -26 82 -21 0 1 18 -7
40 -18 48 -24 73 -22 97 9 37 48 14 88 -50 88 -16 0 -49 7 -72 15 -54 19 -50
20 -88 -14z"></path>
<path d="M4583 3110 c-5 -20 -23 -28 -23 -10 0 6 -7 10 -15 10 -21 0 -19 -23
3 -43 13 -12 36 -17 74 -17 30 0 69 -5 87 -11 24 -8 35 -8 46 1 35 29 12 58
-61 75 -83 20 -105 19 -111 -5z"></path>
<path d="M4800 3121 c0 -5 12 -12 28 -16 15 -3 35 -13 44 -22 28 -25 43 -5 17
23 -22 24 -89 35 -89 15z"></path>
<path d="M3659 3082 c-14 -2 -40 -16 -58 -33 -18 -16 -36 -29 -42 -29 -5 0 -9
-9 -9 -20 0 -11 -5 -20 -11 -20 -5 0 -8 -4 -5 -9 4 -5 1 -11 -5 -13 -16 -5 80
-81 136 -108 25 -12 45 -25 45 -29 0 -11 100 5 146 23 55 23 71 53 55 103 -14
41 -54 92 -96 119 -24 16 -94 23 -156 16z m38 -152 c-2 -52 -6 -57 -38 -40
-26 14 -24 55 3 74 33 24 37 20 35 -34z"></path>
<path d="M4960 2941 c0 -6 5 -13 11 -17 6 -3 19 -25 29 -49 21 -48 40 -66 40
-37 0 21 -57 112 -71 112 -5 0 -9 -4 -9 -9z"></path>
<path d="M4515 2929 c-51 -14 -135 -109 -135 -151 0 -34 175 -149 202 -132 7
5 42 9 78 10 36 1 85 3 110 4 25 1 72 -5 105 -14 79 -20 91 -20 75 -1 -7 8
-20 15 -29 15 -9 0 -49 32 -90 71 -55 54 -70 74 -60 80 21 13 27 11 65 -17 52
-40 40 -11 -14 33 -78 63 -106 78 -192 99 -63 15 -74 16 -115 3z m225 -89 c0
-5 -7 -10 -15 -10 -8 0 -15 5 -15 10 0 6 7 10 15 10 8 0 15 -4 15 -10z m-250
-52 c0 -13 -4 -29 -9 -37 -8 -12 -12 -12 -25 -2 -20 17 -20 26 0 45 22 22 34
20 34 -6z m269 -61 c14 -17 4 -27 -26 -27 -21 0 -22 3 -13 20 13 23 23 25 39
7z"></path>
<path d="M5227 2923 c-8 -13 4 -93 14 -93 5 0 10 16 11 35 0 19 1 40 2 47 1
14 -20 22 -27 11z"></path>
<path d="M3575 2845 c29 -24 55 -32 55 -17 0 9 -58 42 -73 42 -7 -1 2 -12 18
-25z"></path>
<path d="M5245 2763 c8 -32 13 -39 21 -30 10 9 -5 57 -17 57 -7 0 -9 -10 -4
-27z"></path>
<path d="M4210 2770 c0 -5 15 -17 33 -26 17 -9 42 -26 55 -37 12 -11 22 -16
22 -11 0 19 -81 84 -104 84 -3 0 -6 -4 -6 -10z"></path>
<path d="M3909 2741 c-13 -11 -21 -22 -18 -25 3 -4 17 2 30 13 13 11 21 22 18
25 -3 4 -17 -2 -30 -13z"></path>
<path d="M5255 2687 c-4 -10 -5 -21 -1 -24 10 -10 18 4 13 24 -4 17 -4 17 -12
0z"></path>
<path d="M4595 2632 c11 -12 113 -32 162 -32 60 0 34 17 -35 23 -38 4 -84 10
-103 13 -24 5 -31 3 -24 -4z"></path>
<path d="M4530 2593 c0 -4 20 -15 45 -24 44 -16 58 -12 33 9 -18 13 -78 26
-78 15z"></path>
<path d="M3767 2584 c-10 -11 24 -54 44 -54 10 0 44 -22 75 -50 64 -56 99 -63
130 -29 17 19 26 21 87 15 70 -6 77 -2 57 35 -7 12 -21 19 -38 19 -42 0 -113
-25 -127 -43 -25 -34 -61 -20 -132 48 -63 62 -82 73 -96 59z"></path>
<path d="M4277 2535 c16 -34 33 -46 33 -25 0 15 -31 60 -41 60 -5 0 -1 -16 8
-35z"></path>
<path d="M3720 2501 c0 -5 7 -11 15 -15 8 -3 15 -1 15 3 0 5 -7 11 -15 15 -8
3 -15 1 -15 -3z"></path>
<path d="M3736 2442 c-7 -12 22 -38 31 -28 4 3 0 14 -9 22 -9 10 -18 12 -22 6z"></path>
<path d="M4225 2410 c-11 -5 -34 -9 -52 -9 -17 -1 -33 -5 -35 -11 -2 -5 -18
-5 -43 3 -42 12 -231 14 -243 3 -10 -10 19 -26 47 -26 14 0 40 5 58 12 26 10
42 9 76 0 113 -34 118 -35 140 -24 12 6 36 15 52 20 17 5 31 16 33 25 4 19 -3
20 -33 7z"></path>
<path d="M3760 2360 c0 -5 7 -10 15 -10 8 0 15 5 15 10 0 6 -7 10 -15 10 -8 0
-15 -4 -15 -10z"></path>
<path d="M3822 2341 c2 -7 7 -12 11 -12 12 1 9 15 -3 20 -7 2 -11 -2 -8 -8z"></path>
<path d="M3870 2321 c0 -5 19 -14 43 -19 23 -7 66 -31 97 -57 55 -45 70 -53
70 -36 0 15 -90 92 -125 107 -38 16 -85 19 -85 5z"></path>
<path d="M5340 2281 c-9 -17 -9 -26 1 -37 16 -20 26 -18 33 8 3 13 0 29 -8 37
-12 11 -16 10 -26 -8z"></path>
<path d="M5280 2233 c0 -36 14 -73 24 -63 8 8 -6 100 -15 100 -5 0 -9 -17 -9
-37z"></path>
<path d="M3645 2241 c-45 -8 -85 -27 -85 -41 0 -18 20 -20 44 -5 17 11 35 15
55 10 20 -4 38 -1 53 9 22 14 28 14 74 -3 27 -11 77 -24 110 -30 34 -6 79 -20
102 -31 50 -24 80 -27 63 -6 -18 22 -101 54 -167 65 -32 5 -81 17 -109 25 -53
17 -75 18 -140 7z"></path>
<path d="M4120 2110 c0 -5 17 -14 38 -21 21 -6 55 -26 76 -45 21 -19 43 -34
49 -34 14 0 -33 50 -58 62 -11 5 -36 18 -55 28 -40 22 -50 24 -50 10z"></path>
<path d="M5203 2035 c4 -10 126 -26 140 -18 4 2 7 10 7 16 0 8 -24 12 -75 12
-46 0 -74 -4 -72 -10z"></path>
<path d="M3450 2012 c0 -5 11 -19 25 -32 19 -18 25 -20 25 -8 0 8 -8 22 -18
31 -20 19 -32 22 -32 9z"></path>
<path d="M5390 1980 c-8 -5 -24 -10 -36 -10 -29 0 -62 -26 -49 -39 11 -11 107
27 119 48 9 14 -14 14 -34 1z"></path>
<path d="M3337 1913 c-4 -3 5 -12 19 -19 32 -17 55 -7 29 13 -20 14 -38 17
-48 6z"></path>
<path d="M3307 1843 c-4 -3 -7 -11 -7 -17 0 -6 5 -5 12 2 14 14 29 16 26 3 -2
-5 1 -11 7 -12 5 -2 11 4 13 14 3 12 -3 17 -21 17 -13 0 -27 -3 -30 -7z"></path>
<path d="M3240 1815 c0 -8 5 -15 10 -15 6 0 10 7 10 15 0 8 -4 15 -10 15 -5 0
-10 -7 -10 -15z"></path>
<path d="M3170 1774 c0 -8 5 -12 10 -9 6 4 8 11 5 16 -9 14 -15 11 -15 -7z"></path>
<path d="M3105 1733 c2 -16 4 -30 4 -32 1 -2 7 2 15 8 16 14 10 51 -9 51 -9 0
-12 -10 -10 -27z"></path>
<path d="M3295 1750 c-3 -5 -1 -10 4 -10 6 0 11 5 11 10 0 6 -2 10 -4 10 -3 0
-8 -4 -11 -10z"></path>
<path d="M3345 1750 c3 -5 8 -10 11 -10 2 0 4 5 4 10 0 6 -5 10 -11 10 -5 0
-7 -4 -4 -10z"></path>
<path d="M95 1740 c-4 -6 5 -10 19 -10 14 0 26 5 26 10 0 6 -9 10 -19 10 -11
0 -23 -4 -26 -10z"></path>
<path d="M3246 1741 c-8 -12 24 -45 34 -35 2 3 0 8 -6 12 -6 4 -13 14 -16 22
-3 11 -6 11 -12 1z"></path>
<path d="M3740 1740 c0 -5 8 -13 17 -19 15 -8 15 -13 5 -36 -16 -36 -15 -120
2 -153 22 -40 109 -121 146 -133 50 -18 60 2 24 48 -16 21 -36 51 -45 68 -9
16 -36 66 -61 111 -24 44 -43 85 -41 90 2 6 -8 16 -22 22 -14 6 -25 7 -25 2z"></path>
<path d="M48 1714 c-22 -12 -28 -22 -28 -49 0 -19 5 -35 10 -35 6 0 10 11 10
24 0 13 9 35 21 50 24 30 23 30 -13 10z"></path>
<path d="M3820 1711 c0 -11 39 -26 47 -17 8 8 3 12 -24 20 -13 4 -23 3 -23 -3z"></path>
<path d="M3110 1655 c0 -8 5 -15 10 -15 6 0 10 7 10 15 0 8 -4 15 -10 15 -5 0
-10 -7 -10 -15z"></path>
<path d="M3272 1658 c5 -15 28 -23 28 -10 0 5 -7 13 -16 16 -10 4 -14 1 -12
-6z"></path>
<path d="M3151 1624 c0 -11 3 -14 6 -6 3 7 2 16 -1 19 -3 4 -6 -2 -5 -13z"></path>
<path d="M3210 1621 c0 -6 5 -13 10 -16 6 -3 10 1 10 9 0 9 -4 16 -10 16 -5 0
-10 -4 -10 -9z"></path>
<path d="M3260 1615 c0 -8 4 -15 10 -15 5 0 7 7 4 15 -4 8 -8 15 -10 15 -2 0
-4 -7 -4 -15z"></path>
<path d="M190 1565 c0 -30 3 -55 8 -55 13 0 29 67 20 89 -14 39 -28 22 -28
-34z"></path>
<path d="M12 1588 c-16 -16 -15 -38 2 -38 8 0 18 -19 25 -47 7 -25 19 -59 27
-75 20 -39 11 -46 -27 -24 -17 10 -33 15 -37 11 -8 -8 110 -115 120 -108 15 8
8 45 -22 120 -16 41 -30 81 -30 88 0 18 -32 85 -40 85 -3 0 -11 -5 -18 -12z"></path>
<path d="M255 1510 c3 -5 8 -10 11 -10 2 0 4 5 4 10 0 6 -5 10 -11 10 -5 0 -7
-4 -4 -10z"></path>
<path d="M190 1470 c0 -11 5 -20 10 -20 6 0 10 9 10 20 0 11 -4 20 -10 20 -5
0 -10 -9 -10 -20z"></path>
<path d="M0 1316 c0 -2 7 -9 15 -16 12 -10 15 -10 15 4 0 9 -7 16 -15 16 -8 0
-15 -2 -15 -4z"></path>
<path d="M160 1276 c0 -8 5 -18 10 -21 6 -3 10 1 10 9 0 8 -4 18 -10 21 -5 3
-10 -1 -10 -9z"></path>
<path d="M5420 1270 c0 -5 7 -10 15 -10 8 0 15 5 15 10 0 6 -7 10 -15 10 -8 0
-15 -4 -15 -10z"></path>
<path d="M75 1246 c16 -13 34 -22 39 -19 11 7 -34 42 -54 43 -9 0 -3 -10 15
-24z"></path>
<path d="M5485 1260 c3 -5 8 -10 11 -10 2 0 4 5 4 10 0 6 -5 10 -11 10 -5 0
-7 -4 -4 -10z"></path>
<path d="M5442 1168 c6 -18 28 -21 28 -4 0 9 -7 16 -16 16 -9 0 -14 -5 -12
-12z"></path>
<path d="M5337 1126 c-6 -16 2 -28 14 -20 12 7 11 34 0 34 -5 0 -11 -6 -14
-14z"></path>
<path d="M5420 1130 c0 -5 5 -10 10 -10 6 0 10 5 10 10 0 6 -4 10 -10 10 -5 0
-10 -4 -10 -10z"></path>
<path d="M5642 1131 c4 -13 18 -16 19 -4 0 4 -5 9 -11 12 -7 2 -11 -2 -8 -8z"></path>
<path d="M5592 1119 c2 -7 10 -15 17 -17 8 -3 12 1 9 9 -2 7 -10 15 -17 17 -8
3 -12 -1 -9 -9z"></path>
<path d="M5720 1105 c0 -8 5 -15 10 -15 6 0 10 7 10 15 0 8 -4 15 -10 15 -5 0
-10 -7 -10 -15z"></path>
<path d="M5337 1066 c-21 -16 -14 -67 14 -92 17 -16 19 -16 26 1 3 11 -1 30
-10 47 -9 16 -14 35 -11 43 7 18 4 18 -19 1z"></path>
<path d="M5516 1071 c-4 -5 -2 -12 3 -15 5 -4 12 -2 15 3 4 5 2 12 -3 15 -5 4
-12 2 -15 -3z"></path>
<path d="M5572 1054 c4 -21 22 -23 26 -1 2 10 -3 17 -13 17 -10 0 -15 -6 -13
-16z"></path>
<path d="M5210 1012 c0 -3 18 -20 40 -39 22 -19 40 -43 40 -54 0 -10 6 -19 13
-19 8 0 25 -17 38 -37 15 -23 32 -38 44 -38 27 0 25 28 -3 40 -13 6 -40 35
-60 65 -20 30 -46 62 -57 70 -20 15 -55 22 -55 12z"></path>
<path d="M5515 1010 c3 -5 8 -10 11 -10 2 0 4 5 4 10 0 6 -5 10 -11 10 -5 0
-7 -4 -4 -10z"></path>
<path d="M5420 1000 c0 -5 10 -15 23 -21 12 -7 26 -18 30 -26 5 -7 12 -11 18
-8 17 11 9 30 -22 48 -34 19 -49 22 -49 7z"></path>
<path d="M5595 1000 c-3 -6 1 -13 10 -16 19 -8 30 0 20 15 -8 14 -22 14 -30 1z"></path>
<path d="M2043 965 c4 -9 10 -29 13 -43 3 -15 22 -74 41 -131 27 -79 37 -132
44 -215 17 -212 31 -311 54 -371 13 -33 35 -93 50 -133 l27 -74 37 5 c20 3 68
13 106 23 86 21 276 25 282 7 3 -7 13 -13 23 -13 10 0 22 -4 25 -10 8 -13 165
-13 165 0 0 6 -6 26 -14 45 -11 26 -23 36 -53 44 -21 6 -43 11 -50 11 -21 0
-83 67 -83 89 0 11 -5 21 -11 21 -7 0 -9 -10 -5 -26 5 -19 0 -35 -19 -59 -23
-31 -28 -33 -54 -24 -23 8 -37 7 -61 -6 -18 -9 -40 -15 -50 -12 -12 3 -20 -2
-23 -13 -4 -14 -19 -20 -63 -25 -33 -3 -74 -13 -92 -22 -17 -9 -34 -14 -36
-12 -7 9 -94 256 -100 284 -3 17 -13 109 -22 205 -14 160 -20 187 -64 320 -26
79 -54 146 -61 149 -8 2 -10 -2 -6 -14z"></path>
<path d="M5375 950 c-8 -13 13 -40 31 -40 17 0 17 5 4 31 -12 21 -25 25 -35 9z"></path>
<path d="M5650 945 c13 -16 50 -21 50 -6 0 5 -10 11 -22 15 -36 9 -41 7 -28
-9z"></path>
<path d="M5437 903 c-12 -12 -7 -25 7 -20 8 3 21 -4 30 -17 13 -21 64 -41 75
-30 2 2 -13 20 -33 39 -35 33 -64 43 -79 28z"></path>
<path d="M5080 880 c0 -5 4 -10 9 -10 6 0 13 5 16 10 3 6 -1 10 -9 10 -9 0
-16 -4 -16 -10z"></path>
<path d="M5150 871 c-7 -13 -7 -22 0 -26 5 -3 10 1 10 9 0 9 5 16 10 16 6 0
10 5 10 10 0 17 -19 11 -30 -9z"></path>
<path d="M5231 856 c-12 -15 -5 -26 18 -26 28 0 81 -55 81 -83 0 -19 6 -26 23
-29 18 -2 22 -9 21 -38 0 -46 27 -68 40 -33 9 23 -24 91 -46 97 -10 2 -18 13
-18 23 0 20 -36 57 -82 86 -21 13 -28 14 -37 3z"></path>
<path d="M5920 850 c0 -5 7 -10 16 -10 8 0 12 5 9 10 -3 6 -10 10 -16 10 -5 0
-9 -4 -9 -10z"></path>
<path d="M5512 770 c-12 -16 -22 -37 -22 -46 0 -15 4 -14 25 6 25 23 55 35 55
21 0 -3 -7 -17 -16 -30 -16 -22 -15 -23 7 -19 20 3 24 9 24 42 0 31 -4 40 -23
47 -13 5 -24 9 -26 9 -1 0 -12 -13 -24 -30z"></path>
<path d="M5942 779 c2 -7 10 -15 17 -17 8 -3 12 1 9 9 -2 7 -10 15 -17 17 -8
3 -12 -1 -9 -9z"></path>
<path d="M5440 770 c0 -5 5 -10 10 -10 6 0 10 5 10 10 0 6 -4 10 -10 10 -5 0
-10 -4 -10 -10z"></path>
<path d="M5104 757 c-7 -20 3 -37 22 -37 18 0 18 24 -1 40 -12 10 -16 9 -21
-3z"></path>
<path d="M5263 746 c4 -10 7 -24 7 -32 0 -8 5 -14 11 -14 15 0 6 53 -10 58
-10 3 -12 0 -8 -12z"></path>
<path d="M5880 740 c0 -5 5 -10 11 -10 5 0 7 5 4 10 -3 6 -8 10 -11 10 -2 0
-4 -4 -4 -10z"></path>
<path d="M5070 726 c0 -9 5 -16 10 -16 6 0 10 4 10 9 0 6 -4 13 -10 16 -5 3
-10 -1 -10 -9z"></path>
<path d="M5995 720 c-3 -5 -1 -10 4 -10 6 0 11 5 11 10 0 6 -2 10 -4 10 -3 0
-8 -4 -11 -10z"></path>
<path d="M5146 703 c-8 -9 34 -53 51 -53 7 0 13 4 13 8 0 12 -57 52 -64 45z"></path>
<path d="M5695 688 c3 -13 15 -31 27 -41 13 -10 33 -27 46 -38 13 -11 28 -19
34 -17 9 3 -94 118 -106 118 -2 0 -3 -10 -1 -22z"></path>
<path d="M5230 670 c0 -5 5 -10 10 -10 6 0 10 5 10 10 0 6 -4 10 -10 10 -5 0
-10 -4 -10 -10z"></path>
<path d="M5597 659 c-3 -13 -1 -19 6 -16 15 5 22 37 9 37 -5 0 -12 -9 -15 -21z"></path>
<path d="M4927 648 c-4 -13 -7 -25 -8 -28 0 -3 -5 -10 -10 -16 -5 -6 -18 -41
-30 -79 -21 -70 -85 -211 -185 -407 -30 -58 -54 -109 -54 -112 0 -3 14 -6 31
-6 28 0 30 2 18 16 -11 14 -10 18 6 30 29 22 50 13 48 -19 l-2 -27 180 0 179
0 -2 31 c-1 17 -13 41 -25 53 -12 11 -23 25 -23 29 0 4 -16 24 -36 44 -91 91
-102 188 -15 137 17 -10 33 -15 36 -12 3 3 -8 46 -25 96 -16 49 -30 97 -30
106 0 8 -7 36 -16 62 -9 26 -17 62 -19 81 -4 43 -11 51 -18 21z"></path>
<path d="M5820 660 c0 -5 5 -10 10 -10 6 0 10 5 10 10 0 6 -4 10 -10 10 -5 0
-10 -4 -10 -10z"></path>
<path d="M5630 627 c0 -13 60 -77 73 -77 16 0 5 24 -25 56 -34 36 -48 42 -48
21z"></path>
<path d="M5176 605 c-10 -26 -7 -35 9 -35 8 0 15 7 15 15 0 8 0 18 1 22 1 15
-19 13 -25 -2z"></path>
<path d="M5406 605 c-6 -18 -37 -20 -54 -3 -6 6 -15 8 -19 5 -4 -4 2 -17 14
-28 20 -20 22 -20 47 -4 14 10 26 24 26 31 0 18 -6 18 -14 -1z"></path>
<path d="M5227 588 c-8 -31 9 -47 28 -27 14 14 14 17 -3 33 -19 16 -20 16 -25
-6z"></path>
<path d="M5055 587 c-4 -10 -5 -21 -1 -24 10 -10 18 4 13 24 -4 17 -4 17 -12
0z"></path>
<path d="M5090 574 c0 -19 32 -26 48 -11 12 13 9 15 -17 19 -20 3 -31 0 -31
-8z"></path>
<path d="M5576 562 c-3 -6 1 -15 8 -21 8 -7 17 -8 20 -3 3 6 -1 15 -8 21 -8 7
-17 8 -20 3z"></path>
<path d="M5835 560 c4 -6 11 -8 16 -5 14 9 11 15 -7 15 -8 0 -12 -5 -9 -10z"></path>
<path d="M5274 536 c-7 -19 15 -61 26 -50 5 5 12 21 15 37 6 23 4 27 -14 27
-12 0 -24 -6 -27 -14z"></path>
<path d="M5732 530 c7 -12 24 -23 38 -27 14 -3 33 -13 43 -21 9 -8 17 -11 17
-5 0 13 -33 43 -47 43 -6 0 -16 7 -23 15 -7 8 -19 15 -26 15 -12 0 -12 -4 -2
-20z"></path>
<path d="M3750 524 c0 -15 22 -44 30 -39 6 4 5 14 -3 25 -11 19 -27 27 -27 14z"></path>
<path d="M3850 520 c0 -5 5 -10 11 -10 5 0 7 5 4 10 -3 6 -8 10 -11 10 -2 0
-4 -4 -4 -10z"></path>
<path d="M3940 521 c0 -6 5 -13 10 -16 6 -3 10 1 10 9 0 9 -4 16 -10 16 -5 0
-10 -4 -10 -9z"></path>
<path d="M5080 522 c0 -10 22 -32 32 -32 4 0 8 9 8 20 0 13 -7 20 -20 20 -11
0 -20 -4 -20 -8z"></path>
<path d="M5640 512 c0 -17 37 -42 61 -41 15 0 18 3 9 6 -8 3 -23 14 -33 24
-19 20 -37 25 -37 11z"></path>
<path d="M3870 482 c0 -5 7 -16 16 -23 14 -12 16 -11 13 5 -4 20 -29 35 -29
18z"></path>
<path d="M5230 480 c0 -5 7 -10 15 -10 8 0 15 5 15 10 0 6 -7 10 -15 10 -8 0
-15 -4 -15 -10z"></path>
<path d="M5857 470 c-3 -13 1 -24 14 -30 23 -13 23 -10 5 24 -13 25 -14 25
-19 6z"></path>
<path d="M5096 441 c-7 -11 39 -43 48 -34 7 7 -23 43 -35 43 -4 0 -10 -4 -13
-9z"></path>
<path d="M5290 430 c0 -5 5 -10 10 -10 6 0 10 5 10 10 0 6 -4 10 -10 10 -5 0
-10 -4 -10 -10z"></path>
<path d="M5403 426 c-13 -6 -23 -14 -23 -18 0 -12 48 -9 56 3 10 17 -9 26 -33
15z"></path>
<path d="M5595 429 c-10 -15 2 -23 36 -25 29 -2 29 -1 13 17 -19 21 -39 25
-49 8z"></path>
<path d="M5822 431 c4 -13 18 -16 19 -4 0 4 -5 9 -11 12 -7 2 -11 -2 -8 -8z"></path>
<path d="M5716 412 c-3 -6 -1 -14 5 -17 15 -10 25 3 12 16 -7 7 -13 7 -17 1z"></path>
<path d="M5464 385 c-8 -21 10 -39 30 -32 22 9 20 24 -4 37 -16 9 -22 8 -26
-5z"></path>
<path d="M5545 391 c-7 -12 12 -24 25 -16 11 7 4 25 -10 25 -5 0 -11 -4 -15
-9z"></path>
<path d="M4007 383 c-4 -6 0 -16 8 -23 21 -17 28 -8 11 15 -8 11 -15 14 -19 8z"></path>
<path d="M5760 360 c0 -5 5 -10 10 -10 6 0 10 5 10 10 0 6 -4 10 -10 10 -5 0
-10 -4 -10 -10z"></path>
<path d="M1856 323 c26 -60 114 -301 114 -313 0 -5 9 -10 21 -10 16 0 19 4 14
18 -4 9 -18 46 -32 82 -37 98 -115 260 -125 260 -4 0 -1 -17 8 -37z"></path>
<path d="M3942 351 c2 -7 7 -12 11 -12 12 1 9 15 -3 20 -7 2 -11 -2 -8 -8z"></path>
<path d="M5370 339 c0 -11 -5 -29 -10 -40 -15 -27 4 -24 23 4 14 22 15 22 36
3 16 -15 21 -16 21 -4 0 12 -50 58 -65 58 -3 0 -5 -9 -5 -21z"></path>
<path d="M4080 336 c0 -9 7 -16 16 -16 9 0 14 5 12 12 -6 18 -28 21 -28 4z"></path>
<path d="M5640 340 c0 -5 5 -10 10 -10 6 0 10 5 10 10 0 6 -4 10 -10 10 -5 0
-10 -4 -10 -10z"></path>
<path d="M5556 331 c-3 -4 5 -18 18 -30 29 -27 41 -15 16 17 -20 24 -26 27
-34 13z"></path>
<path d="M5494 319 c-3 -6 -1 -16 4 -21 13 -13 45 8 36 23 -7 12 -31 11 -40
-2z"></path>
<path d="M5310 301 c-6 -12 -6 -22 -1 -26 6 -3 15 3 21 14 6 12 6 22 1 26 -6
3 -15 -3 -21 -14z"></path>
<path d="M5120 300 c0 -5 5 -10 10 -10 6 0 10 5 10 10 0 6 -4 10 -10 10 -5 0
-10 -4 -10 -10z"></path>
<path d="M5085 270 c-3 -5 -1 -10 4 -10 6 0 11 5 11 10 0 6 -2 10 -4 10 -3 0
-8 -4 -11 -10z"></path>
<path d="M5642 253 c2 -10 10 -18 18 -18 22 0 18 29 -3 33 -14 3 -18 -1 -15
-15z"></path>
<path d="M5485 233 c8 -31 13 -39 20 -31 9 9 -6 58 -17 58 -6 0 -7 -11 -3 -27z"></path>
<path d="M4152 239 c2 -7 10 -15 17 -17 8 -3 12 1 9 9 -2 7 -10 15 -17 17 -8
3 -12 -1 -9 -9z"></path>
<path d="M5350 227 c0 -8 9 -22 20 -32 22 -20 27 -7 10 26 -12 22 -30 25 -30
6z"></path>
<path d="M5436 221 c-8 -12 10 -41 25 -41 13 0 11 13 -4 35 -10 13 -16 15 -21
6z"></path>
<path d="M2772 208 c-16 -16 -15 -28 3 -28 8 0 15 9 15 20 0 23 -2 24 -18 8z"></path>
<path d="M5230 194 c0 -9 7 -14 17 -12 25 5 28 28 4 28 -12 0 -21 -6 -21 -16z"></path>
<path d="M1730 179 c0 -12 -7 -31 -16 -41 -16 -16 -15 -18 0 -24 22 -8 47 23
43 55 -3 32 -27 40 -27 10z"></path>
<path d="M4180 180 c0 -5 5 -10 10 -10 6 0 10 5 10 10 0 6 -4 10 -10 10 -5 0
-10 -4 -10 -10z"></path>
<path d="M5500 161 c0 -10 30 -24 37 -17 3 3 2 9 -2 15 -8 13 -35 15 -35 2z"></path>
<path d="M5577 164 c-8 -8 1 -24 14 -24 5 0 9 7 9 15 0 15 -12 20 -23 9z"></path>
<path d="M4050 150 c0 -5 7 -10 16 -10 8 0 12 5 9 10 -3 6 -10 10 -16 10 -5 0
-9 -4 -9 -10z"></path>
<path d="M4210 130 c0 -5 7 -10 16 -10 8 0 12 5 9 10 -3 6 -10 10 -16 10 -5 0
-9 -4 -9 -10z"></path>
<path d="M1577 112 c-17 -19 -17 -20 5 -25 27 -7 26 -8 19 21 -6 24 -6 24 -24
4z"></path>
<path d="M4265 110 c-3 -5 1 -13 10 -16 22 -9 29 1 11 15 -10 8 -16 9 -21 1z"></path>
<path d="M1537 93 c-3 -5 0 -27 8 -49 8 -21 15 -37 15 -34 10 38 -9 106 -23
83z"></path>
<path d="M4180 90 c0 -5 5 -10 10 -10 6 0 10 5 10 10 0 6 -4 10 -10 10 -5 0
-10 -4 -10 -10z"></path>
<path d="M4290 50 c0 -5 5 -10 11 -10 5 0 7 5 4 10 -3 6 -8 10 -11 10 -2 0 -4
-4 -4 -10z"></path>
<path d="M5119 32 c6 -22 14 -28 45 -30 26 -2 36 0 31 8 -4 6 -15 8 -26 5 -12
-4 -19 -2 -19 7 0 7 -9 19 -19 25 -17 11 -18 10 -12 -15z"></path>
<path d="M5280 52 c0 -5 14 -18 30 -30 27 -20 40 -22 128 -20 l97 3 -83 28
c-80 26 -172 36 -172 19z"></path>
</g>
</svg>