 <svg version="1.0" xmlns="http://www.w3.org/2000/svg" width="700.000000pt" height="700.000000pt" viewBox="0 0 700.000000 700.000000" preserveAspectRatio="xMidYMid meet">
<metadata>
Created by potrace 1.12, written by Peter Selinger 2001-2015
</metadata>
<g transform="translate(0.000000,700.000000) scale(0.100000,-0.100000)" fill="#000000" stroke="none">
<path d="M2320 6530 c-207 -18 -328 -60 -489 -169 -29 -20 -63 -43 -75 -51
-12 -8 -67 -55 -123 -103 -122 -106 -186 -194 -220 -297 -47 -144 -28 -491 42
-765 18 -67 22 -106 18 -155 -6 -76 11 -150 62 -272 37 -86 72 -130 143 -180
25 -17 50 -45 59 -65 13 -33 13 -37 -5 -57 -11 -11 -25 -38 -32 -59 -6 -20
-20 -41 -29 -47 -16 -8 -17 -16 -10 -60 4 -28 21 -73 38 -100 l30 -48 -28 -44
c-15 -24 -40 -64 -55 -90 -14 -26 -31 -50 -37 -53 -5 -4 -26 4 -44 17 -37 25
-46 44 -17 35 43 -12 47 -11 50 10 4 27 -36 56 -70 51 -16 -2 -23 -9 -22 -25
0 -19 -6 -23 -45 -29 -33 -4 -60 -18 -96 -47 -27 -23 -53 -46 -57 -53 -18 -28
-64 -36 -142 -25 -43 6 -99 11 -125 11 -75 0 -112 10 -109 29 2 9 15 17 30 19
18 2 49 25 86 62 48 48 61 67 66 102 9 56 27 82 68 97 18 7 43 18 55 24 15 7
26 7 35 0 14 -12 134 8 122 20 -10 10 30 24 139 48 91 20 117 32 103 46 -11
11 -203 -33 -274 -63 -18 -8 -56 -14 -84 -14 -77 0 -132 -31 -168 -94 -17 -28
-30 -59 -30 -68 0 -23 -108 -138 -129 -138 -22 0 -141 -48 -161 -64 -8 -7 -40
-24 -70 -39 -200 -96 -359 -260 -501 -517 -88 -159 -111 -231 -120 -380 -4
-69 -12 -204 -18 -300 -5 -96 -13 -200 -16 -231 -4 -30 -2 -90 4 -133 9 -64 8
-86 -4 -122 -25 -73 -19 -125 20 -199 19 -36 48 -83 66 -104 35 -44 33 -55
-17 -76 -48 -20 -44 -35 8 -24 23 6 47 8 53 5 7 -2 15 -38 19 -86 10 -111 8
-113 -116 -108 -70 3 -98 0 -98 -8 0 -14 46 -24 115 -24 49 0 53 -2 59 -26 4
-15 16 -34 26 -43 14 -12 22 -38 29 -98 6 -46 18 -109 27 -140 9 -31 25 -93
35 -137 9 -45 22 -99 28 -121 26 -98 4 -235 -43 -274 -21 -18 -20 -49 1 -74
15 -16 18 -40 19 -136 2 -127 9 -174 30 -192 15 -12 18 -46 8 -74 -5 -13 -11
-9 -31 20 -21 31 -43 46 -43 29 0 -9 41 -66 62 -87 11 -11 18 -33 18 -55 0
-20 7 -46 15 -56 8 -11 15 -28 15 -38 0 -17 47 -18 1158 -18 l1158 0 44 45
c36 36 54 46 99 55 31 6 72 15 91 20 19 4 100 20 180 35 80 14 165 30 190 35
25 5 68 12 95 16 28 4 58 11 68 16 9 5 43 12 75 16 57 7 57 7 58 42 1 19 2 43
3 52 0 10 38 55 83 100 89 90 125 148 185 301 l36 92 7 205 c6 194 8 208 32
255 14 28 29 61 33 75 4 14 20 52 35 85 16 33 35 77 44 98 8 20 20 37 27 37 7
0 62 -32 123 -72 111 -71 288 -177 466 -278 52 -30 138 -81 190 -115 52 -34
106 -68 120 -77 27 -16 29 -17 325 -108 110 -34 281 -88 380 -120 99 -32 206
-63 238 -70 53 -11 69 -22 48 -34 -5 -3 -53 -12 -107 -21 -55 -8 -153 -26
-219 -40 -66 -15 -174 -37 -240 -50 -66 -14 -163 -34 -215 -45 -52 -11 -135
-27 -185 -34 -49 -8 -184 -30 -300 -49 -115 -20 -231 -38 -257 -42 -26 -3 -50
-10 -52 -14 -3 -4 8 -17 23 -29 16 -12 41 -46 56 -76 31 -64 70 -109 88 -103
12 4 13 119 1 160 -3 10 0 17 8 17 35 -1 106 -23 131 -41 15 -11 32 -17 37
-14 15 9 126 -93 179 -165 46 -63 81 -127 81 -149 0 -7 24 -11 63 -11 44 0 58
3 47 10 -8 5 -29 10 -46 10 -28 0 -34 6 -64 63 -43 82 -80 131 -149 194 -48
46 -53 53 -33 53 13 0 32 5 42 10 11 6 32 12 47 14 15 2 53 12 83 21 85 27
138 24 196 -10 47 -28 54 -29 219 -35 221 -8 247 -21 189 -97 -16 -22 -23 -38
-17 -44 11 -11 113 -29 168 -29 21 0 59 -7 82 -16 62 -24 59 -52 -9 -102 l-52
-37 437 -3 438 -2 52 24 c89 41 149 63 235 86 l82 22 0 224 c0 123 -3 224 -7
224 -5 0 -19 9 -33 20 l-25 20 33 -6 c25 -5 32 -3 32 9 0 10 -19 21 -57 32
-78 23 -182 45 -214 45 -14 0 -28 3 -31 6 -3 3 15 36 41 74 27 38 56 90 65
115 l18 45 -46 90 c-96 185 -105 297 -51 647 8 57 17 191 19 305 3 180 6 208
22 233 30 46 25 188 -10 285 -15 41 -34 104 -42 139 -18 80 -42 112 -155 208
-49 41 -87 79 -84 83 3 4 -2 13 -10 20 -8 6 -31 41 -50 76 -27 48 -46 69 -73
82 -37 17 -37 18 -42 87 -4 57 -15 89 -53 167 -26 54 -47 101 -47 104 0 4 -17
34 -37 68 -21 33 -67 119 -103 191 -57 113 -69 131 -93 135 -29 5 -46 27 -105
134 -22 40 -31 68 -27 83 3 13 1 23 -5 23 -5 0 -19 19 -31 42 -29 56 -79 118
-96 118 -7 0 -13 -3 -13 -6 0 -9 38 -62 82 -115 47 -56 49 -79 9 -79 -36 0
-112 33 -136 60 -10 11 -29 20 -42 20 -13 0 -36 6 -51 14 -15 8 -54 24 -87 35
-52 18 -66 19 -126 9 -55 -9 -72 -8 -84 2 -14 11 -17 10 -22 -8 -3 -12 -30
-40 -60 -63 -46 -36 -58 -41 -73 -31 -21 13 -24 10 -34 -30 -3 -14 -27 -50
-54 -80 -26 -29 -67 -80 -92 -113 -79 -107 -165 -191 -279 -275 -14 -10 -23
-21 -20 -25 7 -6 65 25 115 62 17 13 40 23 51 23 11 0 30 11 43 25 13 14 29
25 37 25 7 0 27 28 44 63 17 34 49 80 70 102 21 22 49 56 61 75 13 19 39 43
58 52 71 35 68 16 -10 -58 -33 -31 -58 -59 -56 -61 2 -3 19 3 37 12 25 14 37
15 51 6 26 -16 29 -14 22 14 -5 20 2 32 32 64 22 21 59 62 82 90 61 72 115
105 161 97 20 -3 41 -13 48 -22 14 -19 118 -64 149 -64 11 0 35 -7 52 -16 18
-8 57 -18 88 -21 63 -7 58 -2 127 -133 24 -45 42 -66 57 -68 23 -4 60 -56 60
-86 0 -26 -39 -86 -56 -86 -8 0 -14 -5 -14 -10 0 -18 -40 -50 -62 -50 -14 0
-36 -15 -57 -40 -41 -48 -105 -75 -162 -67 -45 6 -108 57 -136 112 -20 38 -84
117 -90 111 -7 -6 53 -110 72 -126 19 -16 20 -34 1 -27 -8 3 -22 -3 -32 -14
-17 -19 -34 -20 -77 -3 -10 3 -18 -2 -22 -15 -5 -17 -14 -21 -43 -20 -20 0
-46 -1 -57 -3 -18 -3 -20 3 -23 50 -3 58 -12 65 -32 26 -13 -23 -12 -30 3 -56
21 -37 23 -114 2 -122 -8 -3 -36 1 -62 10 -80 25 -143 35 -248 40 -55 3 -120
9 -145 14 -27 5 -49 5 -54 -1 -6 -5 -17 -9 -26 -9 -9 0 -25 -9 -36 -21 -17
-19 -75 -49 -94 -49 -5 0 -18 30 -29 68 -35 109 -57 144 -169 271 -65 73 -111
97 -264 135 -56 15 -104 29 -107 32 -3 3 3 10 14 16 22 12 56 47 238 243 296
320 409 405 437 331 10 -28 26 -34 99 -37 49 -3 55 -1 80 29 14 18 31 32 37
32 7 0 36 19 67 43 30 24 73 52 96 62 33 17 42 27 52 65 8 32 24 56 53 82 22
20 38 40 34 44 -10 9 -72 -23 -108 -56 -39 -36 -97 -80 -106 -80 -4 0 -49 -41
-100 -90 -85 -84 -94 -90 -132 -90 -34 0 -48 7 -82 38 -22 22 -40 47 -40 58 0
10 18 44 39 74 22 30 61 87 88 127 26 40 55 73 64 73 9 0 35 14 58 30 23 17
66 41 96 55 49 21 55 27 55 54 0 51 -40 42 -110 -24 -48 -46 -62 -55 -83 -50
-22 6 -30 -1 -65 -52 -68 -98 -89 -113 -99 -73 -6 24 -30 26 -61 5 -29 -21
-110 -45 -128 -38 -8 3 -21 0 -28 -6 -19 -16 -54 5 -58 34 -2 12 -11 20 -23
20 -16 0 -20 -7 -20 -30 0 -42 51 -68 118 -61 55 6 55 5 31 -86 -8 -34 -19
-94 -24 -135 l-8 -73 -73 -68 c-40 -37 -99 -98 -132 -137 -33 -38 -116 -128
-185 -198 -109 -112 -135 -133 -200 -163 -69 -31 -77 -33 -98 -20 -17 12 -23
27 -26 68 -4 58 2 68 45 68 29 0 33 -10 17 -40 -13 -24 5 -37 18 -13 9 14 13
15 26 4 24 -20 21 6 -4 44 -23 35 -26 71 -6 78 11 4 14 -1 13 -20 -3 -38 19
-39 27 -1 4 22 2 37 -8 46 -11 11 -12 21 -5 42 8 21 6 36 -10 66 -11 22 -23
71 -27 109 -5 49 -13 77 -27 92 -18 20 -19 31 -14 158 5 105 3 142 -7 159 -11
17 -11 38 0 121 21 157 4 210 -115 350 -47 55 -69 74 -80 69 -24 -12 -121 -17
-121 -7 0 5 15 16 33 26 72 40 89 61 93 116 3 45 1 52 -14 47 -46 -12 -165 57
-123 72 30 11 51 42 45 67 -5 19 -2 25 10 25 13 0 15 -6 10 -26 -5 -19 -3 -25
4 -20 7 4 22 -10 37 -34 14 -22 30 -40 35 -40 26 0 6 61 -45 138 -30 46 -66
109 -81 140 -111 238 -151 304 -268 448 -63 77 -353 244 -521 300 -91 30 -209
38 -365 24z m359 -59 c178 -60 404 -185 453 -252 13 -17 31 -29 44 -29 31 0
151 -179 236 -355 37 -77 75 -152 84 -166 23 -35 12 -59 -25 -59 -17 0 -31 -6
-35 -15 -4 -12 -10 -14 -25 -5 -17 8 -22 5 -35 -22 -9 -17 -16 -55 -16 -84 0
-29 -7 -67 -17 -86 -26 -53 -33 -67 -33 -73 0 -12 64 -75 76 -75 8 0 33 -9 56
-21 41 -21 106 -23 149 -5 20 9 121 -107 151 -173 29 -64 34 -221 7 -221 -5 0
-9 9 -9 19 0 11 -16 41 -36 67 -25 33 -37 59 -38 83 -1 39 -23 54 -28 20 -2
-12 -16 -30 -32 -38 -33 -19 -36 -34 -7 -41 23 -6 80 -77 81 -101 0 -19 -40
-33 -54 -19 -14 14 -26 12 -26 -4 0 -8 12 -21 28 -28 30 -15 41 -51 22 -74 -7
-7 -30 -19 -52 -26 -36 -11 -42 -10 -54 7 -13 17 -15 18 -26 2 -17 -22 -132
-50 -177 -43 -21 3 -57 -1 -86 -10 -28 -8 -87 -17 -132 -18 -76 -2 -81 -1 -72
15 5 10 15 16 23 13 7 -3 47 12 87 34 41 22 88 42 104 45 69 12 291 71 299 78
11 10 -31 59 -50 59 -7 0 -14 5 -16 11 -12 36 -222 60 -303 35 -27 -9 -59 -16
-71 -16 -38 0 -70 57 -50 88 4 7 6 16 3 19 -9 8 -56 -49 -57 -68 0 -30 26 -69
54 -79 37 -13 102 -13 126 0 15 8 21 6 30 -10 9 -17 6 -24 -15 -44 -15 -14
-44 -27 -65 -31 -48 -8 -68 -28 -49 -51 11 -13 9 -14 -17 -9 -16 4 -35 8 -42
11 -7 2 -20 0 -30 -5 -68 -35 -72 -35 -87 -15 -22 28 -18 68 9 95 13 13 29 49
37 79 7 30 24 72 37 93 13 22 21 42 17 45 -12 12 -85 -76 -79 -93 4 -9 0 -23
-8 -33 -8 -9 -29 -43 -47 -74 -18 -32 -38 -61 -45 -65 -7 -5 -25 -27 -40 -50
-29 -47 -36 -50 -74 -29 -48 27 -124 56 -144 56 -10 0 -36 9 -58 20 -22 11
-44 20 -50 20 -17 0 -71 57 -108 114 -48 73 -43 127 22 224 26 39 51 74 55 77
5 2 19 37 31 77 16 51 32 81 54 101 17 15 30 32 29 37 -2 6 7 10 20 10 12 0
31 7 41 15 11 8 29 15 41 15 12 0 30 7 41 15 41 31 126 10 151 -38 15 -29 15
-32 -7 -49 -12 -10 -34 -21 -49 -25 -49 -12 -116 -44 -210 -101 -95 -57 -129
-95 -100 -113 17 -10 103 -11 176 0 39 5 54 4 57 -6 3 -7 13 -13 22 -13 13 0
14 -3 4 -15 -11 -13 -7 -15 21 -17 61 -3 76 0 113 24 42 27 49 53 11 44 -14
-4 -25 -2 -25 3 0 14 37 23 60 16 11 -3 20 -2 20 3 0 5 9 19 20 32 11 13 20
29 20 35 0 15 65 67 73 58 4 -3 11 7 17 22 9 24 7 34 -17 68 -22 32 -27 50
-28 100 0 75 1 74 -180 71 -71 -2 -142 2 -156 7 -36 14 -81 -10 -114 -59 -14
-21 -41 -46 -60 -55 l-34 -16 -35 49 c-20 28 -36 55 -36 61 0 22 -87 90 -175
136 -144 77 -201 149 -181 228 7 27 54 62 96 71 14 3 37 12 51 19 14 8 57 21
96 29 89 18 162 55 238 119 33 28 68 57 77 65 14 12 21 12 33 2 16 -13 45 -7
45 9 0 6 -14 17 -30 26 -25 13 -29 20 -24 40 5 20 -4 35 -46 80 -29 30 -57 55
-62 55 -4 0 -27 9 -51 19 -48 22 -86 30 -177 39 -62 6 -63 6 -25 12 22 4 100
8 174 9 122 1 140 -1 220 -28z m-1164 -1156 c44 -36 60 -76 69 -182 l6 -63
-40 -20 c-44 -22 -50 -18 -48 30 0 14 -11 72 -26 130 -14 58 -26 115 -26 128
0 27 6 24 65 -23z m1888 28 c-7 -3 -13 -16 -13 -30 0 -18 -5 -24 -17 -21 -29
5 -27 35 4 50 15 8 30 12 33 10 3 -3 -1 -7 -7 -9z m117 3 c0 -8 -4 -17 -9 -21
-12 -7 -24 12 -16 25 9 15 25 12 25 -4z m-760 -66 c-8 -5 -22 -10 -30 -10 -13
0 -13 1 0 10 8 5 22 10 30 10 13 0 13 -1 0 -10z m120 -35 c16 -20 5 -45 -20
-45 -14 0 -20 7 -20 23 0 38 18 48 40 22z m-120 -15 c0 -5 -4 -10 -10 -10 -5
0 -10 5 -10 10 0 6 5 10 10 10 6 0 10 -4 10 -10z m-991 -224 c33 -35 8 -43
-34 -11 -41 31 -43 35 -12 35 13 0 34 -11 46 -24z m-65 -36 c-1 -8 -5 -23 -9
-32 -5 -12 -1 -17 17 -20 22 -3 22 -4 -7 -18 -70 -35 -89 -179 -29 -226 15
-13 25 -26 21 -30 -4 -4 -24 6 -44 23 -52 42 -63 90 -48 211 8 59 17 97 26
103 22 14 74 6 73 -11z m-154 -63 c0 -24 -3 -28 -10 -17 -13 20 -13 63 0 55 6
-3 10 -21 10 -38z m207 -84 c-2 -43 0 -48 21 -51 14 -2 22 -10 22 -22 0 -10 5
-22 10 -25 22 -14 10 -35 -21 -35 -39 0 -27 -19 25 -40 28 -11 36 -19 38 -44
3 -30 4 -31 56 -31 51 0 53 -1 47 -25 -11 -48 -42 -63 -119 -57 -61 5 -71 9
-102 42 -30 30 -32 35 -15 35 30 0 47 37 27 59 -9 10 -14 25 -10 34 3 9 -3 24
-15 36 -25 25 -27 71 -7 109 8 15 17 35 20 45 11 34 24 16 23 -30z m136 -70
c19 -49 9 -62 -28 -37 -34 22 -44 63 -20 81 22 16 27 11 48 -44z m2702 -19
c14 -9 25 -25 25 -35 0 -15 -7 -19 -40 -19 -39 0 -40 1 -40 35 0 40 15 45 55
19z m-829 -29 c7 -17 -14 -85 -26 -85 -16 0 -22 58 -8 79 15 25 26 27 34 6z
m-176 -85 c0 -40 -28 -59 -110 -74 -67 -13 -101 -29 -88 -41 10 -10 153 29
181 49 16 12 35 36 42 54 15 34 35 43 35 16 0 -9 8 -38 17 -64 15 -42 15 -53
3 -90 -23 -70 -29 -72 -144 -64 -83 5 -110 3 -151 -11 -39 -13 -68 -16 -127
-11 -94 8 -101 -4 -33 -52 25 -18 48 -32 51 -32 3 0 17 -9 32 -19 15 -11 41
-22 57 -25 17 -2 44 -8 62 -11 51 -11 95 2 139 43 61 55 83 72 94 72 27 0 0
-158 -28 -161 -4 0 -16 -3 -27 -6 -11 -3 -46 -5 -77 -4 -35 1 -69 -4 -86 -13
-16 -8 -38 -13 -48 -10 -12 3 -27 -3 -38 -15 -10 -11 -24 -17 -31 -15 -7 3
-16 1 -20 -5 -10 -18 -45 7 -57 40 -7 19 -17 29 -31 29 -26 0 -57 28 -50 46 3
8 -5 18 -21 25 -14 7 -23 16 -20 20 3 5 -2 9 -10 9 -16 0 -42 38 -32 47 3 3
-7 24 -22 47 -15 22 -33 53 -39 67 l-11 26 116 2 c65 0 139 -4 165 -10 44 -10
50 -9 68 9 10 12 19 23 19 25 0 1 -31 2 -69 1 -132 -4 -304 10 -309 24 -3 10
3 13 20 10 14 -1 31 2 39 8 8 6 54 15 103 18 52 4 98 14 112 23 13 8 34 13 46
10 33 -9 198 28 238 53 20 13 40 -7 40 -40z m-1905 -44 c6 -4 1 -4 -10 2 -11
6 -29 21 -40 34 -19 22 -19 22 10 -2 17 -14 35 -29 40 -34z m90 -156 c3 -5 1
-10 -4 -10 -6 0 -11 5 -11 10 0 6 2 10 4 10 3 0 8 -4 11 -10z m3430 -360 c-10
-11 -20 -18 -23 -15 -7 6 18 35 31 35 5 0 2 -9 -8 -20z m-4429 -256 c-1 -9
-18 -22 -37 -29 -88 -32 -107 -45 -114 -73 -5 -24 -13 -30 -51 -39 l-45 -11
28 30 c32 35 84 70 163 110 30 15 56 28 57 28 1 0 0 -7 -1 -16z m5259 -94 c3
-5 1 -10 -4 -10 -6 0 -11 5 -11 10 0 6 2 10 4 10 3 0 8 -4 11 -10z m-2740
-150 c1 -24 -2 -40 -9 -40 -7 0 -11 12 -10 28 1 15 3 36 3 46 2 34 14 7 16
-34z m57 33 c0 -10 2 -22 3 -28 2 -5 3 -14 4 -20 1 -5 6 0 11 13 18 43 30 23
30 -48 0 -40 4 -70 10 -70 6 0 10 9 10 20 0 32 17 23 24 -12 5 -25 2 -37 -11
-48 -10 -9 -26 -29 -35 -45 -30 -54 -36 -41 -31 64 4 73 3 101 -6 101 -6 0
-11 -18 -12 -42 -4 -153 -8 -176 -27 -164 -9 5 -7 165 2 239 3 17 5 38 5 45 1
19 21 14 23 -5z m-62 -114 c0 -16 -4 -28 -8 -25 -5 3 -8 15 -6 28 3 28 3 28 9
28 3 0 5 -14 5 -31z m1653 -48 c75 -5 153 -15 172 -21 l35 -12 -6 -51 c-6 -50
-4 -55 60 -160 36 -59 66 -110 66 -112 0 -2 32 -57 72 -122 105 -174 148 -268
133 -293 -3 -5 -60 44 -127 110 -90 89 -132 124 -167 136 -25 10 -54 25 -65
33 -10 9 -28 16 -39 16 -15 0 -23 9 -29 31 -9 37 -91 114 -176 167 -98 61
-122 84 -122 121 0 39 -53 126 -80 133 -22 6 -27 28 -7 37 6 3 41 3 77 1 36
-2 127 -9 203 -14z m-1653 -1 c0 -5 -5 -10 -11 -10 -5 0 -7 5 -4 10 3 6 8 10
11 10 2 0 4 -4 4 -10z m0 -34 c0 -3 -4 -8 -10 -11 -5 -3 -10 -1 -10 4 0 6 5
11 10 11 6 0 10 -2 10 -4z m740 -222 c0 -8 -4 -12 -10 -9 -5 3 -10 10 -10 16
0 5 5 9 10 9 6 0 10 -7 10 -16z m1780 -104 c0 -5 -5 -10 -11 -10 -5 0 -7 5 -4
10 3 6 8 10 11 10 2 0 4 -4 4 -10z m441 -731 c22 -22 19 -50 -9 -81 -20 -24
-47 -23 -72 2 -26 26 -25 46 5 75 29 30 49 31 76 4z m-2283 -232 c12 -14 -1
-81 -20 -104 -14 -17 -53 -16 -67 0 -11 14 -3 55 18 96 13 24 52 28 69 8z
m2417 -1636 c7 -12 -12 -24 -25 -16 -11 7 -4 25 10 25 5 0 11 -4 15 -9z m161
-262 c9 -16 -12 -33 -31 -25 -14 5 -15 9 -5 21 15 18 26 19 36 4z m-407 -123
c10 -12 8 -17 -8 -25 -44 -24 -93 -2 -56 26 24 17 50 17 64 -1z"></path>
<path d="M3035 6201 c-3 -5 -1 -12 5 -16 5 -3 10 1 10 9 0 18 -6 21 -15 7z"></path>
<path d="M3325 5579 c-10 -15 1 -23 20 -15 9 3 13 10 10 16 -8 13 -22 13 -30
-1z"></path>
<path d="M3240 5380 c0 -5 9 -10 20 -10 11 0 20 5 20 10 0 6 -9 10 -20 10 -11
0 -20 -4 -20 -10z"></path>
<path d="M3178 5368 c-39 -14 -35 -29 4 -17 35 10 61 30 38 28 -8 0 -27 -5
-42 -11z"></path>
<path d="M3286 5168 c59 -65 124 -122 124 -109 0 14 -139 151 -153 151 -5 0 8
-19 29 -42z"></path>
<path d="M3505 5101 c-7 -12 12 -24 25 -16 11 7 4 25 -10 25 -5 0 -11 -4 -15
-9z"></path>
<path d="M3250 5052 c0 -11 41 -34 48 -27 4 4 -2 13 -12 21 -22 15 -36 18 -36
6z"></path>
<path d="M3182 4993 c-6 -2 -10 -9 -6 -14 7 -12 84 -12 84 0 0 17 -48 26 -78
14z"></path>
<path d="M2760 4769 c0 -5 5 -7 10 -4 6 3 10 8 10 11 0 2 -4 4 -10 4 -5 0 -10
-5 -10 -11z"></path>
<path d="M2660 4742 c0 -15 11 -21 27 -15 12 5 12 7 1 14 -17 11 -28 11 -28 1z"></path>
<path d="M2710 4730 c0 -5 5 -10 10 -10 6 0 10 5 10 10 0 6 -4 10 -10 10 -5 0
-10 -4 -10 -10z"></path>
<path d="M3470 4460 c0 -5 9 -10 20 -10 11 0 20 5 20 10 0 6 -9 10 -20 10 -11
0 -20 -4 -20 -10z"></path>
<path d="M5075 5010 c3 -5 13 -10 21 -10 8 0 12 5 9 10 -3 6 -13 10 -21 10 -8
0 -12 -4 -9 -10z"></path>
<path d="M5145 4980 c3 -5 13 -10 21 -10 8 0 12 5 9 10 -3 6 -13 10 -21 10 -8
0 -12 -4 -9 -10z"></path>
<path d="M4453 4927 l-42 -42 35 -1 c28 0 33 3 29 16 -4 11 3 23 20 34 14 9
25 21 25 26 0 21 -27 8 -67 -33z"></path>
<path d="M5196 4961 c5 -5 38 -25 74 -44 36 -19 70 -44 76 -55 16 -32 45 -62
61 -62 18 0 17 7 -7 46 -12 18 -40 42 -63 54 -23 12 -60 32 -82 45 -41 24 -78
33 -59 16z"></path>
<path d="M5450 4746 c0 -3 9 -10 20 -16 11 -6 20 -8 20 -6 0 3 -9 10 -20 16
-11 6 -20 8 -20 6z"></path>
<path d="M5510 4703 c0 -5 17 -25 39 -45 48 -47 73 -97 126 -247 l25 -73 -24
6 c-67 17 -110 66 -111 126 0 8 -11 16 -25 18 -15 2 -37 19 -55 43 -33 42
-125 119 -143 119 -20 0 -13 -16 12 -29 25 -14 96 -101 96 -118 0 -6 11 -18
25 -27 14 -9 33 -33 43 -53 13 -27 36 -48 90 -80 41 -24 80 -43 88 -43 25 0
28 30 9 104 -38 148 -52 178 -118 244 -58 58 -77 72 -77 55z"></path>
<path d="M4704 4685 c-18 -13 -17 -14 17 -15 38 0 79 -33 79 -63 0 -9 5 -17
10 -17 19 0 10 49 -16 79 -28 34 -59 39 -90 16z"></path>
<path d="M5290 4650 c0 -5 5 -10 10 -10 6 0 10 5 10 10 0 6 -4 10 -10 10 -5 0
-10 -4 -10 -10z"></path>
<path d="M5324 4392 c-49 -30 -99 -58 -111 -63 -13 -5 -23 -13 -23 -19 0 -12
-5 -13 55 8 28 10 62 29 77 42 33 32 128 82 128 69 0 -6 5 -7 10 -4 19 12 10
24 -19 23 -15 -1 -67 -25 -117 -56z"></path>
<path d="M5070 4420 c0 -5 9 -10 21 -10 11 0 17 5 14 10 -3 6 -13 10 -21 10
-8 0 -14 -4 -14 -10z"></path>
<path d="M5456 4381 c-4 -5 -2 -12 3 -15 5 -4 12 -2 15 3 4 5 2 12 -3 15 -5 4
-12 2 -15 -3z"></path>
<path d="M4934 4341 c-39 -24 -56 -47 -28 -38 10 3 34 11 52 19 32 12 35 12
58 -15 13 -15 24 -37 24 -48 0 -10 5 -19 10 -19 22 0 9 59 -19 89 -34 36 -54
38 -97 12z"></path>
<path d="M4915 4230 c3 -5 13 -10 21 -10 8 0 12 5 9 10 -3 6 -13 10 -21 10 -8
0 -12 -4 -9 -10z"></path>
<path d="M4854 4188 c-18 -29 88 -78 135 -63 34 11 24 25 -18 25 -27 0 -49 8
-69 25 -34 28 -38 30 -48 13z"></path>
<path d="M1264 4149 c-10 -17 23 -46 38 -31 8 8 8 15 -2 27 -15 18 -26 19 -36
4z"></path>
<path d="M5379 3922 c-47 -31 -103 -71 -125 -88 -84 -67 -184 -98 -216 -66 -7
7 -12 26 -13 44 0 18 -6 33 -14 36 -11 4 -13 -4 -7 -37 4 -29 2 -50 -10 -72
-13 -26 -20 -30 -45 -27 -16 3 -29 3 -29 1 0 -2 14 -22 31 -43 21 -26 33 -54
36 -84 8 -71 23 -61 38 26 6 36 7 37 38 31 17 -4 47 -15 65 -26 37 -22 49 -18
31 11 -15 24 -4 72 17 72 8 0 40 19 70 43 95 71 104 75 119 52 34 -49 44 -60
50 -53 4 3 -1 20 -10 38 -18 35 -14 60 10 60 8 0 15 7 15 15 0 9 9 15 23 15
20 1 20 2 5 11 -26 14 -22 43 7 59 26 14 34 40 13 40 -7 0 -52 -26 -99 -58z"></path>
<path d="M5150 3855 c0 -8 5 -15 10 -15 6 0 10 7 10 15 0 8 -4 15 -10 15 -5 0
-10 -7 -10 -15z"></path>
<path d="M5540 3680 c0 -5 5 -10 11 -10 5 0 7 5 4 10 -3 6 -8 10 -11 10 -2 0
-4 -4 -4 -10z"></path>
<path d="M6850 2200 c0 -5 7 -10 15 -10 8 0 15 5 15 10 0 6 -7 10 -15 10 -8 0
-15 -4 -15 -10z"></path>
<path d="M6843 2163 c-53 -5 -57 -22 -5 -25 20 -1 47 -2 59 -3 12 0 25 -4 29
-8 11 -11 74 -8 74 3 0 6 -14 10 -30 10 -18 0 -33 6 -36 15 -4 8 -16 14 -28
13 -11 -1 -40 -3 -63 -5z"></path>
<path d="M6796 2091 c-12 -19 4 -31 33 -25 17 4 43 -1 65 -11 28 -13 40 -15
49 -6 6 6 21 11 34 11 48 0 21 17 -36 23 -33 4 -77 9 -99 13 -25 4 -42 2 -46
-5z"></path>
<path d="M6935 1934 c-4 -10 -11 -29 -16 -42 -5 -13 -9 -33 -9 -45 0 -21 0
-21 13 -2 27 41 40 86 29 97 -8 8 -13 6 -17 -8z"></path>
<path d="M6790 1880 c0 -5 5 -10 10 -10 6 0 10 5 10 10 0 6 -4 10 -10 10 -5 0
-10 -4 -10 -10z"></path>
<path d="M6926 1464 c-4 -9 -4 -19 -2 -21 8 -8 26 8 26 23 0 19 -16 18 -24 -2z"></path>
<path d="M2 1035 c0 -16 2 -22 5 -12 2 9 2 23 0 30 -3 6 -5 -1 -5 -18z"></path>
<path d="M55 550 c3 -5 8 -10 11 -10 2 0 4 5 4 10 0 6 -5 10 -11 10 -5 0 -7
-4 -4 -10z"></path>
<path d="M70 525 c0 -3 26 -42 59 -87 88 -124 135 -160 70 -54 -53 86 -129
169 -129 141z"></path>
<path d="M4113 365 c-77 -18 -162 -37 -187 -40 -89 -14 -55 -23 97 -27 145 -4
156 -5 227 -36 85 -37 150 -51 150 -33 0 6 -8 14 -17 17 -53 18 -123 60 -129
76 -8 26 -2 30 29 19 14 -5 28 -7 31 -4 8 8 -33 63 -47 62 -7 0 -76 -15 -154
-34z"></path>
<path d="M4728 183 l3 -98 37 -32 c20 -17 40 -29 44 -26 4 2 1 21 -8 41 -9 20
-25 69 -34 107 -35 138 -46 140 -42 8z"></path>
<path d="M200 220 c0 -5 12 -31 28 -57 15 -27 41 -74 57 -106 17 -31 33 -57
38 -57 12 0 8 42 -6 59 -8 9 -21 36 -31 61 -9 25 -30 60 -46 78 -31 33 -40 39
-40 22z"></path>
<path d="M4295 103 c-19 -21 -35 -41 -35 -45 0 -16 20 -7 30 12 14 26 37 25
80 -3 46 -30 96 -50 112 -44 7 2 -18 19 -55 37 -46 21 -71 40 -77 56 -5 13
-12 24 -15 24 -3 0 -22 -17 -40 -37z"></path>
<path d="M5575 69 c-42 -24 -61 -69 -28 -69 9 0 13 3 10 7 -4 3 0 15 10 25 24
27 75 23 112 -8 43 -36 61 -26 25 14 -32 35 -95 50 -129 31z"></path>
<path d="M4635 42 c-29 -16 -29 -17 -7 -20 13 -2 29 1 36 7 6 6 22 8 34 4 25
-6 30 12 6 21 -23 9 -36 7 -69 -12z"></path>
</g>
</svg>