 <svg version="1.0" xmlns="http://www.w3.org/2000/svg" width="700.000000pt" height="526.000000pt" viewBox="0 0 700.000000 526.000000" preserveAspectRatio="xMidYMid meet">
<metadata>
Created by potrace 1.12, written by Peter Selinger 2001-2015
</metadata>
<g transform="translate(0.000000,526.000000) scale(0.100000,-0.100000)" fill="#000000" stroke="none">
<path d="M1875 5245 c-28 -6 -62 -18 -76 -26 -68 -38 -94 -56 -113 -76 -71
-76 -86 -93 -86 -102 0 -6 -17 -22 -37 -36 -25 -17 -38 -33 -38 -48 0 -16 -6
-22 -24 -22 -13 0 -30 -10 -38 -22 -13 -19 -13 -23 5 -32 21 -11 27 -39 38
-157 3 -38 10 -73 15 -78 5 -6 9 -21 9 -34 0 -20 4 -22 23 -16 24 7 57 32 70
52 4 6 20 12 34 12 18 0 40 16 76 55 33 37 58 55 73 55 13 0 24 -4 24 -10 0
-16 20 -12 52 11 24 18 37 20 71 14 23 -4 62 -9 87 -10 50 -2 81 -12 92 -31 4
-6 28 -15 52 -18 26 -4 55 -17 71 -31 14 -14 30 -25 35 -25 12 0 60 -48 60
-60 0 -5 14 -17 31 -26 41 -21 78 -60 123 -127 33 -50 36 -60 38 -133 1 -65
-4 -92 -27 -154 -15 -41 -30 -90 -32 -108 -3 -19 -17 -42 -35 -57 -24 -21 -40
-25 -91 -25 -83 0 -133 -26 -174 -89 l-33 -49 11 -79 c18 -120 17 -137 -5
-141 -15 -3 -18 0 -13 17 6 26 -20 46 -74 55 -23 4 -43 16 -58 36 -22 31 -47
41 -38 16 5 -13 -21 -46 -37 -46 -5 0 -23 7 -42 16 -19 9 -37 14 -41 11 -3 -4
5 -11 19 -16 34 -13 98 -87 98 -114 0 -12 9 -33 20 -47 35 -45 17 -106 -19
-63 -9 10 -48 50 -88 87 -69 66 -72 67 -62 35 6 -19 13 -46 16 -62 3 -15 14
-32 24 -38 14 -7 19 -21 19 -49 0 -37 -2 -40 -40 -50 -43 -12 -73 -3 -84 25
-8 23 -26 9 -26 -20 0 -13 -4 -27 -10 -30 -5 -3 -10 -17 -10 -31 0 -21 -5 -24
-32 -24 -92 1 -200 95 -284 250 -115 209 -124 232 -148 350 -22 106 -37 138
-44 93 -2 -11 -17 -23 -37 -29 -34 -11 -35 -10 -41 23 -3 18 -4 42 -1 54 3 13
1 19 -6 16 -7 -2 -13 -32 -15 -78 -3 -71 2 -123 32 -334 8 -55 17 -140 20
-190 l5 -90 -13 60 c-54 245 -78 384 -83 473 -3 56 -9 102 -13 102 -15 0 -18
-58 -10 -155 8 -92 17 -151 49 -320 11 -57 47 -293 58 -382 5 -40 -7 -73 -26
-73 -16 0 -51 86 -71 173 -12 50 -35 133 -52 182 -17 50 -36 115 -43 145 -8
30 -27 109 -44 175 -37 140 -50 257 -32 279 10 11 9 16 -1 23 -7 4 -18 17 -24
28 -6 10 -26 23 -45 28 -33 8 -115 37 -174 63 -162 69 -214 88 -300 109 -113
29 -295 45 -295 26 0 -7 19 -11 48 -11 77 -1 312 -48 352 -71 8 -5 51 -27 95
-48 44 -22 105 -54 135 -71 53 -31 54 -31 31 -6 -31 33 -15 33 33 1 20 -14 46
-25 56 -25 30 0 53 -43 46 -85 -7 -35 -7 -35 -60 -35 -68 0 -90 -16 -88 -66 2
-54 13 -116 24 -136 6 -12 5 -18 -3 -18 -8 0 -8 -4 -1 -12 5 -7 17 -44 26 -83
9 -38 20 -83 25 -100 5 -16 15 -57 21 -90 7 -33 23 -94 35 -135 38 -121 67
-242 60 -258 -6 -18 -31 11 -67 79 -13 24 -40 69 -60 100 -20 31 -50 83 -66
115 -66 131 -144 279 -153 290 -5 6 -6 25 -3 43 4 19 2 31 -4 31 -6 0 -12 -10
-14 -22 -8 -57 -49 -14 -89 92 -31 86 -72 161 -115 214 -33 39 -95 76 -129 76
-12 0 -53 -27 -91 -60 -38 -33 -72 -60 -76 -60 -15 0 -8 -120 7 -151 14 -26
28 -131 27 -199 0 -14 4 -43 10 -65 5 -22 10 -83 11 -136 l2 -97 -33 5 c-17 3
-32 2 -32 -3 0 -5 15 -15 32 -23 18 -8 48 -27 66 -43 36 -31 43 -33 60 -16 8
8 20 5 46 -13 l36 -24 -23 -17 c-22 -18 -22 -18 13 -12 19 4 40 11 47 16 13
10 62 -19 63 -36 0 -13 33 -35 53 -36 9 0 17 -4 17 -9 0 -5 9 -12 19 -16 42
-13 325 -213 349 -246 7 -10 32 -28 57 -40 25 -13 55 -39 70 -60 29 -45 29
-44 13 -61 -14 -14 -35 -56 -67 -130 -11 -27 -25 -48 -31 -48 -7 0 -25 9 -41
21 -26 18 -28 22 -15 42 8 12 21 48 30 79 9 31 20 59 25 62 4 3 22 1 40 -4 18
-5 31 -5 31 0 0 16 -32 27 -92 33 -31 3 -68 11 -82 19 -87 47 -143 87 -206
148 -138 135 -257 206 -370 222 -36 4 -82 11 -102 14 -29 5 -38 3 -38 -8 0
-22 59 -38 130 -36 51 1 75 -3 110 -22 66 -34 159 -102 210 -155 43 -43 44
-46 22 -51 -29 -8 -28 -17 8 -81 17 -29 26 -53 20 -53 -18 0 -42 -62 -36 -91
6 -31 -3 -36 -34 -19 -14 7 -22 7 -29 -2 -6 -7 -23 -28 -38 -47 -23 -29 -31
-32 -61 -27 -19 3 -54 -2 -79 -10 -31 -11 -73 -14 -134 -12 l-89 3 0 -209 0
-209 40 7 c22 3 57 9 79 12 34 6 40 3 60 -25 l23 -31 -21 -18 c-17 -14 -20
-24 -15 -56 6 -30 13 -40 35 -48 16 -5 29 -14 29 -18 0 -5 21 -12 48 -15 26
-4 61 -12 79 -18 24 -8 39 -8 60 2 82 39 132 31 191 -30 l33 -33 -23 -9 c-13
-5 -76 -6 -141 -3 -64 4 -117 3 -117 -2 0 -10 67 -32 99 -32 49 0 33 -69 -25
-109 -19 -13 -33 -29 -31 -35 5 -15 77 -54 102 -55 11 -1 33 -8 49 -16 15 -8
37 -15 48 -15 10 0 33 -8 51 -17 18 -9 55 -18 82 -19 85 -3 149 -16 162 -31
14 -18 41 -10 49 14 3 10 12 34 19 53 8 19 16 63 18 98 5 57 3 62 -13 57 -21
-7 -44 19 -36 41 4 12 15 15 37 12 16 -3 32 -1 35 3 6 10 -65 51 -128 74 -55
20 -62 35 -18 35 19 0 65 21 123 56 50 31 133 69 182 86 93 31 161 64 188 89
8 8 39 34 68 59 58 50 186 169 263 245 68 67 172 155 183 155 5 0 15 9 23 20
18 25 27 25 35 -1 6 -16 9 -18 22 -8 22 19 35 -7 29 -56 -3 -22 -9 -77 -15
-121 -15 -137 -31 -138 -26 -1 3 70 1 117 -5 117 -13 0 -19 -47 -23 -183 -3
-91 -8 -122 -20 -134 -14 -15 -98 -32 -294 -62 -29 -4 -56 -11 -60 -14 -18
-19 19 -19 130 -3 185 27 217 35 244 65 36 39 43 46 110 100 33 28 86 66 116
84 30 17 86 53 123 79 86 58 108 63 112 25 2 -19 -2 -29 -15 -34 -10 -4 -20
-9 -23 -13 -13 -17 -77 -59 -82 -55 -10 11 -56 -18 -63 -39 -4 -11 -7 -24 -6
-28 0 -4 -15 -15 -34 -24 -40 -18 -50 -50 -13 -38 21 6 22 6 8 -12 -8 -10 -23
-27 -32 -38 -10 -10 -15 -23 -12 -28 3 -4 0 -8 -5 -8 -6 0 -11 -5 -11 -11 0
-14 87 -99 102 -99 9 0 9 -3 0 -12 -8 -8 -15 -8 -26 1 -12 10 -17 6 -31 -23
-10 -21 -15 -46 -11 -60 4 -15 1 -30 -7 -38 -18 -18 -10 -38 14 -38 11 0 18
-4 14 -10 -3 -5 -12 -7 -20 -3 -8 3 -15 0 -15 -6 0 -6 -7 -11 -16 -11 -14 0
-15 -2 -3 -17 13 -15 14 -15 17 0 4 21 35 22 52 2 12 -14 15 -14 31 1 15 13
22 14 33 5 8 -7 21 -9 27 -5 9 5 10 -5 4 -42 -4 -27 -8 -61 -8 -76 0 -15 -3
-25 -8 -22 -4 2 -12 -3 -17 -12 -6 -11 -11 -13 -16 -5 -4 6 -13 11 -19 11 -8
0 -7 -4 2 -9 12 -8 12 -12 2 -25 -10 -12 -8 -15 16 -18 23 -2 28 -7 26 -28 -1
-14 1 -19 3 -12 7 14 44 16 44 2 0 -5 5 -10 11 -10 8 0 8 4 -1 15 -15 18 -5
36 16 28 9 -3 12 -12 9 -24 -4 -11 -4 -19 0 -19 8 0 69 44 73 53 2 4 8 4 13 1
12 -7 39 14 39 31 0 7 -10 15 -22 19 -18 4 -20 8 -10 18 6 6 12 20 12 30 0 22
9 22 35 2 17 -13 18 -16 5 -25 -13 -9 -13 -10 0 -5 70 23 91 28 105 22 9 -3
14 -10 10 -15 -3 -5 -1 -12 4 -15 5 -4 13 -1 16 4 5 7 12 5 20 -7 9 -12 10
-20 3 -24 -16 -10 2 -31 19 -25 17 7 43 -10 43 -26 0 -6 -7 -8 -15 -4 -8 3
-15 1 -15 -5 0 -14 43 -28 55 -19 6 5 21 3 34 -5 22 -11 27 -10 58 21 18 18
33 31 33 27 0 -3 7 1 16 8 14 11 18 11 28 -1 6 -8 18 -16 26 -18 24 -5 117
-51 132 -65 35 -34 120 -79 139 -74 22 6 133 -52 157 -81 10 -13 14 -14 25 -3
10 11 8 15 -7 25 -11 6 -64 47 -119 91 -54 44 -128 99 -163 123 -35 24 -64 47
-64 52 0 5 15 12 34 15 32 6 44 0 156 -85 171 -129 404 -341 473 -430 15 -20
24 -27 20 -15 -3 11 -12 27 -18 35 -20 24 -63 152 -81 241 -28 138 4 331 97
586 39 106 52 156 56 218 4 58 12 89 28 115 12 19 25 46 28 60 4 14 4 19 1 13
-8 -19 -24 -16 -24 5 0 47 53 241 82 300 43 89 193 242 238 242 16 0 32 5 35
10 8 13 141 11 260 -2 92 -10 185 -17 234 -18 19 0 39 -7 45 -15 6 -9 27 -17
46 -19 43 -4 86 -21 95 -36 4 -7 18 -9 32 -5 21 5 41 -11 153 -122 71 -70 150
-144 176 -163 125 -94 130 -105 119 -263 -9 -130 -25 -164 -86 -173 -22 -4
-43 -13 -46 -21 -8 -20 16 -60 38 -66 12 -3 17 -11 13 -20 -3 -9 3 -16 16 -20
11 -3 19 -10 18 -15 -5 -14 92 -96 147 -125 59 -31 81 -59 95 -121 13 -58 2
-108 -39 -182 -18 -30 -46 -92 -62 -137 -17 -45 -50 -113 -73 -152 -66 -106
-73 -124 -105 -247 -48 -190 -64 -270 -67 -337 -4 -81 -32 -126 -106 -170 -29
-17 -60 -35 -68 -40 -70 -43 -261 -107 -348 -118 -89 -10 -116 1 -190 78 l-66
69 -56 0 c-72 0 -152 21 -244 65 -41 19 -79 35 -85 35 -7 0 -11 -23 -11 -59 0
-33 -3 -67 -6 -76 -9 -23 72 -98 123 -113 23 -7 76 -17 120 -22 89 -12 409
-15 436 -5 12 5 17 2 17 -9 0 -9 5 -16 10 -16 6 0 10 7 10 15 0 18 18 27 100
50 36 9 84 26 107 36 24 11 50 19 59 19 8 0 35 16 59 35 25 21 69 44 107 55
34 10 99 34 143 53 44 19 105 42 135 52 30 10 79 33 108 52 65 43 187 174 209
225 20 46 48 50 83 13 12 -13 26 -22 31 -20 11 8 61 -56 55 -71 -3 -7 -1 -16
4 -19 6 -4 10 -17 10 -29 0 -13 13 -47 28 -77 25 -47 37 -87 46 -151 1 -10 9
-25 18 -35 37 -41 128 -187 143 -231 10 -26 26 -71 37 -100 17 -43 18 -55 8
-68 -11 -13 -10 -16 6 -20 12 -3 34 -36 59 -87 l40 -82 72 -3 73 -3 -2 88 c-3
108 12 162 60 215 35 39 38 40 90 36 64 -6 93 -26 147 -101 22 -31 67 -77 101
-102 39 -29 70 -61 85 -90 23 -44 25 -45 71 -45 l48 0 0 429 0 430 -47 6 c-27
4 -86 16 -133 26 -172 40 -224 41 -475 10 -44 -6 -95 -13 -112 -17 -20 -4 -33
-2 -33 3 0 6 52 16 116 24 l117 14 13 51 c7 29 27 73 44 100 16 26 30 59 30
71 0 35 -24 75 -60 101 -17 13 -36 35 -43 50 -6 15 -22 38 -34 52 l-22 24 32
28 c18 15 42 30 54 34 23 6 111 -29 161 -64 15 -11 52 -23 82 -27 86 -11 200
-55 278 -106 l32 -21 0 214 0 213 -73 17 c-48 12 -113 18 -188 18 -71 0 -119
4 -126 11 -16 16 -4 78 21 112 12 16 20 41 19 62 -1 36 3 39 47 35 56 -4 200
-70 200 -91 0 -10 78 -69 92 -69 4 0 8 88 8 196 l0 195 -22 -7 c-13 -4 -28 -9
-34 -11 -18 -7 -44 38 -44 74 0 18 4 33 8 33 5 0 6 24 4 53 -10 117 -8 145 14
169 26 29 48 94 37 110 -10 17 -5 46 14 75 8 13 11 23 5 23 -11 0 -10 159 1
178 5 6 4 12 -1 12 -5 0 -7 31 -5 69 3 45 0 71 -7 76 -8 5 -6 13 7 27 14 15
18 37 18 90 0 64 -2 72 -29 94 -16 14 -35 23 -42 20 -34 -13 -164 80 -164 117
0 12 -116 102 -145 113 -24 10 -17 36 21 78 39 43 38 65 -3 68 -97 6 -119 5
-138 -8 -10 -8 -40 -14 -65 -14 -25 0 -52 -6 -59 -12 -10 -11 -12 -7 -9 17 2
21 -1 30 -12 30 -8 1 -27 5 -42 9 l-26 8 20 33 c38 66 9 115 -50 83 -17 -8
-26 -9 -29 -2 -4 11 -124 11 -144 -1 -9 -6 -10 -1 -5 20 4 16 8 60 9 99 2 64
0 71 -18 74 -11 2 -31 15 -44 30 l-25 25 21 39 c12 21 18 40 13 43 -4 2 -4 24
0 47 8 43 47 88 75 88 8 0 31 7 52 16 61 27 73 31 183 65 289 88 565 291 595
437 9 44 -11 42 -24 -3 -11 -40 -87 -141 -131 -173 l-30 -23 0 29 c0 59 -91
112 -191 112 -40 0 -56 -7 -107 -44 -72 -54 -75 -58 -82 -121 l-5 -50 -70 -35
c-39 -19 -84 -45 -102 -57 -17 -13 -36 -23 -43 -23 -6 0 -9 -4 -5 -9 3 -5 1
-12 -5 -16 -6 -4 -8 -11 -5 -16 4 -5 1 -9 -5 -9 -7 0 -9 -8 -5 -20 3 -11 3
-20 -2 -21 -22 -2 -45 -8 -51 -13 -3 -4 -19 7 -36 23 -25 24 -41 30 -81 31
-74 3 -75 2 -75 -25 0 -20 -5 -25 -25 -25 -15 0 -36 11 -49 25 -13 14 -29 25
-35 25 -22 0 -1 43 39 81 31 29 130 169 130 183 0 2 -89 6 -197 10 -355 12
-426 15 -773 36 -96 6 -364 15 -595 20 -231 4 -445 11 -475 13 -30 3 -122 8
-205 12 -277 11 -560 27 -604 33 -46 7 -68 28 -58 55 9 23 71 27 417 30 289 2
307 3 340 23 25 15 34 27 33 42 -2 12 2 22 8 22 26 0 -2 26 -42 40 -26 9 -48
24 -54 38 -6 13 -19 22 -33 22 -12 0 -25 6 -28 14 -3 8 -31 22 -62 32 -31 9
-73 25 -92 35 -19 10 -73 32 -120 48 -47 16 -121 42 -166 59 -73 26 -102 34
-184 48 -14 3 -50 18 -81 33 -40 21 -60 26 -68 18 -7 -7 -30 -4 -76 11 -63 21
-81 22 -483 21 -294 -1 -432 -5 -467 -14z m-65 -67 c0 -7 -16 -24 -35 -37 -19
-13 -37 -32 -40 -42 -4 -12 -16 -19 -31 -19 -14 0 -27 -6 -30 -14 -3 -8 -12
-17 -20 -20 -23 -9 77 103 111 124 36 22 45 24 45 8z m-170 -151 c0 -2 -12
-14 -27 -28 l-28 -24 24 28 c23 25 31 32 31 24z m-103 -111 c-29 -29 -37 -32
-37 -13 0 11 51 47 59 41 2 -2 -8 -14 -22 -28z m3988 -597 c0 -20 -41 -23 -49
-4 -3 9 -4 21 -1 25 8 13 50 -5 50 -21z m-2623 -209 c12 -16 31 -33 42 -36 12
-3 46 -17 77 -31 65 -28 86 -58 99 -140 6 -36 16 -62 26 -68 43 -26 74 -59 74
-78 0 -12 -12 -40 -25 -62 -15 -24 -25 -55 -25 -78 0 -27 -7 -45 -25 -62 -35
-36 -67 -32 -112 15 l-38 40 -118 1 c-93 0 -122 -3 -135 -15 -17 -15 -155 -26
-168 -13 -11 11 18 71 45 95 41 37 105 62 173 67 160 12 208 21 230 42 18 18
19 25 9 37 -23 28 -79 35 -222 29 l-139 -6 0 44 c0 33 10 62 40 114 50 88 58
98 95 118 45 24 72 21 97 -13z m-172 -626 c0 -8 -9 -14 -20 -14 -22 0 -28 26
-7 33 16 6 27 -1 27 -19z m60 -4 c0 -5 -8 -10 -17 -10 -15 0 -16 2 -3 10 19
12 20 12 20 0z m-502 -46 c19 -9 41 -13 53 -9 25 8 41 -11 29 -34 -8 -14 -21
-48 -25 -61 -8 -32 -21 -54 -44 -79 -16 -17 -31 -47 -34 -69 -5 -25 -17 -48
-37 -65 -36 -33 -37 -40 -5 -57 27 -15 40 -43 28 -62 -4 -7 -8 -19 -9 -26 -3
-15 -44 -51 -60 -52 -6 0 -17 6 -23 13 -6 8 -30 22 -53 33 -55 24 -75 45 -85
86 -15 59 -3 221 17 233 4 3 11 21 15 41 4 24 13 38 26 41 15 4 165 74 175 82
0 1 15 -6 32 -15z m338 -52 c-19 -32 272 -42 310 -11 13 10 16 11 10 1 -4 -7
-19 -18 -34 -23 -33 -13 -16 -32 24 -27 20 2 30 10 34 27 11 49 114 48 125 -1
2 -13 1 -48 -3 -78 -6 -51 -9 -55 -35 -58 -15 -2 -51 4 -81 12 -81 24 -110 21
-151 -16 -32 -27 -36 -36 -31 -63 6 -28 3 -33 -29 -48 -43 -21 -74 -21 -142
-4 -69 18 -121 55 -129 91 -3 15 -3 53 1 84 6 47 13 62 42 89 23 22 44 33 64
33 17 0 28 -4 25 -8z m-704 -102 c7 -179 7 -182 -28 -176 -35 7 -40 12 -42 48
-3 40 -18 124 -27 155 -6 17 -3 24 11 29 11 3 26 9 34 13 30 16 50 -11 52 -69z
m5045 -232 c-3 -8 -6 -5 -6 6 -1 11 2 17 5 13 3 -3 4 -12 1 -19z m-6310 -319
c20 -7 24 -12 14 -19 -8 -4 -11 -15 -8 -24 9 -23 -26 -21 -48 4 -17 19 -15 50
4 50 5 0 22 -5 38 -11z m116 -11 c16 -12 16 -16 -1 -61 -25 -65 -37 -75 -61
-53 -11 10 -27 16 -36 13 -26 -10 -17 -23 25 -37 43 -14 47 -19 28 -38 -9 -9
-8 -12 5 -12 10 0 28 -10 41 -22 13 -13 32 -28 42 -34 18 -11 22 -25 7 -23 -5
0 -10 -10 -13 -23 -8 -32 -37 -35 -51 -5 -6 14 -22 30 -35 36 -13 6 -24 17
-24 26 0 8 -8 15 -17 15 -20 0 -53 28 -53 47 0 7 -6 13 -13 13 -8 0 -30 15
-49 34 -19 18 -44 39 -56 45 -24 13 -29 50 -10 69 21 21 54 13 85 -23 44 -49
76 -48 103 5 22 43 50 52 83 28z m66 -404 c39 -2 61 -10 79 -26 23 -22 24 -26
17 -118 -5 -77 -10 -99 -27 -117 -12 -13 -24 -23 -28 -23 -6 0 -40 70 -40 82
0 17 -61 66 -99 82 -47 18 -130 74 -132 88 -6 28 0 34 36 40 22 3 63 4 90 1
28 -3 74 -7 104 -9z m-411 -88 c42 -29 56 -49 75 -103 14 -42 11 -83 -5 -83
-6 0 -30 11 -53 24 -23 14 -64 30 -91 37 -27 6 -55 16 -62 22 -14 11 -13 70 1
104 17 38 80 38 135 -1z m357 -346 c20 0 30 -41 14 -51 -35 -22 -119 -3 -119
26 0 15 56 36 78 29 8 -2 20 -4 27 -4z m-97 -122 c34 -12 61 -26 59 -32 -6
-18 -102 -65 -134 -65 -35 -1 -103 49 -103 75 0 16 54 42 90 43 14 1 53 -9 88
-21z m189 -49 c82 -15 90 -26 67 -84 -16 -37 -24 -45 -45 -45 -35 0 -61 31
-57 67 2 20 9 29 26 31 30 5 28 22 -3 22 -15 0 -31 -9 -41 -25 -22 -34 -40
-31 -53 6 -6 18 -11 33 -11 33 0 7 67 4 117 -5z m1428 -8 c3 -5 1 -12 -5 -16
-5 -3 -10 1 -10 9 0 18 6 21 15 7z m385 -23 c0 -5 -4 -8 -10 -8 -5 0 -10 10
-10 23 0 18 2 19 10 7 5 -8 10 -18 10 -22z m-330 -8 c0 -5 -7 -10 -15 -10 -8
0 -15 5 -15 10 0 6 7 10 15 10 8 0 15 -4 15 -10z m790 -107 c22 -28 14 -41
-18 -28 -13 5 -14 8 -3 14 10 6 6 15 -16 36 -22 21 -23 25 -6 16 12 -6 31 -23
43 -38z m2704 -79 c9 -3 16 -16 16 -28 0 -11 7 -34 15 -50 19 -36 19 -60 0
-76 -12 -10 -18 -6 -35 22 -11 18 -20 39 -20 46 0 6 -4 12 -10 12 -5 0 -14 9
-20 21 -9 16 -8 25 6 40 19 21 24 22 48 13z m-184 -278 c0 -8 -4 -17 -9 -21
-12 -7 -24 12 -16 25 9 15 25 12 25 -4z m-119 -72 c10 -16 18 -37 18 -46 1 -9
17 -31 36 -49 41 -39 31 -53 -31 -39 -70 16 -106 90 -73 151 13 26 29 20 50
-17z m617 -277 c-46 -37 -84 -73 -107 -102 l-24 -30 6 48 c7 53 30 94 55 100
9 2 34 4 55 3 l39 0 -24 -19z"></path>
<path d="M522 2678 c5 -15 28 -18 29 -3 0 6 -7 12 -17 13 -10 3 -15 -1 -12
-10z"></path>
<path d="M587 2633 c-12 -11 -8 -23 8 -23 8 0 15 7 15 15 0 16 -12 20 -23 8z"></path>
<path d="M662 2548 c6 -18 28 -21 28 -4 0 9 -7 16 -16 16 -9 0 -14 -5 -12 -12z"></path>
<path d="M731 2500 c-16 -9 -6 -30 15 -30 15 0 20 25 6 34 -4 2 -14 1 -21 -4z"></path>
<path d="M765 2460 c-3 -5 -1 -10 4 -10 6 0 11 5 11 10 0 6 -2 10 -4 10 -3 0
-8 -4 -11 -10z"></path>
<path d="M6860 4840 c0 -5 5 -10 10 -10 6 0 10 5 10 10 0 6 -4 10 -10 10 -5 0
-10 -4 -10 -10z"></path>
<path d="M1330 4768 c-33 -35 -60 -66 -60 -71 0 -13 83 53 113 88 50 62 8 48
-53 -17z"></path>
<path d="M6640 4805 c-25 -13 -38 -24 -30 -25 20 0 100 33 100 43 0 13 -24 7
-70 -18z"></path>
<path d="M6910 4800 c0 -5 5 -10 10 -10 6 0 10 5 10 10 0 6 -4 10 -10 10 -5 0
-10 -4 -10 -10z"></path>
<path d="M6435 4769 c-103 -22 -140 -33 -181 -56 -24 -14 -44 -29 -44 -34 0
-13 12 -11 35 5 24 16 96 41 148 50 31 6 37 4 37 -11 1 -16 3 -15 19 5 15 17
34 24 80 28 34 4 61 11 61 15 0 11 -102 10 -155 -2z"></path>
<path d="M1870 4715 c0 -16 36 -34 68 -35 43 0 41 16 -4 24 -19 4 -42 10 -50
13 -8 3 -14 2 -14 -2z"></path>
<path d="M1440 4697 c0 -8 10 -22 21 -33 15 -13 20 -14 15 -4 -3 8 -9 23 -12
33 -7 20 -24 23 -24 4z"></path>
<path d="M1282 4648 c-16 -16 -15 -43 3 -58 8 -7 15 -29 15 -50 0 -41 23 -71
41 -53 6 6 13 30 16 53 5 37 4 42 -10 37 -18 -7 -42 17 -32 33 8 13 42 13 50
0 3 -5 13 -10 21 -10 8 0 14 5 14 10 0 6 -8 10 -18 10 -11 0 -27 9 -37 20 -20
23 -45 26 -63 8z"></path>
<path d="M1210 4580 c0 -5 5 -10 10 -10 6 0 10 5 10 10 0 6 -4 10 -10 10 -5 0
-10 -4 -10 -10z"></path>
<path d="M6253 4543 c-52 -45 -183 -248 -183 -282 0 -29 22 -5 57 61 21 40 64
108 96 151 58 78 69 104 30 70z"></path>
<path d="M1980 4519 c0 -22 40 -46 87 -53 47 -6 93 -37 93 -63 0 -20 -15 -16
-48 12 -56 47 -57 25 -2 -29 30 -29 60 -61 66 -72 7 -10 15 -16 19 -12 4 4 0
19 -9 34 -21 31 -13 43 15 25 34 -21 35 -3 2 32 -17 17 -36 42 -42 54 -23 45
-181 107 -181 72z"></path>
<path d="M6954 4371 c-50 -37 -117 -108 -137 -146 -27 -50 -47 -135 -47 -197
0 -60 14 -103 29 -93 5 2 14 -2 21 -10 12 -15 11 -16 -12 -19 -23 -2 -20 -51
7 -103 14 -28 25 -61 25 -72 0 -12 7 -24 15 -28 9 -3 23 -19 31 -35 10 -19 21
-28 30 -24 11 4 13 0 8 -20 -6 -23 -4 -25 15 -19 12 4 21 2 21 -4 0 -6 -5 -11
-11 -11 -5 0 -7 -4 -4 -10 3 -5 15 -10 26 -10 11 0 18 -4 14 -9 -3 -5 -1 -12
5 -16 7 -4 10 135 10 424 0 237 -2 431 -3 431 -2 0 -22 -13 -43 -29z m-148
-327 c0 -19 -3 -37 -8 -40 -4 -3 -8 16 -8 42 0 54 14 52 16 -2z"></path>
<path d="M1936 4373 c-4 -5 -20 -12 -36 -18 l-28 -10 28 -61 c17 -35 48 -78
76 -105 27 -24 64 -60 84 -80 44 -45 80 -66 80 -46 0 8 -11 19 -25 25 -17 8
-25 20 -25 37 0 20 -9 28 -50 46 -27 12 -50 24 -50 28 1 3 16 16 35 28 37 24
50 17 57 -27 4 -31 22 -29 26 4 6 43 -45 116 -115 164 -33 23 -45 26 -57 15z
m14 -52 c0 -5 -6 -14 -14 -20 -16 -13 -32 2 -21 19 8 12 35 13 35 1z m20 -71
c0 -5 -4 -10 -10 -10 -5 0 -10 5 -10 10 0 6 5 10 10 10 6 0 10 -4 10 -10z"></path>
<path d="M1227 4333 c-4 -3 -7 -11 -7 -17 0 -6 5 -5 12 2 6 6 9 14 7 17 -3 3
-9 2 -12 -2z"></path>
<path d="M5810 4290 c0 -5 7 -10 16 -10 8 0 12 5 9 10 -3 6 -10 10 -16 10 -5
0 -9 -4 -9 -10z"></path>
<path d="M1846 4256 c3 -8 12 -17 20 -20 11 -4 12 -2 1 14 -14 23 -29 27 -21
6z"></path>
<path d="M1200 4090 c0 -11 5 -20 10 -20 6 0 10 9 10 20 0 11 -4 20 -10 20 -5
0 -10 -9 -10 -20z"></path>
<path d="M1970 3921 c0 -6 4 -11 10 -11 5 0 29 -18 51 -40 63 -61 78 -53 31
15 -21 30 -35 41 -60 43 -18 2 -32 -1 -32 -7z"></path>
<path d="M1890 3853 c0 -20 47 -83 61 -83 6 0 1 15 -11 33 -12 17 -24 40 -27
50 -7 22 -23 22 -23 0z"></path>
<path d="M1970 3823 c0 -14 69 -63 74 -54 9 14 -33 61 -55 61 -10 0 -19 -3
-19 -7z"></path>
<path d="M540 3796 c0 -9 7 -16 16 -16 9 0 14 5 12 12 -6 18 -28 21 -28 4z"></path>
<path d="M1680 3730 c0 -23 69 -130 84 -130 10 0 6 24 -9 54 -21 39 -19 47 10
40 15 -4 25 -2 25 4 0 6 -13 13 -30 17 -16 4 -32 11 -35 16 -8 12 -45 12 -45
-1z"></path>
<path d="M20 3085 c0 -8 9 -19 20 -25 11 -6 20 -15 20 -21 0 -13 62 -89 73
-89 17 0 4 32 -38 89 -43 58 -75 78 -75 46z"></path>
<path d="M150 2905 c0 -16 27 -32 37 -21 7 7 -16 36 -28 36 -5 0 -9 -7 -9 -15z"></path>
<path d="M320 2780 c6 -11 15 -20 20 -20 6 0 2 9 -7 20 -10 11 -19 20 -21 20
-1 0 2 -9 8 -20z"></path>
<path d="M3910 2480 c0 -5 5 -10 10 -10 6 0 10 5 10 10 0 6 -4 10 -10 10 -5 0
-10 -4 -10 -10z"></path>
<path d="M3965 2470 c-3 -5 1 -10 10 -10 9 0 13 5 10 10 -3 6 -8 10 -10 10 -2
0 -7 -4 -10 -10z"></path>
<path d="M1698 2353 c7 -3 16 -2 19 1 4 3 -2 6 -13 5 -11 0 -14 -3 -6 -6z"></path>
<path d="M3860 2275 c-7 -18 -15 -25 -25 -21 -8 3 -15 1 -15 -4 0 -6 -7 -10
-15 -10 -17 0 -66 -50 -59 -62 10 -16 55 -7 104 22 53 31 84 38 95 19 4 -5 0
-18 -8 -27 -24 -29 -27 -52 -12 -89 18 -43 18 -43 0 -43 -21 0 -85 59 -85 79
0 10 -3 21 -7 24 -8 9 -43 -22 -43 -38 0 -30 122 -104 143 -87 7 6 40 7 82 2
56 -6 73 -4 88 8 31 28 21 69 -31 125 -27 29 -52 60 -55 70 -9 24 -88 58 -104
45 -9 -7 -18 -6 -28 2 -12 10 -16 8 -25 -15z m150 -175 c0 -11 -7 -20 -15 -20
-8 0 -15 9 -15 20 0 11 7 20 15 20 8 0 15 -9 15 -20z"></path>
<path d="M4770 2292 c0 -18 36 -40 62 -39 40 3 34 24 -9 36 -46 13 -53 13 -53
3z"></path>
<path d="M4845 2232 l-30 -17 30 -3 c39 -4 115 -19 138 -27 9 -4 17 -3 17 2 0
10 -101 63 -117 63 -4 -1 -21 -8 -38 -18z"></path>
<path d="M1447 2134 c-4 -4 -4 -10 -2 -14 6 -10 55 0 55 11 0 10 -43 12 -53 3z"></path>
<path d="M1763 2114 c-8 -20 9 -49 28 -49 18 0 24 32 9 50 -16 20 -29 19 -37
-1z"></path>
<path d="M4715 2096 c-34 -15 -71 -53 -62 -63 4 -3 15 1 24 9 30 26 84 50 100
43 20 -7 11 -16 -30 -30 -48 -17 -137 -87 -137 -108 0 -12 16 -25 48 -39 26
-11 58 -29 71 -39 13 -11 35 -19 48 -19 13 0 34 -5 46 -12 31 -16 48 -19 164
-21 79 -2 107 1 123 13 20 15 20 16 1 51 -14 25 -16 40 -9 53 7 13 13 14 23 6
11 -9 12 -7 8 12 -8 31 -32 58 -53 58 -10 0 -23 7 -30 15 -47 56 -265 103
-335 71z m75 -52 c0 -3 -9 -19 -21 -35 -17 -25 -20 -38 -14 -81 l7 -52 -43 34
c-24 18 -48 37 -52 41 -11 8 21 59 37 59 6 0 22 9 36 20 24 19 50 26 50 14z
m50 -130 c0 -8 -7 -14 -15 -14 -15 0 -21 21 -9 33 10 9 24 -2 24 -19z m199 -3
c22 -31 26 -42 14 -39 -5 1 -21 -4 -36 -10 -32 -14 -50 -15 -45 -4 2 4 10 24
18 45 8 20 17 37 21 37 4 0 17 -13 28 -29z"></path>
<path d="M140 1840 c0 -10 81 -50 101 -50 23 0 5 20 -34 39 -48 23 -67 26 -67
11z"></path>
<path d="M3983 1788 c-45 -27 -42 -42 4 -33 38 7 53 19 53 43 0 17 -19 14 -57
-10z"></path>
<path d="M1690 1771 c0 -6 5 -13 10 -16 6 -3 10 1 10 9 0 9 -4 16 -10 16 -5 0
-10 -4 -10 -9z"></path>
<path d="M2078 1773 c7 -3 16 -2 19 1 4 3 -2 6 -13 5 -11 0 -14 -3 -6 -6z"></path>
<path d="M160 1710 c0 -5 20 -10 45 -10 25 0 45 5 45 10 0 6 -20 10 -45 10
-25 0 -45 -4 -45 -10z"></path>
<path d="M1707 1713 c-7 -12 25 -103 36 -103 5 0 7 6 4 14 -3 8 -9 31 -13 50
-6 36 -19 53 -27 39z"></path>
<path d="M4260 1704 c0 -13 35 -33 60 -34 24 0 24 0 5 14 -25 17 -65 30 -65
20z"></path>
<path d="M50 1680 c0 -5 5 -10 10 -10 6 0 10 5 10 10 0 6 -4 10 -10 10 -5 0
-10 -4 -10 -10z"></path>
<path d="M3954 1655 c-4 -8 0 -23 7 -32 15 -18 78 -47 86 -39 6 6 -67 86 -78
86 -6 0 -12 -7 -15 -15z"></path>
<path d="M4364 1655 c11 -8 22 -12 25 -9 6 6 -19 24 -34 24 -5 -1 -1 -7 9 -15z"></path>
<path d="M4520 1641 c0 -11 -4 -23 -10 -26 -5 -3 -10 -18 -10 -33 0 -27 -15
-61 -23 -52 -3 3 -16 27 -31 55 -21 41 -26 45 -26 24 0 -14 5 -30 10 -35 6 -6
12 -36 14 -67 1 -31 5 -59 8 -63 3 -3 23 16 44 42 34 41 39 54 42 110 3 43 1
64 -7 64 -6 0 -11 -9 -11 -19z"></path>
<path d="M2400 1624 c20 -28 42 -44 57 -44 24 0 13 15 -30 39 -36 21 -40 22
-27 5z"></path>
<path d="M165 1588 c-46 -11 -75 -12 -127 -2 l-38 6 0 -39 0 -40 121 -7 c67
-4 153 -15 192 -25 40 -10 108 -24 152 -30 44 -7 101 -17 128 -23 39 -8 52 -7
72 6 26 17 32 50 15 76 -9 13 -15 10 -39 -18 l-29 -34 -41 37 c-40 36 -58 31
-24 -7 9 -10 14 -20 11 -23 -3 -3 -38 2 -79 11 -84 18 -205 72 -233 103 -21
23 -23 23 -81 9z"></path>
<path d="M4233 1568 c-18 -6 -33 -14 -33 -18 0 -8 55 -25 112 -35 45 -9 61 14
33 45 -20 22 -60 24 -112 8z"></path>
<path d="M247 1454 c-3 -4 0 -19 8 -35 8 -15 15 -35 15 -43 0 -21 21 -31 30
-16 14 23 -36 111 -53 94z"></path>
<path d="M3270 1365 c0 -18 56 -57 76 -53 11 2 1 14 -30 35 -31 22 -46 28 -46
18z"></path>
<path d="M3360 1370 c0 -4 17 -11 37 -15 65 -12 163 -117 163 -173 0 -21 6
-31 20 -35 11 -3 20 -1 20 4 0 5 -5 9 -11 9 -7 0 -9 10 -5 26 7 28 -32 90 -99
154 -29 29 -44 35 -81 36 -24 1 -44 -2 -44 -6z"></path>
<path d="M4180 1294 c0 -8 61 -58 82 -66 29 -12 21 5 -22 40 -36 29 -60 40
-60 26z"></path>
<path d="M1120 1228 c0 -13 -5 -40 -11 -61 -9 -34 -13 -38 -34 -33 -22 6 -24
3 -29 -51 -15 -151 -25 -200 -46 -236 -20 -34 -24 -36 -39 -23 -15 14 -18 13
-29 -5 -10 -16 -19 -19 -42 -14 -22 5 -29 2 -34 -12 -10 -36 -5 -140 10 -167
7 -16 14 -51 14 -80 0 -28 5 -78 10 -111 17 -105 14 -224 -8 -290 -13 -41 -17
-66 -10 -78 15 -30 25 -19 31 35 18 156 47 241 78 222 4 -2 13 5 19 16 6 11 8
20 4 20 -3 0 -2 6 4 13 13 17 20 56 27 165 3 50 10 116 15 145 5 28 16 95 25
147 8 52 20 118 25 145 15 76 40 238 40 258 0 9 -4 17 -10 17 -5 0 -10 -10
-10 -22z"></path>
<path d="M3946 1231 c-8 -12 21 -41 39 -41 8 0 29 -9 47 -20 18 -11 47 -20 65
-20 17 0 34 -4 37 -8 3 -5 20 -9 38 -10 42 -1 138 -51 148 -78 12 -31 70 -42
70 -14 0 4 -25 22 -55 39 -30 17 -76 47 -100 66 -48 36 -99 55 -153 55 -18 0
-43 6 -55 14 -30 19 -75 28 -81 17z"></path>
<path d="M3849 1220 c-12 -8 -11 -12 4 -27 16 -16 18 -16 33 -1 15 15 15 17
-3 26 -11 7 -25 7 -34 2z"></path>
<path d="M3000 1123 c1 -7 80 -62 102 -71 4 -2 8 3 8 12 0 9 -22 27 -50 41
-53 27 -60 29 -60 18z"></path>
<path d="M390 1083 c0 -14 19 -38 25 -32 8 8 -5 39 -16 39 -5 0 -9 -3 -9 -7z"></path>
<path d="M3130 1080 c0 -5 5 -10 11 -10 7 0 27 -16 45 -35 20 -21 35 -31 39
-24 9 13 -21 46 -57 65 -32 17 -38 17 -38 4z"></path>
<path d="M3400 1064 c0 -24 22 -84 30 -84 18 0 10 57 -10 75 -11 10 -20 14
-20 9z"></path>
<path d="M3269 990 c24 -21 51 -26 51 -11 0 8 -53 32 -69 31 -3 -1 5 -10 18
-20z"></path>
<path d="M3512 998 c5 -15 28 -23 28 -10 0 5 -7 13 -16 16 -10 4 -14 1 -12 -6z"></path>
<path d="M3770 983 c0 -19 11 -43 21 -43 13 0 11 14 -6 36 -8 10 -15 14 -15 7z"></path>
<path d="M3355 930 c9 -16 20 -30 25 -30 15 0 12 12 -9 38 -27 31 -34 27 -16
-8z"></path>
<path d="M2747 920 c7 -25 23 -37 23 -17 0 8 -6 20 -14 26 -12 10 -13 8 -9 -9z"></path>
<path d="M290 900 c0 -5 7 -10 16 -10 8 0 12 5 9 10 -3 6 -10 10 -16 10 -5 0
-9 -4 -9 -10z"></path>
<path d="M0 820 l0 -68 47 -16 c26 -9 52 -16 59 -16 22 0 54 42 54 70 0 35
-22 53 -97 78 l-63 21 0 -69z"></path>
<path d="M3220 840 c0 -11 5 -20 10 -20 6 0 10 9 10 20 0 11 -4 20 -10 20 -5
0 -10 -9 -10 -20z"></path>
<path d="M3840 837 c0 -4 9 -26 20 -49 10 -22 22 -67 26 -99 4 -32 10 -59 14
-59 12 0 18 93 7 107 -5 7 -6 16 -4 20 3 5 -10 27 -28 48 -19 22 -34 36 -35
32z"></path>
<path d="M2775 811 c4 -14 18 -45 31 -69 13 -25 24 -51 24 -58 0 -8 5 -14 11
-14 21 0 -27 126 -57 151 -15 12 -16 11 -9 -10z"></path>
<path d="M3765 680 c-3 -6 4 -24 16 -41 28 -39 48 -25 28 20 -14 31 -32 40
-44 21z"></path>
<path d="M5461 582 c-9 -17 -18 -20 -46 -15 -23 4 -35 2 -35 -6 0 -6 3 -11 8
-11 4 0 24 -4 45 -9 35 -9 39 -7 48 17 13 33 -4 53 -20 24z"></path>
<path d="M5512 562 c-20 -16 -21 -20 -10 -45 16 -33 31 -35 22 -3 -9 37 3 50
31 32 29 -19 41 -9 18 16 -20 22 -32 22 -61 0z"></path>
<path d="M5165 563 c-35 -7 -75 -25 -75 -33 0 -12 123 14 128 28 4 12 -14 14
-53 5z"></path>
<path d="M5250 530 c0 -5 5 -10 10 -10 6 0 10 5 10 10 0 6 -4 10 -10 10 -5 0
-10 -4 -10 -10z"></path>
<path d="M5211 501 c-15 -10 -11 -46 4 -42 6 2 9 8 7 14 -2 5 2 13 9 17 6 4 7
10 2 13 -5 3 -15 2 -22 -2z"></path>
<path d="M4985 481 c-6 -11 9 -23 19 -14 9 9 7 23 -3 23 -6 0 -12 -4 -16 -9z"></path>
<path d="M5447 470 c-3 -11 -2 -22 3 -25 4 -3 10 6 12 20 6 30 -7 34 -15 5z"></path>
<path d="M5797 483 c-4 -3 -7 -17 -7 -30 0 -28 23 -27 28 1 4 20 -11 40 -21
29z"></path>
<path d="M4937 464 c-4 -4 -7 -14 -7 -23 0 -11 3 -12 11 -4 6 6 10 16 7 23 -2
6 -7 8 -11 4z"></path>
<path d="M4864 430 c-12 -4 -24 -15 -27 -23 -3 -10 -14 -13 -31 -10 -22 5 -26
2 -26 -19 0 -14 3 -27 6 -31 6 -6 48 17 72 40 7 7 19 13 26 13 8 0 19 6 25 14
9 11 8 15 -5 20 -8 3 -16 6 -17 5 -1 0 -11 -4 -23 -9z"></path>
<path d="M5152 416 c-10 -22 -15 -24 -41 -16 -33 9 -41 5 -41 -22 0 -22 12
-23 58 -1 39 18 52 30 52 51 0 20 -16 13 -28 -12z"></path>
<path d="M5282 379 c-18 -29 -11 -32 27 -13 25 12 30 19 20 25 -22 14 -33 11
-47 -12z"></path>
<path d="M5515 360 c10 -11 22 -17 27 -14 12 8 -11 34 -30 34 -13 0 -12 -3 3
-20z"></path>
<path d="M5360 360 c0 -5 5 -10 10 -10 6 0 10 5 10 10 0 6 -4 10 -10 10 -5 0
-10 -4 -10 -10z"></path>
<path d="M4939 324 c-8 -9 -21 -13 -35 -10 -14 4 -31 -1 -46 -14 -13 -10 -36
-30 -52 -43 -36 -29 -19 -45 17 -17 13 11 51 26 83 35 65 17 79 27 71 49 -8
20 -21 20 -38 0z"></path>
<path d="M5722 328 c-5 -7 -13 -23 -17 -36 -5 -19 -2 -25 14 -29 16 -4 20 -11
16 -24 -7 -21 22 -39 34 -22 3 5 14 12 24 16 25 9 22 61 -5 87 -25 23 -51 26
-66 8z m68 -42 c0 -15 -28 -42 -36 -34 -2 3 0 17 6 32 10 27 30 28 30 2z"></path>
<path d="M5153 266 c-13 -6 -23 -14 -23 -18 0 -14 37 -9 49 6 16 19 2 25 -26
12z"></path>
<path d="M2610 213 c0 -11 39 -73 45 -73 3 0 -2 16 -10 36 -8 20 -15 38 -15
40 0 2 -4 4 -10 4 -5 0 -10 -3 -10 -7z"></path>
<path d="M3826 165 c4 -8 8 -15 10 -15 2 0 4 7 4 15 0 8 -4 15 -10 15 -5 0 -7
-7 -4 -15z"></path>
<path d="M4997 163 c-4 -3 -7 -15 -7 -25 0 -26 24 -17 28 10 3 21 -8 29 -21
15z"></path>
<path d="M5815 130 c3 -5 8 -10 11 -10 2 0 4 5 4 10 0 6 -5 10 -11 10 -5 0 -7
-4 -4 -10z"></path>
<path d="M3829 84 c-6 -41 1 -84 12 -84 11 0 12 80 0 99 -6 9 -10 5 -12 -15z"></path>
<path d="M4332 88 c3 -7 18 -14 34 -16 28 -3 28 -3 9 12 -24 19 -48 21 -43 4z"></path>
<path d="M5460 59 c0 -5 5 -7 10 -4 6 3 10 8 10 11 0 2 -4 4 -10 4 -5 0 -10
-5 -10 -11z"></path>
<path d="M3130 10 c0 -5 5 -10 10 -10 6 0 10 5 10 10 0 6 -4 10 -10 10 -5 0
-10 -4 -10 -10z"></path>
<path d="M4605 10 c-3 -5 -1 -10 4 -10 6 0 11 5 11 10 0 6 -2 10 -4 10 -3 0
-8 -4 -11 -10z"></path>
<path d="M4945 10 c-12 -5 40 -8 135 -8 108 0 143 3 115 9 -52 10 -224 10
-250 -1z"></path>
</g>
</svg>