 <svg version="1.0" xmlns="http://www.w3.org/2000/svg" width="700.000000pt" height="933.000000pt" viewBox="0 0 700.000000 933.000000" preserveAspectRatio="xMidYMid meet">
<metadata>
Created by potrace 1.12, written by Peter Selinger 2001-2015
</metadata>
<g transform="translate(0.000000,933.000000) scale(0.100000,-0.100000)" fill="#000000" stroke="none">
<path d="M3420 8365 c0 -8 5 -15 10 -15 6 0 10 7 10 15 0 8 -4 15 -10 15 -5 0
-10 -7 -10 -15z"></path>
<path d="M4770 8300 c0 -5 11 -10 25 -10 14 0 25 5 25 10 0 6 -11 10 -25 10
-14 0 -25 -4 -25 -10z"></path>
<path d="M4870 8290 c0 -5 7 -10 15 -10 8 0 15 5 15 10 0 6 -7 10 -15 10 -8 0
-15 -4 -15 -10z"></path>
<path d="M5068 8294 c-16 -16 -7 -26 20 -21 27 5 80 0 267 -26 55 -8 147 -20
205 -26 58 -7 159 -19 225 -27 179 -22 335 -29 335 -15 0 6 -16 11 -40 11 -21
0 -88 6 -147 14 -59 8 -155 20 -213 26 -147 15 -352 39 -435 50 -122 16 -210
22 -217 14z"></path>
<path d="M4950 8280 c0 -5 5 -10 10 -10 6 0 10 5 10 10 0 6 -4 10 -10 10 -5 0
-10 -4 -10 -10z"></path>
<path d="M4715 8270 c-13 -21 8 -28 115 -40 58 -6 117 -14 133 -17 15 -3 27
-1 27 4 0 18 -54 35 -145 44 -49 5 -97 12 -107 15 -9 2 -19 0 -23 -6z"></path>
<path d="M4996 8272 c-2 -4 2 -16 10 -27 13 -18 14 -18 14 8 0 25 -13 36 -24
19z"></path>
<path d="M6150 8193 c0 -6 28 -13 63 -16 34 -4 94 -11 132 -16 94 -14 575 -14
575 -1 0 6 -88 10 -242 10 -134 1 -277 5 -318 11 -139 18 -210 22 -210 12z"></path>
<path d="M4960 8182 c0 -10 190 -33 204 -25 19 12 -27 23 -113 29 -54 3 -91 2
-91 -4z"></path>
<path d="M4705 8159 c-8 -12 -20 -104 -35 -254 -17 -182 -69 -688 -84 -820 -9
-71 -22 -206 -31 -300 -8 -93 -19 -206 -24 -250 -24 -195 -32 -308 -26 -346 7
-39 8 -40 19 -17 24 49 39 137 42 253 1 66 3 120 4 120 0 0 3 41 5 90 5 109
43 498 52 540 4 17 7 46 9 65 1 19 4 64 7 100 4 36 9 102 12 147 3 46 10 118
16 160 6 43 12 107 14 143 8 133 27 316 36 338 9 22 13 23 74 17 75 -8 92 9
19 19 -68 9 -102 7 -109 -5z"></path>
<path d="M5200 8152 c0 -10 104 -32 154 -32 38 0 28 24 -10 27 -16 1 -55 5
-86 9 -38 4 -58 3 -58 -4z"></path>
<path d="M3390 8130 c0 -5 9 -10 20 -10 11 0 20 5 20 10 0 6 -9 10 -20 10 -11
0 -20 -4 -20 -10z"></path>
<path d="M5500 8120 c0 -5 7 -10 16 -10 8 0 12 5 9 10 -3 6 -10 10 -16 10 -5
0 -9 -4 -9 -10z"></path>
<path d="M5545 8099 c6 -19 4 -20 -42 -13 -101 16 -96 20 -108 -75 -11 -96
-15 -99 -103 -100 -32 -1 -54 -6 -57 -13 -2 -7 -9 -51 -15 -98 -28 -228 -49
-389 -55 -426 -8 -45 -8 -45 61 -59 29 -6 30 -4 42 42 6 26 17 98 23 158 14
126 33 190 24 80 -3 -38 -11 -117 -19 -175 -13 -105 -10 -127 17 -117 10 4 19
43 31 124 9 65 21 144 26 177 5 32 7 63 4 68 -3 5 -19 6 -35 3 -18 -4 -29 -3
-29 4 0 6 -11 11 -24 11 -14 0 -28 5 -32 12 -5 8 10 9 59 4 78 -8 67 -29 92
179 9 77 20 147 24 155 7 12 35 16 142 18 74 1 140 5 148 7 30 11 -9 28 -71
32 -34 1 -66 7 -72 13 -18 18 -38 12 -31 -11z"></path>
<path d="M3410 8074 c0 -8 5 -12 10 -9 6 4 8 11 5 16 -9 14 -15 11 -15 -7z"></path>
<path d="M5756 8082 c-8 -13 9 -19 77 -27 38 -5 57 -4 57 3 0 16 -9 19 -72 26
-33 4 -59 3 -62 -2z"></path>
<path d="M5905 8060 c-8 -12 20 -24 35 -15 6 3 8 11 5 16 -8 12 -32 12 -40 -1z"></path>
<path d="M3145 7876 c-247 -17 -456 -35 -462 -39 -9 -6 -13 -40 -13 -111 0
-57 -3 -185 -7 -286 -6 -162 -8 -183 -24 -187 -9 -3 -19 -14 -22 -24 -3 -11
-9 -19 -14 -18 -29 5 -56 -6 -99 -40 -27 -21 -54 -36 -61 -34 -6 2 -14 -1 -18
-6 -3 -6 -15 -11 -26 -11 -11 0 -22 -7 -25 -15 -4 -8 -10 -15 -15 -15 -38 0
-277 -223 -306 -285 -7 -16 -22 -43 -33 -60 -33 -51 -57 -98 -70 -140 -7 -22
-20 -56 -29 -75 -8 -19 -16 -44 -17 -55 -1 -11 -9 -45 -18 -75 -9 -30 -32
-147 -51 -260 -36 -205 -47 -399 -29 -495 4 -23 2 -35 -5 -35 -6 0 -11 -11
-11 -25 0 -18 -5 -25 -19 -25 -32 0 -78 24 -73 38 7 22 -35 -4 -49 -29 -6 -12
-9 -62 -8 -122 2 -79 -1 -108 -13 -127 -21 -34 -30 -90 -17 -106 6 -7 12 -32
13 -55 2 -33 7 -44 27 -55 22 -11 27 -23 37 -100 6 -48 16 -92 22 -98 5 -5 10
-28 10 -49 0 -47 24 -101 57 -126 13 -11 23 -23 22 -28 -1 -4 1 -16 5 -26 14
-30 -1 -50 -32 -43 -15 3 -83 8 -152 12 -149 8 -166 13 -175 52 -16 74 -124
201 -261 306 l-80 63 -87 6 c-47 3 -95 11 -106 16 -32 17 -104 13 -146 -9 -22
-11 -45 -20 -52 -20 -18 0 -26 -19 -13 -35 7 -9 8 -15 0 -20 -14 -9 -13 -25 3
-25 22 0 131 -62 164 -93 26 -24 30 -33 21 -45 -10 -11 -14 -10 -28 9 -10 12
-22 19 -27 16 -6 -4 -22 2 -36 13 -14 11 -28 20 -32 20 -4 0 -19 8 -33 19 -15
10 -37 22 -50 26 -23 7 -23 7 -7 -24 8 -17 19 -31 24 -31 5 0 21 -23 35 -50
l26 -50 -24 -38 c-42 -66 -121 -126 -237 -180 -95 -44 -249 -94 -331 -107 -20
-3 -50 -12 -65 -20 -15 -8 -38 -15 -50 -15 -56 0 -53 26 -53 -452 l0 -440 114
7 c99 6 118 5 152 -12 33 -16 47 -17 91 -8 28 5 55 13 59 18 11 11 64 9 64 -3
0 -5 -5 -10 -11 -10 -16 0 -83 -32 -90 -43 -4 -6 -52 -29 -106 -52 -55 -23
-125 -59 -157 -80 -61 -40 -116 -110 -116 -146 0 -19 5 -14 28 22 53 82 106
118 302 205 47 20 104 50 127 65 23 16 44 29 47 29 6 0 139 77 241 140 33 21
93 54 133 75 70 37 88 59 57 71 -32 13 -11 31 93 82 132 64 243 136 303 194
74 71 118 184 119 299 0 31 3 84 6 118 l7 61 71 -1 c151 -1 234 -13 250 -34 9
-11 16 -27 16 -37 0 -9 5 -18 10 -20 7 -2 5 -16 -6 -36 -9 -19 -13 -43 -10
-57 3 -13 2 -26 -3 -29 -5 -4 -21 -26 -34 -50 -23 -41 -23 -47 -10 -66 12 -17
18 -19 29 -9 8 6 14 20 14 30 0 33 48 98 73 99 12 0 0 -64 -12 -68 -16 -5 -13
-22 3 -22 19 0 29 -29 16 -45 -7 -9 -8 -15 -1 -19 14 -9 2 -36 -14 -30 -20 8
-25 -8 -15 -52 5 -21 12 -69 15 -106 4 -38 11 -68 17 -68 6 0 8 15 5 38 -4 39
12 152 23 152 14 0 50 -150 54 -230 2 -30 11 -73 20 -95 16 -41 17 -60 2 -83
-14 -22 3 -133 24 -160 15 -19 18 -33 13 -68 -6 -47 12 -130 34 -152 9 -10 10
-19 3 -33 -12 -22 -26 -25 -33 -6 -2 6 -7 9 -11 6 -4 -4 3 -49 14 -100 28
-122 28 -120 42 -118 28 3 36 -2 31 -21 -3 -11 -9 -18 -13 -15 -5 3 -11 2 -14
-3 -6 -10 17 -148 27 -158 4 -4 7 -20 7 -35 0 -15 5 -31 10 -34 6 -4 8 -10 5
-15 -8 -13 16 -90 27 -90 8 0 7 12 -8 78 -10 44 -12 82 -4 87 4 2 17 -7 28
-20 12 -14 26 -25 31 -25 5 0 13 -15 16 -32 4 -18 17 -48 28 -67 12 -19 20
-47 19 -63 -1 -15 2 -28 7 -28 5 0 8 -8 7 -17 -1 -13 7 -19 27 -21 24 -3 27 0
27 26 0 16 -6 50 -14 75 -8 26 -10 47 -6 47 13 0 50 -51 50 -68 0 -8 6 -20 14
-26 7 -6 17 -24 20 -39 6 -23 3 -30 -14 -34 -23 -6 -26 -18 -6 -26 8 -3 28
-43 46 -88 18 -46 40 -94 51 -107 10 -14 19 -33 19 -43 0 -11 4 -19 9 -19 5 0
14 -15 20 -32 l11 -33 -23 26 c-47 55 -54 67 -61 94 -4 15 -18 37 -32 47 -13
11 -24 26 -24 34 0 29 -25 94 -36 94 -7 0 -15 11 -18 25 -7 28 -18 30 -111 15
-147 -22 -284 -53 -340 -75 -70 -29 -82 -28 -104 11 -12 19 -21 46 -21 59 0
31 -10 55 -22 55 -6 0 -7 -11 -4 -25 5 -20 3 -25 -14 -25 -20 0 -60 52 -74 98
-4 12 -12 22 -17 22 -12 0 -12 -1 7 -45 15 -36 11 -63 -5 -37 -5 8 -17 11 -32
7 -17 -4 -34 2 -58 20 -41 29 -41 29 -41 10 0 -15 46 -40 131 -70 77 -28 112
-66 205 -223 85 -143 197 -292 235 -313 45 -24 33 6 -25 65 -35 35 -80 87
-100 117 l-36 54 35 3 c20 2 58 -3 85 -11 28 -8 50 -11 50 -6 0 5 -9 23 -20
41 -20 33 -27 69 -12 67 4 0 36 -33 71 -73 55 -63 90 -123 134 -226 8 -19 11
-21 14 -8 2 9 -7 38 -21 65 -14 26 -28 60 -31 75 -6 24 -3 28 21 34 15 4 35 2
45 -5 25 -15 29 -14 29 8 0 35 31 34 69 -2 41 -39 86 -57 144 -57 38 0 39 1
32 28 l-7 27 34 -30 c18 -16 36 -36 41 -43 4 -6 19 -24 32 -40 l23 -27 28 25
27 25 -6 -24 -6 -25 22 25 c13 13 26 32 30 41 6 18 37 15 37 -4 0 -6 7 -8 15
-4 9 3 15 0 15 -9 0 -8 -4 -15 -10 -15 -5 0 -10 -7 -10 -15 0 -8 7 -15 15 -15
8 0 15 -4 15 -10 0 -5 7 -10 15 -10 17 0 21 45 5 55 -21 13 -9 24 16 14 32
-11 32 -12 37 26 3 24 10 31 37 36 18 4 44 19 57 34 24 25 26 25 38 8 19 -25
28 -11 27 41 -1 31 3 45 11 43 7 -1 11 7 10 20 -3 30 15 76 27 68 5 -3 7 -11
5 -18 -3 -7 0 -19 5 -27 9 -13 11 -13 21 0 8 11 12 12 16 2 2 -6 9 -9 15 -6 5
4 3 13 -7 24 -19 21 -3 39 19 21 19 -16 28 0 11 19 -14 16 -14 18 5 23 11 3
20 1 20 -4 0 -5 -6 -9 -12 -9 -9 -1 -8 -4 2 -13 9 -7 14 -25 12 -42 l-2 -30
16 22 c20 28 74 32 74 7 0 -10 5 -14 16 -10 16 6 52 -14 91 -50 25 -23 31 -40
11 -27 -8 4 -7 -3 3 -17 11 -18 13 -33 8 -55 -5 -16 -8 -68 -8 -115 0 -53 -5
-102 -15 -130 -9 -27 -16 -80 -16 -130 -1 -130 29 -497 60 -745 6 -44 7 -87 4
-95 -4 -8 -8 -48 -9 -87 -2 -72 7 -94 21 -51 6 19 7 19 16 4 11 -19 1 -59 -13
-51 -12 8 -11 -32 7 -150 18 -120 22 -311 11 -537 -6 -141 -5 -168 6 -168 17
0 31 113 49 389 9 153 9 218 -1 328 -7 76 -17 210 -21 298 -5 88 -14 228 -20
310 -20 276 -29 530 -19 533 15 6 10 22 -6 22 -8 0 -15 5 -15 10 0 6 7 10 15
10 8 0 17 12 20 28 3 15 26 68 50 117 25 50 51 106 59 127 13 34 13 36 -7 42
-28 7 -39 -2 -27 -23 7 -14 1 -34 -24 -84 -19 -36 -45 -94 -59 -128 -37 -93
-41 -73 -33 174 4 130 23 228 46 242 4 3 6 23 3 45 -3 24 -1 46 6 54 8 10 9
16 1 21 -19 12 -10 22 15 17 35 -6 38 -16 15 -45 -23 -29 -11 -46 12 -19 35
40 40 60 18 82 -27 27 -16 48 12 23 19 -17 19 -17 13 10 -6 22 -4 26 9 21 9
-3 16 -11 16 -17 0 -6 11 5 25 24 13 19 29 39 35 46 5 7 10 17 10 23 0 13 27
13 35 1 3 -5 1 -12 -4 -15 -5 -4 1 -18 15 -33 13 -14 27 -24 29 -21 6 6 -15
60 -27 69 -9 6 10 69 21 69 3 0 15 16 25 35 11 20 27 35 37 35 25 0 33 -17 13
-28 -21 -12 -10 -32 17 -32 11 0 22 -7 25 -15 4 -8 12 -15 19 -15 23 0 28 20
10 40 -9 10 -14 24 -10 31 6 8 10 7 17 -5 10 -18 43 -21 54 -5 3 6 1 15 -6 19
-9 5 -9 9 -1 14 6 4 11 16 11 27 0 10 5 19 11 19 5 0 7 -5 4 -10 -8 -13 4 -54
13 -45 4 3 8 27 9 52 2 26 5 49 8 51 10 10 25 -12 25 -37 0 -16 7 -34 16 -42
10 -8 14 -23 12 -41 -5 -33 11 -37 36 -9 21 23 14 41 -15 41 -22 0 -26 18 -5
26 18 7 5 57 -20 86 -14 15 -15 21 -5 31 10 9 14 8 22 -5 6 -10 14 -18 18 -18
15 0 22 32 11 45 -7 8 -7 16 -2 19 6 3 17 -5 26 -19 19 -29 40 -33 31 -6 -3
10 1 24 10 31 8 7 12 17 9 22 -3 5 2 18 12 29 17 19 17 21 -5 50 -12 17 -21
36 -18 42 7 18 3 32 -7 29 -5 -2 3 12 17 30 15 18 32 44 38 58 8 18 13 21 16
10 3 -8 12 -21 21 -28 15 -11 14 -14 -3 -26 -61 -44 -62 -45 -39 -52 12 -3 26
-15 32 -27 9 -21 10 -21 18 -3 5 13 2 23 -10 32 -22 16 -11 38 15 31 13 -3 23
2 30 15 9 16 6 25 -13 47 -13 14 -30 48 -36 75 -11 43 -11 50 5 62 16 12 16
15 3 23 -9 7 -13 23 -12 49 2 25 -2 43 -12 51 -21 18 -20 48 2 60 15 10 15 11
-5 17 -26 7 -28 15 -11 32 9 9 9 15 0 24 -8 8 -4 21 20 50 19 25 28 46 25 58
-3 13 0 20 9 20 8 0 14 10 14 23 0 12 6 34 14 49 9 17 11 29 4 36 -15 15 0 36
16 23 18 -15 27 -2 14 18 -8 13 -6 27 7 54 9 20 14 40 11 46 -9 13 48 -6 109
-37 28 -14 81 -50 119 -79 74 -58 99 -63 48 -10 -20 21 -32 43 -32 61 0 23 -3
26 -19 21 -12 -3 -38 3 -63 16 -56 28 -55 27 -30 45 27 18 21 34 -11 27 -21
-4 -21 -4 -4 10 13 10 15 17 7 22 -8 5 -5 12 9 22 21 14 29 53 11 53 -13 0
-13 77 0 82 5 2 11 13 13 25 1 11 8 28 15 36 8 9 10 29 7 53 -5 33 -2 43 20
67 16 16 33 26 42 23 8 -3 11 -1 8 4 -3 6 1 13 10 16 13 5 14 8 3 15 -10 6
-10 11 0 21 15 15 16 38 1 38 -16 0 -56 44 -52 57 2 5 -3 16 -12 23 -11 9 -12
16 -4 26 6 7 11 41 12 76 2 56 0 64 -20 73 -25 11 -35 49 -20 82 7 16 7 26 -2
37 -7 8 -14 47 -16 88 -2 40 -7 134 -12 208 -4 74 -7 143 -5 153 1 9 -2 17 -6
17 -5 0 -8 -159 -8 -352 l1 -353 -28 -115 c-16 -63 -32 -124 -37 -135 -4 -11
-11 -28 -14 -37 -3 -10 -11 -18 -19 -18 -7 0 -21 -20 -31 -45 -11 -25 -22 -45
-26 -45 -4 0 -11 -11 -14 -25 -4 -15 -16 -27 -31 -31 -18 -4 -25 -13 -25 -31
0 -17 -8 -27 -27 -34 -23 -8 -28 -15 -29 -45 0 -20 -6 -39 -14 -44 -7 -4 -9
-13 -5 -20 5 -8 4 -11 -3 -6 -6 3 -15 -2 -21 -11 -6 -10 -11 -13 -11 -8 0 6
-18 30 -40 55 -37 42 -44 57 -41 86 1 7 -9 9 -23 7 -13 -3 -27 0 -30 6 -4 6
-20 8 -36 4 -26 -5 -30 -2 -30 16 0 11 -4 21 -10 21 -5 0 -10 -5 -10 -11 0 -6
-12 -9 -27 -7 -20 2 -29 9 -31 25 -3 18 -9 22 -36 21 -20 -1 -45 8 -64 22 -35
26 -36 28 -23 49 6 10 2 26 -15 50 -17 26 -21 38 -12 48 16 20 37 16 31 -6 -6
-23 14 -38 30 -22 6 6 18 11 27 11 8 0 32 12 53 26 31 20 37 30 31 47 -9 32
-16 36 -61 43 -36 5 -55 -1 -137 -41 l-95 -47 -65 21 c-36 12 -78 21 -94 21
-16 0 -35 7 -42 15 -7 8 -21 15 -31 15 -11 0 -19 4 -19 10 0 5 -3 9 -7 8 -5
-1 -35 11 -67 26 -67 33 -160 42 -213 20 -36 -14 -49 -5 -45 32 2 11 -4 26
-12 33 -20 17 -8 47 37 96 35 38 47 44 96 48 13 1 33 14 44 29 23 31 17 48 -9
27 -10 -8 -25 -13 -34 -11 -27 4 -146 -64 -191 -109 -21 -21 -39 -42 -39 -45
0 -3 -9 -17 -20 -31 -11 -14 -20 -41 -20 -59 0 -27 9 -41 55 -81 49 -43 55
-52 55 -87 0 -51 -23 -78 -56 -65 -19 7 -26 5 -31 -7 -3 -8 -11 -13 -17 -11
-7 3 -23 -1 -37 -9 -29 -16 -99 -18 -133 -3 -13 6 -36 33 -51 60 -14 27 -38
57 -52 67 -54 37 -91 79 -107 121 -9 24 -30 60 -46 80 -64 78 -165 227 -177
261 -16 46 -16 122 -1 143 11 14 28 16 118 13 58 -2 125 -9 150 -16 46 -13
200 -20 200 -9 0 10 32 4 109 -20 52 -17 86 -22 117 -17 37 5 45 2 54 -14 12
-22 30 -25 58 -11 9 5 44 17 77 27 74 22 135 64 152 105 11 26 10 35 -2 59
-21 40 -19 51 16 100 38 53 34 91 -15 139 -30 29 -33 37 -30 79 2 26 0 56 -5
67 -5 11 -14 32 -20 48 -6 15 -23 32 -38 37 -16 6 -38 15 -49 21 -12 6 -33 12
-48 12 -14 1 -26 5 -26 8 0 3 -25 9 -56 13 -31 4 -69 13 -83 20 -48 26 -149
65 -154 60 -6 -7 -57 44 -57 56 0 6 -4 10 -10 10 -5 0 -10 13 -10 28 0 19 16
47 50 87 28 33 50 62 50 66 0 4 29 30 65 58 36 28 65 58 65 66 0 22 -59 84
-101 106 -59 29 -144 35 -229 14 -121 -30 -210 -12 -329 66 -52 34 -75 73 -84
140 -3 20 -1 41 4 46 4 4 11 26 15 48 3 22 11 49 17 60 6 11 11 24 12 28 0 5
8 14 18 21 9 7 17 20 17 28 0 8 9 23 20 33 11 10 20 26 20 35 0 19 15 52 40
86 17 24 83 50 88 35 2 -6 19 -1 38 9 37 21 40 20 23 -8 -13 -21 -4 -112 12
-112 5 0 9 -9 9 -20 0 -17 3 -19 19 -8 17 10 24 9 41 -7 18 -16 23 -17 30 -5
7 11 10 11 10 2 0 -10 4 -10 23 0 23 13 144 12 162 -1 6 -4 30 -6 54 -5 34 2
51 9 75 33 26 26 29 33 16 41 -13 8 -13 13 -1 31 15 25 23 71 10 64 -4 -3 -7
10 -6 30 2 30 5 34 22 28 24 -7 35 -21 35 -45 0 -20 15 -24 25 -8 3 6 15 10
25 10 12 0 17 5 14 14 -3 8 3 16 16 19 12 3 19 10 15 16 -3 7 3 11 15 11 15 0
20 5 17 14 -4 9 2 17 14 21 19 6 21 11 23 50 1 11 10 21 25 25 14 3 26 11 29
18 7 22 -27 13 -60 -16 -18 -16 -41 -31 -50 -35 -23 -8 -31 19 -14 52 14 26
13 28 -15 45 -16 9 -29 21 -29 27 0 5 -12 9 -26 9 -14 0 -23 -4 -19 -10 3 -5
2 -10 -3 -10 -5 0 -15 12 -21 28 -17 42 -60 56 -145 48 -39 -4 -86 -12 -104
-18 -26 -10 -37 -10 -52 0 -11 7 -20 8 -20 4 0 -5 -12 -14 -27 -21 -26 -10
-26 -10 -9 4 18 14 20 33 24 282 2 148 8 273 14 279 5 7 57 15 121 19 94 5
343 24 735 54 45 3 83 10 85 15 4 15 -32 13 -498 -18z m-565 -710 c0 -2 -9 -6
-20 -9 -11 -3 -20 -1 -20 4 0 5 9 9 20 9 11 0 20 -2 20 -4z m377 -12 c-3 -3
-12 -4 -19 -1 -8 3 -5 6 6 6 11 1 17 -2 13 -5z m7 -35 c-6 -11 -24 -2 -24 11
0 5 7 7 15 4 8 -4 12 -10 9 -15z m-424 -123 c0 -2 -7 -6 -15 -10 -8 -3 -15 -1
-15 4 0 6 7 10 15 10 8 0 15 -2 15 -4z m303 -1442 c61 -40 44 -87 -36 -99 -52
-7 -136 0 -150 14 -25 25 42 107 86 104 9 -1 17 3 17 8 0 14 38 2 83 -27z
m129 -271 c46 -41 18 -74 -75 -88 -52 -8 -56 -2 -27 35 11 14 20 32 20 41 0
39 44 45 82 12z m-297 -19 c8 -20 15 -38 15 -40 0 -11 -27 -1 -57 22 -27 21
-32 29 -22 40 21 25 48 16 64 -22z m350 -33 c3 -5 1 -12 -5 -16 -5 -3 -10 1
-10 9 0 18 6 21 15 7z m-2020 -308 c53 -66 67 -95 61 -125 -3 -15 -1 -51 4
-78 14 -74 -16 -135 -126 -252 -79 -84 -121 -149 -147 -230 -4 -11 -13 -15
-27 -11 -27 7 -33 19 -32 59 2 41 -42 91 -84 96 l-29 3 -1 -75 c-2 -102 4
-130 25 -122 9 3 23 14 31 25 10 12 21 16 33 11 16 -6 16 -9 3 -29 -13 -19
-13 -25 -2 -34 10 -8 20 -5 41 15 18 17 26 20 21 9 -3 -9 -6 -23 -6 -31 0 -31
-165 -88 -255 -87 -55 0 -67 5 -144 52 -46 29 -104 62 -130 72 -25 11 -54 30
-63 42 -9 12 -20 19 -24 15 -4 -4 -2 -13 3 -20 15 -19 22 -57 12 -64 -5 -3 -9
1 -9 8 0 16 -67 18 -95 1 -16 -9 -17 -13 -6 -27 18 -21 28 -20 34 4 3 11 11
20 19 20 10 0 21 -35 37 -119 25 -131 22 -154 -25 -171 -37 -14 -52 -12 -74
10 -18 18 -20 33 -20 161 0 133 1 143 23 165 12 13 34 24 48 24 15 0 29 7 33
15 3 9 18 15 40 15 19 0 37 4 40 9 4 5 30 14 58 21 61 13 168 61 187 84 7 9
27 16 44 16 30 0 137 64 137 82 0 5 14 14 30 19 17 6 30 15 30 19 0 5 10 10
23 12 15 2 23 11 25 28 1 14 9 58 18 98 12 53 23 78 41 92 15 12 23 26 19 35
-7 20 -1 19 45 -7 31 -17 42 -19 52 -9 9 9 9 14 -2 20 -11 7 -11 12 0 30 18
27 25 27 71 -5 21 -15 42 -24 46 -20 11 13 -56 63 -111 83 -89 32 -88 83 2 83
41 0 49 -4 76 -37z m755 -72 c0 -6 -4 -13 -10 -16 -5 -3 -10 1 -10 9 0 9 5 16
10 16 6 0 10 -4 10 -9z m-645 -177 c-13 -15 -11 -17 -18 36 l-5 45 17 -35 c11
-24 13 -39 6 -46z m139 -116 c15 -18 35 -49 43 -68 l15 -35 -38 -33 c-22 -19
-56 -42 -76 -53 -21 -10 -56 -28 -78 -39 -22 -11 -40 -22 -40 -25 0 -2 11 -30
26 -60 25 -57 25 -95 -1 -95 -8 0 -17 5 -21 12 -5 7 -3 8 5 4 9 -6 11 2 9 30
-2 22 -7 37 -13 34 -5 -3 -9 -16 -7 -30 3 -24 3 -25 -12 -5 -8 11 -16 25 -16
31 0 16 -50 137 -63 152 -8 10 -12 10 -18 1 -12 -20 -39 -2 -39 26 0 17 8 29
25 37 34 15 71 -11 86 -62 18 -60 27 -48 21 26 -4 54 -1 74 19 117 35 79 37
80 94 74 40 -5 56 -13 79 -39z m161 -135 c-3 -101 -3 -103 -29 -103 -13 0 -35
9 -49 20 -14 11 -32 20 -41 20 -9 0 -16 5 -16 11 0 5 -6 7 -12 3 -7 -5 4 8 25
28 25 24 37 44 37 62 0 16 4 25 10 21 5 -3 18 -2 27 4 30 16 49 -11 48 -66z
m2275 12 c0 -2 -14 -12 -31 -21 -26 -13 -33 -14 -40 -2 -6 9 -1 15 19 19 36 9
52 10 52 4z m-3340 -14 c0 -5 -14 -13 -32 -16 -18 -4 -39 -11 -48 -16 -20 -10
-111 -31 -116 -26 -4 3 169 64 189 66 4 1 7 -3 7 -8z m3163 -51 c-3 -11 -9
-17 -14 -14 -5 3 -9 -2 -9 -11 0 -15 -2 -15 -15 -1 -8 8 -15 20 -15 26 0 7 7
10 15 6 8 -3 15 -1 15 4 0 6 6 10 14 10 9 0 12 -7 9 -20z m-3418 -30 c-51 -20
-84 -26 -71 -12 10 10 76 30 101 30 11 1 -2 -8 -30 -18z m846 -92 c-16 -24
-42 -56 -56 -73 -23 -26 -24 -27 -13 -5 7 14 15 27 18 30 3 3 16 25 29 50 26
47 44 66 49 50 2 -5 -10 -29 -27 -52z m2539 -42 c14 -4 67 -7 118 -7 71 -1 95
-4 99 -15 3 -8 11 -14 18 -14 45 0 4 -76 -42 -79 -39 -2 -128 -3 -128 -1 0 1
-9 3 -20 5 -11 2 -21 9 -23 14 -2 6 -12 11 -22 11 -9 0 -23 7 -30 15 -7 8 -17
15 -23 15 -6 0 -19 7 -29 17 -14 13 -18 13 -18 2 0 -8 12 -22 28 -31 l27 -17
-30 0 c-34 0 -108 47 -113 71 -2 9 5 19 15 21 24 7 141 2 173 -7z m316 -263
c-10 -10 -19 5 -10 18 6 11 8 11 12 0 2 -7 1 -15 -2 -18z m-529 -5 c-3 -8 -6
-5 -6 6 -1 11 2 17 5 13 3 -3 4 -12 1 -19z m508 -6 c2 -7 9 -11 15 -7 14 9 50
-17 50 -37 0 -21 -16 -24 -23 -5 -3 6 -6 2 -6 -10 -1 -33 -22 -73 -38 -73 -8
0 -12 4 -9 9 3 5 -9 11 -27 14 -21 3 -35 0 -40 -10 -7 -12 -11 -12 -24 -1 -13
10 -17 10 -20 1 -3 -7 -10 -13 -18 -13 -7 0 -18 -7 -25 -15 -9 -10 -9 -15 -1
-15 6 0 11 -7 11 -16 0 -8 -5 -12 -10 -9 -6 4 -16 2 -23 -3 -21 -16 -82 -21
-106 -7 -13 7 -33 10 -43 7 -20 -5 -68 16 -68 30 0 4 7 8 17 8 13 0 12 3 -5
19 -12 10 -19 21 -15 25 3 3 -1 6 -11 6 -9 0 -35 12 -57 26 -30 19 -44 22 -54
14 -9 -8 -14 -6 -19 6 -8 22 -4 25 32 26 23 1 28 5 25 19 -5 17 2 18 83 15 73
-3 91 -7 104 -23 16 -20 16 -20 44 2 18 14 43 22 73 24 26 1 49 3 51 6 3 3 33
4 68 3 43 -1 65 -6 69 -16z m405 -892 c0 -5 -5 -10 -11 -10 -5 0 -7 5 -4 10 3
6 8 10 11 10 2 0 4 -4 4 -10z m-2073 -82 c-3 -8 -6 -5 -6 6 -1 11 2 17 5 13 3
-3 4 -12 1 -19z m177 -91 c4 -19 3 -26 -4 -22 -5 3 -10 18 -10 32 0 32 5 28
14 -10z m1576 -33 c0 -3 -7 -1 -15 6 -8 7 -15 17 -15 22 0 5 7 3 15 -6 8 -8
15 -18 15 -22z m-595 -384 c3 -5 1 -10 -4 -10 -6 0 -11 5 -11 10 0 6 2 10 4
10 3 0 8 -4 11 -10z m-1016 -36 c18 -30 19 -35 6 -30 -9 3 -22 6 -28 6 -19 0
-34 14 -41 38 -6 19 -4 22 17 22 18 0 31 -10 46 -36z m740 -118 c10 -11 7 -19
-10 -35 -13 -12 -28 -21 -34 -21 -18 0 -35 22 -35 45 0 16 7 21 34 22 19 2 39
-3 45 -11z m-294 -135 c-3 -6 -11 -11 -17 -11 -6 0 -6 6 2 15 14 17 26 13 15
-4z"></path>
<path d="M58 3955 c-12 -28 0 -50 34 -61 23 -7 58 20 58 46 0 44 -73 57 -92
15z"></path>
<path d="M3580 4160 c0 -5 7 -10 15 -10 8 0 15 5 15 10 0 6 -7 10 -15 10 -8 0
-15 -4 -15 -10z"></path>
<path d="M3535 4139 c-11 -17 -2 -18 19 -3 17 12 17 14 4 14 -9 0 -20 -5 -23
-11z"></path>
<path d="M3380 3900 c0 -5 5 -10 11 -10 5 0 7 5 4 10 -3 6 -8 10 -11 10 -2 0
-4 -4 -4 -10z"></path>
<path d="M3668 3873 c7 -3 16 -2 19 1 4 3 -2 6 -13 5 -11 0 -14 -3 -6 -6z"></path>
<path d="M3580 3852 c0 -12 23 -32 37 -32 22 0 15 16 -12 28 -14 6 -25 8 -25
4z"></path>
<path d="M2300 7825 c-113 -8 -279 -18 -370 -24 -91 -6 -231 -14 -312 -17 -87
-4 -148 -11 -148 -17 0 -10 160 -5 455 14 479 31 659 38 674 26 12 -10 13 -54
8 -279 -3 -148 -3 -268 2 -268 11 0 21 203 21 412 l0 168 -62 -1 c-35 -1 -155
-7 -268 -14z"></path>
<path d="M1273 7763 c-77 -4 -103 -23 -30 -23 82 0 207 13 207 21 0 9 -24 9
-177 2z"></path>
<path d="M863 7743 c-71 -7 -48 -23 32 -23 43 0 75 4 75 10 0 6 -9 10 -19 10
-11 0 -25 1 -33 3 -7 2 -32 2 -55 0z"></path>
<path d="M990 7740 c0 -6 37 -10 90 -10 53 0 90 4 90 10 0 6 -37 10 -90 10
-53 0 -90 -4 -90 -10z"></path>
<path d="M585 7722 c-38 -2 -74 -7 -79 -13 -13 -12 124 -12 144 1 22 13 12 15
-65 12z"></path>
<path d="M670 7720 c0 -5 22 -10 49 -10 28 0 53 5 56 10 4 6 -15 10 -49 10
-31 0 -56 -4 -56 -10z"></path>
<path d="M260 7699 c-47 -4 -124 -7 -172 -8 -52 -1 -88 -5 -88 -11 0 -5 24
-10 53 -10 105 0 437 24 437 32 0 9 -108 8 -230 -3z"></path>
<path d="M1645 7440 c-9 -15 11 -37 41 -44 39 -10 48 3 19 30 -28 26 -50 31
-60 14z"></path>
<path d="M3560 7282 c13 -11 27 -19 31 -16 4 2 9 -3 13 -11 3 -8 12 -12 20 -9
8 3 17 1 21 -5 3 -6 15 -11 25 -11 10 0 20 -4 22 -9 5 -14 108 -81 124 -81 8
0 14 -4 14 -9 0 -10 85 -71 99 -71 4 0 16 -9 26 -20 10 -11 25 -20 33 -20 12
0 10 6 -8 25 -13 14 -29 25 -37 25 -7 0 -13 4 -13 8 0 5 -22 23 -50 41 -27 18
-50 37 -50 42 0 5 -6 9 -14 9 -8 0 -27 11 -43 24 -15 13 -38 26 -50 30 -11 4
-27 13 -33 21 -7 8 -20 15 -30 15 -10 0 -20 7 -24 15 -3 8 -16 14 -28 14 -13
0 -34 2 -48 6 l-25 7 25 -20z"></path>
<path d="M5157 7283 c-3 -5 -15 -76 -26 -159 -22 -154 -28 -205 -61 -459 -10
-82 -21 -166 -24 -185 -26 -168 -26 -160 5 -160 18 0 28 32 34 110 2 25 11 90
20 145 8 55 17 137 19 182 2 46 8 89 14 96 6 7 11 22 11 32 1 108 5 144 18
176 11 28 12 43 4 57 -8 15 -7 29 4 56 8 19 15 47 15 62 0 26 1 26 50 20 58
-8 69 8 13 18 -21 4 -50 9 -65 12 -14 3 -28 1 -31 -3z"></path>
<path d="M3025 7250 c-3 -5 -1 -10 4 -10 6 0 11 5 11 10 0 6 -2 10 -4 10 -3 0
-8 -4 -11 -10z"></path>
<path d="M3186 7243 c-11 -11 -6 -23 9 -23 8 0 15 4 15 9 0 13 -16 22 -24 14z"></path>
<path d="M3141 7194 c0 -11 3 -14 6 -6 3 7 2 16 -1 19 -3 4 -6 -2 -5 -13z"></path>
<path d="M3457 7184 c-26 -35 -12 -44 18 -12 13 14 21 29 18 32 -10 10 -17 6
-36 -20z"></path>
<path d="M3620 7181 c0 -9 58 -36 65 -30 2 3 1 9 -3 15 -9 14 -62 27 -62 15z"></path>
<path d="M3376 7161 c-4 -7 -5 -15 -2 -18 9 -9 19 4 14 18 -4 11 -6 11 -12 0z"></path>
<path d="M3520 7154 c0 -9 32 -33 44 -34 5 0 1 9 -9 20 -18 20 -35 26 -35 14z"></path>
<path d="M5900 7120 c0 -5 11 -10 25 -10 14 0 25 5 25 10 0 6 -11 10 -25 10
-14 0 -25 -4 -25 -10z"></path>
<path d="M3767 7106 c-4 -10 0 -12 14 -9 10 3 16 9 13 14 -8 13 -21 11 -27 -5z"></path>
<path d="M3200 7041 c-14 -27 -13 -31 10 -31 13 0 20 -7 20 -20 0 -25 15 -26
24 -3 4 11 1 22 -8 29 -22 16 -21 38 2 29 9 -4 28 -9 42 -12 20 -3 18 -1 -9
12 -45 20 -68 19 -81 -4z"></path>
<path d="M3650 7040 c0 -5 5 -10 10 -10 6 0 10 5 10 10 0 6 -4 10 -10 10 -5 0
-10 -4 -10 -10z"></path>
<path d="M3440 7021 c0 -12 5 -21 10 -21 6 0 10 6 10 14 0 8 -4 18 -10 21 -5
3 -10 -3 -10 -14z"></path>
<path d="M4010 6997 c0 -15 81 -91 94 -88 12 3 1 17 -46 59 -30 28 -48 38 -48
29z"></path>
<path d="M3304 6989 c-8 -13 21 -39 44 -39 19 0 11 20 -15 37 -16 11 -23 11
-29 2z"></path>
<path d="M3520 6983 c0 -11 5 -24 10 -31 7 -8 7 -9 -1 -3 -13 11 -39 4 -39
-11 0 -5 5 -6 10 -3 6 3 10 1 10 -4 0 -14 -23 -14 -36 -1 -12 12 -39 -4 -30
-19 16 -25 136 -3 136 25 0 8 -4 14 -9 14 -5 0 -11 10 -13 22 -4 28 -38 38
-38 11z"></path>
<path d="M3680 6980 c0 -5 5 -10 11 -10 5 0 7 5 4 10 -3 6 -8 10 -11 10 -2 0
-4 -4 -4 -10z"></path>
<path d="M3632 6968 c-7 -7 -12 -18 -12 -26 0 -10 3 -10 16 2 8 9 20 16 25 16
6 0 7 5 4 10 -8 13 -18 13 -33 -2z"></path>
<path d="M3146 6962 c-12 -20 6 -44 28 -38 11 3 27 6 34 6 6 0 12 7 12 15 0
18 -12 19 -29 3 -10 -11 -15 -9 -26 5 -7 10 -16 14 -19 9z"></path>
<path d="M3876 6924 c1 -25 5 -48 8 -51 12 -12 6 -23 -14 -23 -13 0 -20 -7
-20 -20 0 -11 -7 -20 -15 -20 -18 0 -19 -12 -3 -28 25 -25 41 -14 35 24 -5 28
-3 35 8 30 8 -3 17 -1 20 4 9 15 25 12 25 -5 0 -13 4 -12 21 4 25 23 16 45
-15 37 -17 -4 -22 -1 -21 12 1 20 6 22 40 22 16 0 25 -6 25 -16 0 -10 6 -14
14 -11 8 3 17 1 20 -6 2 -7 5 -3 5 8 1 22 -50 52 -69 40 -5 -3 -10 -2 -10 4 0
5 -10 13 -22 17 -13 4 -25 10 -28 15 -3 5 -5 -12 -4 -37z"></path>
<path d="M3250 6920 c0 -11 -7 -23 -15 -26 -19 -8 -20 -34 -1 -34 28 0 46 12
46 32 0 12 -4 17 -12 12 -8 -5 -9 0 -6 14 4 12 2 22 -3 22 -5 0 -9 -9 -9 -20z"></path>
<path d="M3810 6920 c0 -13 11 -13 30 0 12 8 11 10 -7 10 -13 0 -23 -4 -23
-10z"></path>
<path d="M3051 6902 c-13 -25 -14 -32 -2 -32 9 0 23 41 16 48 -2 2 -8 -5 -14
-16z"></path>
<path d="M3335 6910 c-3 -5 -1 -10 4 -10 6 0 11 5 11 10 0 6 -2 10 -4 10 -3 0
-8 -4 -11 -10z"></path>
<path d="M3635 6910 c3 -5 8 -10 11 -10 2 0 4 5 4 10 0 6 -5 10 -11 10 -5 0
-7 -4 -4 -10z"></path>
<path d="M3740 6910 c0 -5 5 -10 11 -10 5 0 7 5 4 10 -3 6 -8 10 -11 10 -2 0
-4 -4 -4 -10z"></path>
<path d="M4126 6883 c-12 -13 -5 -24 54 -82 33 -33 60 -64 60 -69 0 -10 33
-42 43 -42 9 0 -90 137 -124 172 -15 15 -29 24 -33 21z"></path>
<path d="M3120 6870 c0 -5 -10 -9 -22 -7 -17 1 -24 -4 -26 -21 l-3 -22 40 21
c42 21 53 39 26 39 -8 0 -15 -4 -15 -10z"></path>
<path d="M3347 6867 c-11 -29 -9 -43 4 -30 6 6 9 19 7 29 -3 18 -4 18 -11 1z"></path>
<path d="M3627 6860 c-3 -13 0 -20 9 -20 8 0 14 -9 14 -20 0 -11 7 -20 15 -20
21 0 19 43 -3 63 -24 22 -29 21 -35 -3z"></path>
<path d="M3163 6838 c-13 -6 -23 -14 -23 -18 0 -11 61 4 61 15 1 14 -13 15
-38 3z"></path>
<path d="M3726 6831 c-4 -7 -5 -15 -2 -18 9 -9 19 4 14 18 -4 11 -6 11 -12 0z"></path>
<path d="M4070 6830 c0 -5 5 -10 11 -10 5 0 7 5 4 10 -3 6 -8 10 -11 10 -2 0
-4 -4 -4 -10z"></path>
<path d="M3602 6809 c2 -7 10 -15 17 -17 8 -3 12 1 9 9 -2 7 -10 15 -17 17 -8
3 -12 -1 -9 -9z"></path>
<path d="M3885 6767 c-5 -18 -3 -33 4 -40 17 -17 23 -2 13 34 l-9 34 -8 -28z"></path>
<path d="M3068 6773 c7 -3 16 -2 19 1 4 3 -2 6 -13 5 -11 0 -14 -3 -6 -6z"></path>
<path d="M3275 6760 c-3 -5 -1 -10 4 -10 6 0 11 5 11 10 0 6 -2 10 -4 10 -3 0
-8 -4 -11 -10z"></path>
<path d="M3225 6750 c-3 -5 -1 -10 4 -10 6 0 11 5 11 10 0 6 -2 10 -4 10 -3 0
-8 -4 -11 -10z"></path>
<path d="M3781 6736 c-22 -23 -22 -46 0 -46 11 0 31 48 27 62 -2 5 -14 -2 -27
-16z"></path>
<path d="M3735 6740 c-3 -5 -1 -10 4 -10 6 0 11 5 11 10 0 6 -2 10 -4 10 -3 0
-8 -4 -11 -10z"></path>
<path d="M4115 6730 c4 -6 11 -8 16 -5 14 9 11 15 -7 15 -8 0 -12 -5 -9 -10z"></path>
<path d="M3677 6724 c-10 -11 3 -24 23 -24 13 0 17 5 14 15 -6 15 -26 20 -37
9z"></path>
<path d="M4135 6670 c3 -5 8 -10 11 -10 2 0 4 5 4 10 0 6 -5 10 -11 10 -5 0
-7 -4 -4 -10z"></path>
<path d="M4330 6584 c0 -8 5 -12 10 -9 6 4 8 11 5 16 -9 14 -15 11 -15 -7z"></path>
<path d="M4343 6534 c-3 -9 -1 -19 5 -23 20 -12 106 -248 107 -291 0 -14 5
-25 10 -25 12 0 9 111 -4 140 -5 11 -14 36 -21 55 -12 36 -28 74 -50 122 -15
33 -39 43 -47 22z"></path>
<path d="M5100 6310 c0 -5 5 -10 11 -10 5 0 7 5 4 10 -3 6 -8 10 -11 10 -2 0
-4 -4 -4 -10z"></path>
<path d="M5010 6264 c0 -14 -12 -110 -26 -212 -14 -103 -27 -198 -29 -212 -1
-14 -12 -92 -23 -175 -12 -82 -29 -208 -37 -280 -9 -71 -30 -233 -47 -358 -16
-126 -28 -230 -25 -233 2 -2 11 -2 19 1 16 6 20 27 54 265 8 58 19 134 24 170
5 36 19 135 30 220 11 85 27 196 35 245 8 50 24 158 35 240 30 219 30 219 62
223 15 2 37 -2 49 -8 31 -17 51 5 22 25 -21 15 -36 49 -25 59 3 4 13 -1 23
-10 12 -11 19 -12 24 -4 10 17 -2 25 -74 49 -83 27 -91 27 -91 -5z"></path>
<path d="M4477 6163 c-11 -10 -8 -61 4 -69 6 -3 8 -17 5 -29 -7 -27 3 -38 23
-25 9 5 11 14 6 26 -5 11 -9 34 -11 53 -3 36 -16 56 -27 44z"></path>
<path d="M4496 6022 c-16 -26 -25 -505 -10 -554 3 -10 10 -18 15 -18 7 0 9 53
5 153 -4 84 -2 175 3 202 6 30 6 54 0 61 -5 6 -6 14 -2 17 8 8 9 135 1 143 -3
3 -9 1 -12 -4z"></path>
<path d="M6920 5980 c0 -5 5 -10 10 -10 6 0 10 5 10 10 0 6 -4 10 -10 10 -5 0
-10 -4 -10 -10z"></path>
<path d="M3812 5642 c-22 -3 -53 -42 -32 -42 5 0 10 -16 10 -35 0 -19 5 -35
10 -35 6 0 10 -6 10 -14 0 -25 47 -54 82 -51 18 2 39 -2 46 -7 8 -7 12 -7 12
1 0 7 5 9 12 5 21 -13 51 -12 93 3 132 47 172 53 181 28 4 -9 19 -15 40 -15
22 0 34 -5 34 -14 0 -18 40 -28 56 -15 9 7 15 5 22 -7 7 -13 13 -14 31 -5 11
7 21 8 21 4 0 -4 5 -1 10 8 16 27 -7 74 -53 112 -23 19 -55 47 -72 61 -25 22
-36 26 -65 21 -30 -6 -77 -9 -275 -16 -22 -1 -53 3 -68 10 -35 14 -47 7 -47
-24 0 -31 -27 -23 -32 8 -2 16 -9 21 -26 19z"></path>
<path d="M5810 5592 c0 -14 11 -21 26 -15 21 8 17 23 -6 23 -11 0 -20 -4 -20
-8z"></path>
<path d="M5510 5486 c0 -10 9 -16 24 -16 13 0 31 -3 40 -6 9 -3 16 -2 16 4 0
5 -11 13 -24 16 -13 3 -31 9 -40 12 -11 4 -16 1 -16 -10z"></path>
<path d="M6905 5453 c-44 -19 -108 -48 -142 -64 -35 -16 -66 -29 -70 -29 -4 0
-25 -9 -47 -19 -47 -23 -272 -118 -431 -184 -164 -68 -602 -254 -663 -282 -29
-14 -55 -25 -58 -25 -3 0 -58 -23 -123 -51 -64 -28 -163 -71 -221 -96 -58 -25
-124 -54 -147 -65 -86 -38 -91 -39 -128 -21 -37 18 -39 23 -25 93 9 47 0 70
-26 70 -9 0 -14 -12 -14 -32 0 -18 -11 -118 -25 -223 -31 -240 -31 -245 -2
-245 12 0 67 -21 122 -46 55 -25 105 -48 111 -50 8 -4 14 20 19 70 12 134 39
268 55 277 8 5 215 97 460 205 245 107 479 211 520 229 212 96 594 265 740
327 91 39 171 75 178 81 13 10 17 118 5 116 -5 -1 -44 -17 -88 -36z"></path>
<path d="M3829 5418 c-79 -41 -96 -94 -58 -178 11 -25 20 -46 20 -47 -5 -18 4
-38 30 -68 35 -40 50 -41 24 -1 -17 25 -17 26 3 26 11 0 25 -7 32 -15 8 -9 21
-13 32 -9 15 4 19 1 16 -12 -2 -11 4 -18 17 -20 11 -2 48 -11 83 -21 49 -14
66 -15 81 -6 10 6 36 15 57 19 33 6 92 34 71 34 -4 0 1 9 10 19 9 11 21 17 26
14 5 -3 27 0 48 7 36 12 39 16 39 49 -1 55 -41 90 -137 121 -24 7 -43 16 -43
20 0 7 3 7 -100 19 -41 5 -79 7 -83 4 -11 -7 -38 17 -31 28 3 5 -2 6 -10 3 -8
-3 -32 3 -53 14 -38 18 -41 18 -74 0z m351 -114 c24 -15 24 -15 -20 -9 -53 7
-78 25 -34 25 16 -1 40 -8 54 -16z m33 -93 c23 -23 -33 -61 -113 -77 l-34 -7
25 34 c14 19 29 46 33 62 l6 27 38 -15 c20 -9 41 -20 45 -24z m-305 -14 c3
-16 1 -17 -17 -5 -25 16 -27 31 -4 26 10 -2 19 -11 21 -21z"></path>
<path d="M4447 5403 c-11 -10 -8 -63 3 -63 6 0 10 9 10 19 0 11 3 26 6 35 6
16 -7 22 -19 9z"></path>
<path d="M1216 5352 c-3 -6 3 -12 15 -15 12 -3 19 -1 16 6 -5 15 -24 20 -31 9z"></path>
<path d="M43 5343 c-29 -3 -43 -9 -43 -19 0 -11 16 -14 70 -14 85 0 117 -14
183 -81 68 -68 80 -61 17 11 -79 92 -126 113 -227 103z"></path>
<path d="M1040 5211 c0 -11 373 -305 425 -336 33 -19 34 -19 109 -1 42 11 76
23 76 28 0 12 -16 10 -82 -8 -44 -13 -65 -14 -82 -6 -12 5 -116 82 -229 171
-114 89 -209 161 -212 161 -3 0 -5 -4 -5 -9z"></path>
<path d="M360 5132 c0 -12 98 -112 110 -112 13 0 13 6 -2 29 -13 22 -4 55 15
48 6 -2 12 -12 13 -23 1 -44 18 -76 57 -104 51 -37 65 -38 69 -2 2 22 7 26 27
24 15 -2 21 0 17 7 -4 6 -16 11 -28 11 -11 0 -37 17 -57 39 -42 45 -66 59
-136 77 -57 16 -85 18 -85 6z"></path>
<path d="M1560 5100 c0 -5 5 -10 11 -10 5 0 7 5 4 10 -3 6 -8 10 -11 10 -2 0
-4 -4 -4 -10z"></path>
<path d="M18 4973 c-10 -2 -18 -11 -18 -18 0 -9 6 -12 15 -9 8 4 26 -1 40 -10
14 -9 55 -23 92 -31 141 -29 193 -51 193 -79 0 -6 -33 -54 -74 -106 -76 -99
-101 -114 -121 -73 l-11 22 -21 -21 c-26 -25 -58 -18 -50 12 4 15 0 20 -13 20
-33 0 -50 -12 -50 -35 0 -28 7 -30 120 -45 47 -7 89 -12 95 -13 5 -1 9 6 7 17
-2 10 10 33 26 50 64 68 122 153 122 177 0 14 -10 35 -22 46 -26 22 -188 73
-234 73 -16 0 -39 7 -50 15 -10 8 -21 14 -24 14 -3 -1 -13 -3 -22 -6z"></path>
<path d="M3391 4954 c0 -11 3 -14 6 -6 3 7 2 16 -1 19 -3 4 -6 -2 -5 -13z"></path>
<path d="M4320 4850 c0 -5 5 -10 10 -10 6 0 10 5 10 10 0 6 -4 10 -10 10 -5 0
-10 -4 -10 -10z"></path>
<path d="M650 4830 c0 -5 5 -10 11 -10 5 0 7 5 4 10 -3 6 -8 10 -11 10 -2 0
-4 -4 -4 -10z"></path>
<path d="M3200 4700 c0 -5 5 -10 10 -10 6 0 10 5 10 10 0 6 -4 10 -10 10 -5 0
-10 -4 -10 -10z"></path>
<path d="M360 4560 c0 -5 7 -10 15 -10 8 0 15 5 15 10 0 6 -7 10 -15 10 -8 0
-15 -4 -15 -10z"></path>
<path d="M4670 4530 c0 -5 5 -10 10 -10 6 0 10 5 10 10 0 6 -4 10 -10 10 -5 0
-10 -4 -10 -10z"></path>
<path d="M4660 4466 c0 -20 5 -36 10 -36 6 0 10 13 10 29 0 17 -4 33 -10 36
-6 4 -10 -8 -10 -29z"></path>
<path d="M5096 4493 c-3 -3 -1 -12 5 -20 8 -8 10 -37 7 -78 -6 -65 5 -90 16
-37 19 95 18 120 -2 131 -11 6 -22 7 -26 4z"></path>
<path d="M5180 4490 c0 -5 4 -10 9 -10 6 0 13 5 16 10 3 6 -1 10 -9 10 -9 0
-16 -4 -16 -10z"></path>
<path d="M1746 4430 l-18 -35 22 21 c12 12 20 28 18 35 -3 9 -12 0 -22 -21z"></path>
<path d="M4657 4393 c-11 -10 -8 -43 3 -43 6 0 10 11 10 25 0 26 -2 29 -13 18z"></path>
<path d="M1687 4333 c-18 -35 -21 -53 -9 -53 11 0 34 58 29 72 -2 7 -11 -1
-20 -19z"></path>
<path d="M5086 4258 c-4 -29 -18 -114 -31 -188 -13 -74 -31 -195 -41 -268 -12
-96 -21 -135 -32 -139 -9 -4 -29 12 -54 41 -23 26 -69 69 -104 96 -50 37 -61
50 -51 59 8 6 14 35 15 73 1 34 5 64 9 67 5 3 9 29 9 56 2 80 9 145 14 145 3
0 19 -9 35 -21 61 -41 127 -71 137 -61 9 9 -122 91 -170 106 -11 4 -27 15 -37
26 -33 37 -30 48 -61 -195 -8 -66 -20 -135 -25 -153 -13 -40 -1 -56 77 -108
28 -19 96 -80 151 -137 56 -57 96 -93 90 -80 -8 19 -6 58 12 171 84 542 87
562 74 562 -6 0 -14 -24 -17 -52z"></path>
<path d="M1620 4205 c0 -8 5 -15 10 -15 6 0 10 7 10 15 0 8 -4 15 -10 15 -5 0
-10 -7 -10 -15z"></path>
<path d="M1760 4161 c0 -30 4 -41 15 -41 17 0 20 16 5 25 -6 4 -8 15 -5 25 3
10 1 21 -5 25 -6 4 -10 -9 -10 -34z"></path>
<path d="M5790 4173 c0 -6 6 -14 13 -17 9 -5 9 -7 -1 -12 -7 -3 -35 -21 -61
-38 -27 -18 -57 -36 -67 -41 -13 -5 -15 -9 -6 -12 7 -3 21 1 30 9 9 8 47 30
85 48 67 33 83 50 49 50 -10 0 -23 5 -30 12 -8 8 -12 9 -12 1z"></path>
<path d="M5020 4134 c0 -8 5 -12 10 -9 6 3 10 10 10 16 0 5 -4 9 -10 9 -5 0
-10 -7 -10 -16z"></path>
<path d="M1560 4094 c-16 -48 -5 -55 14 -9 19 44 19 45 7 45 -5 0 -15 -16 -21
-36z"></path>
<path d="M4610 4069 c0 -17 4 -28 10 -24 6 3 10 17 10 31 0 13 -4 24 -10 24
-5 0 -10 -14 -10 -31z"></path>
<path d="M5760 4069 c-25 -12 -40 -23 -33 -26 13 -5 68 21 78 37 8 13 7 13
-45 -11z"></path>
<path d="M5560 4052 c0 -16 69 -27 83 -13 8 8 5 11 -13 11 -14 0 -35 3 -47 6
-14 4 -23 2 -23 -4z"></path>
<path d="M1501 4004 c-23 -20 -40 -39 -37 -41 6 -6 67 43 79 63 12 21 4 17
-42 -22z"></path>
<path d="M5500 4025 c0 -2 21 -14 48 -25 39 -18 53 -20 83 -11 20 6 42 18 50
27 11 13 7 13 -30 -2 -39 -15 -45 -15 -84 0 -42 16 -67 20 -67 11z"></path>
<path d="M6542 3898 c3 -7 13 -15 24 -17 16 -3 17 -1 5 13 -16 19 -34 21 -29
4z"></path>
<path d="M4360 3880 c20 -13 33 -13 25 0 -3 6 -14 10 -23 10 -15 0 -15 -2 -2
-10z"></path>
<path d="M6720 3870 c0 -5 5 -10 10 -10 6 0 10 5 10 10 0 6 -4 10 -10 10 -5 0
-10 -4 -10 -10z"></path>
<path d="M6744 3802 c-8 -32 -24 -84 -35 -116 -33 -104 -33 -104 84 -160 56
-27 126 -59 155 -72 l52 -24 0 159 0 158 -82 38 c-46 21 -100 46 -120 56 l-38
17 -16 -56z"></path>
<path d="M1124 3824 c-18 -15 -18 -15 11 -9 37 8 57 25 29 25 -11 0 -29 -7
-40 -16z"></path>
<path d="M6379 3784 c-11 -14 -10 -18 6 -30 22 -16 41 -18 50 -4 4 6 -5 10
-20 10 -15 0 -24 4 -20 10 3 6 15 10 25 10 10 0 22 5 25 10 10 17 -52 11 -66
-6z"></path>
<path d="M4281 3716 c-8 -9 -11 -19 -7 -23 9 -9 29 13 24 27 -2 8 -8 7 -17 -4z"></path>
<path d="M1922 3674 c2 -15 9 -29 16 -32 10 -3 13 4 10 24 -2 15 -9 29 -16 32
-10 3 -13 -4 -10 -24z"></path>
<path d="M1936 3593 c4 -15 13 -41 20 -58 l12 -30 0 30 c0 42 -11 78 -26 83
-9 3 -11 -4 -6 -25z"></path>
<path d="M6588 3556 c-35 -12 -36 -24 -4 -32 29 -7 46 1 46 21 0 20 -11 23
-42 11z"></path>
<path d="M1960 3493 c0 -7 10 -55 25 -120 3 -13 10 -23 16 -23 8 0 9 11 4 33
-4 17 -10 50 -14 71 -3 22 -12 41 -18 44 -7 2 -13 0 -13 -5z"></path>
<path d="M1890 3465 c0 -8 5 -15 10 -15 6 0 10 7 10 15 0 8 -4 15 -10 15 -5 0
-10 -7 -10 -15z"></path>
<path d="M6457 3473 c-12 -12 -7 -22 8 -17 8 4 15 10 15 15 0 11 -14 12 -23 2z"></path>
<path d="M1900 3420 c0 -24 25 -100 33 -100 5 0 6 12 3 26 -4 15 -10 39 -13
55 -5 27 -23 41 -23 19z"></path>
<path d="M1330 3390 c-8 -5 -41 -20 -72 -35 -32 -14 -58 -32 -58 -40 0 -11 13
-7 51 13 l52 26 15 -22 c18 -27 37 -29 22 -3 -18 35 -13 54 15 48 16 -3 24 0
22 7 -5 14 -28 17 -47 6z"></path>
<path d="M1442 3364 c-27 -32 -25 -36 17 -28 25 5 31 11 29 27 -4 30 -20 30
-46 1z"></path>
<path d="M1098 3269 c-38 -19 -50 -39 -24 -39 7 0 19 7 26 15 7 8 21 15 31 15
11 0 19 7 19 15 0 18 -5 18 -52 -6z"></path>
<path d="M1936 3263 c8 -32 24 -55 24 -32 0 26 -12 59 -21 59 -5 0 -6 -12 -3
-27z"></path>
<path d="M1480 3270 c0 -5 5 -10 10 -10 6 0 10 5 10 10 0 6 -4 10 -10 10 -5 0
-10 -4 -10 -10z"></path>
<path d="M1146 3195 c4 -8 10 -15 15 -15 4 0 6 7 3 15 -4 8 -10 15 -15 15 -4
0 -6 -7 -3 -15z"></path>
<path d="M1230 3191 c0 -12 5 -21 10 -21 6 0 10 6 10 14 0 8 -4 18 -10 21 -5
3 -10 -3 -10 -14z"></path>
<path d="M1830 3200 c0 -5 5 -10 10 -10 6 0 10 5 10 10 0 6 -4 10 -10 10 -5 0
-10 -4 -10 -10z"></path>
<path d="M1960 3168 c0 -32 9 -58 21 -58 10 0 0 61 -12 75 -5 5 -9 -2 -9 -17z"></path>
<path d="M1846 3143 c8 -32 12 -39 19 -31 9 8 -6 58 -16 58 -5 0 -6 -12 -3
-27z"></path>
<path d="M1381 3103 c33 -41 49 -56 56 -50 3 4 -6 21 -22 37 -31 32 -57 42
-34 13z"></path>
<path d="M1497 3104 c-3 -3 -2 -17 4 -31 13 -34 11 -43 -6 -43 -17 0 -20 -16
-5 -25 5 -3 20 -28 31 -56 21 -49 47 -70 33 -26 -4 12 -8 31 -9 42 -1 11 -7
46 -14 77 -12 56 -22 74 -34 62z"></path>
<path d="M5190 3100 c0 -5 5 -10 10 -10 6 0 10 5 10 10 0 6 -4 10 -10 10 -5 0
-10 -4 -10 -10z"></path>
<path d="M4260 3084 c0 -8 5 -12 10 -9 6 3 10 10 10 16 0 5 -4 9 -10 9 -5 0
-10 -7 -10 -16z"></path>
<path d="M1860 3055 c0 -8 5 -15 10 -15 6 0 10 7 10 15 0 8 -4 15 -10 15 -5 0
-10 -7 -10 -15z"></path>
<path d="M5210 3050 c0 -5 5 -10 11 -10 5 0 7 5 4 10 -3 6 -8 10 -11 10 -2 0
-4 -4 -4 -10z"></path>
<path d="M4226 3034 c-7 -19 2 -37 15 -29 12 8 12 45 0 45 -5 0 -12 -7 -15
-16z"></path>
<path d="M1880 2965 c0 -8 5 -15 10 -15 6 0 10 7 10 15 0 8 -4 15 -10 15 -5 0
-10 -7 -10 -15z"></path>
<path d="M4120 2932 c0 -16 28 -34 34 -23 4 6 -3 15 -14 21 -11 6 -20 7 -20 2z"></path>
<path d="M2010 2915 c0 -8 5 -15 10 -15 6 0 10 7 10 15 0 8 -4 15 -10 15 -5 0
-10 -7 -10 -15z"></path>
<path d="M1890 2900 c0 -5 5 -10 10 -10 6 0 10 5 10 10 0 6 -4 10 -10 10 -5 0
-10 -4 -10 -10z"></path>
<path d="M2025 2848 c8 -36 12 -44 20 -36 8 8 -7 68 -17 68 -6 0 -7 -14 -3
-32z"></path>
<path d="M1900 2840 c0 -11 5 -20 10 -20 6 0 10 9 10 20 0 11 -4 20 -10 20 -5
0 -10 -9 -10 -20z"></path>
<path d="M1440 2835 c0 -8 5 -15 10 -15 6 0 10 7 10 15 0 8 -4 15 -10 15 -5 0
-10 -7 -10 -15z"></path>
<path d="M1560 2831 c0 -10 7 -24 15 -31 12 -10 15 -10 15 3 0 23 -11 47 -21
47 -5 0 -9 -8 -9 -19z"></path>
<path d="M4168 2844 c-5 -4 -8 -19 -8 -33 0 -18 3 -22 11 -14 6 6 9 21 7 33
-1 12 -6 18 -10 14z"></path>
<path d="M1830 2800 c0 -5 5 -10 10 -10 6 0 10 5 10 10 0 6 -4 10 -10 10 -5 0
-10 -4 -10 -10z"></path>
<path d="M1910 2785 c0 -8 5 -15 10 -15 6 0 10 7 10 15 0 8 -4 15 -10 15 -5 0
-10 -7 -10 -15z"></path>
<path d="M4025 2790 c3 -5 8 -10 11 -10 2 0 4 5 4 10 0 6 -5 10 -11 10 -5 0
-7 -4 -4 -10z"></path>
<path d="M2040 2775 c0 -8 5 -15 10 -15 6 0 10 7 10 15 0 8 -4 15 -10 15 -5 0
-10 -7 -10 -15z"></path>
<path d="M4053 2736 c3 -20 2 -36 -4 -36 -5 0 -9 -13 -9 -30 0 -36 10 -38 30
-7 18 29 21 48 9 63 -5 7 -8 17 -7 24 2 7 -3 15 -11 18 -11 4 -13 -3 -8 -32z"></path>
<path d="M4130 2741 c0 -12 5 -21 10 -21 6 0 10 6 10 14 0 8 -4 18 -10 21 -5
3 -10 -3 -10 -14z"></path>
<path d="M1466 2718 c8 -27 12 -33 19 -27 7 8 -7 49 -17 49 -5 0 -6 -10 -2
-22z"></path>
<path d="M1690 2726 c0 -8 5 -18 10 -21 6 -3 10 3 10 14 0 12 -4 21 -10 21 -5
0 -10 -6 -10 -14z"></path>
<path d="M1920 2730 c0 -5 5 -10 10 -10 6 0 10 5 10 10 0 6 -4 10 -10 10 -5 0
-10 -4 -10 -10z"></path>
<path d="M2056 2718 c8 -28 12 -33 20 -25 9 8 -6 47 -17 47 -6 0 -7 -10 -3
-22z"></path>
<path d="M3820 2719 c0 -5 5 -7 10 -4 6 3 10 8 10 11 0 2 -4 4 -10 4 -5 0 -10
-5 -10 -11z"></path>
<path d="M5300 2716 c0 -8 5 -18 10 -21 6 -3 10 1 10 9 0 8 -4 18 -10 21 -5 3
-10 -1 -10 -9z"></path>
<path d="M1850 2710 c0 -5 5 -10 10 -10 6 0 10 5 10 10 0 6 -4 10 -10 10 -5 0
-10 -4 -10 -10z"></path>
<path d="M3987 2714 c-8 -8 1 -24 14 -24 5 0 9 7 9 15 0 15 -12 20 -23 9z"></path>
<path d="M2144 2680 c3 -14 6 -28 6 -32 0 -5 5 -8 10 -8 15 0 12 24 -6 46 -15
18 -15 18 -10 -6z"></path>
<path d="M1930 2680 c0 -5 5 -10 10 -10 6 0 10 5 10 10 0 6 -4 10 -10 10 -5 0
-10 -4 -10 -10z"></path>
<path d="M1710 2671 c0 -6 5 -13 10 -16 6 -3 10 1 10 9 0 9 -4 16 -10 16 -5 0
-10 -4 -10 -9z"></path>
<path d="M3810 2670 c0 -5 5 -10 10 -10 6 0 10 5 10 10 0 6 -4 10 -10 10 -5 0
-10 -4 -10 -10z"></path>
<path d="M5080 2672 c0 -14 39 -46 47 -39 3 4 -2 16 -12 27 -19 21 -35 26 -35
12z"></path>
<path d="M1850 2655 c0 -8 7 -15 15 -15 8 0 15 7 15 15 0 8 -7 15 -15 15 -8 0
-15 -7 -15 -15z"></path>
<path d="M2070 2655 c0 -8 5 -15 10 -15 6 0 10 7 10 15 0 8 -4 15 -10 15 -5 0
-10 -7 -10 -15z"></path>
<path d="M1940 2640 c0 -5 5 -10 10 -10 6 0 10 5 10 10 0 6 -4 10 -10 10 -5 0
-10 -4 -10 -10z"></path>
<path d="M3820 2625 c0 -8 5 -15 10 -15 6 0 10 7 10 15 0 8 -4 15 -10 15 -5 0
-10 -7 -10 -15z"></path>
<path d="M1876 2588 c8 -27 12 -33 19 -27 7 8 -7 49 -17 49 -5 0 -6 -10 -2
-22z"></path>
<path d="M3720 2590 c-8 -5 -23 -11 -32 -14 -10 -3 -18 -10 -18 -16 0 -16 40
-2 65 21 20 20 12 25 -15 9z"></path>
<path d="M4980 2503 c0 -98 5 -133 19 -133 11 0 5 210 -8 223 -8 8 -11 -14
-11 -90z"></path>
<path d="M3841 2564 c0 -11 3 -14 6 -6 3 7 2 16 -1 19 -3 4 -6 -2 -5 -13z"></path>
<path d="M5410 2571 c0 -5 5 -13 10 -16 6 -3 10 -2 10 4 0 5 -4 13 -10 16 -5
3 -10 2 -10 -4z"></path>
<path d="M3880 2485 c0 -8 5 -15 10 -15 6 0 10 7 10 15 0 8 -4 15 -10 15 -5 0
-10 -7 -10 -15z"></path>
<path d="M3760 2455 c-7 -9 -10 -18 -7 -22 8 -7 37 15 37 28 0 14 -16 11 -30
-6z"></path>
<path d="M5126 2453 c-3 -3 6 -19 19 -35 17 -20 25 -42 25 -69 0 -21 4 -39 9
-39 12 0 26 84 18 104 -6 16 -63 47 -71 39z"></path>
<path d="M3600 2385 c0 -8 5 -15 10 -15 6 0 10 7 10 15 0 8 -4 15 -10 15 -5 0
-10 -7 -10 -15z"></path>
<path d="M3110 2335 c-10 -18 -10 -29 -3 -36 8 -8 15 -2 26 20 22 45 1 60 -23
16z"></path>
<path d="M1740 2325 c0 -8 5 -15 10 -15 6 0 10 7 10 15 0 8 -4 15 -10 15 -5 0
-10 -7 -10 -15z"></path>
<path d="M3185 2330 c-4 -6 -3 -14 0 -20 9 -15 35 -12 35 4 0 17 -27 29 -35
16z"></path>
<path d="M3705 2330 c-3 -5 3 -10 14 -10 11 0 23 5 26 10 3 6 -3 10 -14 10
-11 0 -23 -4 -26 -10z"></path>
<path d="M3260 2320 c0 -5 11 -10 24 -10 13 0 40 -7 59 -15 20 -8 41 -15 47
-15 21 0 9 17 -25 33 -39 19 -105 23 -105 7z"></path>
<path d="M4977 2188 c-10 -174 -9 -268 3 -268 6 0 10 26 10 59 0 48 5 65 23
88 35 42 40 63 17 63 -16 0 -20 7 -20 34 0 18 5 47 11 64 9 26 7 35 -8 56 -10
14 -21 26 -24 26 -3 0 -9 -55 -12 -122z"></path>
<path d="M5117 2267 c-10 -19 -19 -40 -20 -48 -2 -8 -6 -19 -10 -25 -4 -7 0
-17 8 -24 12 -10 16 -9 20 1 23 69 35 106 35 117 0 22 -15 13 -33 -21z"></path>
<path d="M3521 2250 c-12 -36 -8 -37 30 -9 35 25 37 39 5 39 -18 0 -27 -8 -35
-30z"></path>
<path d="M1738 2237 c-3 -13 -2 -32 2 -42 6 -17 7 -17 13 -1 10 25 9 66 -2 66
-5 0 -11 -10 -13 -23z"></path>
<path d="M2080 2252 c0 -6 16 -37 35 -69 19 -32 35 -62 35 -66 0 -5 10 -21 22
-35 13 -17 19 -20 15 -9 -4 10 -7 24 -7 31 0 7 -20 43 -44 80 -51 77 -56 84
-56 68z"></path>
<path d="M3360 2236 c0 -9 5 -16 10 -16 6 0 10 4 10 9 0 6 -4 13 -10 16 -5 3
-10 -1 -10 -9z"></path>
<path d="M2315 2221 c-3 -6 5 -26 18 -43 13 -18 29 -52 36 -75 6 -24 16 -43
21 -43 15 0 12 15 -15 74 -14 30 -25 59 -25 64 0 16 -27 34 -35 23z"></path>
<path d="M1820 2205 c0 -8 5 -15 10 -15 6 0 10 7 10 15 0 8 -4 15 -10 15 -5 0
-10 -7 -10 -15z"></path>
<path d="M3310 2210 c0 -5 5 -10 11 -10 5 0 7 5 4 10 -3 6 -8 10 -11 10 -2 0
-4 -4 -4 -10z"></path>
<path d="M3076 2194 c-4 -9 -4 -19 -2 -21 8 -8 26 8 26 23 0 19 -16 18 -24 -2z"></path>
<path d="M2420 2195 c0 -12 35 -75 42 -75 11 0 10 4 -9 45 -14 29 -33 47 -33
30z"></path>
<path d="M3030 2190 c0 -5 5 -10 10 -10 6 0 10 5 10 10 0 6 -4 10 -10 10 -5 0
-10 -4 -10 -10z"></path>
<path d="M2956 2175 c4 -8 8 -15 10 -15 2 0 4 7 4 15 0 8 -4 15 -10 15 -5 0
-7 -7 -4 -15z"></path>
<path d="M2550 2166 c0 -15 18 -31 26 -23 7 7 -7 37 -17 37 -5 0 -9 -6 -9 -14z"></path>
<path d="M3150 2160 c0 -5 5 -10 10 -10 6 0 10 5 10 10 0 6 -4 10 -10 10 -5 0
-10 -4 -10 -10z"></path>
<path d="M1817 2113 c-3 -16 -1 -32 4 -37 5 -6 9 -27 9 -48 0 -21 5 -38 10
-38 11 0 13 37 4 104 -7 52 -19 60 -27 19z"></path>
<path d="M2768 2110 c5 -32 19 -40 28 -15 6 15 -11 45 -25 45 -4 0 -6 -13 -3
-30z"></path>
<path d="M3059 2119 c4 -13 14 -25 20 -27 10 -3 10 0 2 16 -16 30 -33 38 -22
11z"></path>
<path d="M2681 2091 c-10 -7 -11 -13 -1 -31 13 -25 15 -24 24 13 7 28 1 33
-23 18z"></path>
<path d="M1963 2029 c6 -52 12 -67 22 -57 10 9 -7 108 -18 108 -6 0 -7 -19 -4
-51z"></path>
<path d="M2755 2060 c3 -5 8 -10 11 -10 2 0 4 5 4 10 0 6 -5 10 -11 10 -5 0
-7 -4 -4 -10z"></path>
<path d="M2695 1950 c-3 -5 -1 -10 4 -10 6 0 11 5 11 10 0 6 -2 10 -4 10 -3 0
-8 -4 -11 -10z"></path>
<path d="M2075 1908 c8 -37 12 -44 21 -35 9 9 -6 67 -18 67 -6 0 -7 -13 -3
-32z"></path>
<path d="M2220 1870 c0 -27 5 -50 10 -50 6 0 10 23 10 50 0 28 -4 50 -10 50
-5 0 -10 -22 -10 -50z"></path>
<path d="M2840 1910 c0 -5 5 -10 10 -10 6 0 10 5 10 10 0 6 -4 10 -10 10 -5 0
-10 -4 -10 -10z"></path>
<path d="M2080 1835 c0 -8 5 -15 10 -15 6 0 10 7 10 15 0 8 -4 15 -10 15 -5 0
-10 -7 -10 -15z"></path>
<path d="M2850 1790 c0 -5 5 -10 10 -10 6 0 10 5 10 10 0 6 -4 10 -10 10 -5 0
-10 -4 -10 -10z"></path>
<path d="M5690 1786 c0 -2 6 -15 13 -30 16 -29 27 -24 27 11 0 16 -6 23 -20
23 -11 0 -20 -2 -20 -4z"></path>
<path d="M5467 1699 c-10 -6 -48 -12 -85 -15 -57 -3 -70 -7 -85 -29 -10 -14
-27 -25 -37 -25 -22 0 -35 -16 -20 -25 5 -3 10 -2 10 3 0 5 18 12 40 16 24 4
40 12 40 20 0 10 14 14 48 13 31 0 58 7 81 21 19 11 38 19 43 16 4 -3 8 0 8 5
0 14 -20 14 -43 0z"></path>
<path d="M5657 1676 c-6 -16 2 -28 14 -20 12 7 11 34 0 34 -5 0 -11 -6 -14
-14z"></path>
<path d="M2440 1665 c0 -8 5 -15 10 -15 6 0 10 7 10 15 0 8 -4 15 -10 15 -5 0
-10 -7 -10 -15z"></path>
<path d="M5607 1623 c-4 -3 -7 -11 -7 -17 0 -6 5 -5 12 2 6 6 9 14 7 17 -3 3
-9 2 -12 -2z"></path>
<path d="M5156 1591 c-14 -16 -15 -20 -2 -30 11 -10 17 -8 30 10 25 37 2 54
-28 20z"></path>
<path d="M2440 1560 c0 -22 5 -40 10 -40 6 0 10 18 10 40 0 22 -4 40 -10 40
-5 0 -10 -18 -10 -40z"></path>
<path d="M5565 1580 c-4 -6 -55 -52 -113 -102 -59 -50 -108 -95 -110 -99 -7
-18 35 -9 53 11 10 11 24 20 31 20 12 0 155 150 162 171 5 12 -15 12 -23 -1z"></path>
<path d="M2660 1540 c0 -11 5 -20 10 -20 6 0 10 9 10 20 0 11 -4 20 -10 20 -5
0 -10 -9 -10 -20z"></path>
<path d="M4960 1535 c0 -17 5 -25 13 -22 6 2 12 12 12 22 0 10 -6 20 -12 23
-8 2 -13 -6 -13 -23z"></path>
<path d="M2930 1530 c0 -5 5 -10 10 -10 6 0 10 5 10 10 0 6 -4 10 -10 10 -5 0
-10 -4 -10 -10z"></path>
<path d="M5555 1460 c-17 -19 -17 -20 -1 -20 25 0 58 19 51 31 -10 15 -31 10
-50 -11z"></path>
<path d="M3320 1445 c0 -8 5 -15 10 -15 6 0 10 7 10 15 0 8 -4 15 -10 15 -5 0
-10 -7 -10 -15z"></path>
<path d="M3250 1410 c0 -16 5 -30 10 -30 6 0 10 14 10 30 0 17 -4 30 -10 30
-5 0 -10 -13 -10 -30z"></path>
<path d="M5760 1402 c0 -14 11 -21 26 -15 8 3 11 9 8 14 -7 11 -34 12 -34 1z"></path>
<path d="M5220 1390 c0 -5 5 -10 10 -10 6 0 10 5 10 10 0 6 -4 10 -10 10 -5 0
-10 -4 -10 -10z"></path>
<path d="M5285 1351 c-27 -5 -30 -10 -33 -49 -2 -23 1 -42 5 -42 13 0 83 74
83 88 0 13 -8 13 -55 3z"></path>
<path d="M3330 1340 c0 -5 5 -10 10 -10 6 0 10 5 10 10 0 6 -4 10 -10 10 -5 0
-10 -4 -10 -10z"></path>
<path d="M3260 1315 c0 -8 5 -15 10 -15 6 0 10 7 10 15 0 8 -4 15 -10 15 -5 0
-10 -7 -10 -15z"></path>
<path d="M4941 1158 c-17 -198 -17 -197 -26 -240 -9 -45 -1 -47 31 -12 28 30
29 32 8 56 -14 14 -14 20 -4 33 7 8 20 15 30 15 14 0 17 -9 18 -54 0 -30 8
-68 16 -85 17 -32 35 -41 38 -18 3 23 8 62 14 105 5 34 3 42 -10 42 -9 0 -16
7 -16 15 0 15 10 18 83 30 28 4 37 11 37 25 0 11 -7 20 -15 20 -8 0 -15 9 -15
20 0 16 6 20 32 18 28 -3 34 1 36 20 4 26 27 37 94 44 40 5 48 3 53 -13 3 -10
1 -28 -5 -40 -15 -28 2 -48 25 -29 35 29 5 116 -42 122 -29 3 -149 -38 -177
-61 -10 -8 -26 -11 -43 -6 -16 3 -54 6 -85 5 -60 -1 -67 4 -45 34 12 16 15 16
57 -3 48 -22 80 -27 80 -12 0 5 -8 11 -17 15 -10 3 -25 10 -33 15 -8 5 -27 12
-42 15 -19 4 -30 16 -39 41 -7 19 -16 35 -19 35 -4 0 -12 -69 -19 -152z m156
-52 c-9 -23 -37 -20 -37 3 0 21 20 33 34 20 5 -4 6 -15 3 -23z"></path>
<path d="M5450 1291 c0 -5 7 -12 16 -15 22 -9 24 -8 24 9 0 8 -9 15 -20 15
-11 0 -20 -4 -20 -9z"></path>
<path d="M5547 1293 c-15 -14 -6 -25 16 -19 12 3 35 -1 50 -9 32 -17 50 1 22
22 -20 14 -77 18 -88 6z"></path>
<path d="M5395 1280 c-3 -5 3 -10 14 -10 12 0 21 5 21 10 0 6 -6 10 -14 10 -8
0 -18 -4 -21 -10z"></path>
<path d="M5320 1264 c0 -17 22 -14 28 4 2 7 -3 12 -12 12 -9 0 -16 -7 -16 -16z"></path>
<path d="M3330 1260 c0 -5 5 -10 10 -10 6 0 10 5 10 10 0 6 -4 10 -10 10 -5 0
-10 -4 -10 -10z"></path>
<path d="M3150 1200 c0 -11 5 -20 10 -20 6 0 10 9 10 20 0 11 -4 20 -10 20 -5
0 -10 -9 -10 -20z"></path>
<path d="M5810 1165 c0 -8 6 -15 14 -15 22 0 28 17 10 24 -22 9 -24 8 -24 -9z"></path>
<path d="M5471 1161 c-11 -7 -9 -11 9 -21 27 -14 39 -5 19 15 -9 9 -19 11 -28
6z"></path>
<path d="M3270 1110 c0 -5 5 -10 10 -10 6 0 10 5 10 10 0 6 -4 10 -10 10 -5 0
-10 -4 -10 -10z"></path>
<path d="M3704 1098 c22 -30 20 -96 -3 -141 -14 -28 -15 -37 -6 -37 7 0 21 21
31 48 9 26 21 51 26 57 14 15 9 32 -18 64 -30 35 -53 42 -30 9z"></path>
<path d="M5210 1100 c0 -5 5 -10 10 -10 6 0 10 5 10 10 0 6 -4 10 -10 10 -5 0
-10 -4 -10 -10z"></path>
<path d="M5487 1056 c-7 -8 -20 -11 -28 -7 -17 9 -199 -10 -199 -20 0 -16 42
-31 53 -20 12 12 95 4 114 -12 17 -12 43 -2 43 18 0 18 0 18 37 0 17 -9 34
-22 37 -30 7 -20 55 -19 63 1 10 26 -10 47 -60 66 -39 15 -48 15 -60 4z"></path>
<path d="M3594 1026 c-4 -26 0 -47 17 -80 12 -25 26 -46 31 -46 12 0 10 14 -7
46 -8 16 -15 48 -15 72 0 51 -17 56 -26 8z"></path>
<path d="M5163 1023 c-7 -3 -13 -9 -13 -15 0 -13 42 -6 47 8 4 11 -12 14 -34
7z"></path>
<path d="M5218 1018 c9 -9 15 -9 24 0 9 9 7 12 -12 12 -19 0 -21 -3 -12 -12z"></path>
<path d="M5655 1021 c-10 -17 15 -45 29 -31 7 7 5 15 -6 26 -11 11 -18 13 -23
5z"></path>
<path d="M5120 1000 c-9 -6 -10 -10 -3 -10 6 0 15 5 18 10 8 12 4 12 -15 0z"></path>
<path d="M5282 978 c-14 -14 -16 -58 -2 -58 11 0 24 43 18 60 -2 7 -7 7 -16
-2z"></path>
<path d="M1296 868 c3 -40 10 -77 15 -82 11 -12 11 27 3 102 -10 81 -26 63
-18 -20z"></path>
<path d="M5150 911 c0 -6 5 -13 10 -16 6 -3 10 1 10 9 0 9 -4 16 -10 16 -5 0
-10 -4 -10 -9z"></path>
<path d="M5860 908 c1 -15 24 -48 34 -48 11 0 7 35 -6 48 -16 16 -28 15 -28 0z"></path>
<path d="M5258 894 c-5 -4 -8 -19 -8 -33 0 -18 3 -22 11 -14 6 6 9 21 7 33 -1
12 -6 18 -10 14z"></path>
<path d="M5625 890 c-3 -5 -2 -10 4 -10 5 0 13 5 16 10 3 6 2 10 -4 10 -5 0
-13 -4 -16 -10z"></path>
<path d="M5129 855 c-13 -13 -28 -25 -34 -25 -5 0 -15 -11 -22 -25 -10 -22 -8
-27 9 -36 14 -7 23 -7 33 1 14 11 48 100 41 107 -2 2 -14 -8 -27 -22z"></path>
<path d="M3140 860 c0 -5 5 -10 10 -10 6 0 10 5 10 10 0 6 -4 10 -10 10 -5 0
-10 -4 -10 -10z"></path>
<path d="M5520 859 c0 -5 5 -7 10 -4 6 3 10 8 10 11 0 2 -4 4 -10 4 -5 0 -10
-5 -10 -11z"></path>
<path d="M3787 813 c6 -42 10 -49 19 -40 9 9 -5 77 -16 77 -5 0 -6 -17 -3 -37z"></path>
<path d="M1140 775 c0 -8 5 -15 10 -15 6 0 10 7 10 15 0 8 -4 15 -10 15 -5 0
-10 -7 -10 -15z"></path>
<path d="M4903 758 c-7 -7 -20 -77 -29 -154 l-18 -142 59 -93 c47 -74 62 -109
76 -173 10 -45 18 -101 19 -126 0 -56 11 -73 41 -68 21 3 24 8 21 38 -2 19 -8
39 -13 44 -5 6 -9 20 -9 33 0 12 -9 27 -20 33 -16 9 -20 21 -20 62 0 46 3 54
43 92 23 22 73 76 111 118 64 73 68 80 62 113 -5 26 -12 35 -26 35 -13 0 -20
-7 -20 -19 0 -23 -30 -35 -60 -26 -12 4 -27 2 -34 -4 -15 -12 -91 -9 -126 6
-32 14 -47 31 -55 66 -6 21 -4 27 10 27 14 0 16 5 10 28 -21 75 0 82 37 11 38
-71 42 -72 34 -16 -9 58 -74 139 -93 115z"></path>
<path d="M5026 744 c-8 -22 -10 -20 29 -44 40 -25 65 -21 65 10 0 22 -10 26
-27 9 -17 -17 -56 -1 -50 22 6 23 -8 26 -17 3z"></path>
<path d="M1310 730 c0 -11 5 -20 10 -20 6 0 10 9 10 20 0 11 -4 20 -10 20 -5
0 -10 -9 -10 -20z"></path>
<path d="M3800 725 c0 -8 5 -15 10 -15 6 0 10 7 10 15 0 8 -4 15 -10 15 -5 0
-10 -7 -10 -15z"></path>
<path d="M5292 729 c2 -7 10 -15 17 -17 8 -3 12 1 9 9 -2 7 -10 15 -17 17 -8
3 -12 -1 -9 -9z"></path>
<path d="M966 711 c-4 -7 -5 -15 -2 -18 9 -9 19 4 14 18 -4 11 -6 11 -12 0z"></path>
<path d="M5150 690 c0 -11 5 -20 10 -20 6 0 10 9 10 20 0 11 -4 20 -10 20 -5
0 -10 -9 -10 -20z"></path>
<path d="M5030 664 c0 -3 9 -17 20 -31 11 -14 20 -32 20 -39 0 -7 5 -16 12
-20 17 -11 1 56 -19 78 -16 18 -33 24 -33 12z"></path>
<path d="M1320 630 c0 -16 5 -30 10 -30 6 0 10 14 10 30 0 17 -4 30 -10 30 -5
0 -10 -13 -10 -30z"></path>
<path d="M3800 615 c0 -8 5 -15 10 -15 6 0 10 7 10 15 0 8 -4 15 -10 15 -5 0
-10 -7 -10 -15z"></path>
<path d="M2280 525 c0 -30 5 -55 10 -55 6 0 10 25 10 55 0 30 -4 55 -10 55 -5
0 -10 -25 -10 -55z"></path>
<path d="M5950 557 c0 -5 31 -56 69 -113 77 -115 87 -145 72 -201 -20 -70 -15
-80 67 -164 72 -74 92 -89 92 -71 0 4 -32 40 -71 81 l-71 74 8 46 c5 25 8 63
7 84 -1 22 4 37 10 37 7 0 84 -75 172 -166 115 -120 165 -165 179 -163 14 3
-48 72 -257 284 -152 154 -276 276 -277 272z"></path>
<path d="M2140 520 c0 -16 5 -30 10 -30 6 0 10 14 10 30 0 17 -4 30 -10 30 -5
0 -10 -13 -10 -30z"></path>
<path d="M5897 534 c-11 -12 -8 -144 4 -144 17 0 49 20 49 31 0 5 -8 26 -17
47 -9 20 -19 45 -23 55 -3 10 -8 15 -13 11z"></path>
<path d="M980 453 c0 -14 19 -38 25 -32 8 8 -5 39 -16 39 -5 0 -9 -3 -9 -7z"></path>
<path d="M1172 429 c2 -7 10 -15 17 -17 8 -3 12 1 9 9 -2 7 -10 15 -17 17 -8
3 -12 -1 -9 -9z"></path>
<path d="M5224 408 c7 -34 13 -44 21 -36 9 8 -7 68 -17 68 -6 0 -8 -13 -4 -32z"></path>
<path d="M4820 405 c0 -8 5 -15 10 -15 6 0 10 7 10 15 0 8 -4 15 -10 15 -5 0
-10 -7 -10 -15z"></path>
<path d="M5955 369 c-12 -19 5 -23 22 -6 16 16 16 17 1 17 -9 0 -20 -5 -23
-11z"></path>
<path d="M5171 333 c5 -14 25 -51 43 -82 19 -31 37 -77 41 -103 6 -49 21 -64
27 -28 5 34 22 25 38 -21 14 -39 58 -99 73 -99 12 0 -9 49 -50 115 -24 39 -49
79 -56 90 -7 11 -33 46 -59 78 -27 32 -48 63 -48 68 0 5 -4 9 -10 9 -6 0 -6
-10 1 -27z"></path>
<path d="M5884 349 c-10 -17 13 -36 27 -22 12 12 4 33 -11 33 -5 0 -12 -5 -16
-11z"></path>
<path d="M1220 335 c0 -8 4 -15 8 -15 4 0 19 -18 32 -40 26 -42 35 -47 46 -29
3 6 -14 31 -40 55 -29 28 -46 39 -46 29z"></path>
<path d="M3805 330 c-8 -12 5 -80 15 -80 10 0 9 79 -1 85 -4 3 -10 1 -14 -5z"></path>
<path d="M2490 315 c0 -8 5 -15 10 -15 6 0 10 7 10 15 0 8 -4 15 -10 15 -5 0
-10 -7 -10 -15z"></path>
<path d="M4820 276 c0 -55 13 -77 32 -58 12 12 -10 112 -24 112 -4 0 -8 -24
-8 -54z"></path>
<path d="M5940 310 c0 -5 4 -10 9 -10 6 0 13 5 16 10 3 6 -1 10 -9 10 -9 0
-16 -4 -16 -10z"></path>
<path d="M5052 253 c-8 -14 -9 -24 -2 -28 12 -7 24 18 18 37 -3 8 -9 5 -16 -9z"></path>
<path d="M1360 250 c0 -5 5 -10 10 -10 6 0 10 5 10 10 0 6 -4 10 -10 10 -5 0
-10 -4 -10 -10z"></path>
<path d="M977 233 c10 -28 54 -83 66 -83 6 0 -1 12 -15 28 -14 15 -29 37 -33
50 -3 12 -10 22 -15 22 -5 0 -6 -8 -3 -17z"></path>
<path d="M1295 230 c-6 -10 19 -60 30 -60 7 0 -6 53 -15 63 -4 5 -11 4 -15 -3z"></path>
<path d="M3880 220 c0 -11 5 -20 10 -20 6 0 10 9 10 20 0 11 -4 20 -10 20 -5
0 -10 -9 -10 -20z"></path>
<path d="M2340 210 c0 -5 5 -10 10 -10 6 0 10 5 10 10 0 6 -4 10 -10 10 -5 0
-10 -4 -10 -10z"></path>
<path d="M2670 210 c0 -5 5 -10 10 -10 6 0 10 5 10 10 0 6 -4 10 -10 10 -5 0
-10 -4 -10 -10z"></path>
<path d="M1370 165 c0 -25 5 -45 10 -45 6 0 10 20 10 45 0 25 -4 45 -10 45 -5
0 -10 -20 -10 -45z"></path>
<path d="M885 179 c-6 -19 0 -38 9 -28 10 12 16 49 7 49 -5 0 -13 -9 -16 -21z"></path>
<path d="M3810 190 c0 -5 5 -10 10 -10 6 0 10 5 10 10 0 6 -4 10 -10 10 -5 0
-10 -4 -10 -10z"></path>
<path d="M5116 174 c6 -24 5 -27 -15 -21 -11 3 -21 2 -21 -1 2 -26 29 -102 44
-124 21 -32 61 -39 52 -10 -2 9 -7 35 -11 58 -9 57 -31 118 -44 122 -8 3 -10
-5 -5 -24z"></path>
<path d="M2670 165 c0 -8 5 -15 10 -15 6 0 10 7 10 15 0 8 -4 15 -10 15 -5 0
-10 -7 -10 -15z"></path>
<path d="M3660 150 c0 -5 5 -10 10 -10 6 0 10 5 10 10 0 6 -4 10 -10 10 -5 0
-10 -4 -10 -10z"></path>
<path d="M870 101 c0 -10 8 -25 17 -32 15 -12 16 -12 10 4 -4 10 -7 25 -7 33
0 8 -4 14 -10 14 -5 0 -10 -8 -10 -19z"></path>
<path d="M2746 91 c-4 -7 -5 -15 -2 -18 9 -9 19 4 14 18 -4 11 -6 11 -12 0z"></path>
<path d="M3030 90 c0 -5 5 -10 10 -10 6 0 10 5 10 10 0 6 -4 10 -10 10 -5 0
-10 -4 -10 -10z"></path>
<path d="M3100 85 c0 -8 5 -15 10 -15 6 0 10 7 10 15 0 8 -4 15 -10 15 -5 0
-10 -7 -10 -15z"></path>
<path d="M2660 80 c0 -5 5 -10 10 -10 6 0 10 5 10 10 0 6 -4 10 -10 10 -5 0
-10 -4 -10 -10z"></path>
<path d="M1372 58 c-7 -7 -12 -23 -12 -36 0 -38 34 -24 38 16 3 33 -6 40 -26
20z"></path>
<path d="M6046 59 c-15 -47 -14 -60 2 -57 20 4 29 45 13 61 -7 7 -12 6 -15 -4z"></path>
<path d="M2520 45 c0 -8 5 -15 10 -15 6 0 10 7 10 15 0 8 -4 15 -10 15 -5 0
-10 -7 -10 -15z"></path>
<path d="M3030 45 c0 -8 5 -15 10 -15 6 0 10 7 10 15 0 8 -4 15 -10 15 -5 0
-10 -7 -10 -15z"></path>
<path d="M5700 50 c0 -5 5 -10 10 -10 6 0 10 5 10 10 0 6 -4 10 -10 10 -5 0
-10 -4 -10 -10z"></path>
<path d="M920 16 c0 -9 5 -16 10 -16 6 0 10 4 10 9 0 6 -4 13 -10 16 -5 3 -10
-1 -10 -9z"></path>
<path d="M1140 15 c-11 -13 -8 -15 20 -15 28 0 31 2 20 15 -7 8 -16 15 -20 15
-4 0 -13 -7 -20 -15z"></path>
<path d="M6384 18 c-9 -14 1 -20 30 -16 l26 3 -25 12 c-16 7 -27 8 -31 1z"></path>
</g>
</svg>