 <svg version="1.0" xmlns="http://www.w3.org/2000/svg" width="700.000000pt" height="1245.000000pt" viewBox="0 0 700.000000 1245.000000" preserveAspectRatio="xMidYMid meet">
<metadata>
Created by potrace 1.12, written by Peter Selinger 2001-2015
</metadata>
<g transform="translate(0.000000,1245.000000) scale(0.100000,-0.100000)" fill="#000000" stroke="none">
<path d="M4889 11910 l-24 -20 33 11 c17 6 32 15 32 20 0 15 -16 10 -41 -11z"></path>
<path d="M5120 11910 c0 -5 5 -10 10 -10 6 0 10 5 10 10 0 6 -4 10 -10 10 -5
0 -10 -4 -10 -10z"></path>
<path d="M5160 11900 c0 -5 7 -10 15 -10 8 0 15 5 15 10 0 6 -7 10 -15 10 -8
0 -15 -4 -15 -10z"></path>
<path d="M5210 11892 c0 -9 100 -35 107 -28 2 2 -10 11 -28 20 -34 17 -79 21
-79 8z"></path>
<path d="M4720 11880 c0 -5 23 -10 50 -10 28 0 50 5 50 10 0 6 -22 10 -50 10
-27 0 -50 -4 -50 -10z"></path>
<path d="M4580 11870 c-8 -5 -11 -12 -8 -16 10 -9 38 3 38 16 0 12 -10 13 -30
0z"></path>
<path d="M4630 11870 c0 -5 7 -10 15 -10 8 0 15 5 15 10 0 6 -7 10 -15 10 -8
0 -15 -4 -15 -10z"></path>
<path d="M4420 11840 c0 -5 16 -10 35 -10 19 0 35 5 35 10 0 6 -16 10 -35 10
-19 0 -35 -4 -35 -10z"></path>
<path d="M4308 11833 c-16 -2 -28 -9 -28 -15 0 -6 12 -8 31 -4 17 3 40 6 50 6
11 0 19 5 19 10 0 10 -20 11 -72 3z"></path>
<path d="M5430 11822 c0 -5 27 -21 60 -36 33 -15 76 -39 95 -52 20 -13 39 -24
43 -24 4 0 45 -35 92 -76 73 -65 137 -113 200 -149 8 -4 2 6 -15 24 -16 18
-43 38 -60 45 -16 7 -64 45 -106 85 -42 39 -80 71 -84 71 -3 0 -21 11 -38 24
-29 22 -170 96 -182 96 -3 0 -5 -4 -5 -8z"></path>
<path d="M4150 11813 c-153 -18 -362 -93 -460 -165 -81 -60 -113 -92 -204
-203 -159 -195 -171 -225 -317 -754 -2 -7 1 -15 8 -18 12 -4 50 106 73 212 18
82 71 246 100 312 55 121 198 304 312 400 117 97 291 166 501 198 20 3 37 10
37 15 0 6 -3 9 -7 8 -5 0 -24 -3 -43 -5z"></path>
<path d="M4220 11810 c0 -5 9 -10 20 -10 11 0 20 5 20 10 0 6 -9 10 -20 10
-11 0 -20 -4 -20 -10z"></path>
<path d="M5010 11634 c-75 -42 -110 -82 -110 -124 0 -31 10 -48 61 -106 98
-110 159 -254 159 -372 0 -41 -4 -54 -23 -69 -40 -31 -127 -67 -137 -57 -5 5
-3 33 5 69 39 161 2 388 -75 465 -59 59 -230 -39 -230 -130 0 -17 16 -49 39
-81 30 -39 42 -65 47 -105 12 -100 -11 -175 -106 -344 -39 -67 -70 -133 -70
-146 0 -24 77 -145 98 -152 14 -4 -6 50 -30 77 -8 10 -23 31 -32 47 -17 29
-17 30 22 94 110 182 152 287 152 378 0 71 -20 123 -67 175 -20 23 -32 45 -29
54 3 8 6 21 6 28 0 21 50 75 70 75 10 0 23 7 30 15 19 23 63 18 89 -9 12 -13
34 -57 49 -97 22 -63 26 -91 27 -184 0 -105 -19 -216 -47 -268 -16 -31 2 -37
40 -14 20 13 60 34 87 46 28 13 65 34 83 48 l34 25 -6 72 c-11 129 -59 247
-143 346 -31 36 -62 69 -69 73 -8 4 -14 23 -14 42 0 28 8 40 43 68 23 19 57
42 75 53 30 17 42 34 25 34 -5 0 -28 -12 -53 -26z"></path>
<path d="M5106 11642 c15 -10 30 -41 37 -78 3 -17 19 -60 36 -95 16 -35 43
-107 59 -159 16 -52 34 -96 40 -98 14 -4 78 95 139 217 29 57 58 108 65 112 7
4 9 11 5 15 -9 10 -55 -34 -63 -60 -9 -29 -115 -216 -127 -223 -13 -8 -23 11
-53 102 -14 44 -32 90 -40 101 -7 12 -23 50 -34 85 -25 73 -36 89 -59 89 -10
0 -12 -3 -5 -8z"></path>
<path d="M5510 11552 c0 -4 23 -30 51 -57 67 -66 82 -96 74 -146 -5 -28 -16
-45 -38 -61 -42 -31 -167 -158 -167 -170 0 -17 83 3 125 31 22 15 50 46 63 69
29 52 65 57 103 15 39 -45 49 -70 49 -120 0 -37 -7 -57 -30 -87 -46 -61 -63
-133 -64 -276 -1 -101 4 -144 23 -222 23 -92 23 -99 7 -123 -9 -14 -39 -39
-66 -56 -47 -29 -63 -49 -40 -49 19 0 86 48 114 81 32 37 32 61 1 199 -13 56
-16 107 -13 202 l5 128 47 95 c41 81 47 101 41 132 -13 70 -75 143 -121 143
-22 0 -74 -41 -74 -59 0 -5 -19 -23 -42 -40 -29 -22 -45 -28 -52 -20 -10 9 17
38 121 128 12 10 25 36 29 56 9 49 -12 91 -78 161 -48 51 -68 64 -68 46z"></path>
<path d="M5970 11470 c0 -5 21 -18 46 -29 56 -25 207 -144 268 -212 46 -51
125 -203 152 -292 8 -29 26 -88 40 -132 57 -181 89 -617 56 -760 -6 -27 -16
-117 -22 -200 -13 -193 -83 -491 -150 -639 -30 -65 -38 -102 -21 -91 5 3 17
27 27 53 10 26 26 59 36 74 10 14 18 35 18 46 0 11 20 84 43 163 27 87 48 183
55 244 6 55 19 165 29 245 30 250 20 582 -22 765 -31 131 -84 287 -132 386
-45 93 -60 113 -136 184 -118 112 -164 148 -224 179 -58 29 -63 30 -63 16z"></path>
<path d="M5464 10885 c-27 -14 -56 -25 -64 -25 -8 0 -33 -13 -55 -28 -39 -27
-39 -28 -58 -137 -13 -80 -17 -140 -13 -222 5 -139 4 -142 -91 -119 -38 9 -85
21 -105 25 -75 16 -85 46 -40 120 50 81 86 204 66 223 -3 4 -25 -7 -49 -23
-23 -16 -45 -29 -48 -29 -5 0 -71 -41 -234 -145 -34 -22 -62 -43 -63 -47 -1
-20 37 -2 156 75 158 102 172 110 190 103 21 -8 17 -26 -26 -114 -22 -44 -40
-92 -40 -107 0 -43 37 -69 132 -93 107 -27 133 -27 157 -3 17 17 20 35 20 148
0 141 21 286 47 314 22 24 120 63 140 55 15 -6 16 -18 9 -104 -20 -228 3 -432
48 -440 17 -4 17 -2 4 20 -30 45 -40 208 -27 423 5 77 6 143 1 148 -4 4 -29
-4 -57 -18z"></path>
<path d="M3132 10623 c-15 -29 -23 -73 -14 -73 8 0 52 71 52 84 0 14 -30 5
-38 -11z"></path>
<path d="M3100 10501 c0 -11 4 -22 9 -25 11 -7 23 22 15 35 -9 16 -24 10 -24
-10z"></path>
<path d="M3080 10420 c0 -5 5 -10 10 -10 6 0 10 5 10 10 0 6 -4 10 -10 10 -5
0 -10 -4 -10 -10z"></path>
<path d="M3060 10370 c-6 -11 -15 -77 -20 -148 -13 -179 -30 -315 -42 -330
-15 -17 -24 -202 -11 -202 13 0 23 48 23 114 0 28 5 67 10 86 18 61 30 154 40
311 6 84 15 158 21 165 7 8 7 14 0 18 -6 4 -15 -3 -21 -14z"></path>
<path d="M2850 10278 c-1 -2 -2 -32 -2 -68 l-2 -65 30 0 c28 0 29 2 32 53 3
57 -8 82 -39 82 -11 0 -19 -1 -19 -2z m40 -68 c0 -11 -4 -20 -10 -20 -5 0 -10
9 -10 20 0 11 5 20 10 20 6 0 10 -9 10 -20z"></path>
<path d="M2895 9627 c-44 -16 -87 -31 -95 -34 -10 -4 -11 -7 -3 -10 16 -6 143
33 168 51 35 26 12 23 -70 -7z"></path>
<path d="M2720 9560 c0 -5 6 -10 14 -10 8 0 18 5 21 10 3 6 -3 10 -14 10 -12
0 -21 -4 -21 -10z"></path>
<path d="M2652 9517 c-12 -13 -22 -30 -22 -38 0 -31 76 -79 124 -79 13 0 29
-7 36 -15 7 -8 17 -12 22 -9 16 10 -22 42 -60 49 -80 15 -117 52 -86 87 25 27
11 32 -14 5z"></path>
<path d="M2810 9316 c0 -13 10 -45 22 -72 12 -27 30 -85 40 -129 10 -44 22
-97 27 -119 8 -34 5 -44 -20 -81 -33 -49 -35 -55 -15 -55 7 0 20 -7 27 -17 13
-15 11 -16 -13 -10 -39 10 -46 -11 -12 -38 26 -21 27 -24 15 -53 -7 -17 -18
-29 -25 -26 -14 5 -36 -36 -36 -67 0 -11 7 -22 15 -25 8 -4 15 -15 15 -26 0
-10 -4 -17 -9 -13 -15 9 -21 -9 -12 -41 4 -17 14 -29 24 -29 27 0 40 -21 32
-52 -3 -15 -7 -30 -6 -33 0 -3 -9 -8 -20 -12 -12 -5 -19 -17 -19 -33 0 -14 -4
-25 -9 -25 -5 0 -16 -3 -25 -6 -11 -4 -16 -1 -16 10 0 25 -15 19 -29 -10 -16
-35 -8 -40 31 -21 l32 16 15 -32 c16 -37 16 -39 -6 -87 -9 -19 -18 -52 -19
-72 -3 -53 -12 -62 -34 -36 -18 23 -19 23 -26 3 -4 -11 -14 -28 -21 -37 -24
-27 -12 -50 25 -53 37 -3 52 16 32 40 -17 20 4 20 24 -1 9 -8 16 -32 16 -53 0
-35 14 -61 33 -61 5 0 6 8 2 18 -4 9 -11 31 -16 47 l-8 30 24 -28 c31 -35 36
-107 8 -107 -13 0 -14 -3 -5 -12 7 -7 12 -18 12 -26 0 -12 -3 -12 -15 -2 -9 7
-18 10 -22 7 -8 -9 16 -37 32 -37 25 0 39 -30 28 -59 -9 -24 -7 -31 14 -49 27
-24 31 -62 6 -63 -15 0 -14 -3 5 -16 16 -11 22 -25 22 -52 0 -42 -13 -67 -29
-57 -7 5 -11 -1 -11 -13 0 -14 6 -21 20 -21 22 0 26 -20 9 -51 -8 -16 -13 -18
-24 -9 -8 7 -19 9 -25 5 -12 -7 -226 -61 -295 -74 -117 -23 -521 -148 -550
-171 -23 -18 -144 -60 -173 -60 -18 0 -32 -4 -32 -9 0 -14 59 -24 73 -13 7 5
66 30 132 56 66 26 139 56 163 67 23 10 58 19 77 19 19 0 76 14 127 30 83 28
229 66 403 105 35 8 61 10 63 4 2 -5 10 -9 17 -9 20 0 35 -33 35 -77 0 -21 7
-47 15 -57 9 -12 11 -23 6 -30 -15 -18 -21 -194 -8 -199 8 -2 7 -24 -6 -78
-10 -41 -23 -125 -28 -188 -9 -106 -25 -161 -49 -176 -27 -16 -50 -86 -50
-149 0 -65 0 -66 39 -90 41 -26 61 -66 61 -120 0 -18 9 -50 20 -71 11 -22 30
-74 41 -115 30 -106 80 -227 149 -358 36 -68 71 -154 90 -219 57 -198 80 -212
239 -149 77 31 232 76 381 112 106 25 145 35 209 54 97 31 97 31 93 -46 -4
-62 -2 -68 22 -88 14 -12 36 -36 48 -55 14 -20 37 -39 58 -46 47 -16 74 -64
74 -131 0 -63 -22 -100 -66 -109 -18 -4 -72 -27 -120 -51 -99 -50 -120 -52
-187 -23 -104 44 -151 6 -151 -122 0 -40 -9 -95 -21 -135 -23 -74 -34 -94 -54
-94 -25 0 -77 64 -109 134 -34 75 -91 136 -127 136 -31 0 -66 -43 -84 -101
-19 -66 -103 -218 -128 -233 -15 -9 -24 -4 -57 31 -37 39 -40 46 -40 101 0 72
-20 141 -56 193 -44 64 -73 52 -120 -50 -55 -119 -118 -182 -148 -150 -8 8
-18 41 -24 75 -13 74 -37 134 -53 134 -7 0 -34 -23 -60 -51 -26 -28 -52 -49
-57 -45 -5 3 -15 25 -22 49 -11 40 -10 49 9 85 12 23 21 53 21 67 0 27 -33 99
-50 110 -17 10 -11 51 9 69 11 10 25 31 31 47 17 40 2 55 -63 62 -28 4 -61 9
-72 12 -13 4 -33 -3 -55 -19 -19 -15 -43 -29 -52 -32 -10 -4 -18 -16 -18 -30
0 -13 -9 -38 -20 -56 l-20 -33 -1 40 c-1 124 -11 201 -34 273 -34 107 -94 176
-203 229 -74 37 -79 38 -181 37 -90 0 -115 -4 -168 -26 -138 -58 -212 -126
-278 -256 -50 -98 -74 -203 -82 -347 -5 -104 -3 -129 15 -187 48 -154 132
-281 223 -335 70 -42 168 -67 234 -60 81 8 181 61 250 132 65 66 142 189 171
271 18 53 44 64 44 19 0 -38 -42 -229 -56 -257 -20 -39 -17 -80 9 -119 45 -67
101 -50 188 55 102 125 144 136 122 33 -19 -89 -52 -163 -94 -211 -50 -57 -77
-59 -169 -15 -44 21 -74 29 -92 25 -21 -4 -36 2 -62 24 -39 34 -84 39 -109 12
-9 -10 -26 -40 -38 -67 -19 -45 -71 -157 -104 -227 -14 -30 -18 -19 59 -150
48 -82 71 -90 135 -47 24 17 50 28 57 25 21 -8 28 -53 12 -79 -18 -27 -30 -95
-18 -102 5 -3 2 -18 -6 -33 -8 -15 -17 -44 -20 -65 -13 -73 -43 -59 -49 24
-10 119 -15 137 -46 164 -45 37 -96 34 -136 -7 -16 -18 -39 -48 -49 -66 -22
-38 -50 -39 -48 -2 1 14 5 48 9 77 10 69 1 100 -38 123 -47 29 -63 25 -112
-25 -48 -51 -44 -54 -65 45 -17 79 -29 108 -58 130 -27 22 -87 27 -98 8 -9
-15 -34 19 -34 47 0 11 -9 39 -20 60 l-20 40 20 25 c12 14 28 38 38 53 9 16
29 45 45 64 33 44 33 54 3 90 -13 15 -31 42 -40 60 -11 22 -24 33 -43 35 -20
2 -29 11 -36 33 -6 17 -10 174 -9 374 1 300 3 346 17 361 9 10 36 100 60 201
24 101 51 213 61 249 9 36 21 87 26 114 5 28 18 67 29 88 10 20 19 57 19 82 0
25 5 48 11 52 7 4 1 15 -16 30 -16 13 -31 24 -35 24 -12 0 -30 -24 -30 -42 0
-11 -7 -18 -20 -18 -15 0 -20 -7 -20 -25 0 -14 -16 -45 -35 -71 -19 -25 -35
-52 -35 -60 0 -21 -17 -17 -56 12 -60 46 -112 11 -101 -68 3 -23 -1 -57 -9
-80 -8 -24 -11 -56 -7 -83 6 -47 -17 -185 -45 -265 -10 -30 -32 -60 -64 -89
-53 -47 -88 -105 -88 -146 0 -15 -5 -36 -12 -48 -6 -12 -14 -35 -19 -52 -8
-35 -51 -138 -60 -145 -4 -3 -6 -25 -5 -50 1 -31 -3 -44 -11 -43 -13 3 -14 -5
-19 -132 -1 -33 -7 -80 -13 -105 -7 -25 -14 -65 -18 -90 -6 -46 -18 -70 -35
-70 -12 0 -6 63 16 180 9 47 29 151 43 232 15 81 30 145 33 143 3 -2 6 11 6
28 1 36 20 111 36 144 6 11 7 26 3 32 -3 6 -2 26 4 44 16 49 42 187 44 234 1
22 6 45 10 50 5 4 5 -5 1 -21 -5 -21 -4 -27 5 -22 6 4 11 16 11 26 0 10 5 22
10 25 6 3 10 23 9 43 l-1 37 -12 -40 c-6 -22 -15 -35 -18 -29 -7 11 11 71 36
119 9 17 16 38 16 48 0 30 70 311 80 321 6 6 10 21 10 36 0 14 14 63 31 110
42 117 43 120 31 120 -5 0 -15 -15 -22 -32 -7 -18 -18 -46 -25 -63 -18 -41
-60 -184 -101 -340 -19 -71 -47 -179 -63 -240 -57 -213 -81 -321 -101 -450
-11 -71 -24 -146 -29 -165 -6 -19 -15 -69 -21 -110 -6 -41 -15 -93 -20 -115
-5 -22 -14 -76 -21 -120 -6 -44 -18 -99 -25 -123 -16 -47 -19 -138 -5 -146 4
-3 11 -40 15 -82 4 -42 11 -83 16 -92 4 -10 18 -51 29 -92 23 -79 105 -215
143 -234 11 -6 32 -32 47 -58 31 -57 54 -74 107 -83 67 -11 92 -25 97 -53 3
-17 -1 -34 -10 -44 -11 -13 -13 -27 -8 -55 15 -82 7 -144 -25 -193 -41 -61
-117 -220 -136 -283 -8 -29 -24 -74 -36 -102 -11 -27 -42 -122 -68 -210 -57
-195 -118 -353 -163 -420 -43 -64 -54 -93 -72 -189 -15 -81 -55 -156 -132
-249 -21 -25 -42 -69 -59 -125 -15 -48 -33 -106 -40 -130 -8 -23 -14 -65 -14
-92 0 -65 -13 -95 -64 -150 -54 -58 -71 -90 -84 -161 -6 -30 -28 -95 -50 -144
-39 -91 -72 -223 -72 -294 0 -52 49 -143 84 -156 24 -8 31 -5 57 25 17 19 33
46 35 60 4 18 12 25 30 26 32 2 41 11 26 26 -7 7 -12 24 -12 39 0 15 -4 31
-10 34 -16 10 -11 83 10 169 11 43 20 93 20 110 0 18 4 36 9 42 5 5 14 27 21
49 7 22 28 74 47 115 34 75 49 107 96 210 13 30 39 89 57 130 62 143 312 675
330 700 23 33 129 219 158 276 19 38 25 44 37 34 20 -16 21 -177 2 -205 -7
-11 -19 -36 -27 -55 -12 -34 -73 -184 -90 -225 -5 -11 -19 -45 -32 -75 -19
-47 -97 -204 -185 -372 -53 -101 -122 -321 -149 -473 -8 -44 -14 -127 -14
-185 0 -97 -15 -228 -39 -340 -5 -25 -15 -88 -21 -140 -7 -52 -14 -108 -16
-125 -2 -16 -8 -64 -13 -105 -4 -41 -11 -86 -15 -100 -5 -22 -12 -132 -15
-242 -1 -21 -5 -38 -11 -38 -16 0 -50 43 -50 62 0 10 -9 36 -20 57 -28 56 -50
292 -29 318 22 26 -15 113 -47 113 -8 0 -11 6 -8 15 4 8 1 15 -5 15 -6 0 -11
-9 -11 -20 0 -11 -4 -20 -9 -20 -5 0 -31 -30 -57 -67 l-48 -68 4 -105 c5 -148
3 -211 -8 -222 -23 -23 41 -165 79 -175 16 -4 19 -11 15 -29 -5 -17 -1 -26 14
-34 11 -6 20 -20 20 -30 0 -19 7 -20 109 -20 118 0 127 4 133 55 3 26 7 30 33
30 26 0 30 3 27 25 -2 14 -13 45 -25 68 l-22 44 23 16 c13 10 41 32 63 51 34
29 39 39 39 77 0 48 21 77 67 95 20 7 28 6 35 -3 10 -17 10 -85 0 -123 -13
-43 10 -190 33 -215 10 -11 24 -20 32 -20 17 0 16 -18 -2 -50 -27 -47 -22 -50
79 -50 91 0 94 1 100 24 5 19 15 26 47 31 44 8 59 -2 59 -37 0 -17 18 -18 245
-18 206 0 245 2 245 14 0 36 -27 77 -105 157 -70 71 -92 102 -134 189 -28 57
-51 114 -51 126 0 41 22 72 77 109 65 43 78 70 88 185 9 104 20 128 85 175 61
45 69 69 40 125 -19 37 -21 54 -16 119 3 42 8 94 12 117 5 33 0 52 -20 92 -30
59 -33 107 -10 160 12 29 14 57 9 134 -4 59 -3 104 4 115 5 10 35 31 65 48 45
24 60 27 83 20 40 -15 48 -57 22 -127 -19 -52 -20 -62 -8 -108 11 -42 11 -58
0 -93 -7 -23 -17 -107 -21 -187 -6 -121 -11 -157 -34 -220 -32 -86 -31 -149 4
-247 27 -76 25 -123 -5 -183 -14 -27 -25 -61 -25 -76 0 -33 61 -97 84 -88 8 3
40 56 71 116 50 99 62 136 80 243 23 141 38 201 64 258 34 76 51 83 98 43 22
-18 44 -26 84 -28 l54 -3 47 -70 c26 -38 60 -79 77 -91 17 -11 45 -40 62 -64
30 -41 32 -42 72 -35 23 4 58 8 78 9 56 4 126 26 145 47 15 17 16 27 7 77 -10
50 -9 61 8 90 25 44 24 90 -3 119 -43 45 -33 170 24 316 12 30 47 37 68 12 17
-20 53 -19 72 3 24 26 48 158 36 196 -5 17 -8 85 -7 151 2 157 -9 358 -21 390
-6 15 -9 84 -8 155 1 95 -2 133 -12 145 -11 13 -11 20 0 40 7 13 10 34 7 47
-4 16 2 33 18 53 l24 29 28 -25 c15 -14 44 -36 63 -49 45 -31 80 -67 80 -84 0
-7 14 -43 30 -79 17 -37 30 -72 30 -79 0 -7 11 -33 24 -58 13 -25 29 -70 36
-100 7 -30 26 -76 42 -103 58 -98 80 -166 82 -251 1 -61 7 -91 24 -123 35 -67
30 -118 -18 -182 -60 -80 -56 -130 17 -215 47 -56 70 -134 56 -189 -16 -60 -6
-97 36 -134 l36 -31 -19 -36 c-24 -46 -16 -66 28 -66 26 0 45 -10 85 -47 33
-31 51 -55 51 -70 0 -32 47 -124 74 -145 17 -14 32 -17 77 -12 38 4 59 2 63
-5 4 -6 8 -41 8 -76 1 -55 -2 -69 -22 -90 -29 -31 -50 -31 -100 -3 l-39 23
-57 -20 c-32 -11 -59 -24 -61 -30 -1 -5 41 -34 95 -63 53 -29 112 -62 130 -74
53 -33 100 -39 153 -21 l47 17 42 -30 c72 -50 101 -63 130 -58 19 4 35 -2 59
-22 29 -24 32 -31 26 -63 -9 -51 -55 -131 -74 -131 -9 0 -28 14 -43 30 -34 38
-54 38 -112 -4 l-47 -33 -120 0 c-66 0 -122 -3 -126 -6 -3 -4 0 -20 7 -37 l12
-30 607 0 607 0 18 33 c10 17 30 44 44 59 16 17 26 43 30 73 2 26 11 49 18 52
8 3 14 13 14 23 0 10 15 31 33 47 31 27 50 70 61 141 3 18 17 45 31 60 14 15
23 32 21 39 -9 21 42 111 76 134 42 28 67 59 68 82 0 9 9 26 20 37 14 14 21
39 26 87 3 37 13 78 20 90 8 12 14 31 14 43 0 11 4 20 10 20 5 0 36 31 68 69
46 53 62 79 67 113 4 23 14 51 22 60 14 16 14 21 0 50 -9 18 -13 36 -11 40 3
5 7 26 8 47 4 58 136 224 160 201 11 -11 -14 -182 -53 -360 -40 -184 -44 -212
-34 -228 10 -17 -3 -44 -53 -102 -30 -35 -40 -71 -54 -196 -16 -143 -35 -234
-66 -312 -14 -36 -32 -96 -40 -136 -9 -40 -29 -95 -48 -126 -30 -52 -56 -112
-56 -131 0 -22 17 -5 29 28 8 21 19 45 26 53 25 30 63 116 69 160 6 40 32 118
57 175 14 33 30 106 40 185 26 211 42 275 70 293 22 13 134 145 165 192 10 17
26 37 36 45 9 8 42 53 74 100 32 47 70 101 85 120 27 35 37 56 75 150 10 25
35 65 56 89 21 24 44 65 52 90 14 52 54 80 114 81 26 0 43 10 77 45 24 24 51
58 60 75 24 46 25 46 175 -73 l55 -43 11 -79 c14 -94 21 -117 68 -210 26 -52
36 -83 36 -120 1 -82 20 -239 30 -249 7 -7 10 582 10 1717 0 1508 -2 1727 -15
1727 -8 0 -23 10 -35 22 -17 19 -18 24 -6 37 8 9 16 25 18 36 2 12 10 19 21
17 16 -3 17 15 17 222 0 139 -4 227 -10 231 -5 3 -10 22 -10 41 0 19 5 34 10
34 6 0 10 43 10 110 0 123 1 122 -75 95 -22 -8 -52 -15 -66 -15 -15 0 -32 -7
-40 -16 -7 -8 -29 -24 -48 -34 -20 -10 -52 -35 -71 -55 -19 -20 -57 -53 -85
-73 -91 -67 -135 -108 -135 -127 0 -6 -20 -31 -45 -55 -25 -24 -45 -49 -45
-55 0 -5 -14 -28 -30 -49 -17 -22 -30 -43 -30 -48 0 -12 -93 -138 -102 -138
-4 0 -8 25 -8 55 0 55 16 97 70 180 11 17 26 44 34 61 8 17 19 35 25 38 6 4
11 14 11 22 0 9 14 27 30 41 16 13 30 32 30 41 1 20 39 67 61 75 13 4 51 54
104 135 19 29 68 72 82 72 7 0 35 20 61 45 26 25 51 45 56 45 35 0 98 36 115
66 12 21 26 32 34 28 24 -9 34 18 40 110 4 55 11 92 19 97 9 5 4 11 -14 18
-14 5 -41 28 -59 50 -18 23 -34 39 -36 38 -2 -2 3 -20 12 -39 12 -29 12 -38 2
-47 -23 -19 -119 -23 -168 -8 -32 10 -52 11 -64 5 -27 -15 -59 4 -104 64 -22
29 -49 65 -61 80 -11 14 -20 33 -20 41 0 19 69 92 95 101 26 8 50 45 37 58
-19 19 -70 -7 -111 -57 -49 -59 -169 -165 -188 -165 -7 0 -13 7 -13 16 0 21
48 102 67 112 8 5 35 28 59 52 l46 44 -26 19 c-14 10 -26 27 -26 38 0 28 -36
24 -106 -10 -57 -28 -62 -29 -150 -21 -50 4 -100 13 -112 19 -53 28 -98 -12
-89 -80 7 -56 -1 -79 -29 -79 -12 0 -26 -4 -29 -10 -11 -18 -53 -11 -69 12
-20 28 -21 64 -2 75 7 4 24 28 36 53 13 25 44 70 70 100 49 56 120 157 120
169 0 3 -4 12 -9 19 -7 12 -12 12 -29 1 -14 -9 -25 -10 -31 -4 -10 11 -21 165
-11 165 10 0 50 -66 50 -82 0 -22 63 -88 83 -88 9 0 21 -9 27 -20 6 -10 27
-24 48 -29 23 -7 56 -29 87 -61 27 -27 57 -50 65 -50 9 0 20 -3 24 -7 4 -5 27
-8 49 -9 80 -2 121 -16 160 -52 24 -23 37 -31 37 -21 0 20 -58 73 -95 87 -16
6 -64 16 -105 21 -73 11 -76 12 -122 63 -37 41 -56 54 -97 65 -55 14 -121 59
-121 82 0 20 -63 111 -102 147 -43 40 -119 94 -132 94 -6 0 -33 12 -61 25 -75
37 -82 35 -90 -34 -15 -133 -89 -290 -188 -401 -27 -30 -58 -73 -69 -95 -23
-44 -235 -265 -283 -295 -44 -27 -145 -20 -145 10 0 10 39 25 58 22 16 -4 15
22 -2 56 -18 36 -30 122 -17 122 5 0 15 16 21 36 7 20 33 60 59 89 41 47 70
86 121 160 8 12 28 44 43 71 16 27 33 56 38 64 32 53 66 123 85 177 22 62 54
118 82 141 10 7 11 12 4 12 -18 0 -14 31 8 65 11 17 20 39 20 51 0 21 38 64
57 64 18 0 153 72 153 82 0 6 14 26 31 46 28 31 31 40 27 84 -4 38 1 60 23
107 15 32 35 61 43 64 9 4 16 12 16 19 0 7 7 27 16 43 23 42 44 123 44 167 0
27 6 40 21 48 16 9 19 17 14 42 -5 23 -2 35 16 54 12 13 28 24 35 24 31 0 61
24 77 61 20 46 20 49 7 49 -5 0 -10 -6 -10 -14 0 -8 -9 -24 -21 -37 l-20 -24
4 28 c3 20 -2 36 -19 54 -23 25 -25 25 -44 8 -11 -10 -18 -21 -15 -25 2 -3 -3
-19 -11 -34 -7 -16 -14 -34 -14 -40 0 -7 -11 -23 -24 -35 -14 -13 -30 -37 -37
-54 -7 -18 -21 -43 -31 -56 -10 -13 -18 -30 -18 -37 0 -8 -16 -38 -35 -69 -20
-30 -38 -62 -42 -71 -3 -9 -15 -26 -27 -39 -12 -12 -39 -48 -61 -80 -22 -31
-50 -61 -61 -66 -12 -4 -34 -32 -48 -61 -23 -48 -34 -57 -91 -86 -36 -18 -72
-32 -80 -32 -8 0 -15 -7 -15 -15 0 -8 -3 -15 -7 -15 -13 0 -93 -76 -93 -88 0
-7 -7 -12 -15 -12 -8 0 -15 -7 -15 -15 0 -9 -9 -13 -26 -12 -24 2 -31 -4 -51
-42 -1 -1 -8 1 -15 5 -7 5 -20 9 -28 9 -11 0 -17 18 -23 63 -7 45 -13 62 -24
62 -13 0 -13 3 -2 16 11 13 9 14 -12 9 -18 -4 -30 -1 -39 10 -8 10 -25 21 -38
26 -17 7 -22 14 -17 29 8 24 -20 29 -29 5 -4 -12 -10 -13 -33 -3 -15 7 -39 20
-51 30 -21 15 -26 16 -39 3 -8 -8 -21 -15 -28 -15 -8 0 -21 -13 -30 -30 -10
-19 -20 -27 -30 -24 -8 4 -15 10 -15 14 0 4 -7 25 -16 45 -12 30 -18 35 -25
24 -7 -12 -10 -12 -18 0 -6 10 -13 11 -29 2 -32 -17 -35 -14 -27 25 6 33 4 36
-13 32 -15 -4 -33 9 -71 53 -29 33 -58 59 -66 59 -7 0 -15 7 -19 15 -3 9 -18
15 -40 15 -29 0 -41 -7 -72 -45 -41 -51 -78 -60 -90 -22 -3 12 -13 30 -21 39
-8 9 -12 22 -8 28 4 7 -2 14 -14 17 -12 3 -21 12 -21 20 0 22 -39 73 -56 73
-8 0 -14 5 -14 10 0 6 -9 10 -20 10 -11 0 -20 -5 -20 -11 0 -13 -80 -99 -93
-99 -5 0 -23 -12 -40 -26 -26 -22 -37 -25 -73 -19 -32 4 -50 2 -68 -10 -23
-16 -29 -15 -88 5 -35 12 -67 26 -72 30 -4 5 -23 2 -41 -6 -19 -7 -46 -11 -62
-8 -20 4 -37 -2 -62 -20 -19 -14 -43 -26 -52 -26 -10 0 -21 -5 -24 -10 -4 -6
-27 -9 -52 -7 -43 4 -47 7 -62 43 -28 68 -85 177 -119 226 -17 26 -32 49 -32
53 0 4 -7 13 -15 21 -10 10 -14 32 -13 61 1 33 -3 48 -15 55 -10 5 -17 15 -17
22 0 8 -16 21 -35 30 -27 13 -35 24 -40 54 -4 20 -12 57 -20 82 -7 25 -16 65
-19 90 -3 25 -11 79 -17 120 -12 79 -16 440 -5 525 6 54 23 128 36 160 4 11
17 52 28 90 11 39 27 91 35 118 8 26 11 49 6 52 -9 6 -39 -57 -39 -81 0 -7
-26 11 -57 41 -32 30 -64 55 -70 55 -7 0 -18 9 -25 20 -17 27 -28 25 -28 -4z
m142 -236 c-6 -41 -20 -47 -32 -15 -15 38 -13 45 13 45 20 0 23 -4 19 -30z
m1256 -1749 c9 -5 69 -12 132 -16 63 -3 118 -11 121 -17 8 -12 68 -1 89 17 8
7 25 16 37 19 19 6 24 2 34 -35 8 -25 20 -44 31 -47 37 -9 81 -122 47 -122
-17 0 1 -62 24 -80 16 -14 18 -21 10 -46 -5 -16 -19 -34 -31 -40 -12 -6 -31
-23 -42 -37 -12 -15 -27 -27 -35 -27 -7 0 -18 -6 -24 -14 -10 -12 -8 -13 9 -9
11 3 23 9 26 14 3 5 9 9 14 9 11 0 6 -123 -5 -155 -15 -44 -29 -65 -42 -65 -7
0 -13 -6 -13 -13 0 -8 -9 -22 -21 -33 -12 -10 -27 -31 -35 -46 -10 -19 -25
-29 -49 -34 -19 -3 -39 -12 -46 -20 -15 -18 -74 -18 -102 1 -15 9 -43 13 -85
12 -66 -3 -81 4 -144 66 -18 17 -25 57 -9 57 4 0 26 12 47 26 37 25 42 26 99
16 63 -11 135 -6 135 9 0 5 -4 9 -10 9 -5 0 -10 6 -10 13 0 21 -60 35 -134 31
-45 -2 -78 1 -95 10 -32 17 -97 42 -131 52 -29 7 -168 147 -181 181 -10 27 1
61 29 86 21 19 141 30 165 15 9 -6 8 -8 -2 -8 -11 0 -12 -3 -4 -11 14 -14 42
-5 39 13 -3 22 -17 39 -27 33 -5 -4 -9 1 -9 10 0 9 -10 29 -21 45 -22 30 -22
54 0 113 10 27 11 27 106 27 53 0 104 -4 113 -9z m-1168 -308 c0 -5 -7 -26
-14 -48 -13 -36 -13 -42 4 -57 21 -20 17 -56 -8 -76 -15 -11 -15 -15 1 -41 19
-32 22 -67 7 -76 -5 -3 -10 -1 -10 4 0 6 -4 11 -10 11 -5 0 -10 -11 -10 -24 0
-14 5 -28 10 -31 17 -10 11 -25 -14 -35 -13 -4 -26 -20 -30 -34 -8 -32 -24
-34 -31 -3 -13 49 28 372 51 409 7 10 54 11 54 1z m2310 -228 c0 -24 -5 -35
-15 -35 -15 0 -20 26 -9 54 11 28 24 17 24 -19z m447 14 c61 -26 105 -67 98
-90 -4 -12 4 -25 24 -40 31 -23 47 -58 28 -60 -7 -1 -16 -2 -22 -4 -5 -1 -16
-3 -23 -3 -8 -1 -10 -10 -6 -26 7 -31 -24 -131 -48 -153 -31 -28 -44 -3 -30
54 6 27 14 81 17 120 6 64 4 77 -15 108 -12 19 -23 35 -26 35 -9 0 -44 -81
-44 -102 0 -31 -25 -100 -60 -168 -15 -30 -38 -77 -51 -104 -12 -27 -31 -58
-42 -69 -18 -18 -20 -18 -38 -1 -10 9 -19 23 -19 29 0 7 -6 18 -14 24 -12 10
-6 23 36 79 63 83 102 166 130 279 21 86 33 113 48 113 5 0 30 -9 57 -21z
m-547 -213 c0 -8 -4 -17 -9 -21 -12 -7 -24 12 -16 25 9 15 25 12 25 -4z
m-2244 -91 c-13 -19 -13 -25 -3 -25 7 0 18 5 25 12 9 9 17 6 37 -12 28 -27 31
-46 10 -74 -8 -11 -15 -29 -15 -39 0 -16 -3 -17 -15 -7 -12 10 -16 9 -21 -3
-11 -29 0 -52 27 -55 18 -2 29 -12 37 -37 7 -18 19 -36 27 -39 20 -7 19 -35 0
-42 -8 -4 -22 -1 -29 5 -20 17 -28 -1 -20 -45 7 -40 27 -53 55 -35 17 10 22 6
44 -44 13 -30 29 -55 34 -55 6 0 11 -7 11 -16 0 -9 9 -27 20 -41 11 -14 23
-41 26 -61 4 -21 18 -56 31 -79 12 -23 23 -50 23 -61 0 -10 3 -22 7 -26 9 -9
43 -116 43 -137 0 -9 9 -24 19 -33 15 -14 24 -15 39 -7 11 6 40 12 64 15 23 2
60 11 80 21 35 17 39 17 56 2 27 -25 34 -21 27 13 -6 26 -4 30 15 30 12 0 40
10 61 22 31 17 41 19 54 8 8 -7 15 -23 15 -36 0 -13 4 -24 9 -24 13 0 21 53
10 66 -17 21 41 50 60 31 9 -9 14 -9 19 -1 4 7 23 19 42 28 19 9 53 27 75 41
22 13 49 24 59 24 11 1 27 7 35 15 17 15 37 19 87 17 35 -1 52 -25 33 -47 -13
-16 -8 -66 9 -72 8 -2 12 10 12 42 0 34 4 46 15 46 8 0 15 -6 15 -12 0 -7 8
-1 17 12 10 14 18 30 18 35 0 6 7 10 15 10 19 0 27 -80 9 -101 -13 -16 -33
-19 -23 -3 4 7 -2 6 -17 -1 l-23 -13 22 -8 c29 -11 28 -19 -9 -65 -29 -37 -59
-62 -59 -49 0 3 -12 0 -27 -8 -16 -8 -55 -23 -88 -32 -33 -9 -76 -22 -95 -28
-19 -5 -60 -16 -90 -23 -30 -7 -104 -27 -165 -44 -60 -17 -126 -35 -145 -40
-41 -10 -78 -22 -181 -61 -41 -16 -87 -29 -102 -29 -31 0 -45 23 -71 120 -30
108 -46 149 -116 290 -133 267 -175 412 -195 668 -7 80 -5 89 13 105 12 11 25
16 31 13 5 -4 13 -1 16 5 4 5 9 8 12 5 3 -3 -2 -17 -11 -31z m89 -175 c-3 -5
-11 -10 -16 -10 -6 0 -7 5 -4 10 3 6 11 10 16 10 6 0 7 -4 4 -10z m15 -186 c0
-16 -16 -19 -25 -4 -8 13 4 32 16 25 5 -4 9 -13 9 -21z m137 -86 c-3 -8 -6 -5
-6 6 -1 11 2 17 5 13 3 -3 4 -12 1 -19z m55 -22 c15 -18 29 -43 32 -57 10 -47
67 -194 82 -210 8 -8 14 -25 14 -37 0 -11 5 -24 10 -27 6 -3 10 -18 10 -32 0
-22 3 -24 23 -18 12 4 31 8 42 8 11 1 26 6 33 10 19 12 42 1 42 -21 0 -14 -17
-23 -73 -40 -107 -32 -113 -31 -134 38 -6 19 -23 67 -37 105 -14 39 -26 79
-26 89 0 11 -8 29 -18 40 -30 34 -48 103 -35 137 6 16 7 29 2 29 -5 0 -9 5 -9
10 0 18 14 9 42 -24z m1211 -251 c9 -8 13 -23 10 -34 -5 -20 -87 -70 -98 -59
-10 9 17 62 45 85 30 27 26 26 43 8z m-723 -43 c0 -15 -38 -44 -48 -38 -6 3
-13 -1 -16 -10 -4 -10 -12 -14 -22 -10 -9 4 -22 2 -29 -4 -9 -7 -16 -6 -25 4
-10 13 -7 16 17 22 15 4 39 15 52 26 24 18 71 25 71 10z m-1673 -117 c68 -34
138 -95 163 -145 77 -150 66 -497 -21 -656 -37 -68 -46 -81 -91 -140 -97 -126
-189 -179 -308 -179 -116 1 -186 42 -298 175 -135 160 -148 451 -32 705 62
136 139 199 330 269 8 3 56 4 107 2 76 -3 102 -8 150 -31z m-1118 -189 c-9 -8
-10 -7 -5 7 3 10 7 26 7 35 1 9 4 6 6 -7 3 -13 -1 -28 -8 -35z m428 -1293 c8
-65 20 -171 26 -236 7 -65 17 -117 22 -117 6 0 11 68 13 177 1 105 7 182 13
188 7 7 22 3 47 -11 34 -20 38 -28 49 -85 6 -35 18 -100 27 -144 8 -44 15 -92
16 -107 0 -44 13 -33 40 35 58 147 84 176 125 137 14 -13 25 -31 25 -41 0 -24
-47 -222 -71 -299 -37 -116 -38 -120 -29 -120 5 0 31 33 58 73 26 39 81 120
121 180 39 59 78 107 87 107 8 0 30 -6 48 -14 37 -16 32 16 57 -348 7 -98 16
-178 19 -178 7 0 36 120 45 190 3 25 14 72 25 105 10 33 22 73 27 90 11 38 30
41 68 11 l30 -24 -17 -79 c-9 -43 -19 -85 -22 -94 -5 -12 6 -23 44 -42 29 -15
57 -27 64 -27 7 0 20 30 30 70 27 115 32 123 64 115 15 -3 36 -15 46 -25 19
-19 19 -21 1 -100 -10 -44 -16 -82 -13 -85 3 -3 18 13 33 35 27 40 28 40 91
40 69 0 130 -19 181 -57 46 -33 73 -126 73 -245 0 -49 -5 -99 -11 -111 -16
-31 -61 -77 -75 -77 -6 0 -17 -7 -24 -16 -35 -41 -145 -57 -200 -29 -47 24
-66 63 -84 168 -9 54 -16 109 -16 123 0 47 -17 23 -29 -41 -19 -103 -26 -117
-58 -109 -42 10 -73 32 -73 53 0 10 9 47 20 81 26 81 25 88 -6 100 -15 6 -39
19 -54 30 -31 22 -50 12 -50 -28 0 -41 -22 -114 -37 -119 -7 -3 -29 7 -47 21
-19 14 -38 26 -43 26 -4 1 -21 12 -38 25 -24 20 -32 36 -40 87 l-10 63 -60 22
c-81 30 -88 29 -116 -14 -22 -33 -29 -38 -59 -35 -45 4 -110 64 -110 102 0 14
9 52 21 84 28 82 19 105 -15 34 -33 -71 -44 -78 -67 -47 -14 18 -19 42 -19 99
0 88 -9 150 -21 150 -5 0 -9 -38 -9 -85 0 -83 -1 -85 -24 -85 -22 0 -92 47
-108 73 -4 7 -8 36 -8 65 0 59 -11 86 -40 102 -17 9 -22 7 -30 -15 -11 -30
-25 -32 -39 -7 -11 21 1 111 40 297 27 129 56 106 76 -62z m3264 -29 c15 -19
29 -42 61 -102 l23 -44 -31 -26 c-18 -15 -60 -51 -95 -80 -129 -106 -134 -111
-122 -123 15 -15 40 0 148 97 46 40 89 74 97 74 20 -1 98 -114 98 -143 0 -20
-14 -36 -65 -72 -64 -46 -82 -75 -47 -75 9 0 40 18 69 40 l52 39 50 -67 c55
-73 59 -86 34 -114 -21 -24 -40 -22 -88 7 -77 47 -96 56 -105 50 -19 -12 -10
-30 21 -44 31 -14 66 -72 54 -91 -4 -6 -1 -10 5 -10 7 0 14 9 17 20 7 26 23
25 83 -5 57 -29 70 -48 70 -103 0 -57 -31 -92 -80 -92 -20 0 -43 6 -50 14 -6
8 -24 16 -38 18 -25 3 -27 6 -25 46 l2 44 -24 -16 c-33 -22 -68 -20 -90 4 -10
11 -24 20 -32 20 -7 0 -21 4 -31 9 -9 5 -25 12 -36 15 -15 5 -18 13 -13 46 6
44 2 47 -27 25 -28 -21 -63 -19 -83 5 -10 11 -25 20 -34 20 -27 0 -42 25 -30
49 13 24 -2 37 -19 16 -18 -22 -44 -18 -78 10 -17 14 -39 25 -50 25 -11 0 -22
8 -25 20 -3 13 -14 20 -30 20 -37 0 -87 46 -87 80 0 15 7 33 15 40 8 7 15 22
15 34 0 61 85 64 116 4 10 -19 21 -28 30 -24 20 8 111 -39 124 -63 5 -11 10
-29 10 -40 0 -37 27 -23 34 17 5 29 2 40 -13 52 -28 23 -82 53 -116 66 -51 19
-42 37 57 112 51 39 129 102 173 141 44 38 83 70 86 71 4 0 13 -7 20 -16z
m-2426 -35 c9 -14 -24 -49 -47 -49 -22 0 -23 9 -2 38 16 24 39 29 49 11z
m-922 -307 c9 -10 23 -34 31 -54 9 -21 24 -38 38 -42 13 -3 42 -24 66 -45 l43
-39 10 -148 c5 -81 12 -151 15 -156 16 -25 22 14 17 111 -4 78 -3 110 6 115
18 12 40 -12 47 -53 4 -20 13 -45 20 -55 7 -11 16 -46 20 -78 4 -32 12 -65 19
-74 10 -15 14 -12 33 20 12 20 26 36 31 36 32 0 283 -91 309 -112 15 -13 16
-84 2 -93 -6 -4 -18 -1 -26 6 -25 20 -32 -2 -23 -76 20 -175 5 -221 -53 -157
-27 31 -28 37 -29 135 -1 116 -7 147 -32 159 -9 4 -25 12 -34 17 -10 4 -19 18
-21 30 -2 11 -7 21 -11 21 -4 0 -27 -29 -50 -65 -41 -61 -43 -69 -37 -113 3
-26 7 -56 8 -67 4 -28 -32 -31 -63 -6 -20 16 -25 31 -30 98 -6 80 -29 183 -40
183 -4 0 -9 -35 -11 -77 -3 -56 -1 -82 9 -94 7 -8 13 -34 13 -57 0 -55 31 -91
85 -99 62 -8 70 7 64 125 -1 30 4 52 18 70 26 35 33 36 65 9 23 -19 27 -31 31
-94 4 -63 2 -71 -11 -64 -33 19 -150 -63 -191 -132 -35 -61 -60 -86 -107 -107
-55 -24 -81 -62 -68 -98 10 -30 44 -43 44 -18 0 9 13 30 29 48 29 32 30 33 63
19 18 -8 58 -16 88 -18 85 -6 99 -11 120 -46 32 -53 27 -75 -25 -97 -49 -21
-62 -46 -51 -103 9 -48 26 -67 68 -73 51 -9 88 28 88 85 0 53 7 69 41 86 38
20 67 19 72 -2 3 -10 8 -60 12 -111 5 -76 4 -97 -9 -117 -25 -39 -115 -105
-142 -105 -15 0 -42 16 -69 41 -38 35 -48 40 -75 34 -17 -4 -48 -21 -67 -38
-31 -27 -44 -32 -85 -30 l-48 1 0 -33 c0 -45 -42 -95 -79 -95 -59 0 -70 61
-21 117 24 27 28 38 20 48 -27 32 -80 -30 -80 -93 0 -12 -9 -45 -20 -73 -13
-31 -20 -69 -18 -93 3 -39 5 -41 44 -48 38 -6 126 -52 167 -86 35 -31 20 -79
-48 -153 -24 -25 -53 -66 -65 -90 -30 -60 -49 -79 -77 -79 -25 0 -43 31 -43
74 0 13 -7 29 -15 36 -14 11 -23 7 -60 -30 -27 -27 -51 -62 -60 -89 -18 -57
-22 -148 -7 -163 20 -20 14 -36 -27 -81 -48 -52 -58 -95 -36 -160 19 -55 14
-67 -25 -67 -20 0 -37 -10 -59 -37 -63 -75 -63 -75 -109 -69 -46 6 -69 -2
-115 -40 -27 -22 -30 -23 -58 -9 -33 17 -36 27 -14 45 8 7 13 16 10 20 -3 5
-2 10 3 12 4 1 18 23 30 47 18 39 21 56 16 125 -3 45 -6 99 -7 121 -2 22 2 63
9 90 6 28 9 82 7 120 -2 39 -4 82 -4 97 0 34 45 166 77 226 13 25 24 59 24 76
0 19 14 54 34 86 37 59 86 155 134 263 17 37 35 67 39 67 40 0 44 -80 7 -134
-24 -35 -27 -49 -29 -143 -3 -122 5 -129 70 -58 49 52 100 152 110 215 4 24
13 54 20 65 11 19 44 123 95 305 12 41 28 92 36 114 12 31 13 49 4 90 -17 81
-21 324 -6 339 7 7 23 45 36 86 l22 73 30 -52 c40 -70 58 -53 23 21 -35 73
-48 96 -74 123 -11 12 -21 35 -21 50 0 25 3 27 25 22 38 -10 32 18 -14 62 -42
39 -59 76 -41 87 6 4 20 -1 30 -10 34 -30 30 1 -5 35 -31 30 -55 34 -55 8 0
-6 -7 -19 -16 -29 -21 -23 -13 -44 23 -61 22 -10 29 -21 31 -51 3 -40 -17 -59
-42 -38 -23 19 -73 134 -80 183 -6 43 -5 48 19 64 l25 17 -35 34 c-37 36 -42
52 -23 71 17 17 32 15 51 -6z m998 -9 c63 -34 93 -77 74 -107 -7 -12 -18 -45
-25 -73 -10 -45 -15 -53 -35 -53 -31 0 -37 23 -24 91 15 75 6 122 -29 148 -38
29 -19 26 39 -6z m296 -153 c24 -51 16 -64 -35 -58 -23 3 -28 8 -32 43 -3 22
-9 46 -14 53 -6 10 0 13 25 10 29 -3 37 -10 56 -48z m-707 -153 c53 -19 58
-24 65 -70 10 -60 17 -70 90 -122 61 -43 74 -65 39 -65 -8 0 -14 -8 -14 -17 0
-13 -7 -9 -27 14 -32 37 -122 88 -173 97 -19 4 -63 17 -97 28 -51 18 -67 19
-88 10 -21 -10 -26 -9 -33 6 -18 34 -21 69 -9 86 11 15 15 15 52 -4 54 -27 69
-25 113 15 43 40 37 38 82 22z m1009 -52 c27 -31 31 -43 31 -95 0 -72 19 -160
35 -160 7 0 15 25 19 62 8 84 21 96 75 69 24 -13 41 -28 41 -39 0 -9 -14 -60
-30 -112 -32 -103 -34 -110 -22 -110 4 0 15 21 26 46 40 98 129 160 218 152
71 -7 123 -64 167 -185 27 -72 44 -84 30 -21 -12 49 1 70 29 50 9 -7 26 -16
37 -21 12 -5 26 -15 32 -23 13 -15 33 -124 33 -180 0 -25 5 -38 14 -38 7 0 42
36 77 81 l64 81 48 -5 c96 -9 91 -24 -57 -194 -103 -118 -107 -125 -117 -185
-12 -73 -21 -87 -45 -67 -9 7 -26 18 -38 24 -19 10 -21 19 -22 110 0 106 -21
255 -36 255 -4 0 -8 -27 -8 -60 0 -73 -17 -117 -58 -152 -47 -40 -119 -31
-236 28 -50 25 -102 56 -115 68 -33 30 -51 77 -51 136 0 79 -16 59 -35 -44 -9
-52 -22 -100 -29 -105 -9 -8 -21 -2 -45 23 l-32 33 16 72 c10 40 14 75 11 79
-4 3 -24 -11 -45 -32 -31 -30 -45 -37 -63 -32 -37 9 -90 46 -85 59 2 6 34 32
70 57 95 65 100 71 87 104 -5 15 -10 48 -10 74 0 26 -9 84 -20 130 -11 46 -20
87 -20 93 0 20 30 7 59 -26z m-635 -110 c0 -22 -4 -61 -9 -87 -7 -45 -6 -48
26 -78 32 -30 37 -31 92 -26 31 3 57 2 57 -3 0 -10 -24 -21 -47 -21 -8 0 -28
-11 -45 -25 -54 -46 -87 -30 -144 70 -15 28 -35 56 -44 63 -13 11 -13 14 -1
19 31 13 58 51 65 92 6 36 10 42 29 39 19 -3 22 -9 21 -43z m966 -18 l34 -21
-29 -6 c-17 -4 -40 -12 -52 -18 -33 -18 -39 -15 -61 27 -15 29 -18 41 -9 45
21 8 81 -6 117 -27z m-1214 -256 c-2 -66 -16 -79 -16 -14 0 41 5 63 15 63 1 0
1 -22 1 -49z m1942 -51 c15 -16 35 -30 45 -30 11 0 35 -13 54 -30 18 -16 39
-30 45 -30 7 0 24 -11 38 -26 35 -35 132 -114 141 -114 4 0 30 -29 58 -65 43
-54 56 -65 82 -65 36 0 84 -23 92 -45 4 -8 16 -15 27 -15 27 0 61 -18 77 -40
14 -20 108 -24 132 -6 8 6 35 12 60 13 25 2 62 4 81 5 45 4 53 -13 15 -31 -17
-8 -34 -20 -40 -26 -5 -6 -34 -31 -63 -54 -29 -24 -68 -67 -88 -97 -31 -46
-39 -53 -60 -48 -19 5 -24 2 -24 -12 1 -31 30 -59 114 -110 43 -26 81 -55 84
-66 2 -10 8 -18 12 -18 4 0 15 -18 25 -40 24 -53 10 -72 -33 -42 -17 13 -37
19 -50 15 -12 -3 -36 0 -54 6 -29 11 -35 10 -47 -9 -17 -26 -53 -26 -76 0 -10
12 -25 18 -33 15 -9 -3 -27 6 -43 21 -16 15 -37 28 -46 29 -32 2 -59 23 -88
67 -16 24 -51 71 -77 105 -26 35 -48 65 -48 68 0 4 -11 21 -25 39 -14 18 -25
35 -25 38 0 3 -18 35 -40 69 -22 35 -45 75 -51 89 -27 61 -32 69 -39 65 -4 -2
-20 9 -35 25 -25 26 -27 32 -16 53 10 20 9 29 -14 67 -24 40 -26 42 -20 15 3
-16 7 -37 8 -45 1 -8 -15 -23 -36 -35 -44 -24 -52 -41 -52 -115 0 -52 -1 -55
-25 -55 -17 0 -32 12 -51 40 -16 24 -50 52 -82 70 l-55 31 76 89 c43 50 88
105 100 123 13 17 30 32 38 32 12 0 10 8 -6 41 -35 67 -9 93 38 39z m-229 -7
c-51 -69 -79 -84 -79 -44 0 28 35 53 84 60 5 0 2 -7 -5 -16z m-1099 -21 c63 2
80 0 102 -17 14 -11 33 -24 42 -30 13 -8 14 -16 6 -46 -14 -50 -34 -345 -33
-504 0 -93 5 -146 17 -185 13 -43 15 -74 10 -145 -8 -106 -22 -147 -61 -171
-15 -10 -47 -35 -70 -56 -24 -21 -47 -38 -52 -38 -5 0 -31 9 -57 20 -32 14
-64 20 -97 18 -68 -4 -78 -22 -47 -80 21 -41 22 -49 12 -107 -6 -35 -19 -72
-28 -82 -25 -28 -53 -24 -65 9 -11 29 -7 151 8 217 5 22 6 53 2 68 -8 28 10
187 36 332 8 44 19 130 25 190 5 61 18 146 30 189 11 44 20 89 20 100 0 12 9
50 20 84 13 42 20 92 20 147 0 114 2 119 48 99 26 -11 60 -14 112 -12z m-1779
-609 c-18 -35 -128 -269 -156 -335 -16 -37 -30 -66 -31 -65 -6 6 19 123 26
125 6 2 10 12 10 23 0 10 5 19 10 19 6 0 10 6 10 14 0 7 6 19 14 25 7 6 16 25
20 42 9 48 36 101 70 137 34 36 41 40 27 15z m1044 -274 c12 -38 -45 -70 -59
-33 -9 23 -8 31 9 48 19 18 42 11 50 -15z m4335 -467 c0 -13 -9 -35 -20 -49
-11 -14 -20 -34 -20 -44 0 -13 -7 -19 -21 -19 -18 0 -20 4 -14 23 4 12 9 36
11 52 10 63 15 74 32 77 21 5 32 -9 32 -40z m-89 -176 c-12 -12 -21 -30 -21
-39 0 -10 -7 -20 -15 -23 -8 -3 -28 -30 -45 -59 -33 -57 -68 -84 -56 -43 4 13
9 35 11 50 8 54 46 108 93 132 17 9 32 22 32 29 0 6 5 4 11 -6 9 -15 6 -23
-10 -41z m-3773 -163 c3 -22 -22 -48 -38 -38 -14 8 -13 38 2 53 16 16 32 10
36 -15z m370 -7 c5 -45 -6 -76 -28 -76 -31 0 -65 82 -43 104 4 4 21 6 38 4 25
-2 31 -8 33 -32z m-2083 -836 c3 -5 3 -15 -1 -21 -6 -11 -23 6 -24 24 0 10 18
9 25 -3z"></path>
<path d="M4330 7040 c0 -5 5 -10 10 -10 6 0 10 5 10 10 0 6 -4 10 -10 10 -5 0
-10 -4 -10 -10z"></path>
<path d="M4410 6750 c0 -5 5 -10 11 -10 5 0 7 5 4 10 -3 6 -8 10 -11 10 -2 0
-4 -4 -4 -10z"></path>
<path d="M3039 6470 c-7 -60 -7 -90 1 -90 14 0 24 70 11 83 -6 6 -11 9 -12 7z"></path>
<path d="M3107 6043 c-9 -17 24 -73 43 -73 25 0 25 5 0 30 -11 11 -20 27 -20
35 0 16 -16 21 -23 8z"></path>
<path d="M4132 5770 c-9 -15 -9 -25 0 -45 16 -36 23 -31 24 20 1 49 -5 55 -24
25z"></path>
<path d="M3256 5748 c8 -27 12 -33 19 -27 7 8 -7 49 -17 49 -5 0 -6 -10 -2
-22z"></path>
<path d="M1860 5591 c-49 -10 -138 -55 -181 -90 -58 -48 -107 -131 -145 -248
-27 -80 -36 -125 -36 -173 0 -151 17 -221 76 -319 72 -117 165 -181 277 -189
55 -4 74 0 120 21 73 34 127 82 181 164 88 131 123 237 134 404 10 161 -17
261 -95 342 -74 78 -206 113 -331 88z m135 -25 c19 -14 19 -15 2 -33 -22 -25
-22 -33 3 -33 11 0 29 14 42 30 12 17 25 30 30 30 17 0 7 -46 -16 -75 -22 -27
-26 -29 -49 -16 -25 13 -47 9 -47 -10 0 -5 11 -9 25 -9 37 0 126 -77 155 -135
21 -42 25 -64 25 -137 0 -49 2 -88 5 -88 3 0 11 9 18 20 15 24 57 27 66 4 10
-27 7 -59 -10 -82 -19 -27 -38 -28 -64 -2 -26 26 -30 25 -30 -7 0 -16 -11 -52
-25 -80 l-24 -53 23 15 c21 14 24 13 41 -5 22 -24 14 -79 -15 -105 -19 -17
-21 -17 -40 0 -11 10 -20 29 -20 42 0 32 -8 29 -47 -17 -53 -61 -116 -94 -183
-95 -140 0 -244 118 -257 292 -3 40 -8 73 -11 73 -3 0 -11 -8 -18 -17 -19 -26
-48 -5 -52 36 -5 51 49 97 64 56 10 -26 20 -17 31 28 6 23 14 52 18 64 6 17 2
22 -17 25 -31 4 -37 55 -10 88 22 27 52 22 52 -9 0 -36 18 -32 64 16 28 30 41
52 36 58 -12 15 14 99 31 103 16 3 55 -55 44 -66 -3 -4 -14 -7 -23 -7 -9 0
-17 -6 -17 -12 0 -15 3 -15 45 -7 29 6 38 18 22 28 -5 3 -7 24 -6 48 1 39 4
43 29 46 l28 4 -5 -56 c-4 -46 -2 -56 11 -56 12 0 16 10 16 43 0 40 17 77 34
77 4 0 16 -6 26 -14z m143 -48 c16 -16 15 -43 -3 -58 -8 -7 -15 -17 -15 -23 0
-6 11 0 24 13 29 26 51 22 68 -15 10 -22 8 -29 -11 -49 -18 -19 -20 -27 -11
-51 9 -22 13 -25 25 -15 9 8 13 21 9 36 -7 26 5 31 24 12 29 -29 -1 -98 -43
-98 -25 0 -45 25 -45 58 0 10 -11 29 -25 42 -14 13 -25 29 -25 37 0 7 -6 13
-14 13 -20 0 -40 26 -26 35 6 3 17 22 25 41 15 36 24 41 43 22z m-539 -630
c11 -23 18 -45 15 -49 -2 -4 9 -17 26 -29 33 -24 41 -66 14 -77 -23 -9 -55 34
-88 117 -3 8 -11 22 -18 32 -9 13 -9 20 1 32 20 24 27 20 50 -26z m155 -179
c21 -17 41 -21 91 -21 73 1 102 7 128 30 21 19 34 8 39 -33 2 -21 -1 -29 -11
-27 -7 2 -22 -5 -32 -14 -29 -26 -155 -29 -210 -5 -71 31 -84 44 -70 69 15 28
31 28 65 1z"></path>
<path d="M1864 5345 c-4 -8 -2 -21 3 -28 8 -10 10 -48 4 -86 0 -5 -10 -11 -21
-14 -17 -4 -19 -11 -14 -31 6 -27 -14 -73 -54 -117 -13 -14 -22 -32 -20 -39 2
-8 -9 -20 -23 -27 -21 -10 -28 -23 -34 -60 -6 -41 -4 -50 15 -65 12 -10 26
-18 31 -18 14 0 10 26 -6 40 -22 19 -18 35 16 64 37 31 45 32 59 5 8 -15 8
-24 0 -34 -20 -25 -8 -86 23 -108 22 -17 29 -19 40 -8 10 10 8 16 -10 28 -25
17 -33 76 -12 89 10 6 9 23 -7 102 -4 21 -2 32 5 32 14 0 81 -66 81 -80 0 -16
15 -12 36 11 19 21 19 21 -7 42 -54 46 -73 106 -29 92 10 -3 21 -1 25 5 4 6
19 9 34 5 32 -7 46 6 55 52 4 17 18 39 32 48 34 22 29 59 -8 63 -32 4 -52 -25
-43 -61 8 -31 -24 -60 -62 -55 -25 3 -28 6 -26 38 3 42 3 56 2 73 0 6 3 22 6
35 6 18 3 22 -13 22 -11 0 -27 -10 -35 -22 l-16 -23 0 23 c-1 25 -19 30 -27 7z"></path>
<path d="M1767 5309 c-16 -9 -18 -19 -12 -60 6 -40 4 -49 -8 -49 -27 0 -29
-20 -5 -39 15 -13 27 -16 34 -10 18 15 23 58 11 89 -9 24 -8 32 6 48 25 28 8
41 -26 21z"></path>
<path d="M1710 5105 c-15 -18 -10 -45 12 -59 22 -13 35 -1 18 19 -7 8 -10 24
-7 35 6 23 -5 26 -23 5z"></path>
<path d="M1912 4896 c-13 -31 -8 -46 9 -29 6 6 9 21 7 34 -4 24 -5 23 -16 -5z"></path>
<path d="M1370 4053 c0 -5 4 -15 10 -23 11 -18 25 -7 17 15 -6 15 -27 21 -27
8z"></path>
<path d="M1961 3651 c-27 -37 -27 -38 8 -56 36 -18 43 -9 35 44 -8 49 -16 51
-43 12z"></path>
<path d="M2569 3368 c-18 -34 -22 -156 -7 -208 11 -36 21 -49 49 -63 53 -26
94 -14 151 45 45 46 48 53 48 101 0 98 -56 147 -169 147 -52 0 -62 -3 -72 -22z
m151 -28 c73 -37 78 -123 9 -184 -46 -43 -80 -46 -114 -11 -22 21 -25 33 -25
97 0 116 38 145 130 98z"></path>
<path d="M4270 3696 c0 -9 5 -16 10 -16 6 0 10 4 10 9 0 6 -4 13 -10 16 -5 3
-10 -1 -10 -9z"></path>
<path d="M4535 3690 c-8 -13 3 -30 19 -30 28 0 66 -48 66 -85 0 -47 14 -44 30
6 17 49 9 65 -46 96 -43 25 -60 28 -69 13z"></path>
<path d="M4344 3676 c-10 -26 4 -48 28 -44 17 2 23 10 23 28 0 18 -6 26 -23
28 -13 2 -25 -3 -28 -12z"></path>
<path d="M4510 3595 c-24 -29 8 -75 44 -62 30 12 14 77 -20 77 -6 0 -17 -7
-24 -15z"></path>
<path d="M4695 3587 c-4 -10 -5 -21 -1 -24 10 -10 18 4 13 24 -4 17 -4 17 -12
0z"></path>
<path d="M4660 3474 c0 -8 5 -12 10 -9 6 3 10 10 10 16 0 5 -4 9 -10 9 -5 0
-10 -7 -10 -16z"></path>
<path d="M4723 3464 c-9 -24 10 -49 38 -49 27 0 37 28 19 50 -17 20 -49 19
-57 -1z"></path>
<path d="M4902 3378 c-17 -17 -15 -32 6 -51 39 -36 75 -9 54 39 -12 26 -40 32
-60 12z"></path>
<path d="M1087 1893 c-13 -12 -7 -23 13 -23 11 0 20 7 20 15 0 15 -21 21 -33
8z"></path>
<path d="M3246 3079 c-29 -22 -66 -91 -66 -121 0 -47 58 -111 137 -152 78 -40
133 -4 133 87 0 39 -8 64 -35 113 -20 35 -45 70 -58 79 -30 21 -80 19 -111 -6z
m121 -67 c40 -52 42 -65 7 -52 -14 6 -35 10 -46 10 -11 0 -27 8 -35 18 -13 15
-14 14 -9 -15 14 -78 19 -99 30 -112 18 -23 -26 3 -62 38 -44 41 -43 82 3 128
44 44 69 41 112 -15z m33 -167 c-7 -8 -22 -14 -34 -14 -20 1 -20 2 -1 6 11 3
24 9 30 14 15 14 19 10 5 -6z"></path>
<path d="M3530 2941 c0 -12 5 -21 10 -21 6 0 10 6 10 14 0 8 -4 18 -10 21 -5
3 -10 -3 -10 -14z"></path>
<path d="M3975 2870 c3 -5 11 -10 16 -10 6 0 7 5 4 10 -3 6 -11 10 -16 10 -6
0 -7 -4 -4 -10z"></path>
<path d="M4100 2631 c0 -6 5 -13 10 -16 6 -3 10 1 10 9 0 9 -4 16 -10 16 -5 0
-10 -4 -10 -9z"></path>
<path d="M4625 2480 c3 -5 8 -10 11 -10 2 0 4 5 4 10 0 6 -5 10 -11 10 -5 0
-7 -4 -4 -10z"></path>
<path d="M4746 2092 c-3 -6 -1 -14 5 -17 15 -10 25 3 12 16 -7 7 -13 7 -17 1z"></path>
<path d="M3794 9199 c-7 -11 7 -60 24 -87 8 -12 35 -36 60 -53 37 -25 53 -30
81 -25 58 9 124 90 83 102 -9 3 -28 11 -42 19 -55 29 -196 59 -206 44z"></path>
<path d="M3495 9040 c-38 -4 -78 -10 -87 -14 -10 -3 -25 -8 -33 -11 -11 -3
-12 -10 -4 -34 8 -24 7 -35 -5 -53 -24 -34 -21 -58 9 -58 18 0 31 -9 44 -32
46 -78 96 -128 149 -148 59 -22 174 -35 200 -22 9 5 42 12 73 15 47 4 57 2 68
-14 6 -11 8 -25 4 -32 -12 -19 -33 -80 -33 -99 0 -10 10 -27 23 -38 18 -17 30
-20 61 -15 90 14 141 63 151 144 3 31 13 80 22 109 13 48 13 55 -4 90 -15 30
-33 45 -102 79 -46 23 -89 50 -95 59 -9 11 -30 17 -68 19 -30 1 -64 8 -76 14
-11 6 -36 11 -55 11 -18 0 -37 3 -41 7 -9 9 -96 32 -116 31 -8 0 -46 -4 -85
-8z m93 -137 c5 -10 12 -38 15 -62 3 -27 15 -53 31 -70 32 -33 33 -51 4 -44
-44 10 -83 32 -114 65 -61 64 -72 114 -26 121 61 9 81 7 90 -10z m242 -60 c0
-18 -29 -16 -36 2 -4 8 -3 23 1 33 6 16 7 16 21 -2 8 -11 14 -26 14 -33z m-70
21 c0 -8 -5 -12 -10 -9 -6 4 -8 11 -5 16 9 14 15 11 15 -7z m159 -40 c24 -31
27 -62 8 -88 -10 -14 -32 -20 -85 -24 -43 -3 -72 -1 -72 5 0 5 18 24 40 42 22
17 40 37 40 43 0 13 30 48 41 48 4 0 17 -12 28 -26z"></path>
<path d="M6336 9039 c20 -36 160 -176 168 -168 3 3 -36 45 -86 95 -50 49 -87
82 -82 73z"></path>
<path d="M2830 8950 c0 -5 7 -10 16 -10 8 0 12 5 9 10 -3 6 -10 10 -16 10 -5
0 -9 -4 -9 -10z"></path>
<path d="M6575 8800 c10 -11 23 -20 28 -20 6 0 2 9 -8 20 -10 11 -23 20 -28
20 -6 0 -2 -9 8 -20z"></path>
<path d="M2826 8772 c-3 -6 -1 -14 5 -17 15 -10 25 3 12 16 -7 7 -13 7 -17 1z"></path>
<path d="M6630 8763 c1 -5 27 -28 60 -52 125 -94 170 -161 107 -161 -13 0
-108 25 -213 56 -220 65 -264 73 -283 50 -8 -9 -21 -16 -31 -16 -20 0 -44 -37
-118 -185 -81 -163 -85 -173 -78 -201 10 -37 30 -24 38 25 9 55 93 227 131
269 10 10 17 23 17 29 0 6 14 26 31 44 l31 33 61 -17 c34 -9 94 -26 132 -37
39 -12 86 -25 105 -30 19 -5 61 -16 93 -25 32 -9 77 -15 100 -13 66 5 62 32
-15 107 -35 33 -66 61 -69 61 -3 0 -22 16 -42 35 -34 33 -58 44 -57 28z"></path>
<path d="M5105 8739 c-45 -11 -135 -72 -135 -93 0 -24 59 -28 86 -7 46 36 78
6 67 -64 -6 -40 27 -102 62 -115 26 -10 79 -6 117 9 23 9 27 16 25 40 -2 17
-9 37 -16 45 -16 19 -10 51 8 51 17 0 33 -51 26 -82 -3 -13 -1 -23 4 -23 17 0
33 30 27 53 -4 17 0 30 14 42 11 10 20 26 20 36 0 22 -37 49 -66 49 -12 0 -24
7 -28 15 -3 8 -12 15 -21 15 -8 0 -15 6 -15 14 0 8 -7 17 -16 20 -22 9 -112 6
-159 -5z m172 -145 c4 -15 -14 -37 -25 -30 -13 8 -3 48 11 43 6 -2 12 -7 14
-13z"></path>
<path d="M5424 8619 c-5 -8 8 -26 34 -49 23 -19 42 -41 42 -47 0 -19 -86 -70
-158 -93 -23 -7 -41 -18 -39 -24 7 -21 128 5 180 39 24 15 67 87 67 111 0 14
-59 56 -97 68 -13 4 -24 2 -29 -5z"></path>
<path d="M2737 8598 c-7 -23 -1 -38 14 -38 5 0 9 14 9 30 0 35 -15 40 -23 8z"></path>
<path d="M4960 8610 c0 -5 5 -10 11 -10 5 0 7 5 4 10 -3 6 -8 10 -11 10 -2 0
-4 -4 -4 -10z"></path>
<path d="M5595 8610 c3 -5 10 -10 16 -10 5 0 9 5 9 10 0 6 -7 10 -16 10 -8 0
-12 -4 -9 -10z"></path>
<path d="M6110 8605 c0 -8 5 -15 10 -15 6 0 10 7 10 15 0 8 -4 15 -10 15 -5 0
-10 -7 -10 -15z"></path>
<path d="M4870 8536 c0 -9 5 -16 10 -16 6 0 10 4 10 9 0 6 -4 13 -10 16 -5 3
-10 -1 -10 -9z"></path>
<path d="M4938 8523 c-16 -2 -28 -10 -28 -17 0 -17 29 -42 58 -51 12 -3 34
-17 48 -30 20 -19 33 -22 67 -18 23 2 54 8 69 13 21 7 26 6 21 -6 -6 -16 14
-18 37 -4 13 8 12 11 -5 24 -11 8 -23 12 -27 9 -9 -5 -78 17 -92 29 -6 4 -17
8 -26 8 -9 0 -31 11 -50 25 -19 14 -36 24 -39 24 -3 -1 -18 -4 -33 -6z"></path>
<path d="M5620 8514 c0 -8 5 -12 10 -9 6 4 8 11 5 16 -9 14 -15 11 -15 -7z"></path>
<path d="M2792 8454 c-21 -14 -31 -54 -14 -54 5 0 19 11 32 25 29 31 16 53
-18 29z"></path>
<path d="M5220 8333 c0 -9 64 -33 89 -33 22 0 2 17 -26 23 -16 3 -36 9 -45 12
-10 4 -18 3 -18 -2z"></path>
<path d="M6080 8180 c0 -5 5 -10 10 -10 6 0 10 5 10 10 0 6 -4 10 -10 10 -5 0
-10 -4 -10 -10z"></path>
<path d="M2667 8143 c-11 -10 -8 -43 3 -43 15 0 24 30 13 41 -5 5 -12 6 -16 2z"></path>
<path d="M3946 8081 c-32 -33 -29 -42 25 -89 36 -31 61 -38 93 -26 22 8 20 63
-2 89 -15 17 -73 55 -84 55 -2 0 -17 -13 -32 -29z"></path>
<path d="M3786 7999 c-14 -17 -26 -34 -26 -39 0 -5 -3 -15 -6 -24 -3 -9 -1
-16 5 -16 6 0 11 6 11 14 0 7 14 30 30 51 33 41 34 45 21 45 -5 0 -21 -14 -35
-31z"></path>
<path d="M3890 7996 c0 -9 5 -16 10 -16 6 0 10 4 10 9 0 6 -4 13 -10 16 -5 3
-10 -1 -10 -9z"></path>
<path d="M3750 7880 c0 -5 5 -10 10 -10 6 0 10 5 10 10 0 6 -4 10 -10 10 -5 0
-10 -4 -10 -10z"></path>
<path d="M3920 7802 c0 -8 93 -53 98 -47 2 2 1 8 -2 13 -7 12 -96 43 -96 34z"></path>
<path d="M5947 7773 c-4 -3 -7 -15 -7 -25 0 -26 24 -17 28 10 3 21 -8 29 -21
15z"></path>
<path d="M6986 7759 c-7 -18 -26 -138 -26 -161 0 -10 4 -18 9 -18 9 0 36 178
27 187 -3 3 -8 0 -10 -8z"></path>
<path d="M4650 7695 c-12 -15 -11 -19 10 -36 24 -19 25 -20 6 -34 -31 -24 -15
-25 49 -4 69 23 96 42 51 37 -25 -2 -31 1 -36 22 -7 31 -59 40 -80 15z"></path>
<path d="M5915 7539 c-19 -35 -10 -54 11 -25 13 19 20 56 9 56 -2 0 -12 -14
-20 -31z"></path>
<path d="M6960 7555 c0 -8 5 -15 10 -15 6 0 10 7 10 15 0 8 -4 15 -10 15 -5 0
-10 -7 -10 -15z"></path>
<path d="M5870 7400 c0 -11 5 -20 10 -20 6 0 10 9 10 20 0 11 -4 20 -10 20 -5
0 -10 -9 -10 -20z"></path>
<path d="M6890 7340 c0 -5 5 -10 10 -10 6 0 10 5 10 10 0 6 -4 10 -10 10 -5 0
-10 -4 -10 -10z"></path>
<path d="M6880 7300 c0 -5 5 -10 10 -10 6 0 10 5 10 10 0 6 -4 10 -10 10 -5 0
-10 -4 -10 -10z"></path>
<path d="M6870 7239 c0 -11 5 -17 10 -14 6 3 10 13 10 21 0 8 -4 14 -10 14 -5
0 -10 -9 -10 -21z"></path>
<path d="M2853 7220 c-30 -12 -29 -18 3 -30 29 -12 64 2 64 25 0 17 -32 19
-67 5z"></path>
<path d="M6850 7175 c0 -8 5 -15 10 -15 6 0 10 7 10 15 0 8 -4 15 -10 15 -5 0
-10 -7 -10 -15z"></path>
<path d="M2515 7167 c-18 -14 -18 -17 -4 -34 9 -10 19 -26 22 -36 9 -25 -30
-98 -89 -167 -12 -14 -25 -38 -28 -55 -4 -16 -13 -37 -20 -45 -7 -8 -23 -44
-37 -80 -13 -36 -34 -85 -48 -109 -23 -41 -25 -43 -38 -25 -8 10 -13 37 -12
59 3 50 -5 65 -36 65 -38 0 -61 -40 -68 -118 -3 -38 -17 -103 -30 -143 -14
-41 -23 -77 -20 -81 10 -17 24 -6 63 48 48 64 69 75 123 61 50 -13 81 3 114
61 29 50 61 152 72 229 7 55 33 93 62 93 36 0 84 65 114 155 15 47 32 85 36
85 11 0 12 27 1 34 -5 3 -42 8 -83 11 -58 5 -78 3 -94 -8z"></path>
<path d="M5685 7149 c-4 -6 -5 -13 -2 -16 7 -7 27 6 27 18 0 12 -17 12 -25 -2z"></path>
<path d="M1815 7110 c-3 -5 -14 -10 -24 -10 -26 0 -119 -50 -185 -100 -32 -25
-73 -53 -90 -63 -69 -40 -124 -130 -178 -290 -21 -63 -31 -115 -33 -164 -2
-78 10 -98 21 -35 35 204 85 347 144 414 52 59 193 155 293 198 44 20 82 41
85 48 4 14 -24 16 -33 2z"></path>
<path d="M5610 7099 c0 -5 5 -7 10 -4 6 3 10 8 10 11 0 2 -4 4 -10 4 -5 0 -10
-5 -10 -11z"></path>
<path d="M6830 7070 c0 -5 5 -10 10 -10 6 0 10 5 10 10 0 6 -4 10 -10 10 -5 0
-10 -4 -10 -10z"></path>
<path d="M2763 7052 c-13 -9 -53 -96 -53 -117 0 -8 -4 -23 -10 -33 -5 -9 -15
-33 -23 -52 -8 -19 -22 -54 -32 -78 -18 -42 -18 -43 2 -70 27 -36 66 -40 87
-10 63 89 64 92 69 207 3 61 3 120 0 130 -6 22 -25 32 -40 23z"></path>
<path d="M6810 6975 c-7 -36 -10 -69 -6 -72 10 -10 18 3 20 34 2 15 6 45 11
66 4 23 3 37 -3 37 -5 0 -15 -29 -22 -65z"></path>
<path d="M5485 6930 c4 -6 11 -8 16 -5 14 9 11 15 -7 15 -8 0 -12 -5 -9 -10z"></path>
<path d="M6786 6854 c-6 -24 -2 -44 8 -33 9 11 15 59 7 59 -5 0 -12 -12 -15
-26z"></path>
<path d="M6774 6797 c-9 -25 0 -51 19 -55 12 -3 17 3 17 21 0 31 -27 57 -36
34z"></path>
<path d="M6750 6705 c0 -8 5 -15 10 -15 6 0 10 7 10 15 0 8 -4 15 -10 15 -5 0
-10 -7 -10 -15z"></path>
<path d="M6735 6633 c-3 -21 -9 -48 -12 -60 -4 -17 -1 -23 11 -23 12 0 16 10
16 38 0 20 3 47 6 60 4 12 2 22 -4 22 -5 0 -13 -17 -17 -37z"></path>
<path d="M6710 6495 c0 -9 9 -15 25 -15 28 0 34 15 9 24 -25 10 -34 7 -34 -9z"></path>
<path d="M6710 6386 c0 -14 5 -26 10 -26 6 0 10 9 10 19 0 11 -4 23 -10 26 -6
4 -10 -5 -10 -19z"></path>
<path d="M5090 6280 c0 -5 5 -10 10 -10 6 0 10 5 10 10 0 6 -4 10 -10 10 -5 0
-10 -4 -10 -10z"></path>
<path d="M1280 6230 c0 -5 5 -10 11 -10 5 0 7 5 4 10 -3 6 -8 10 -11 10 -2 0
-4 -4 -4 -10z"></path>
<path d="M799 4263 c-59 -130 -66 -148 -79 -188 -7 -22 -16 -44 -20 -50 -4 -5
-22 -48 -40 -95 -17 -47 -43 -108 -56 -136 -42 -89 -137 -422 -150 -526 -4
-29 -10 -57 -14 -63 -4 -5 -13 -44 -19 -85 -7 -41 -16 -86 -21 -100 -4 -14
-18 -68 -30 -120 -12 -52 -25 -104 -30 -115 -5 -11 -11 -36 -15 -55 -3 -19 -7
-46 -10 -60 -9 -58 -177 -645 -203 -710 -24 -63 -84 -292 -77 -298 12 -12 25
20 80 203 148 494 213 729 266 965 17 74 37 158 44 185 7 28 23 97 35 155 12
58 26 121 31 140 5 19 20 82 34 140 32 134 73 261 120 375 21 50 45 110 54
135 9 25 22 54 27 65 6 11 21 47 33 80 13 33 27 69 32 80 49 114 57 135 48
140 -5 4 -23 -24 -40 -62z"></path>
<path d="M490 936 c0 -15 29 -55 34 -47 8 13 -11 51 -24 51 -6 0 -10 -2 -10
-4z"></path>
<path d="M5906 874 c-9 -24 -7 -96 3 -90 5 3 12 22 15 42 4 19 10 42 13 50 3
8 -1 14 -10 14 -8 0 -18 -7 -21 -16z"></path>
<path d="M500 834 c0 -15 22 -44 30 -39 6 4 5 14 -3 25 -11 19 -27 27 -27 14z"></path>
<path d="M3304 445 c-8 -21 14 -45 41 -45 27 0 36 17 23 43 -11 21 -56 23 -64
2z"></path>
<path d="M3796 358 c-8 -13 -22 -39 -30 -59 -8 -20 -37 -55 -64 -78 -64 -53
-96 -54 -143 -5 -34 36 -119 84 -150 84 -19 0 -146 -65 -171 -87 -13 -11 -18
-31 -18 -67 0 -34 -7 -61 -20 -81 -11 -16 -20 -38 -20 -47 0 -17 16 -18 190
-18 152 0 190 3 190 13 0 8 9 22 20 32 20 18 21 18 53 -13 30 -29 39 -32 97
-32 l65 0 0 69 c0 66 2 72 35 106 19 20 49 43 67 50 60 25 57 98 -6 133 -49
28 -77 28 -95 0z"></path>
<path d="M265 110 c3 -5 8 -10 11 -10 2 0 4 5 4 10 0 6 -5 10 -11 10 -5 0 -7
-4 -4 -10z"></path>
<path d="M365 60 c-3 -5 -1 -10 4 -10 6 0 11 5 11 10 0 6 -2 10 -4 10 -3 0 -8
-4 -11 -10z"></path>
</g>
</svg>