 <svg version="1.0" xmlns="http://www.w3.org/2000/svg" width="700.000000pt" height="720.000000pt" viewBox="0 0 700.000000 720.000000" preserveAspectRatio="xMidYMid meet">
<metadata>
Created by potrace 1.12, written by Peter Selinger 2001-2015
</metadata>
<g transform="translate(0.000000,720.000000) scale(0.100000,-0.100000)" fill="#000000" stroke="none">
<path d="M20 6283 c0 -6 16 -55 36 -109 36 -99 43 -117 134 -334 26 -63 55
-141 64 -172 9 -31 32 -79 51 -107 20 -28 57 -95 83 -148 27 -54 68 -136 93
-183 24 -47 53 -105 62 -130 18 -44 52 -125 120 -287 20 -45 43 -113 52 -150
10 -37 25 -79 35 -93 31 -44 60 -108 91 -202 17 -51 73 -178 124 -283 51 -104
96 -201 100 -215 4 -14 22 -56 40 -95 18 -38 38 -89 45 -113 6 -24 26 -67 45
-96 19 -30 53 -93 76 -142 22 -49 70 -148 105 -221 35 -72 71 -156 81 -185 9
-29 24 -66 34 -83 9 -16 20 -41 24 -55 4 -14 22 -47 40 -75 34 -52 69 -124
100 -210 10 -27 24 -59 31 -70 22 -34 86 -234 78 -246 -3 -6 -1 -15 6 -19 8
-5 9 -13 4 -21 -16 -26 -13 -46 11 -79 30 -41 34 -93 8 -88 -12 2 -17 11 -15
25 2 12 -2 24 -7 27 -6 4 -7 14 -4 23 6 15 5 16 -9 3 -11 -10 -13 -19 -7 -27
18 -21 -43 -26 -81 -6 -26 13 -30 18 -17 21 9 2 17 8 17 13 0 6 -4 8 -9 5 -5
-3 -16 5 -25 18 -15 23 -14 25 3 31 16 5 17 10 7 40 -6 19 -17 36 -26 37 -12
3 -10 8 7 25 20 20 21 22 4 28 -10 3 -25 3 -33 0 -9 -4 -22 1 -31 9 -9 9 -20
16 -25 16 -5 0 -18 8 -30 18 -14 13 -18 22 -11 33 14 22 8 78 -8 72 -7 -3 -13
2 -13 10 0 15 -40 26 -73 19 -18 -4 -18 -4 0 -25 13 -16 14 -18 2 -9 -14 11
-17 9 -23 -10 -9 -36 -7 -45 10 -52 11 -4 15 -2 11 8 -3 8 0 17 7 19 9 4 12
-3 10 -20 -2 -17 2 -23 11 -19 9 3 12 0 8 -10 -3 -8 0 -20 6 -27 8 -10 3 -21
-19 -45 -16 -18 -34 -32 -39 -32 -6 0 -11 -3 -11 -8 0 -4 -12 -15 -26 -23
l-26 -16 31 -14 c32 -14 44 -33 14 -22 -16 6 -16 5 -4 -10 9 -11 10 -17 2 -17
-6 0 -11 5 -11 11 0 7 -11 8 -29 4 -17 -3 -32 -2 -36 4 -4 7 0 8 11 4 12 -5
15 -3 9 6 -5 10 -2 11 14 6 12 -4 21 -2 21 4 0 6 -8 11 -17 10 -25 -1 -91 -27
-72 -28 9 -1 23 -8 30 -18 13 -15 12 -15 -8 -4 -15 7 -23 8 -23 1 0 -11 19
-14 63 -11 15 1 27 -1 27 -6 0 -12 -71 -13 -92 -2 -16 9 -20 7 -25 -10 -3 -11
-9 -18 -14 -15 -5 3 -5 14 1 25 6 10 8 19 5 19 -3 0 -1 10 6 21 8 15 8 19 0
15 -6 -4 -11 -2 -11 4 0 6 -16 18 -35 26 -46 19 -48 18 -19 -11 26 -26 25 -49
-1 -38 -18 6 -19 20 -2 26 6 3 2 6 -10 6 -13 1 -23 7 -23 14 0 6 -6 1 -13 -13
-13 -25 -5 -42 17 -34 7 3 20 -2 31 -11 20 -15 20 -15 0 -30 -11 -9 -24 -14
-30 -11 -13 5 -16 -46 -3 -61 7 -9 7 -13 0 -13 -6 0 -14 4 -17 10 -3 5 -12 10
-18 10 -8 0 -7 -3 2 -9 7 -5 10 -14 7 -20 -7 -10 6 -16 27 -12 5 1 6 -3 2 -9
-3 -5 -1 -10 6 -10 7 0 10 -3 7 -6 -4 -3 -16 0 -28 6 -18 10 -25 9 -32 -1 -8
-11 -9 -10 -4 4 4 13 0 17 -17 17 -16 0 -18 -3 -9 -9 11 -7 11 -11 -2 -24 -14
-13 -14 -16 0 -21 10 -4 13 -2 8 7 -4 6 -4 9 1 5 4 -4 17 -3 29 3 19 9 19 9 4
-4 -10 -8 -18 -19 -18 -25 0 -8 -8 -9 -27 -1 -19 7 -29 7 -31 0 -5 -16 -28
-13 -43 6 -13 15 -12 16 9 11 12 -4 20 -2 16 3 -3 5 1 6 9 3 8 -3 17 1 19 8 7
17 -44 21 -54 5 -5 -9 -10 -9 -20 1 -6 6 -17 12 -22 12 -6 0 -3 -5 7 -11 22
-13 22 -30 0 -22 -11 5 -14 3 -8 -6 6 -10 2 -11 -16 -6 -18 5 -20 4 -9 -4 8
-6 28 -8 43 -5 20 3 26 1 21 -7 -3 -6 -1 -15 7 -19 21 -13 20 -40 -2 -40 -27
0 -24 -18 4 -22 20 -3 20 -4 -5 -9 -15 -4 -25 -3 -23 1 2 4 -7 12 -21 19 -26
12 -45 5 -66 -24 -4 -6 -8 -2 -8 8 0 10 -7 20 -15 23 -8 4 -15 11 -15 16 0 6
6 6 14 -1 10 -8 16 -9 21 -1 3 5 0 12 -7 14 -7 1 -29 8 -47 14 -24 8 -37 8
-41 2 -4 -6 -13 -8 -22 -5 -8 3 -26 -3 -39 -15 -22 -19 -23 -21 -6 -31 9 -5
15 -15 11 -21 -4 -6 -9 -7 -13 0 -3 5 -22 13 -41 17 l-35 7 19 -21 c13 -14 22
-18 27 -10 5 8 8 8 13 0 4 -6 -1 -14 -11 -17 -36 -12 -65 -28 -54 -32 16 -5
13 -23 -3 -20 -8 2 -16 -1 -18 -7 -2 -5 25 -21 59 -35 35 -14 63 -27 63 -30 0
-11 -45 -9 -60 3 -13 11 -13 10 -1 -5 7 -10 10 -18 5 -18 -5 0 0 -7 10 -15 26
-20 0 -20 -34 0 -29 17 -64 20 -55 5 3 -6 -2 -10 -12 -10 -10 0 -1 -9 22 -20
l40 -20 -40 5 c-22 2 -33 1 -25 -3 24 -11 22 -32 -5 -44 -14 -6 -25 -16 -25
-21 0 -5 7 -4 15 3 11 9 19 8 37 -4 30 -21 55 -22 38 -1 -10 12 -9 15 6 15 11
0 27 -7 37 -14 16 -12 15 -14 -14 -20 -19 -3 -28 -10 -23 -17 5 -8 9 -8 14 1
11 17 48 3 46 -18 -1 -17 -88 -71 -117 -72 -8 0 -26 -11 -39 -25 -13 -14 -28
-25 -34 -25 -6 0 -24 -14 -41 -31 -36 -37 -65 -50 -95 -42 -15 4 -21 2 -16 -5
3 -6 -6 -13 -24 -17 -33 -7 -37 -16 -16 -34 17 -14 46 -4 46 16 0 11 7 14 20
10 14 -4 47 12 103 50 45 31 110 69 144 84 33 16 90 49 125 73 35 25 87 57
114 71 27 14 64 37 83 50 43 31 92 45 161 45 55 0 56 1 93 49 29 40 57 61 139
104 57 31 128 62 158 70 57 16 333 30 383 20 31 -6 36 -21 10 -30 -10 -3 -33
-22 -51 -40 -43 -44 -99 -78 -165 -103 -99 -38 -284 -219 -254 -249 6 -6 18
-11 26 -11 22 0 240 90 295 122 78 46 167 89 224 109 51 17 52 17 42 -1 -5
-10 -13 -20 -17 -22 -5 -3 -2 -3 6 -1 72 19 132 14 222 -15 52 -17 116 -32
142 -33 27 -2 51 -7 54 -12 3 -5 5 -31 5 -58 0 -47 5 -54 36 -50 18 3 15 -16
-5 -28 -16 -9 -16 -10 4 -11 12 0 25 4 28 10 10 16 25 12 25 -6 0 -11 6 -15
19 -11 14 3 17 0 13 -15 -2 -11 -10 -17 -18 -14 -10 4 -12 -2 -7 -24 5 -26 2
-30 -16 -30 -12 0 -21 -6 -21 -14 0 -23 22 -31 35 -13 10 14 12 13 24 -5 7
-11 15 -18 17 -15 3 3 0 14 -7 26 -14 22 -7 37 11 26 12 -7 30 -48 36 -80 2
-11 9 -42 15 -68 8 -35 8 -51 0 -61 -15 -18 -49 -27 -57 -15 -10 17 -39 -9
-42 -37 -1 -15 -7 -31 -14 -35 -7 -5 -4 -11 10 -20 16 -10 18 -16 10 -26 -8
-10 -6 -18 7 -33 10 -11 22 -20 27 -20 6 0 18 -10 29 -22 17 -21 18 -21 12 -3
-6 19 -5 19 13 3 12 -11 29 -14 48 -11 16 3 31 1 35 -6 8 -13 41 -4 41 11 0 5
-4 6 -10 3 -6 -3 -7 1 -4 9 3 9 13 16 21 16 8 0 12 4 9 9 -10 16 5 39 22 36 9
-2 20 -4 24 -4 10 -1 6 -51 -3 -51 -4 0 -9 4 -11 9 -1 5 -8 3 -15 -4 -10 -11
-5 -15 27 -20 41 -7 76 -44 66 -71 -3 -9 1 -14 14 -14 11 0 20 5 20 10 0 6 12
15 26 21 21 7 31 6 46 -8 17 -15 21 -15 29 -3 8 12 9 12 7 -3 -2 -10 7 -22 20
-30 25 -12 45 -42 62 -89 7 -21 16 -28 35 -28 30 0 31 4 5 30 -35 35 -17 91
31 94 13 1 23 7 21 14 -1 7 9 18 23 24 14 6 25 15 25 20 0 5 4 7 9 3 5 -3 11
2 13 11 3 14 6 13 29 -4 20 -17 25 -27 21 -51 -4 -30 10 -42 23 -21 10 15 22
12 46 -12 18 -19 17 -15 -6 27 -39 69 -49 79 -103 106 -71 36 -83 48 -76 78
l6 26 -19 -23 c-18 -22 -19 -23 -36 -4 -16 17 -15 20 10 49 25 29 27 29 45 11
19 -19 44 -25 33 -8 -15 24 12 6 65 -42 31 -29 77 -70 102 -90 34 -28 58 -60
87 -119 23 -45 41 -88 41 -95 0 -17 17 -19 22 -2 2 6 18 11 36 11 28 0 33 5
52 53 12 29 19 58 15 64 -10 16 26 80 45 80 8 0 24 -7 34 -15 17 -13 18 -20 9
-62 -6 -27 -9 -50 -7 -52 6 -6 7 -4 47 118 44 130 76 188 112 197 14 3 25 10
25 15 0 5 7 9 15 9 9 0 35 9 57 20 23 11 47 20 54 20 7 0 20 10 28 21 11 16
22 20 40 17 23 -5 26 -2 26 23 0 15 -6 30 -12 32 -8 3 -6 6 5 6 9 1 17 7 17
15 0 21 30 48 46 42 15 -6 42 13 77 52 11 12 27 22 34 22 7 0 13 9 13 20 0 13
7 20 19 20 23 0 45 25 38 43 -3 8 1 27 8 43 7 16 18 44 25 62 8 21 18 31 26
28 9 -3 14 2 14 14 0 23 46 68 78 76 16 5 21 11 17 25 -4 12 1 23 14 31 12 7
21 17 21 21 0 5 6 15 13 22 6 8 28 38 47 66 19 28 50 71 68 96 29 39 33 50 27
83 -7 42 6 60 30 40 10 -8 15 -9 15 -2 0 6 -4 14 -10 17 -17 10 -11 43 11 58
11 8 21 26 23 40 1 14 8 33 16 42 7 8 10 18 6 22 -3 4 4 17 16 30 19 20 20 27
10 43 -16 26 -6 29 58 19 30 -5 120 -15 200 -24 242 -25 482 -54 535 -64 28
-5 131 -11 230 -13 155 -3 180 -1 180 12 0 9 -8 14 -20 12 -64 -9 -265 6 -440
34 -133 22 -152 34 -40 28 49 -3 93 -8 97 -10 4 -3 8 0 8 5 0 6 -6 11 -12 11
-7 1 -31 3 -53 6 -49 7 -74 27 -30 23 17 -1 39 2 49 6 11 5 21 5 23 -1 2 -5
27 -8 56 -8 29 1 77 -2 107 -8 56 -9 95 -13 210 -22 48 -4 57 -3 35 4 -25 8
-80 17 -122 19 -7 1 -13 5 -13 10 0 4 17 7 38 6 20 -2 80 -6 132 -9 52 -4 104
-9 115 -12 16 -4 17 -3 5 4 -8 6 -39 13 -67 17 -75 10 -75 24 -1 19 54 -3 59
-2 43 10 -11 8 -25 12 -32 9 -7 -3 -26 -1 -41 5 -15 6 -49 13 -77 16 -68 7
-83 11 -92 20 -8 8 91 1 151 -11 19 -3 26 -2 22 6 -4 6 -23 11 -42 11 -19 0
-34 5 -34 10 0 6 -7 10 -15 10 -8 0 -15 5 -15 10 0 6 -11 10 -25 10 -14 0 -25
-4 -25 -10 0 -5 -7 -10 -16 -10 -32 0 -10 35 26 40 50 7 20 24 -45 26 -27 0
-42 -1 -32 -3 15 -4 17 -11 12 -31 -8 -34 -11 -36 -27 -26 -7 5 -22 8 -33 9
-20 0 -36 35 -16 35 18 0 12 28 -6 33 -11 3 -7 5 10 6 15 0 27 5 27 10 0 5 8
12 18 14 9 3 -3 5 -28 6 -57 2 -85 16 -53 28 17 6 20 12 13 23 -8 12 -12 12
-18 2 -5 -7 -16 -10 -25 -6 -19 7 -23 -11 -4 -20 10 -5 10 -7 0 -12 -19 -9
-16 -22 7 -29 11 -3 20 -13 20 -21 0 -8 5 -14 10 -14 6 0 10 -7 10 -15 0 -8
-7 -15 -15 -15 -8 0 -15 5 -15 11 0 17 -29 41 -43 36 -9 -4 -9 -6 1 -6 22 -2
13 -26 -15 -38 -36 -17 -73 -16 -73 1 0 18 -58 32 -73 17 -16 -16 -44 -14 -51
4 -3 8 -12 12 -20 9 -8 -3 -17 -1 -21 5 -3 6 -18 11 -33 12 -16 0 -21 3 -12 6
8 3 18 10 21 15 3 5 17 4 33 -2 34 -12 46 -13 46 -1 0 14 -100 25 -113 12 -13
-13 -31 -15 -23 -2 22 35 -106 41 -140 6 -17 -17 -19 -17 -22 -2 -4 20 -22 23
-22 5 -1 -7 -14 2 -30 21 -19 23 -34 32 -45 27 -11 -4 -15 -2 -13 6 3 7 18 16
34 19 21 5 24 7 9 9 -11 1 -29 4 -40 6 -11 2 -64 9 -118 16 -57 7 -96 17 -94
23 2 5 13 10 23 9 37 -2 209 -25 227 -30 11 -4 17 0 17 11 0 11 -6 14 -25 9
-18 -5 -25 -2 -25 9 0 13 -5 13 -31 4 -26 -10 -32 -9 -41 6 -7 14 -13 16 -23
7 -16 -13 -125 -3 -125 11 0 5 5 9 11 9 8 0 7 6 -2 16 -12 15 -8 16 49 9 43
-5 62 -4 62 4 0 6 -16 11 -35 11 -22 0 -41 7 -53 21 -24 25 -26 69 -3 69 11 0
12 3 4 8 -10 6 -9 14 2 35 7 15 11 27 7 27 -3 0 0 6 7 13 10 10 15 8 26 -7 15
-20 35 -14 35 13 0 9 5 22 11 28 6 6 9 21 7 34 -3 23 -5 22 -23 -11 l-20 -35
-3 40 c-3 36 0 43 35 72 40 34 39 47 -4 48 -32 0 -45 35 -38 102 4 40 -8 60
-18 31 -2 -7 -4 -1 -4 13 0 22 4 26 26 25 14 0 27 4 28 9 4 16 -8 45 -18 45
-6 0 -7 9 -4 21 6 17 3 20 -22 17 -26 -3 -28 0 -29 32 -1 42 11 135 27 206 19
85 -22 122 -83 75 -23 -19 -25 -19 -48 -1 -17 13 -21 22 -14 32 9 11 5 152
-10 368 -4 68 -18 110 -35 110 -14 1 -14 2 1 14 22 16 23 45 3 92 -8 19 -12
41 -8 49 3 8 -2 26 -11 40 -10 16 -14 34 -10 50 3 14 2 31 -4 38 -11 13 -35
76 -54 137 -16 54 -45 115 -62 129 -8 7 -13 18 -10 25 2 6 -11 26 -29 44 -28
27 -35 30 -40 18 -11 -28 3 -46 29 -40 22 6 24 3 24 -34 0 -23 6 -45 15 -52 8
-7 15 -18 15 -26 0 -7 6 -17 13 -21 18 -10 28 -51 15 -59 -5 -4 -3 -13 7 -24
11 -12 14 -28 10 -50 -5 -28 -4 -31 9 -21 17 14 29 0 20 -23 -4 -9 0 -18 10
-22 9 -4 14 -14 12 -27 -3 -12 -5 -24 -5 -26 -1 -2 -10 4 -21 14 -11 10 -23
15 -28 11 -4 -4 3 -16 15 -25 12 -10 21 -26 20 -37 -1 -12 4 -19 16 -18 18 2
23 -11 8 -20 -5 -3 -14 1 -21 9 -9 11 -16 12 -25 5 -16 -13 -15 -158 1 -168
13 -8 24 -82 13 -82 -4 0 -10 6 -12 13 -3 6 -5 0 -4 -14 1 -17 6 -25 13 -22 8
3 12 -5 12 -24 -1 -31 11 -85 49 -225 12 -48 23 -94 23 -102 0 -8 5 -27 12
-43 14 -35 12 -28 22 -88 4 -27 13 -56 19 -63 6 -8 7 -16 1 -22 -6 -6 -7 -34
-4 -65 3 -30 3 -55 -2 -55 -4 0 -10 -16 -14 -35 -3 -19 -9 -33 -13 -31 -4 3
-8 -10 -9 -27 -2 -29 -15 -46 -34 -47 -5 0 -8 7 -8 15 0 8 -5 15 -11 15 -6 0
-9 -9 -6 -20 7 -27 -18 -47 -38 -30 -9 7 -18 10 -21 7 -3 -3 -17 -2 -31 4 -18
6 -22 6 -17 -3 5 -7 0 -9 -14 -6 -12 4 -24 2 -28 -3 -3 -5 -27 -8 -54 -7 -39
2 -54 -2 -73 -20 -19 -18 -26 -19 -37 -9 -10 10 -11 9 -5 -3 5 -9 0 -7 -14 5
-15 12 -37 20 -64 20 -57 0 -69 9 -55 40 8 19 8 28 -2 40 -19 23 -27 18 -22
-14 4 -28 -18 -57 -26 -33 -5 15 -32 16 -32 2 0 -5 6 -10 13 -10 6 0 21 -8 32
-16 19 -15 19 -15 -8 -9 -16 4 -33 2 -41 -4 -10 -8 -16 -9 -21 -1 -3 5 1 10 9
10 9 0 16 5 16 10 0 6 -5 10 -11 10 -5 0 -8 4 -5 9 3 5 -1 11 -9 15 -8 3 -15
1 -15 -4 0 -17 -26 -11 -53 13 -15 12 -27 30 -27 39 0 9 -11 19 -24 22 -19 5
-22 11 -18 31 2 14 0 25 -4 25 -5 0 -16 4 -23 9 -12 8 -11 13 10 31 20 18 21
21 4 15 -46 -16 -54 -16 -72 2 -10 10 -24 18 -32 18 -8 0 -15 8 -17 18 -3 24
-2 24 -54 32 l-45 7 76 -74 c85 -82 99 -102 99 -149 l0 -33 -36 42 c-30 35
-42 42 -72 43 -80 0 -131 4 -137 11 -4 4 -13 4 -21 1 -8 -3 -24 3 -34 12 -19
17 -21 17 -40 0 -17 -15 -20 -16 -20 -3 0 9 -7 18 -15 22 -12 4 -13 2 -6 -13
10 -18 8 -18 -35 -2 -33 12 -40 17 -25 19 23 4 29 22 7 22 -7 0 -19 7 -26 15
-18 22 -32 18 -28 -7 3 -20 -1 -23 -28 -20 -17 2 -51 9 -75 16 -38 11 -44 17
-47 44 -6 54 36 170 74 208 19 19 34 42 34 50 0 10 6 14 15 10 11 -4 19 3 25
19 10 27 45 34 78 15 20 -11 131 -44 150 -45 7 0 16 -6 21 -13 4 -7 12 -12 17
-10 5 1 23 -6 41 -15 18 -9 40 -17 50 -17 19 0 92 -34 133 -62 23 -15 70 -30
140 -44 27 -6 39 -10 109 -42 42 -18 99 -20 70 -2 -8 6 -6 9 7 12 10 2 -4 8
-33 12 -30 5 -54 14 -57 22 -3 8 -2 12 3 9 9 -5 27 32 23 48 -1 4 7 7 19 7 11
0 17 4 14 10 -3 5 7 12 22 16 50 11 54 14 51 36 -5 34 55 47 111 25 49 -20 78
-22 84 -4 3 7 6 5 6 -5 1 -10 8 -18 17 -18 9 0 14 6 11 13 -6 17 11 59 22 53
5 -4 5 11 0 35 -5 22 -7 44 -4 49 3 5 1 11 -4 14 -5 3 -12 34 -16 68 -4 34
-16 82 -26 106 -11 24 -16 48 -13 53 7 12 -15 41 -26 34 -5 -3 -21 6 -36 20
-14 13 -31 22 -37 18 -6 -3 -21 7 -35 23 -15 19 -26 25 -29 17 -2 -7 -9 -13
-15 -13 -6 0 -8 7 -4 15 3 8 1 15 -5 15 -6 0 -7 4 -4 10 3 6 -4 10 -17 10 -13
0 -32 7 -42 15 -27 20 -36 19 -36 -6 0 -18 -4 -20 -22 -14 -13 4 -45 10 -73
12 -27 3 -58 12 -68 21 -19 17 -36 20 -142 24 -33 2 -66 8 -73 15 -7 7 -19 10
-28 6 -10 -4 -17 2 -21 16 -6 22 -19 28 -25 11 -2 -6 -8 -6 -18 1 -13 8 -13
11 3 20 24 14 22 38 -3 32 -11 -3 -20 -1 -20 5 0 5 -11 12 -25 14 -13 3 -22 1
-19 -3 8 -14 -13 -11 -28 4 -7 6 -24 13 -38 15 -14 2 -35 4 -47 6 -24 3 -53
23 -53 37 0 5 16 3 35 -5 20 -9 35 -11 35 -5 0 15 -64 39 -88 32 -13 -3 -22
-1 -22 6 0 5 7 8 15 5 25 -10 16 10 -10 23 -15 6 -25 7 -25 1 0 -5 -5 -6 -11
-2 -8 5 -8 9 1 14 9 5 9 9 1 14 -18 11 -13 26 9 26 11 0 30 -11 42 -25 25 -28
38 -32 38 -10 0 8 -6 15 -13 15 -8 0 -22 9 -33 21 -13 14 -27 19 -47 16 -15
-2 -31 1 -34 7 -3 6 -3 8 2 4 10 -9 40 21 30 30 -4 4 -12 7 -18 7 -5 0 -12 7
-14 15 -4 13 -3 13 6 0 8 -12 11 -12 11 -1 0 10 3 11 14 2 11 -9 16 -9 22 0 4
7 -1 18 -11 26 -14 10 -15 13 -4 14 8 0 3 5 -11 12 l-25 11 28 4 c31 4 37 22
7 22 -11 0 -20 5 -20 10 0 6 5 10 10 10 6 0 10 5 10 10 0 6 -14 10 -30 10 -23
0 -30 -4 -28 -16 6 -31 -31 -22 -76 17 -24 21 -51 39 -60 39 -9 0 -16 6 -16
13 0 9 -3 8 -9 -2 -5 -8 -11 -9 -15 -3 -3 6 -18 9 -31 6 -18 -3 -25 0 -25 11
0 8 -3 15 -8 15 -4 0 -12 10 -17 23 -6 12 -18 21 -28 20 -11 0 -16 4 -13 12 2
7 -7 18 -21 24 -20 9 -24 16 -19 36 5 18 3 23 -7 19 -22 -8 -14 46 9 65 12 9
25 27 28 39 4 12 12 22 17 22 6 0 7 -5 3 -11 -3 -6 8 -4 24 5 17 9 33 20 36
25 3 4 16 7 28 4 26 -4 56 12 45 24 -4 4 -17 2 -28 -5 -17 -11 -21 -9 -30 10
-15 34 -35 68 -48 81 -17 17 -14 -12 4 -47 9 -16 13 -31 10 -34 -3 -3 0 -11 6
-19 9 -10 7 -13 -11 -13 -19 0 -22 4 -17 26 4 23 2 25 -19 20 -18 -5 -22 -3
-18 9 4 8 9 15 13 15 11 0 6 63 -7 85 -6 11 -12 14 -12 8 0 -7 -4 -13 -10 -13
-12 0 -13 11 0 30 8 13 13 13 30 2 16 -10 25 -10 35 -2 16 14 35 5 35 -16 0
-9 -10 -14 -27 -14 l-27 0 22 -22 23 -23 19 25 c11 14 18 38 17 55 -1 17 3 30
11 31 25 3 26 4 14 16 -19 19 -14 28 18 39 17 6 30 15 30 20 0 17 -47 9 -64
-10 -10 -11 -25 -19 -34 -18 -21 1 -79 -36 -63 -41 23 -8 10 -22 -15 -16 -19
5 -32 0 -50 -17 -14 -13 -29 -23 -32 -22 -11 4 -12 -46 -1 -52 5 -3 17 -1 26
4 10 6 12 11 6 11 -7 0 -13 5 -13 12 0 7 6 6 18 -4 9 -9 23 -13 30 -11 6 3 12
0 12 -6 0 -6 -7 -11 -15 -11 -8 0 -15 -4 -15 -10 0 -5 7 -10 16 -10 14 0 14
-3 4 -15 -7 -9 -16 -12 -19 -7 -3 5 -17 13 -29 17 -14 4 -30 21 -38 41 -8 19
-17 34 -19 34 -3 0 -34 -24 -69 -52 -35 -29 -91 -75 -125 -102 -73 -58 -224
-218 -278 -296 -62 -89 -123 -190 -123 -204 0 -6 -4 -16 -8 -21 -10 -12 -66
-154 -80 -205 -11 -38 -20 -128 -28 -290 -3 -58 -9 -136 -13 -175 -5 -38 -5
-72 -2 -75 4 -3 17 -38 29 -78 22 -68 23 -77 11 -142 -8 -39 -16 -70 -19 -70
-3 0 -18 -11 -34 -24 -29 -23 -33 -35 -50 -165 -1 -13 -10 -28 -19 -33 -9 -5
-17 -16 -17 -23 0 -8 -5 -15 -11 -15 -7 0 -9 -10 -5 -25 5 -19 2 -25 -9 -25
-9 0 -13 -4 -10 -10 3 -5 -1 -10 -9 -10 -8 0 -20 -9 -26 -21 -8 -14 -19 -19
-38 -17 -15 2 -26 8 -25 13 1 6 -31 10 -80 10 -45 0 -101 4 -124 8 -28 6 -43
5 -43 -1 0 -6 8 -13 18 -16 9 -3 2 -4 -16 -2 -18 1 -35 -1 -38 -6 -3 -4 -10
-8 -15 -8 -6 0 -8 4 -5 8 3 5 -30 8 -72 8 -42 0 -86 5 -97 12 -15 8 -16 12 -5
13 23 2 -31 17 -65 18 -24 1 -27 -1 -15 -10 12 -8 10 -9 -10 -5 -14 3 -29 6
-35 6 -5 0 -3 5 5 10 13 8 13 10 -2 10 -9 0 -20 5 -23 10 -4 7 3 8 21 4 17 -4
25 -3 21 3 -4 6 -23 13 -44 17 -49 9 -134 16 -110 10 23 -7 22 -23 -1 -17 -29
7 -119 154 -137 222 -8 33 -29 88 -45 122 -16 35 -27 65 -24 68 3 4 83 11 177
18 193 13 210 16 252 33 45 18 364 69 491 79 61 5 119 13 129 19 17 9 16 11
-8 26 -40 27 -121 45 -247 56 -63 6 -171 18 -240 26 -69 8 -136 17 -150 18
-14 2 -41 6 -61 10 -22 5 -45 3 -56 -3 -14 -7 -23 -7 -32 2 -9 9 -16 9 -31 -1
-24 -15 -33 -15 -25 -2 8 13 -55 13 -89 1 -14 -6 -26 -6 -28 -1 -2 5 -44 5
-98 0 -56 -4 -102 -4 -112 2 -25 12 -55 74 -105 218 -24 69 -59 150 -77 180
-19 30 -41 82 -49 115 -13 51 -79 217 -184 460 -42 98 -194 387 -229 435 -17
25 -40 70 -49 100 -25 82 -53 152 -112 283 -29 65 -53 123 -53 128 0 5 -16 51
-36 102 -35 88 -54 124 -54 100z m3178 -765 c-4 -27 -28 -36 -28 -10 0 20 8
32 22 32 5 0 8 -10 6 -22z m-233 -158 c3 -5 -1 -10 -9 -10 -9 0 -16 5 -16 10
0 6 4 10 9 10 6 0 13 -4 16 -10z m0 -30 c-3 -5 -11 -10 -16 -10 -6 0 -7 5 -4
10 3 6 11 10 16 10 6 0 7 -4 4 -10z m355 -394 c0 -2 -7 -6 -15 -10 -8 -3 -15
-1 -15 4 0 6 7 10 15 10 8 0 15 -2 15 -4z m110 -76 c0 -14 -14 -12 -28 2 -19
19 -14 30 8 18 11 -6 20 -15 20 -20z m-10 -17 l25 -13 -27 2 c-15 1 -24 6 -22
10 3 4 1 8 -5 8 -5 0 -11 -5 -13 -12 -3 -8 -6 -7 -10 3 -8 20 17 21 52 2z m-3
-38 c5 -4 2 -5 -4 -1 -22 12 -14 -9 8 -22 12 -7 19 -16 16 -19 -3 -3 -20 8
-37 24 -28 26 -29 30 -11 28 11 -1 24 -5 28 -10z m-75 -25 c9 -16 14 -31 10
-34 -4 -2 -15 11 -24 30 -22 42 -9 45 14 4z m28 10 c0 -5 -4 -10 -10 -10 -5 0
-10 5 -10 10 0 6 5 10 10 10 6 0 10 -4 10 -10z m57 -74 c-3 -8 1 -20 9 -27 25
-21 6 -22 -20 -2 -19 15 -22 23 -13 32 16 16 30 14 24 -3z m886 -359 c3 -8 -1
-14 -8 -14 -7 0 -11 6 -8 14 3 7 6 13 8 13 2 0 5 -6 8 -13z m47 -47 c0 -5 -5
-10 -11 -10 -5 0 -7 5 -4 10 3 6 8 10 11 10 2 0 4 -4 4 -10z m-1088 -723 c-4
-36 -39 -77 -65 -77 -23 0 -87 29 -87 40 0 18 96 69 125 67 27 -2 30 -5 27
-30z m1668 -112 c7 -9 8 -15 2 -15 -5 0 -12 7 -16 15 -3 8 -4 15 -2 15 2 0 9
-7 16 -15z m-905 -129 c11 -3 32 -17 47 -31 15 -14 32 -25 38 -25 5 0 10 -4
10 -10 0 -5 -9 -10 -20 -10 -11 0 -20 -4 -20 -10 0 -5 14 -10 32 -10 35 0 69
-25 62 -45 -3 -7 5 -19 18 -26 31 -16 98 -72 98 -81 0 -5 -7 -8 -15 -8 -16 0
-20 -16 -6 -24 14 -9 10 -54 -6 -60 -7 -3 -21 -2 -31 3 -27 14 -87 31 -106 31
-12 0 -16 -5 -13 -15 8 -19 -11 -31 -26 -16 -8 8 -8 14 1 23 8 8 5 15 -16 25
-23 13 -28 12 -39 -3 -7 -9 -10 -21 -7 -25 9 -15 -8 -10 -27 7 -25 23 -38 10
-36 -36 1 -39 -12 -66 -20 -42 -3 6 -10 12 -16 12 -6 0 -45 17 -87 39 -108 55
-172 74 -236 69 -30 -3 -54 -1 -54 3 0 29 212 36 246 8 9 -8 25 -13 36 -11 10
2 21 -4 24 -12 5 -12 10 -13 24 -4 18 11 16 48 -2 48 -6 0 -23 9 -39 21 -16
11 -33 18 -38 15 -5 -3 -11 6 -14 19 -2 14 -2 23 1 21 2 -3 14 1 25 9 16 11
24 12 36 2 12 -10 14 -9 9 4 -3 9 4 25 19 39 36 35 69 90 78 130 l8 34 21 -26
c11 -14 30 -28 41 -32z m-2366 18 c28 -4 51 -11 51 -16 0 -5 -3 -7 -7 -5 -5 3
-32 8 -62 12 -30 4 -63 11 -75 16 -17 8 -16 9 10 5 17 -3 54 -8 83 -12z m478
0 c-3 -3 -12 -4 -19 -1 -8 3 -5 6 6 6 11 1 17 -2 13 -5z m2803 -20 c0 -14 -4
-23 -9 -20 -5 3 -7 15 -4 26 7 28 13 25 13 -6z m-3325 -12 c-3 -3 -11 0 -18 7
-9 10 -8 11 6 5 10 -3 15 -9 12 -12z m45 -2 c8 -5 11 -10 5 -10 -5 0 -17 5
-25 10 -8 5 -10 10 -5 10 6 0 17 -5 25 -10z m2470 -11 c0 -6 -4 -7 -10 -4 -5
3 -10 11 -10 16 0 6 5 7 10 4 6 -3 10 -11 10 -16z m73 -7 c-7 -16 -45 -12 -51
6 -2 8 6 12 26 10 20 -1 28 -6 25 -16z m62 -2 c3 -5 -1 -10 -9 -10 -9 0 -16 5
-16 10 0 6 4 10 9 10 6 0 13 -4 16 -10z m90 -20 c3 -5 1 -10 -4 -10 -6 0 -11
5 -11 10 0 6 2 10 4 10 3 0 8 -4 11 -10z m385 -11 c0 -5 -4 -9 -10 -9 -5 0
-10 7 -10 16 0 8 5 12 10 9 6 -3 10 -10 10 -16z m207 -49 c-1 -12 -8 -20 -20
-20 -12 0 -16 4 -10 13 4 6 8 15 9 20 1 4 2 10 3 13 3 14 20 -9 18 -26z m-742
9 c11 -16 1 -19 -13 -3 -7 8 -8 14 -3 14 5 0 13 -5 16 -11z m80 -69 c3 -5 -1
-10 -9 -10 -9 0 -16 5 -16 10 0 6 4 10 9 10 6 0 13 -4 16 -10z m-81 -167 c4
-5 11 -8 14 -8 4 0 21 -6 39 -14 30 -12 53 -41 33 -41 -5 0 -7 -7 -4 -15 4 -8
1 -15 -5 -15 -6 0 -11 4 -11 9 0 16 -43 58 -67 65 -17 6 -23 3 -23 -8 0 -19
-16 -21 -26 -4 -4 6 1 17 11 25 21 15 29 16 39 6z m33 -112 c-5 -2 -13 3 -18
10 -15 24 -10 30 9 12 10 -10 14 -20 9 -22z m-381 -103 c4 -7 2 -14 -4 -16 -6
-2 -8 -10 -5 -18 9 -24 -14 -16 -32 12 l-17 26 -32 -31 c-29 -28 -76 -45 -62
-22 4 5 1 11 -6 13 -7 3 -8 10 -4 17 6 9 11 10 19 2 16 -16 40 -14 34 3 -3 8
-4 16 -1 19 10 10 103 6 110 -5z m1094 2 c0 -6 12 -9 28 -8 64 4 102 -2 102
-17 0 -8 -6 -15 -14 -15 -8 0 -17 -4 -20 -9 -4 -5 5 -8 19 -7 14 2 30 -3 36
-10 6 -8 16 -11 22 -7 5 3 7 2 4 -4 -10 -15 -129 7 -123 23 3 7 -2 15 -10 18
-8 3 -17 -1 -20 -9 -4 -8 -15 -15 -25 -15 -21 0 -26 16 -6 23 9 4 9 7 0 17 -9
9 -16 10 -25 3 -8 -6 -21 -7 -33 -2 l-20 8 20 1 20 1 -20 9 c-15 7 -10 9 23 9
23 1 42 -4 42 -9z m-55 -40 c3 -5 -1 -10 -10 -10 -9 0 -13 5 -10 10 3 6 8 10
10 10 2 0 7 -4 10 -10z m22 -36 c6 -17 -13 -35 -31 -28 -7 3 -12 13 -13 24 -2
25 35 28 44 4z m407 -15 c14 -7 23 -15 21 -20 -3 -4 -1 -10 5 -14 5 -3 10 -12
10 -18 0 -7 -5 -4 -11 5 -5 10 -26 20 -47 24 -48 9 -57 14 -41 25 19 12 33 11
63 -2z m-330 -18 c4 -5 -3 -7 -14 -4 -23 6 -26 13 -6 13 8 0 17 -4 20 -9z
m246 -11 c0 -5 -5 -10 -11 -10 -5 0 -7 5 -4 10 3 6 8 10 11 10 2 0 4 -4 4 -10z
m-55 -20 c3 -5 -1 -10 -9 -10 -8 0 -18 5 -21 10 -3 6 1 10 9 10 8 0 18 -4 21
-10z m59 -9 c4 -5 -3 -7 -14 -4 -23 6 -26 13 -6 13 8 0 17 -4 20 -9z m71 -11
c7 -12 -2 -12 -30 0 -19 8 -19 9 2 9 12 1 25 -3 28 -9z m70 -10 c3 -5 -3 -10
-14 -10 -12 0 -21 5 -21 10 0 6 6 10 14 10 8 0 18 -4 21 -10z m65 -10 c0 -5
-6 -10 -14 -10 -8 0 -18 5 -21 10 -3 6 3 10 14 10 12 0 21 -4 21 -10z m60 -10
c0 -5 -9 -10 -20 -10 -11 0 -20 5 -20 10 0 6 9 10 20 10 11 0 20 -4 20 -10z
m155 -16 c60 -9 114 -20 119 -24 10 -10 -105 -2 -154 11 -19 5 -50 9 -67 9
-18 0 -33 5 -33 10 0 13 5 13 135 -6z m215 -34 c0 -5 -9 -10 -20 -10 -11 0
-20 5 -20 10 0 6 9 10 20 10 11 0 20 -4 20 -10z m45 -50 c3 -5 2 -10 -4 -10
-5 0 -13 5 -16 10 -3 6 -2 10 4 10 5 0 13 -4 16 -10z m-132 -24 c4 -10 0 -12
-14 -9 -22 6 -26 23 -5 23 8 0 16 -6 19 -14z m71 -4 c2 -4 -9 -9 -25 -10 -19
-2 -28 2 -24 8 7 12 42 13 49 2z m-449 -42 c3 -5 1 -10 -4 -10 -6 0 -11 5 -11
10 0 6 2 10 4 10 3 0 8 -4 11 -10z m-4005 -194 c0 -3 -4 -8 -10 -11 -5 -3 -10
-1 -10 4 0 6 5 11 10 11 6 0 10 -2 10 -4z m-160 -102 c0 -16 16 -19 22 -4 2 6
8 6 18 0 13 -8 12 -10 -3 -10 -12 0 -16 -4 -11 -12 5 -8 -2 -6 -16 3 -24 16
-44 59 -21 45 6 -4 11 -14 11 -22z m-28 -44 c43 -26 29 -26 -19 0 -21 11 -32
20 -26 20 7 0 27 -9 45 -20z m3421 -24 c6 -16 -1 -26 -19 -26 -7 0 -10 8 -7
20 6 23 19 26 26 6z m-46 -28 c-3 -7 -5 -2 -5 12 0 14 2 19 5 13 2 -7 2 -19 0
-25z m-3377 12 c0 -5 -5 -10 -11 -10 -5 0 -7 5 -4 10 3 6 8 10 11 10 2 0 4 -4
4 -10z m3370 -70 c0 -5 -2 -10 -4 -10 -3 0 -8 5 -11 10 -3 6 -1 10 4 10 6 0
11 -4 11 -10z m-3780 -70 c0 -13 -37 -13 -45 0 -3 6 -3 15 0 20 7 12 45 -5 45
-20z m224 5 c3 -9 0 -12 -9 -9 -7 3 -16 12 -19 19 -3 9 0 12 9 9 7 -3 16 -12
19 -19z m-284 -15 c0 -5 -2 -10 -4 -10 -3 0 -8 5 -11 10 -3 6 -1 10 4 10 6 0
11 -4 11 -10z m168 -36 l27 -26 -32 16 c-18 9 -33 21 -33 26 0 16 9 12 38 -16z
m3522 -25 c0 -6 -4 -7 -10 -4 -5 3 -10 11 -10 16 0 6 5 7 10 4 6 -3 10 -11 10
-16z m-3780 -24 c-10 -12 -9 -15 6 -16 11 0 14 -3 6 -6 -7 -3 -19 -2 -27 1
-18 7 -8 36 12 36 13 0 13 -3 3 -15z m1035 -121 c18 -44 19 -64 2 -64 -7 0
-28 -10 -47 -23 -55 -37 -167 -80 -186 -73 -15 6 -9 16 37 62 44 45 160 134
175 134 2 0 11 -16 19 -36z m-1061 -12 c2 -4 -4 -9 -15 -9 -11 -1 -17 2 -14 8
7 11 22 12 29 1z m-4 -62 c12 -7 10 -9 -8 -7 -12 0 -22 5 -22 9 0 11 12 10 30
-2z m3678 -31 c-2 -6 -8 -10 -13 -10 -5 0 -11 4 -13 10 -2 6 4 11 13 11 9 0
15 -5 13 -11z m-1848 -39 c0 -5 -4 -10 -10 -10 -5 0 -10 5 -10 10 0 6 5 10 10
10 6 0 10 -4 10 -10z m1824 -8 c3 -5 -1 -9 -9 -9 -8 0 -12 4 -9 9 3 4 7 8 9 8
2 0 6 -4 9 -8z m-19 -42 c3 -5 -1 -10 -9 -10 -9 0 -16 5 -16 10 0 6 4 10 9 10
6 0 13 -4 16 -10z m-1615 -312 c0 -5 -4 -8 -10 -8 -5 0 -10 10 -10 23 0 18 2
19 10 7 5 -8 10 -18 10 -22z m30 1 c0 -6 -4 -7 -10 -4 -5 3 -10 11 -10 16 0 6
5 7 10 4 6 -3 10 -11 10 -16z m350 -19 c0 -5 -2 -10 -4 -10 -3 0 -8 5 -11 10
-3 6 -1 10 4 10 6 0 11 -4 11 -10z m71 -18 c-7 -2 -18 1 -23 6 -8 8 -4 9 13 5
13 -4 18 -8 10 -11z m-8 -29 c-4 -10 -9 -11 -19 -2 -18 15 -18 15 5 15 11 0
17 -5 14 -13z m-413 -113 c0 -5 -2 -10 -4 -10 -3 0 -8 5 -11 10 -3 6 -1 10 4
10 6 0 11 -4 11 -10z m190 -21 c0 -18 -20 -18 -29 0 -9 16 -8 18 9 14 11 -3
20 -9 20 -14z"></path>
<path d="M4220 3100 c0 -5 5 -10 10 -10 6 0 10 5 10 10 0 6 -4 10 -10 10 -5 0
-10 -4 -10 -10z"></path>
<path d="M3943 3088 c-27 -13 -30 -33 -7 -42 22 -9 24 -8 24 9 0 8 5 15 10 15
6 0 10 7 10 15 0 17 -6 18 -37 3z"></path>
<path d="M4002 3068 c6 -18 28 -21 28 -4 0 9 -7 16 -16 16 -9 0 -14 -5 -12
-12z"></path>
<path d="M4265 2960 c3 -5 8 -10 11 -10 2 0 4 5 4 10 0 6 -5 10 -11 10 -5 0
-7 -4 -4 -10z"></path>
<path d="M3505 5621 c-8 -13 11 -23 54 -27 20 -2 45 -5 55 -6 10 -2 21 3 23
10 3 7 -5 12 -21 12 -13 0 -28 5 -31 10 -8 13 -72 13 -80 1z"></path>
<path d="M3400 5610 c0 -5 11 -10 25 -10 14 0 25 5 25 10 0 6 -11 10 -25 10
-14 0 -25 -4 -25 -10z"></path>
<path d="M3340 5597 c-26 -13 -34 -47 -12 -54 6 -3 12 2 12 10 0 9 12 25 28
36 31 23 12 28 -28 8z"></path>
<path d="M3672 5589 c2 -7 17 -14 32 -16 20 -3 27 0 24 9 -3 7 -17 14 -32 16
-19 2 -27 0 -24 -9z"></path>
<path d="M3380 5569 c0 -5 5 -7 10 -4 6 3 10 8 10 11 0 2 -4 4 -10 4 -5 0 -10
-5 -10 -11z"></path>
<path d="M3795 5550 c11 -12 31 -20 50 -20 19 0 39 -8 50 -20 10 -11 24 -20
32 -20 16 0 17 -17 1 -23 -8 -3 -6 -6 5 -6 12 -1 17 7 17 24 0 19 -7 28 -27
35 -16 6 -36 15 -45 20 -10 6 -27 10 -37 10 -11 0 -23 5 -26 10 -3 6 -13 10
-22 10 -14 0 -14 -3 2 -20z"></path>
<path d="M3510 5544 c0 -8 5 -12 10 -9 6 4 8 11 5 16 -9 14 -15 11 -15 -7z"></path>
<path d="M3720 5520 c0 -5 5 -10 10 -10 6 0 10 5 10 10 0 6 -4 10 -10 10 -5 0
-10 -4 -10 -10z"></path>
<path d="M3764 5506 c-8 -22 3 -33 18 -18 9 9 9 15 0 24 -9 9 -13 7 -18 -6z"></path>
<path d="M3370 5495 c0 -8 5 -15 10 -15 6 0 10 7 10 15 0 8 -4 15 -10 15 -5 0
-10 -7 -10 -15z"></path>
<path d="M3625 5500 c3 -5 17 -10 31 -10 14 0 22 4 19 10 -3 6 -17 10 -31 10
-14 0 -22 -4 -19 -10z"></path>
<path d="M3590 5485 c0 -10 23 -28 59 -49 23 -13 32 -15 29 -5 -4 13 -88 64
-88 54z"></path>
<path d="M3250 5450 c0 -16 2 -30 4 -30 2 0 6 14 8 30 3 17 1 30 -4 30 -4 0
-8 -13 -8 -30z"></path>
<path d="M3496 5456 c6 -25 -8 -37 -21 -16 -7 11 -64 2 -83 -13 -10 -8 -16 -7
-22 3 -11 18 -22 8 -15 -12 5 -12 20 -15 68 -14 34 2 74 6 89 10 18 5 34 3 51
-9 16 -10 27 -12 32 -6 3 6 -14 20 -39 32 -25 11 -44 26 -43 31 1 6 -4 13 -11
15 -9 4 -11 -2 -6 -21z"></path>
<path d="M3722 5471 c-10 -6 -10 -10 3 -21 8 -7 15 -21 15 -31 0 -20 15 -26
24 -10 5 7 -20 71 -27 71 -1 0 -8 -4 -15 -9z"></path>
<path d="M3981 5464 c0 -11 3 -14 6 -6 3 7 2 16 -1 19 -3 4 -6 -2 -5 -13z"></path>
<path d="M3832 5416 c6 -15 18 -25 26 -24 23 4 25 25 5 32 -10 3 -24 9 -31 12
-10 5 -10 0 0 -20z"></path>
<path d="M4048 5433 c7 -3 16 -2 19 1 4 3 -2 6 -13 5 -11 0 -14 -3 -6 -6z"></path>
<path d="M3940 5420 c0 -5 5 -10 10 -10 6 0 10 5 10 10 0 6 -4 10 -10 10 -5 0
-10 -4 -10 -10z"></path>
<path d="M4088 5413 c7 -3 16 -2 19 1 4 3 -2 6 -13 5 -11 0 -14 -3 -6 -6z"></path>
<path d="M4120 5394 c0 -12 26 -29 49 -32 15 -2 21 0 17 7 -4 6 -16 11 -27 11
-10 0 -19 5 -19 10 0 6 -4 10 -10 10 -5 0 -10 -3 -10 -6z"></path>
<path d="M3210 5370 c0 -13 18 -22 24 -11 3 5 -1 11 -9 15 -8 3 -15 1 -15 -4z"></path>
<path d="M3502 5359 c2 -6 8 -10 13 -10 5 0 11 4 13 10 2 6 -4 11 -13 11 -9 0
-15 -5 -13 -11z"></path>
<path d="M3290 5343 c0 -8 5 -13 12 -11 18 6 21 25 3 25 -8 0 -15 -7 -15 -14z"></path>
<path d="M3346 5351 c-3 -5 1 -22 9 -37 13 -25 20 -26 16 -1 0 4 3 7 8 7 5 0
7 9 4 20 -5 21 -27 27 -37 11z"></path>
<path d="M3460 5339 c0 -5 5 -7 10 -4 6 3 10 8 10 11 0 2 -4 4 -10 4 -5 0 -10
-5 -10 -11z"></path>
<path d="M4081 5331 c-7 -5 -11 -14 -7 -19 9 -15 36 -4 36 14 0 16 -9 18 -29
5z"></path>
<path d="M4220 5330 c0 -5 5 -10 11 -10 5 0 7 5 4 10 -3 6 -8 10 -11 10 -2 0
-4 -4 -4 -10z"></path>
<path d="M4150 5290 c0 -5 5 -10 11 -10 5 0 7 5 4 10 -3 6 -8 10 -11 10 -2 0
-4 -4 -4 -10z"></path>
<path d="M4230 5290 c0 -5 7 -7 15 -4 8 4 15 8 15 10 0 2 -7 4 -15 4 -8 0 -15
-4 -15 -10z"></path>
<path d="M3145 5220 c3 -5 8 -10 11 -10 2 0 4 5 4 10 0 6 -5 10 -11 10 -5 0
-7 -4 -4 -10z"></path>
<path d="M3300 5125 c0 -8 5 -15 10 -15 6 0 10 7 10 15 0 8 -4 15 -10 15 -5 0
-10 -7 -10 -15z"></path>
<path d="M4460 5095 c0 -14 6 -25 13 -25 21 0 27 11 16 31 -14 27 -29 23 -29
-6z"></path>
<path d="M3308 5063 c7 -3 16 -2 19 1 4 3 -2 6 -13 5 -11 0 -14 -3 -6 -6z"></path>
<path d="M4505 5060 c3 -5 8 -10 11 -10 2 0 4 5 4 10 0 6 -5 10 -11 10 -5 0
-7 -4 -4 -10z"></path>
<path d="M3235 5050 c3 -5 8 -10 11 -10 2 0 4 5 4 10 0 6 -5 10 -11 10 -5 0
-7 -4 -4 -10z"></path>
<path d="M215 5031 c-3 -5 -1 -12 5 -16 12 -7 30 2 30 16 0 12 -27 12 -35 0z"></path>
<path d="M4526 5033 c-11 -11 -6 -23 9 -23 8 0 15 4 15 9 0 13 -16 22 -24 14z"></path>
<path d="M296 5001 c-4 -7 -5 -15 -2 -18 9 -9 19 4 14 18 -4 11 -6 11 -12 0z"></path>
<path d="M3305 5001 c-3 -6 12 -10 35 -9 22 0 40 4 40 9 0 12 -67 12 -75 0z"></path>
<path d="M3420 4984 c0 -8 5 -12 10 -9 6 4 8 11 5 16 -9 14 -15 11 -15 -7z"></path>
<path d="M3645 4950 c-3 -5 3 -10 15 -10 12 0 18 5 15 10 -3 6 -10 10 -15 10
-5 0 -12 -4 -15 -10z"></path>
<path d="M3853 4923 c9 -2 23 -2 30 0 6 3 -1 5 -18 5 -16 0 -22 -2 -12 -5z"></path>
<path d="M3700 4911 c0 -5 9 -12 20 -15 11 -3 29 -9 40 -12 14 -4 20 -1 20 9
0 10 -7 13 -19 10 -10 -3 -28 0 -40 6 -12 7 -21 8 -21 2z"></path>
<path d="M3565 4900 c-7 -12 18 -24 37 -18 8 3 5 9 -9 16 -14 8 -24 9 -28 2z"></path>
<path d="M3512 4888 c6 -18 28 -21 28 -4 0 9 -7 16 -16 16 -9 0 -14 -5 -12
-12z"></path>
<path d="M3780 4860 c0 -5 -7 -10 -15 -10 -8 0 -15 -4 -15 -9 0 -6 8 -10 18
-10 19 0 39 -4 65 -16 10 -4 23 -2 32 5 7 6 22 11 32 10 30 -4 43 0 43 10 0 6
-26 10 -59 10 -33 0 -63 5 -66 10 -3 6 -13 10 -21 10 -8 0 -14 -4 -14 -10z"></path>
<path d="M3610 4840 c0 -5 8 -10 18 -10 10 0 23 -5 29 -11 6 -6 17 -8 24 -4 9
6 7 11 -6 22 -22 15 -65 18 -65 3z"></path>
<path d="M3505 4822 c11 -13 21 -19 23 -13 6 19 38 12 67 -15 38 -35 41 -25 4
14 -31 33 -64 42 -72 20 -3 -10 -8 -10 -23 2 -18 14 -18 13 1 -8z"></path>
<path d="M3708 4833 c7 -3 16 -2 19 1 4 3 -2 6 -13 5 -11 0 -14 -3 -6 -6z"></path>
<path d="M4088 4823 c7 -3 16 -2 19 1 4 3 -2 6 -13 5 -11 0 -14 -3 -6 -6z"></path>
<path d="M3690 4789 c-40 -6 -27 -15 35 -23 22 -2 32 -2 23 0 -9 3 -18 11 -20
17 -2 8 -15 10 -38 6z"></path>
<path d="M3767 4794 c-3 -3 -3 -12 0 -20 4 -10 8 -11 18 -1 7 7 11 15 8 20 -5
9 -17 9 -26 1z"></path>
<path d="M3958 4793 c7 -3 16 -2 19 1 4 3 -2 6 -13 5 -11 0 -14 -3 -6 -6z"></path>
<path d="M4033 4785 c0 -8 6 -16 14 -19 8 -3 13 2 13 14 0 11 -6 20 -13 20 -8
0 -14 -7 -14 -15z"></path>
<path d="M3542 4772 c-25 -8 -27 -28 -2 -25 8 1 19 -5 23 -13 4 -8 12 -14 17
-14 16 0 11 27 -6 34 -8 3 -12 10 -9 16 3 5 5 10 3 9 -2 -1 -13 -4 -26 -7z"></path>
<path d="M3990 4771 c0 -10 19 -25 25 -20 1 2 -3 10 -11 17 -8 7 -14 8 -14 3z"></path>
<path d="M3805 4760 c-3 -5 1 -10 9 -10 9 0 16 5 16 10 0 6 -4 10 -9 10 -6 0
-13 -4 -16 -10z"></path>
<path d="M4071 4751 c-12 -8 -9 -11 12 -16 14 -4 32 -5 39 -2 8 4 7 6 -4 6
-10 1 -18 6 -18 11 0 12 -10 13 -29 1z"></path>
<path d="M3670 4740 c0 -5 7 -10 15 -10 8 0 15 5 15 10 0 6 -7 10 -15 10 -8 0
-15 -4 -15 -10z"></path>
<path d="M4605 4741 c-3 -5 -1 -12 5 -16 5 -3 10 1 10 9 0 18 -6 21 -15 7z"></path>
<path d="M3988 4733 c6 -2 18 -2 25 0 6 3 1 5 -13 5 -14 0 -19 -2 -12 -5z"></path>
<path d="M4173 4725 c0 -8 6 -15 14 -15 7 0 13 7 13 15 0 8 -6 15 -13 15 -8 0
-14 -7 -14 -15z"></path>
<path d="M3715 4721 c-6 -11 9 -23 19 -14 9 9 7 23 -3 23 -6 0 -12 -4 -16 -9z"></path>
<path d="M3870 4722 c0 -6 33 -31 43 -32 19 -1 4 28 -18 32 -14 3 -25 3 -25 0z"></path>
<path d="M4048 4713 c7 -3 16 -2 19 1 4 3 -2 6 -13 5 -11 0 -14 -3 -6 -6z"></path>
<path d="M3798 4703 c6 -2 18 -2 25 0 6 3 1 5 -13 5 -14 0 -19 -2 -12 -5z"></path>
<path d="M4038 4663 c6 -2 18 -2 25 0 6 3 1 5 -13 5 -14 0 -19 -2 -12 -5z"></path>
<path d="M3706 4652 c-2 -4 -1 -14 5 -22 7 -12 9 -10 9 8 0 23 -5 28 -14 14z"></path>
<path d="M3665 4620 c3 -5 10 -10 16 -10 5 0 9 5 9 10 0 6 -7 10 -16 10 -8 0
-12 -4 -9 -10z"></path>
<path d="M3625 4610 c-3 -5 -1 -10 4 -10 6 0 11 5 11 10 0 6 -2 10 -4 10 -3 0
-8 -4 -11 -10z"></path>
<path d="M3835 4610 c-3 -5 -1 -10 4 -10 6 0 11 5 11 10 0 6 -2 10 -4 10 -3 0
-8 -4 -11 -10z"></path>
<path d="M2 4575 c0 -16 2 -22 5 -12 2 9 2 23 0 30 -3 6 -5 -1 -5 -18z"></path>
<path d="M3735 4590 c3 -5 8 -10 11 -10 2 0 4 5 4 10 0 6 -5 10 -11 10 -5 0
-7 -4 -4 -10z"></path>
<path d="M225 4496 c-19 -14 -15 -46 5 -46 6 0 8 5 5 10 -4 6 -1 18 6 26 16
20 7 27 -16 10z"></path>
<path d="M3830 4485 c7 -8 19 -15 27 -15 13 0 13 3 3 15 -7 8 -19 15 -27 15
-13 0 -13 -3 -3 -15z"></path>
<path d="M676 4471 c-4 -5 -2 -12 3 -15 5 -4 12 -2 15 3 4 5 2 12 -3 15 -5 4
-12 2 -15 -3z"></path>
<path d="M4172 4448 c2 -6 14 -15 26 -19 20 -8 21 -6 12 11 -11 21 -44 28 -38
8z"></path>
<path d="M4148 4413 c7 -3 16 -2 19 1 4 3 -2 6 -13 5 -11 0 -14 -3 -6 -6z"></path>
<path d="M85 4390 c3 -5 8 -10 11 -10 2 0 4 5 4 10 0 6 -5 10 -11 10 -5 0 -7
-4 -4 -10z"></path>
<path d="M260 4361 c0 -5 5 -13 10 -16 6 -3 10 -2 10 4 0 5 -4 13 -10 16 -5 3
-10 2 -10 -4z"></path>
<path d="M0 4345 c0 -9 5 -15 11 -13 14 5 14 21 0 26 -6 2 -11 -4 -11 -13z"></path>
<path d="M322 4309 c2 -7 10 -15 17 -17 8 -3 12 1 9 9 -2 7 -10 15 -17 17 -8
3 -12 -1 -9 -9z"></path>
<path d="M655 4310 c3 -5 8 -10 11 -10 2 0 4 5 4 10 0 6 -5 10 -11 10 -5 0 -7
-4 -4 -10z"></path>
<path d="M615 4279 c-10 -15 3 -25 16 -12 7 7 7 13 1 17 -6 3 -14 1 -17 -5z"></path>
<path d="M150 4230 c0 -5 5 -10 10 -10 6 0 10 5 10 10 0 6 -4 10 -10 10 -5 0
-10 -4 -10 -10z"></path>
<path d="M270 4210 c0 -5 5 -10 11 -10 5 0 7 5 4 10 -3 6 -8 10 -11 10 -2 0
-4 -4 -4 -10z"></path>
<path d="M246 4192 c-3 -5 1 -15 9 -22 16 -14 20 -3 6 19 -5 8 -11 9 -15 3z"></path>
<path d="M490 4191 c0 -5 5 -13 10 -16 6 -3 10 -2 10 4 0 5 -4 13 -10 16 -5 3
-10 2 -10 -4z"></path>
<path d="M4562 4181 c2 -7 7 -12 11 -12 12 1 9 15 -3 20 -7 2 -11 -2 -8 -8z"></path>
<path d="M611 4151 c-17 -32 -13 -46 14 -46 23 0 26 4 23 29 -4 36 -23 44 -37
17z"></path>
<path d="M460 4060 c0 -5 7 -10 16 -10 8 0 12 5 9 10 -3 6 -10 10 -16 10 -5 0
-9 -4 -9 -10z"></path>
<path d="M890 4039 c0 -5 5 -7 10 -4 6 3 10 8 10 11 0 2 -4 4 -10 4 -5 0 -10
-5 -10 -11z"></path>
<path d="M617 4033 c-3 -3 -3 -11 0 -18 5 -14 33 -9 33 5 0 10 -26 20 -33 13z"></path>
<path d="M542 3988 c-7 -7 -12 -16 -12 -20 0 -12 28 -10 36 3 10 17 -10 31
-24 17z"></path>
<path d="M163 3973 c-7 -3 -13 -12 -13 -21 0 -15 2 -15 17 1 18 18 16 27 -4
20z"></path>
<path d="M632 3916 c1 -10 8 -17 13 -17 15 1 12 24 -3 29 -9 3 -13 -2 -10 -12z"></path>
<path d="M4845 3920 c-4 -6 8 -10 30 -10 22 0 34 4 30 10 -3 6 -17 10 -30 10
-13 0 -27 -4 -30 -10z"></path>
<path d="M560 3910 c-8 -5 -10 -10 -5 -10 6 0 4 -4 -4 -9 -7 -5 -10 -14 -7
-20 9 -14 66 -15 66 -1 0 6 -9 10 -21 10 -16 0 -19 4 -14 20 7 23 6 24 -15 10z"></path>
<path d="M945 3880 c-3 -6 1 -7 9 -4 18 7 21 14 7 14 -6 0 -13 -4 -16 -10z"></path>
<path d="M830 3873 c0 -4 5 -15 10 -23 8 -13 10 -13 10 2 0 9 -4 20 -10 23 -5
3 -10 3 -10 -2z"></path>
<path d="M4980 3853 c0 -12 46 -17 345 -39 116 -8 329 -24 475 -34 296 -22
360 -24 360 -12 0 5 -51 12 -112 15 -175 11 -819 58 -995 73 -47 4 -73 3 -73
-3z"></path>
<path d="M75 3840 c3 -5 8 -10 11 -10 2 0 4 5 4 10 0 6 -5 10 -11 10 -5 0 -7
-4 -4 -10z"></path>
<path d="M4646 3841 c-4 -5 -2 -12 3 -15 5 -4 12 -2 15 3 4 5 2 12 -3 15 -5 4
-12 2 -15 -3z"></path>
<path d="M790 3816 c0 -13 -6 -27 -12 -29 -8 -3 -8 -6 -2 -6 16 -1 47 36 39
48 -11 19 -25 12 -25 -13z"></path>
<path d="M950 3811 c0 -15 16 -22 34 -15 25 9 19 24 -9 24 -14 0 -25 -4 -25
-9z"></path>
<path d="M58 3764 c3 -19 1 -25 -7 -20 -6 4 -11 2 -11 -3 0 -16 17 -13 40 6
14 13 17 20 8 30 -19 23 -36 15 -30 -13z"></path>
<path d="M270 3760 c0 -5 7 -10 15 -10 8 0 15 5 15 10 0 6 -7 10 -15 10 -8 0
-15 -4 -15 -10z"></path>
<path d="M6180 3760 c0 -5 25 -10 55 -10 30 0 55 5 55 10 0 6 -25 10 -55 10
-30 0 -55 -4 -55 -10z"></path>
<path d="M977 3753 c-2 -5 -1 -19 2 -32 l7 -25 21 24 c12 12 20 27 17 32 -6
10 -41 11 -47 1z"></path>
<path d="M4242 3748 c3 -7 13 -15 24 -17 16 -3 17 -1 5 13 -16 19 -34 21 -29
4z"></path>
<path d="M6340 3750 c0 -5 9 -10 20 -10 11 0 20 5 20 10 0 6 -9 10 -20 10 -11
0 -20 -4 -20 -10z"></path>
<path d="M720 3719 c0 -18 2 -19 15 -9 15 12 12 30 -6 30 -5 0 -9 -10 -9 -21z"></path>
<path d="M795 3707 c-4 -10 -5 -21 -1 -24 10 -10 18 4 13 24 -4 17 -4 17 -12
0z"></path>
<path d="M1020 3710 c0 -5 5 -10 10 -10 6 0 10 -9 10 -21 0 -12 5 -19 13 -17
17 6 21 39 5 49 -18 12 -38 11 -38 -1z"></path>
<path d="M8 3683 c7 -3 16 -2 19 1 4 3 -2 6 -13 5 -11 0 -14 -3 -6 -6z"></path>
<path d="M930 3672 c0 -16 50 -63 60 -57 6 4 8 10 5 15 -10 16 -65 52 -65 42z"></path>
<path d="M3935 3670 c27 -12 35 -12 35 0 0 6 -12 10 -27 9 -25 0 -26 -1 -8 -9z"></path>
<path d="M246 3663 c-11 -11 -6 -23 9 -23 8 0 15 4 15 9 0 13 -16 22 -24 14z"></path>
<path d="M845 3660 c4 -6 11 -8 16 -5 14 9 11 15 -7 15 -8 0 -12 -5 -9 -10z"></path>
<path d="M100 3650 c0 -5 5 -10 10 -10 6 0 10 5 10 10 0 6 -4 10 -10 10 -5 0
-10 -4 -10 -10z"></path>
<path d="M676 3618 c-20 -23 -14 -37 9 -18 8 7 21 10 29 7 8 -3 20 1 26 9 7 8
11 14 9 15 -42 7 -58 5 -73 -13z"></path>
<path d="M150 3621 c0 -5 7 -12 16 -15 24 -9 28 -7 14 9 -14 17 -30 20 -30 6z"></path>
<path d="M3411 3614 c0 -11 3 -14 6 -6 3 7 2 16 -1 19 -3 4 -6 -2 -5 -13z"></path>
<path d="M3965 3620 c3 -5 15 -10 26 -10 10 0 19 5 19 10 0 6 -12 10 -26 10
-14 0 -23 -4 -19 -10z"></path>
<path d="M262 3608 c5 -15 28 -18 29 -3 0 6 -7 12 -17 13 -10 3 -15 -1 -12
-10z"></path>
<path d="M1100 3595 c0 -8 5 -15 10 -15 6 0 10 7 10 15 0 8 -4 15 -10 15 -5 0
-10 -7 -10 -15z"></path>
<path d="M900 3592 c0 -12 19 -26 26 -19 2 2 -2 10 -11 17 -9 8 -15 8 -15 2z"></path>
<path d="M330 3580 c0 -5 5 -10 10 -10 6 0 10 5 10 10 0 6 -4 10 -10 10 -5 0
-10 -4 -10 -10z"></path>
<path d="M4300 3571 c0 -12 24 -31 39 -31 8 0 23 -7 33 -17 10 -9 21 -13 24
-10 9 9 -15 37 -32 37 -8 0 -14 4 -14 9 0 5 -11 11 -25 13 -14 3 -25 2 -25 -1z"></path>
<path d="M72 3545 c7 -16 15 -22 21 -16 13 13 1 41 -17 41 -13 0 -14 -4 -4
-25z"></path>
<path d="M1000 3558 c0 -18 18 -34 28 -24 3 4 -2 14 -11 23 -16 16 -17 16 -17
1z"></path>
<path d="M1096 3554 c-9 -22 -8 -24 9 -24 8 0 15 6 15 14 0 22 -17 28 -24 10z"></path>
<path d="M403 3553 c-21 -7 -15 -33 7 -33 11 0 20 6 20 14 0 18 -11 25 -27 19z"></path>
<path d="M1 3534 c0 -11 3 -14 6 -6 3 7 2 16 -1 19 -3 4 -6 -2 -5 -13z"></path>
<path d="M626 3522 c-14 -14 -18 -14 -25 -4 -5 8 -17 12 -27 10 -15 -3 -12 -7
15 -21 34 -17 36 -17 54 2 10 10 15 21 10 24 -5 4 -17 -2 -27 -11z"></path>
<path d="M950 3520 c0 -5 5 -10 10 -10 6 0 10 5 10 10 0 6 -4 10 -10 10 -5 0
-10 -4 -10 -10z"></path>
<path d="M4067 3513 c3 -10 13 -26 20 -35 8 -9 12 -22 8 -27 -8 -14 1 -14 25
-1 12 7 27 7 45 0 23 -9 26 -8 23 7 -2 10 -11 18 -19 18 -9 0 -23 5 -30 12 -8
6 -23 13 -34 15 -11 2 -19 10 -17 16 1 7 -5 12 -13 12 -9 0 -12 -6 -8 -17z"></path>
<path d="M4140 3510 c0 -5 5 -10 10 -10 6 0 10 5 10 10 0 6 -4 10 -10 10 -5 0
-10 -4 -10 -10z"></path>
<path d="M4290 3505 c0 -8 7 -15 15 -15 8 0 15 4 15 9 0 5 -7 11 -15 15 -9 3
-15 0 -15 -9z"></path>
<path d="M1080 3499 c0 -5 5 -7 10 -4 6 3 10 8 10 11 0 2 -4 4 -10 4 -5 0 -10
-5 -10 -11z"></path>
<path d="M4210 3500 c0 -5 5 -10 10 -10 6 0 10 5 10 10 0 6 -4 10 -10 10 -5 0
-10 -4 -10 -10z"></path>
<path d="M532 3488 c-16 -16 -15 -35 2 -41 17 -7 26 1 26 24 0 23 -14 31 -28
17z"></path>
<path d="M710 3465 c-10 -12 -10 -15 3 -15 8 0 17 7 21 15 3 8 2 15 -3 15 -5
0 -14 -7 -21 -15z"></path>
<path d="M1108 3474 c-9 -8 13 -51 46 -88 27 -31 42 -30 32 1 -10 27 -71 95
-78 87z"></path>
<path d="M1040 3463 c0 -18 22 -63 32 -63 4 0 8 6 8 14 0 17 -39 66 -40 49z"></path>
<path d="M948 3448 c-7 -19 13 -58 29 -58 21 0 13 64 -8 68 -10 2 -19 -3 -21
-10z"></path>
<path d="M1512 3445 c3 -3 23 -8 44 -10 28 -4 35 -2 24 5 -15 10 -78 14 -68 5z"></path>
<path d="M892 3424 c-13 -6 -20 -14 -15 -17 8 -5 50 20 42 26 -2 2 -15 -2 -27
-9z"></path>
<path d="M595 3420 c-8 -13 4 -32 16 -25 12 8 12 35 0 35 -6 0 -13 -4 -16 -10z"></path>
<path d="M1675 3415 c57 -15 124 -19 90 -6 -11 5 -47 11 -80 14 l-60 6 50 -14z"></path>
<path d="M35 3410 c3 -5 13 -10 21 -10 8 0 12 5 9 10 -3 6 -13 10 -21 10 -8 0
-12 -4 -9 -10z"></path>
<path d="M1210 3412 c0 -5 7 -15 15 -22 8 -7 15 -8 15 -2 0 5 -7 15 -15 22 -8
7 -15 8 -15 2z"></path>
<path d="M2058 3413 c7 -3 16 -2 19 1 4 3 -2 6 -13 5 -11 0 -14 -3 -6 -6z"></path>
<path d="M4415 3410 c-3 -5 1 -10 9 -10 9 0 16 5 16 10 0 6 -4 10 -9 10 -6 0
-13 -4 -16 -10z"></path>
<path d="M535 3390 c10 -11 25 -20 34 -20 12 0 9 6 -9 20 -33 26 -48 26 -25 0z"></path>
<path d="M647 3393 c-12 -11 -8 -23 7 -23 8 0 16 7 20 15 5 15 -14 21 -27 8z"></path>
<path d="M5000 3390 c0 -5 5 -10 10 -10 6 0 10 5 10 10 0 6 -4 10 -10 10 -5 0
-10 -4 -10 -10z"></path>
<path d="M900 3370 c0 -5 7 -10 15 -10 8 0 15 5 15 10 0 6 -7 10 -15 10 -8 0
-15 -4 -15 -10z"></path>
<path d="M767 3363 c-4 -7 -3 -22 3 -33 11 -21 30 -27 30 -10 0 6 -4 10 -9 10
-5 0 -11 10 -13 23 -2 15 -6 18 -11 10z"></path>
<path d="M686 3346 c6 -16 34 -30 34 -18 0 10 -22 32 -32 32 -4 0 -5 -6 -2
-14z"></path>
<path d="M830 3345 c10 -12 9 -16 -4 -21 -16 -6 -16 -8 -1 -24 10 -11 15 -30
13 -47 -2 -22 -8 -28 -25 -26 -26 3 -32 -21 -8 -31 8 -3 15 -1 15 4 0 6 9 10
19 10 25 0 31 19 21 63 -4 20 -6 38 -3 41 6 6 -20 46 -31 46 -4 0 -3 -7 4 -15z"></path>
<path d="M1050 3350 c0 -5 5 -10 10 -10 6 0 10 5 10 10 0 6 -4 10 -10 10 -5 0
-10 -4 -10 -10z"></path>
<path d="M1210 3341 c0 -5 4 -12 9 -15 5 -3 7 -16 4 -27 -4 -16 -2 -20 8 -17
21 7 18 62 -3 66 -10 2 -18 -1 -18 -7z"></path>
<path d="M615 3310 c-4 -6 -2 -17 4 -23 15 -15 25 -2 13 19 -7 12 -11 13 -17
4z"></path>
<path d="M927 3276 c-18 -14 -22 -26 -9 -26 15 0 45 27 36 33 -5 3 -17 0 -27
-7z"></path>
<path d="M1296 3267 c3 -10 9 -15 12 -12 3 3 0 11 -7 18 -10 9 -11 8 -5 -6z"></path>
<path d="M5020 3199 c0 -5 5 -7 10 -4 6 3 10 8 10 11 0 2 -4 4 -10 4 -5 0 -10
-5 -10 -11z"></path>
<path d="M1302 3159 c1 -12 9 -24 16 -27 9 -3 13 3 10 19 -1 12 -9 24 -16 27
-9 3 -13 -3 -10 -19z"></path>
<path d="M796 3161 c-4 -5 -2 -12 3 -15 5 -4 12 -2 15 3 4 5 2 12 -3 15 -5 4
-12 2 -15 -3z"></path>
<path d="M970 3152 c0 -11 6 -24 13 -30 10 -9 13 -5 12 15 0 30 -25 45 -25 15z"></path>
<path d="M770 3106 c0 -7 9 -16 20 -19 17 -4 18 -2 9 14 -11 22 -29 25 -29 5z"></path>
<path d="M1025 3100 c-3 -5 -1 -10 4 -10 6 0 11 5 11 10 0 6 -2 10 -4 10 -3 0
-8 -4 -11 -10z"></path>
<path d="M641 3081 c13 -11 28 -17 33 -14 11 7 -22 33 -42 33 -9 0 -6 -7 9
-19z"></path>
<path d="M1297 3075 c21 -28 37 -27 41 3 3 19 -1 22 -28 22 l-31 0 18 -25z"></path>
<path d="M5330 3080 c0 -5 5 -10 10 -10 6 0 10 5 10 10 0 6 -4 10 -10 10 -5 0
-10 -4 -10 -10z"></path>
<path d="M1360 3064 c0 -8 5 -12 10 -9 6 4 8 11 5 16 -9 14 -15 11 -15 -7z"></path>
<path d="M968 3063 c-26 -7 -22 -23 6 -23 13 0 26 7 30 15 5 15 -3 17 -36 8z"></path>
<path d="M1170 3056 c0 -9 5 -16 11 -16 6 0 8 -8 4 -19 -4 -14 0 -23 15 -31
11 -6 20 -8 20 -4 0 4 8 0 19 -10 10 -9 25 -14 35 -10 20 8 20 18 2 34 -8 6
-16 21 -18 33 -2 12 -11 23 -21 25 -16 3 -17 1 -5 -17 9 -15 10 -23 1 -32 -8
-8 -14 -5 -24 12 -7 13 -18 30 -26 37 -11 11 -13 11 -13 -2z"></path>
<path d="M628 3054 c-9 -14 11 -56 22 -49 13 8 13 18 -3 40 -8 10 -16 14 -19
9z"></path>
<path d="M880 3040 c0 -5 7 -10 16 -10 8 0 12 5 9 10 -3 6 -10 10 -16 10 -5 0
-9 -4 -9 -10z"></path>
<path d="M1107 3035 c3 -10 1 -15 -7 -13 -7 2 -15 -3 -17 -9 -3 -8 4 -13 16
-13 12 0 21 -5 21 -12 0 -9 3 -9 12 0 9 9 9 18 0 37 -12 27 -35 36 -25 10z"></path>
<path d="M187 3033 c-7 -10 21 -49 29 -40 3 3 -1 15 -9 27 -8 12 -17 18 -20
13z"></path>
<path d="M4930 3030 c0 -5 5 -10 10 -10 6 0 10 5 10 10 0 6 -4 10 -10 10 -5 0
-10 -4 -10 -10z"></path>
<path d="M860 3015 c0 -8 4 -15 10 -15 5 0 7 7 4 15 -4 8 -8 15 -10 15 -2 0
-4 -7 -4 -15z"></path>
<path d="M4970 3020 c-9 -6 -7 -10 9 -15 27 -8 33 -4 16 12 -6 6 -18 7 -25 3z"></path>
<path d="M5330 3004 c0 -17 22 -14 28 4 2 7 -3 12 -12 12 -9 0 -16 -7 -16 -16z"></path>
<path d="M125 2991 c-3 -5 -1 -12 5 -16 5 -3 10 1 10 9 0 18 -6 21 -15 7z"></path>
<path d="M5110 2985 c0 -8 7 -15 15 -15 8 0 15 7 15 15 0 8 -7 15 -15 15 -8 0
-15 -7 -15 -15z"></path>
<path d="M5193 2983 c9 -2 23 -2 30 0 6 3 -1 5 -18 5 -16 0 -22 -2 -12 -5z"></path>
<path d="M605 2970 c-4 -6 5 -10 19 -10 14 0 26 5 26 10 0 6 -9 10 -19 10 -11
0 -23 -4 -26 -10z"></path>
<path d="M1083 2969 c-39 -14 -44 -95 -6 -87 13 2 17 11 15 31 -2 16 2 35 9
43 16 19 9 24 -18 13z"></path>
<path d="M5280 2965 c0 -8 9 -15 20 -15 11 0 20 7 20 15 0 8 -9 15 -20 15 -11
0 -20 -7 -20 -15z"></path>
<path d="M5410 2967 c0 -10 8 -17 18 -17 9 0 13 4 7 8 -5 4 -13 11 -17 16 -5
5 -8 2 -8 -7z"></path>
<path d="M397 2954 c3 -7 9 -14 14 -14 14 0 10 17 -5 23 -10 4 -13 1 -9 -9z"></path>
<path d="M506 2962 c-3 -6 1 -15 8 -21 8 -7 17 -8 20 -3 3 6 -1 15 -8 21 -8 7
-17 8 -20 3z"></path>
<path d="M5358 2963 c6 -2 18 -2 25 0 6 3 1 5 -13 5 -14 0 -19 -2 -12 -5z"></path>
<path d="M5100 2950 c0 -5 5 -10 10 -10 6 0 10 5 10 10 0 6 -4 10 -10 10 -5 0
-10 -4 -10 -10z"></path>
<path d="M5580 2945 c0 -9 9 -15 21 -15 18 0 19 2 5 15 -8 8 -17 15 -20 15 -3
0 -6 -7 -6 -15z"></path>
<path d="M30 2940 c0 -5 5 -10 10 -10 6 0 10 5 10 10 0 6 -4 10 -10 10 -5 0
-10 -4 -10 -10z"></path>
<path d="M990 2940 c0 -5 5 -10 10 -10 6 0 10 5 10 10 0 6 -4 10 -10 10 -5 0
-10 -4 -10 -10z"></path>
<path d="M5650 2935 c0 -9 9 -15 21 -15 18 0 19 2 5 15 -8 8 -17 15 -20 15 -3
0 -6 -7 -6 -15z"></path>
<path d="M570 2934 c0 -10 28 -34 39 -34 18 0 12 19 -8 30 -22 11 -31 13 -31
4z"></path>
<path d="M326 2915 c4 -8 8 -15 10 -15 2 0 4 7 4 15 0 8 -4 15 -10 15 -5 0 -7
-7 -4 -15z"></path>
<path d="M1115 2922 c-3 -3 4 -11 15 -19 23 -16 26 -33 6 -33 -14 0 -31 -29
-21 -38 2 -3 22 3 43 12 36 16 39 20 33 49 -6 28 -11 32 -39 33 -17 1 -34 -1
-37 -4z"></path>
<path d="M5340 2920 c0 -5 5 -10 10 -10 6 0 10 5 10 10 0 6 -4 10 -10 10 -5 0
-10 -4 -10 -10z"></path>
<path d="M1312 2908 c-16 -16 -15 -25 2 -31 8 -3 16 2 19 14 6 23 -6 32 -21
17z"></path>
<path d="M5420 2910 c0 -5 7 -10 15 -10 8 0 15 5 15 10 0 6 -7 10 -15 10 -8 0
-15 -4 -15 -10z"></path>
<path d="M5763 2913 c9 -2 25 -2 35 0 9 3 1 5 -18 5 -19 0 -27 -2 -17 -5z"></path>
<path d="M5863 2903 c9 -2 23 -2 30 0 6 3 -1 5 -18 5 -16 0 -22 -2 -12 -5z"></path>
<path d="M0 2886 c0 -9 5 -16 10 -16 6 0 10 4 10 9 0 6 -4 13 -10 16 -5 3 -10
-1 -10 -9z"></path>
<path d="M5045 2890 c-3 -5 1 -10 9 -10 9 0 16 5 16 10 0 6 -4 10 -9 10 -6 0
-13 -4 -16 -10z"></path>
<path d="M5115 2880 c3 -5 13 -10 21 -10 8 0 14 5 14 10 0 6 -9 10 -21 10 -11
0 -17 -4 -14 -10z"></path>
<path d="M5645 2880 c-3 -5 1 -10 9 -10 9 0 16 5 16 10 0 6 -4 10 -9 10 -6 0
-13 -4 -16 -10z"></path>
<path d="M6066 2875 c4 -8 10 -15 15 -15 5 0 9 7 9 15 0 8 -7 15 -15 15 -9 0
-12 -6 -9 -15z"></path>
<path d="M555 2870 c-3 -5 -1 -10 6 -10 7 0 20 -6 28 -14 9 -8 32 -17 51 -20
35 -7 35 -7 10 8 -14 9 -33 19 -42 22 -10 3 -18 10 -18 15 0 12 -27 11 -35 -1z"></path>
<path d="M5161 2876 c12 -10 59 -15 59 -6 0 5 -14 10 -32 10 -17 0 -29 -2 -27
-4z"></path>
<path d="M5730 2870 c0 -5 5 -10 10 -10 6 0 10 5 10 10 0 6 -4 10 -10 10 -5 0
-10 -4 -10 -10z"></path>
<path d="M6168 2873 c7 -3 16 -2 19 1 4 3 -2 6 -13 5 -11 0 -14 -3 -6 -6z"></path>
<path d="M775 2860 c3 -5 11 -10 16 -10 6 0 7 5 4 10 -3 6 -11 10 -16 10 -6 0
-7 -4 -4 -10z"></path>
<path d="M1050 2860 c0 -5 7 -10 16 -10 8 0 12 5 9 10 -3 6 -10 10 -16 10 -5
0 -9 -4 -9 -10z"></path>
<path d="M4953 2863 c9 -2 25 -2 35 0 9 3 1 5 -18 5 -19 0 -27 -2 -17 -5z"></path>
<path d="M5230 2860 c0 -5 5 -10 11 -10 5 0 7 5 4 10 -3 6 -8 10 -11 10 -2 0
-4 -4 -4 -10z"></path>
<path d="M5266 2861 c5 -5 27 -11 49 -14 l40 -6 -30 14 c-34 16 -75 20 -59 6z"></path>
<path d="M5820 2860 c0 -5 7 -10 15 -10 8 0 15 5 15 10 0 6 -7 10 -15 10 -8 0
-15 -4 -15 -10z"></path>
<path d="M5407 2853 c-13 -12 -7 -23 13 -23 11 0 20 7 20 15 0 15 -21 21 -33
8z"></path>
<path d="M5930 2850 c0 -5 5 -10 10 -10 6 0 10 5 10 10 0 6 -4 10 -10 10 -5 0
-10 -4 -10 -10z"></path>
<path d="M212 2838 c5 -15 28 -23 28 -10 0 5 -7 13 -16 16 -10 4 -14 1 -12 -6z"></path>
<path d="M485 2840 c4 -6 11 -8 16 -5 14 9 11 15 -7 15 -8 0 -12 -5 -9 -10z"></path>
<path d="M95 2830 c3 -5 8 -10 11 -10 2 0 4 5 4 10 0 6 -5 10 -11 10 -5 0 -7
-4 -4 -10z"></path>
<path d="M5174 2821 c0 -15 10 -21 43 -26 24 -3 43 -11 43 -17 0 -7 -16 -9
-45 -5 -36 5 -45 4 -45 -8 0 -11 8 -13 30 -8 19 3 30 1 30 -5 0 -7 11 -9 30
-5 17 3 30 2 30 -3 0 -5 30 -10 68 -11 60 -1 65 0 48 13 -28 20 -12 29 31 16
21 -6 63 -14 94 -17 55 -6 57 -5 61 19 4 18 1 26 -8 26 -8 0 -14 -7 -14 -15 0
-23 -47 -19 -55 5 -8 25 -25 26 -25 2 0 -11 -7 -18 -20 -18 -11 0 -20 6 -20
13 0 9 -8 11 -25 7 -16 -4 -25 -2 -25 6 0 8 -12 10 -40 5 -27 -5 -40 -3 -40 5
0 7 -12 9 -35 4 -24 -4 -35 -3 -35 6 0 8 -8 10 -24 6 -16 -4 -26 -1 -30 9 -8
21 -22 19 -22 -4z m126 -47 c0 -2 -7 -4 -15 -4 -8 0 -15 4 -15 10 0 5 7 7 15
4 8 -4 15 -8 15 -10z m65 -4 c4 -6 -7 -10 -24 -10 -17 0 -31 5 -31 10 0 6 11
10 24 10 14 0 28 -4 31 -10z"></path>
<path d="M6130 2830 c0 -5 7 -10 15 -10 8 0 15 5 15 10 0 6 -7 10 -15 10 -8 0
-15 -4 -15 -10z"></path>
<path d="M6550 2830 c0 -5 5 -10 10 -10 6 0 10 5 10 10 0 6 -4 10 -10 10 -5 0
-10 -4 -10 -10z"></path>
<path d="M1030 2816 c0 -9 8 -16 18 -16 15 0 15 -2 2 -11 -12 -8 -11 -10 5 -7
29 5 27 42 -2 46 -16 2 -23 -2 -23 -12z"></path>
<path d="M1237 2816 c-3 -8 -2 -18 4 -22 16 -9 22 2 11 21 -8 15 -10 16 -15 1z"></path>
<path d="M5545 2820 c3 -5 17 -10 31 -10 13 0 24 5 24 10 0 6 -14 10 -31 10
-17 0 -28 -4 -24 -10z"></path>
<path d="M160 2810 c0 -5 7 -10 15 -10 8 0 15 5 15 10 0 6 -7 10 -15 10 -8 0
-15 -4 -15 -10z"></path>
<path d="M1408 2789 c4 -30 6 -31 19 -14 16 22 12 39 -9 43 -11 2 -14 -5 -10
-29z"></path>
<path d="M5630 2810 c0 -5 9 -10 20 -10 11 0 20 5 20 10 0 6 -9 10 -20 10 -11
0 -20 -4 -20 -10z"></path>
<path d="M6350 2810 c0 -5 9 -10 20 -10 11 0 20 5 20 10 0 6 -9 10 -20 10 -11
0 -20 -4 -20 -10z"></path>
<path d="M501 2794 c-12 -14 -11 -15 8 -12 12 1 22 7 22 13 1 16 -15 15 -30
-1z"></path>
<path d="M593 2793 c9 -11 17 -32 17 -46 0 -32 1 -32 39 -9 18 11 27 23 23 29
-5 8 -13 9 -22 3 -21 -14 -30 -12 -30 5 0 8 -10 20 -22 26 -22 12 -22 11 -5
-8z"></path>
<path d="M670 2800 c0 -5 5 -10 11 -10 5 0 7 5 4 10 -3 6 -8 10 -11 10 -2 0
-4 -4 -4 -10z"></path>
<path d="M5710 2800 c0 -5 14 -10 30 -10 17 0 30 5 30 10 0 6 -13 10 -30 10
-16 0 -30 -4 -30 -10z"></path>
<path d="M6450 2800 c0 -5 9 -10 20 -10 11 0 20 5 20 10 0 6 -9 10 -20 10 -11
0 -20 -4 -20 -10z"></path>
<path d="M5790 2790 c0 -5 11 -10 25 -10 14 0 25 5 25 10 0 6 -11 10 -25 10
-14 0 -25 -4 -25 -10z"></path>
<path d="M6590 2790 c0 -5 5 -10 10 -10 6 0 10 5 10 10 0 6 -4 10 -10 10 -5 0
-10 -4 -10 -10z"></path>
<path d="M5900 2780 c0 -5 6 -10 13 -10 6 0 23 -3 37 -7 23 -6 24 -6 8 10 -18
18 -58 23 -58 7z"></path>
<path d="M1 2764 c0 -11 3 -14 6 -6 3 7 2 16 -1 19 -3 4 -6 -2 -5 -13z"></path>
<path d="M452 2771 c-11 -7 -11 -9 2 -14 10 -4 16 -1 16 8 0 17 -1 17 -18 6z"></path>
<path d="M5990 2770 c0 -5 9 -10 19 -10 11 0 27 -3 35 -6 12 -5 15 -2 10 10
-7 17 -64 23 -64 6z"></path>
<path d="M345 2761 c-7 -12 12 -24 25 -16 11 7 4 25 -10 25 -5 0 -11 -4 -15
-9z"></path>
<path d="M390 2756 c0 -8 14 -17 31 -21 37 -8 50 0 14 9 -14 4 -25 11 -25 16
0 6 -4 10 -10 10 -5 0 -10 -6 -10 -14z"></path>
<path d="M6100 2760 c0 -5 7 -10 15 -10 8 0 15 5 15 10 0 6 -7 10 -15 10 -8 0
-15 -4 -15 -10z"></path>
<path d="M6210 2756 c0 -15 37 -32 47 -22 4 3 1 6 -5 6 -7 0 -12 7 -12 15 0 8
-7 15 -15 15 -8 0 -15 -6 -15 -14z"></path>
<path d="M5647 2753 c-12 -11 -8 -23 8 -23 8 0 15 7 15 15 0 16 -12 20 -23 8z"></path>
<path d="M5813 2746 c3 -8 1 -17 -6 -20 -24 -10 15 -23 69 -24 40 0 54 3 54
14 0 10 -8 12 -30 8 -19 -4 -30 -2 -30 5 0 6 -7 11 -15 11 -8 0 -15 5 -15 10
0 6 -7 10 -16 10 -10 0 -14 -6 -11 -14z"></path>
<path d="M720 2745 c0 -3 18 -12 40 -21 22 -9 37 -20 34 -25 -3 -5 3 -9 13 -9
14 1 10 8 -17 30 -30 26 -70 40 -70 25z"></path>
<path d="M5608 2743 c7 -3 16 -2 19 1 4 3 -2 6 -13 5 -11 0 -14 -3 -6 -6z"></path>
<path d="M5938 2743 c6 -2 18 -2 25 0 6 3 1 5 -13 5 -14 0 -19 -2 -12 -5z"></path>
<path d="M6300 2740 c0 -5 9 -10 20 -10 11 0 20 5 20 10 0 6 -9 10 -20 10 -11
0 -20 -4 -20 -10z"></path>
<path d="M6360 2740 c0 -5 5 -10 10 -10 6 0 10 5 10 10 0 6 -4 10 -10 10 -5 0
-10 -4 -10 -10z"></path>
<path d="M96 2733 c-11 -11 -6 -23 9 -23 8 0 15 4 15 9 0 13 -16 22 -24 14z"></path>
<path d="M5444 2729 c-5 -9 -1 -11 14 -7 12 4 25 2 28 -3 3 -5 21 -9 40 -9 19
0 34 -4 34 -10 0 -5 7 -10 15 -10 8 0 15 5 15 11 0 5 5 7 12 3 6 -4 8 -3 4 4
-3 6 -28 14 -54 17 -26 3 -59 9 -74 11 -15 3 -29 0 -34 -7z"></path>
<path d="M5982 2703 c-13 -44 -9 -53 24 -51 21 2 23 4 10 14 -9 6 -14 13 -12
15 2 2 6 16 10 32 10 42 -18 34 -32 -10z"></path>
<path d="M6420 2730 c0 -5 14 -10 30 -10 17 0 30 5 30 10 0 6 -13 10 -30 10
-16 0 -30 -4 -30 -10z"></path>
<path d="M332 2719 c2 -7 10 -15 17 -17 8 -3 12 1 9 9 -2 7 -10 15 -17 17 -8
3 -12 -1 -9 -9z"></path>
<path d="M1440 2715 c-18 -22 -6 -42 29 -50 32 -7 40 -20 19 -28 -10 -4 -10
-7 0 -18 17 -18 15 -29 -5 -29 -17 -1 -17 -2 0 -14 10 -8 14 -17 9 -20 -7 -4
-6 -15 1 -31 19 -40 30 -29 23 24 -3 27 -2 60 3 74 9 22 5 30 -29 66 -32 34
-40 38 -50 26z"></path>
<path d="M5190 2726 c0 -10 28 -13 41 -5 10 6 7 9 -13 9 -16 0 -28 -2 -28 -4z"></path>
<path d="M6092 2710 c-16 -26 -15 -30 3 -30 9 0 15 9 15 25 0 30 -2 31 -18 5z"></path>
<path d="M6530 2720 c0 -5 7 -10 15 -10 8 0 15 5 15 10 0 6 -7 10 -15 10 -8 0
-15 -4 -15 -10z"></path>
<path d="M1540 2712 c0 -12 19 -26 26 -19 2 2 -2 10 -11 17 -9 8 -15 8 -15 2z"></path>
<path d="M6238 2713 c7 -3 16 -2 19 1 4 3 -2 6 -13 5 -11 0 -14 -3 -6 -6z"></path>
<path d="M6640 2710 c0 -5 11 -10 25 -10 14 0 25 5 25 10 0 6 -11 10 -25 10
-14 0 -25 -4 -25 -10z"></path>
<path d="M6720 2710 c0 -5 5 -10 10 -10 6 0 10 5 10 10 0 6 -4 10 -10 10 -5 0
-10 -4 -10 -10z"></path>
<path d="M5640 2695 c0 -8 9 -15 20 -15 11 0 20 7 20 15 0 8 -9 15 -20 15 -11
0 -20 -7 -20 -15z"></path>
<path d="M6770 2700 c0 -5 7 -10 15 -10 8 0 15 5 15 10 0 6 -7 10 -15 10 -8 0
-15 -4 -15 -10z"></path>
<path d="M6820 2700 c0 -5 5 -10 10 -10 6 0 10 5 10 10 0 6 -4 10 -10 10 -5 0
-10 -4 -10 -10z"></path>
<path d="M285 2690 c3 -5 10 -10 16 -10 5 0 9 5 9 10 0 6 -7 10 -16 10 -8 0
-12 -4 -9 -10z"></path>
<path d="M610 2690 c0 -5 5 -10 10 -10 6 0 10 5 10 10 0 6 -4 10 -10 10 -5 0
-10 -4 -10 -10z"></path>
<path d="M745 2690 c-7 -11 35 -31 48 -23 11 6 -12 33 -29 33 -7 0 -16 -5 -19
-10z"></path>
<path d="M6178 2693 c-29 -7 -20 -23 12 -23 20 0 30 5 30 15 0 15 -9 17 -42 8z"></path>
<path d="M6410 2691 c0 -5 -3 -16 -6 -25 -4 -11 -1 -16 10 -16 10 0 16 9 16
25 0 14 -4 25 -10 25 -5 0 -10 -4 -10 -9z"></path>
<path d="M6880 2690 c0 -5 7 -10 15 -10 8 0 15 5 15 10 0 6 -7 10 -15 10 -8 0
-15 -4 -15 -10z"></path>
<path d="M6930 2690 c0 -5 5 -10 10 -10 6 0 10 5 10 10 0 6 -4 10 -10 10 -5 0
-10 -4 -10 -10z"></path>
<path d="M5543 2673 c9 -2 23 -2 30 0 6 3 -1 5 -18 5 -16 0 -22 -2 -12 -5z"></path>
<path d="M5890 2670 c0 -5 5 -10 10 -10 6 0 10 5 10 10 0 6 -4 10 -10 10 -5 0
-10 -4 -10 -10z"></path>
<path d="M6270 2670 c0 -5 9 -10 20 -10 11 0 20 5 20 10 0 6 -9 10 -20 10 -11
0 -20 -4 -20 -10z"></path>
<path d="M6630 2671 c0 -5 -3 -16 -6 -25 -4 -11 0 -16 15 -16 14 0 19 5 15 15
-4 8 -1 15 5 15 6 0 11 5 11 10 0 6 -9 10 -20 10 -11 0 -20 -4 -20 -9z"></path>
<path d="M5638 2663 c7 -3 16 -2 19 1 4 3 -2 6 -13 5 -11 0 -14 -3 -6 -6z"></path>
<path d="M6503 2663 c-34 -6 -28 -20 10 -25 29 -3 33 -1 29 14 -2 10 -7 17
-11 17 -3 -1 -16 -4 -28 -6z"></path>
<path d="M6064 2645 c3 -10 -2 -18 -14 -23 -13 -5 -17 -11 -11 -21 12 -19 45
-6 37 14 -4 10 3 19 19 25 34 13 31 20 -6 20 -24 0 -30 -4 -25 -15z"></path>
<path d="M5646 2635 c-11 -8 -15 -15 -10 -15 6 0 19 7 30 15 10 8 15 14 9 14
-5 0 -19 -6 -29 -14z"></path>
<path d="M6180 2640 c0 -5 4 -10 9 -10 6 0 13 5 16 10 3 6 -1 10 -9 10 -9 0
-16 -4 -16 -10z"></path>
<path d="M6566 2641 c-3 -5 0 -11 8 -14 15 -6 26 1 26 15 0 11 -27 10 -34 -1z"></path>
<path d="M6990 2635 c0 -8 -9 -15 -20 -15 -11 0 -20 -4 -20 -10 0 -5 11 -10
25 -10 20 0 25 5 25 25 0 14 -2 25 -5 25 -3 0 -5 -7 -5 -15z"></path>
<path d="M405 2630 c-3 -5 1 -10 9 -10 8 0 18 5 21 10 3 6 -1 10 -9 10 -8 0
-18 -4 -21 -10z"></path>
<path d="M6270 2630 c0 -5 6 -10 14 -10 8 0 18 5 21 10 3 6 -3 10 -14 10 -12
0 -21 -4 -21 -10z"></path>
<path d="M6340 2631 c-25 -7 -25 -7 9 -19 26 -9 37 -9 48 0 11 9 11 13 1 19
-15 10 -23 10 -58 0z"></path>
<path d="M6710 2630 c0 -5 9 -10 20 -10 11 0 20 5 20 10 0 6 -9 10 -20 10 -11
0 -20 -4 -20 -10z"></path>
<path d="M864 2594 c-10 -30 -9 -35 4 -32 17 3 22 24 13 50 -5 14 -9 9 -17
-18z"></path>
<path d="M6820 2620 c0 -5 9 -10 20 -10 11 0 20 -4 20 -10 0 -5 -7 -10 -15
-10 -8 0 -15 -4 -15 -10 0 -11 30 -13 55 -4 13 5 14 8 3 15 -9 6 -10 9 -1 9 7
0 10 7 7 15 -7 17 -74 21 -74 5z"></path>
<path d="M1415 2611 c-6 -11 9 -23 19 -14 9 9 7 23 -3 23 -6 0 -12 -4 -16 -9z"></path>
<path d="M5988 2613 c6 -2 18 -2 25 0 6 3 1 5 -13 5 -14 0 -19 -2 -12 -5z"></path>
<path d="M6470 2610 c0 -5 9 -10 20 -10 11 0 20 5 20 10 0 6 -9 10 -20 10 -11
0 -20 -4 -20 -10z"></path>
<path d="M6538 2608 c9 -9 15 -9 24 0 9 9 7 12 -12 12 -19 0 -21 -3 -12 -12z"></path>
<path d="M6600 2600 c0 -5 5 -10 10 -10 6 0 10 5 10 10 0 6 -4 10 -10 10 -5 0
-10 -4 -10 -10z"></path>
<path d="M6203 2593 c15 -2 27 -11 27 -19 0 -17 31 -19 48 -2 10 10 16 9 28
-3 15 -16 64 -15 64 1 0 7 -152 31 -180 29 -8 -1 -3 -4 13 -6z"></path>
<path d="M40 2565 c0 -8 2 -15 4 -15 2 0 6 7 10 15 3 8 1 15 -4 15 -6 0 -10
-7 -10 -15z"></path>
<path d="M6418 2573 c12 -2 22 -9 22 -14 0 -12 67 -12 74 0 9 13 -20 21 -72
20 -26 -1 -37 -4 -24 -6z"></path>
<path d="M6563 2563 c-25 -9 -13 -23 20 -23 49 0 82 11 65 21 -14 9 -65 11
-85 2z"></path>
<path d="M740 2535 c0 -8 5 -15 10 -15 6 0 10 7 10 15 0 8 -4 15 -10 15 -5 0
-10 -7 -10 -15z"></path>
<path d="M6690 2540 c0 -5 7 -7 15 -4 8 4 15 8 15 10 0 2 -7 4 -15 4 -8 0 -15
-4 -15 -10z"></path>
<path d="M6788 2543 c6 -2 18 -2 25 0 6 3 1 5 -13 5 -14 0 -19 -2 -12 -5z"></path>
<path d="M140 2525 c0 -8 7 -15 15 -15 8 0 15 7 15 15 0 8 -7 15 -15 15 -8 0
-15 -7 -15 -15z"></path>
<path d="M6108 2533 c7 -3 16 -2 19 1 4 3 -2 6 -13 5 -11 0 -14 -3 -6 -6z"></path>
<path d="M6276 2525 c4 -8 16 -15 27 -15 20 0 20 0 1 15 -25 19 -35 19 -28 0z"></path>
<path d="M6383 2525 c-3 -9 -3 -18 -1 -21 9 -9 38 8 38 22 0 19 -29 18 -37 -1z"></path>
<path d="M6887 2533 c-4 -3 -6 -18 -6 -32 1 -17 3 -20 6 -8 2 9 13 17 24 17
23 0 25 15 3 24 -19 7 -19 7 -27 -1z"></path>
<path d="M6208 2523 c12 -2 30 -2 40 0 9 3 -1 5 -23 4 -22 0 -30 -2 -17 -4z"></path>
<path d="M6978 2523 c7 -3 16 -2 19 1 4 3 -2 6 -13 5 -11 0 -14 -3 -6 -6z"></path>
<path d="M6448 2513 c7 -3 16 -2 19 1 4 3 -2 6 -13 5 -11 0 -14 -3 -6 -6z"></path>
<path d="M1330 2500 c0 -5 5 -10 11 -10 5 0 7 5 4 10 -3 6 -8 10 -11 10 -2 0
-4 -4 -4 -10z"></path>
<path d="M118 2488 c9 -9 15 -9 24 0 9 9 7 12 -12 12 -19 0 -21 -3 -12 -12z"></path>
<path d="M6653 2493 c-24 -9 -13 -23 17 -23 32 0 40 14 14 24 -9 3 -16 6 -17
5 -1 0 -8 -3 -14 -6z"></path>
<path d="M240 2479 c0 -5 5 -7 10 -4 6 3 10 8 10 11 0 2 -4 4 -10 4 -5 0 -10
-5 -10 -11z"></path>
<path d="M732 2479 c2 -6 8 -10 13 -10 5 0 11 4 13 10 2 6 -4 11 -13 11 -9 0
-15 -5 -13 -11z"></path>
<path d="M6215 2480 c17 -4 44 -8 60 -8 l30 0 -30 8 c-16 4 -43 8 -60 8 l-30
0 30 -8z"></path>
<path d="M580 2473 c0 -4 12 -13 26 -20 22 -10 25 -9 22 5 -3 17 -48 31 -48
15z"></path>
<path d="M6780 2470 c0 -5 9 -10 20 -10 11 0 20 5 20 10 0 6 -9 10 -20 10 -11
0 -20 -4 -20 -10z"></path>
<path d="M36 2461 c-4 -5 -2 -12 3 -15 5 -4 12 -2 15 3 4 5 2 12 -3 15 -5 4
-12 2 -15 -3z"></path>
<path d="M216 2461 c-4 -7 -5 -15 -2 -18 9 -9 19 4 14 18 -4 11 -6 11 -12 0z"></path>
<path d="M6350 2466 c0 -2 9 -6 20 -9 11 -3 18 -1 14 4 -5 9 -34 13 -34 5z"></path>
<path d="M117 2449 c7 -7 15 -10 18 -7 3 3 -2 9 -12 12 -14 6 -15 5 -6 -5z"></path>
<path d="M310 2450 c0 -5 5 -10 10 -10 6 0 10 5 10 10 0 6 -4 10 -10 10 -5 0
-10 -4 -10 -10z"></path>
<path d="M558 2455 c-7 -7 2 -54 12 -60 4 -3 10 1 12 8 5 14 -16 60 -24 52z"></path>
<path d="M890 2450 c0 -5 5 -10 10 -10 6 0 10 5 10 10 0 6 -4 10 -10 10 -5 0
-10 -4 -10 -10z"></path>
<path d="M1245 2440 c3 -5 8 -10 11 -10 2 0 4 5 4 10 0 6 -5 10 -11 10 -5 0
-7 -4 -4 -10z"></path>
<path d="M6600 2440 c20 -13 40 -13 40 0 0 6 -12 10 -27 10 -22 0 -25 -2 -13
-10z"></path>
<path d="M6318 2433 c7 -3 16 -2 19 1 4 3 -2 6 -13 5 -11 0 -14 -3 -6 -6z"></path>
<path d="M1198 2413 c7 -3 16 -2 19 1 4 3 -2 6 -13 5 -11 0 -14 -3 -6 -6z"></path>
<path d="M1306 2399 c-11 -11 -16 -22 -12 -26 4 -5 13 -1 19 8 7 9 19 18 26
21 13 4 13 5 0 10 -7 3 -23 -3 -33 -13z"></path>
<path d="M1570 2406 c0 -9 5 -16 10 -16 6 0 10 4 10 9 0 6 -4 13 -10 16 -5 3
-10 -1 -10 -9z"></path>
<path d="M810 2400 c0 -5 5 -10 10 -10 6 0 10 5 10 10 0 6 -4 10 -10 10 -5 0
-10 -4 -10 -10z"></path>
<path d="M906 2396 c7 -19 38 -22 32 -3 -3 6 -12 13 -21 15 -12 2 -15 -1 -11
-12z"></path>
<path d="M1396 2385 c18 -28 24 -31 24 -12 0 7 -9 18 -20 25 -20 12 -21 12 -4
-13z"></path>
<path d="M4 2385 c-9 -21 3 -45 21 -45 10 0 15 10 15 30 0 32 -26 43 -36 15z"></path>
<path d="M221 2384 l-23 -12 22 -7 c12 -4 27 -2 33 4 18 18 -5 29 -32 15z"></path>
<path d="M710 2392 c0 -15 32 -24 44 -12 7 7 7 10 -1 10 -6 0 -18 3 -27 6 -9
3 -16 2 -16 -4z"></path>
<path d="M770 2393 c1 -12 37 -53 46 -53 4 0 3 5 -4 12 -7 7 -12 20 -12 30 0
10 -7 18 -15 18 -8 0 -15 -3 -15 -7z"></path>
<path d="M6860 2380 c0 -5 7 -10 15 -10 8 0 15 5 15 10 0 6 -7 10 -15 10 -8 0
-15 -4 -15 -10z"></path>
<path d="M565 2370 c3 -5 10 -10 16 -10 5 0 9 5 9 10 0 6 -7 10 -16 10 -8 0
-12 -4 -9 -10z"></path>
<path d="M1095 2371 c-7 -12 12 -24 25 -16 11 7 4 25 -10 25 -5 0 -11 -4 -15
-9z"></path>
<path d="M6510 2370 c0 -5 5 -10 10 -10 6 0 10 5 10 10 0 6 -4 10 -10 10 -5 0
-10 -4 -10 -10z"></path>
<path d="M6970 2370 c0 -5 7 -10 15 -10 8 0 15 5 15 10 0 6 -7 10 -15 10 -8 0
-15 -4 -15 -10z"></path>
<path d="M280 2361 c0 -11 21 -19 38 -14 21 8 13 23 -13 23 -14 0 -25 -4 -25
-9z"></path>
<path d="M6054 2356 c-4 -9 -3 -20 0 -24 4 -3 87 -10 184 -14 97 -4 193 -10
212 -12 86 -13 235 -17 224 -6 -6 6 -46 12 -90 14 -43 2 -86 6 -94 9 -8 3 -89
13 -180 22 -91 8 -184 18 -207 21 -34 5 -44 3 -49 -10z"></path>
<path d="M6610 2360 c0 -5 7 -10 15 -10 8 0 15 5 15 10 0 6 -7 10 -15 10 -8 0
-15 -4 -15 -10z"></path>
<path d="M675 2350 c-3 -5 -4 -10 -1 -10 2 0 11 -3 19 -6 8 -3 17 2 20 10 7
18 -27 23 -38 6z"></path>
<path d="M1030 2350 c0 -5 5 -10 10 -10 6 0 10 5 10 10 0 6 -4 10 -10 10 -5 0
-10 -4 -10 -10z"></path>
<path d="M1427 2353 c-4 -3 -7 -11 -7 -17 0 -6 5 -5 12 2 6 6 9 14 7 17 -3 3
-9 2 -12 -2z"></path>
<path d="M6730 2350 c0 -5 5 -10 10 -10 6 0 10 5 10 10 0 6 -4 10 -10 10 -5 0
-10 -4 -10 -10z"></path>
<path d="M6820 2340 c0 -5 7 -10 15 -10 8 0 15 5 15 10 0 6 -7 10 -15 10 -8 0
-15 -4 -15 -10z"></path>
<path d="M485 2330 c-3 -5 -2 -10 4 -10 5 0 13 5 16 10 3 6 2 10 -4 10 -5 0
-13 -4 -16 -10z"></path>
<path d="M295 2311 c-3 -5 -1 -12 5 -16 5 -3 10 1 10 9 0 18 -6 21 -15 7z"></path>
<path d="M597 2313 c-7 -7 39 -53 54 -53 15 0 10 12 -17 36 -28 27 -28 27 -37
17z"></path>
<path d="M688 2309 c-5 -15 29 -52 42 -47 12 4 -11 50 -26 55 -7 2 -14 -2 -16
-8z"></path>
<path d="M790 2310 c0 -5 7 -10 16 -10 8 0 12 5 9 10 -3 6 -10 10 -16 10 -5 0
-9 -4 -9 -10z"></path>
<path d="M220 2291 c0 -12 6 -21 16 -21 9 0 14 7 12 17 -5 25 -28 28 -28 4z"></path>
<path d="M6690 2291 c0 -12 29 -23 41 -15 18 10 9 24 -16 24 -14 0 -25 -4 -25
-9z"></path>
<path d="M1085 2270 c10 -11 20 -18 23 -16 5 6 -23 36 -34 36 -4 0 1 -9 11
-20z"></path>
<path d="M6765 2280 c-3 -5 -3 -10 2 -10 4 0 40 -2 78 -4 39 -2 59 -1 45 1
-14 3 -29 9 -34 14 -13 12 -83 12 -91 -1z"></path>
<path d="M500 2270 c0 -5 5 -10 10 -10 6 0 10 5 10 10 0 6 -4 10 -10 10 -5 0
-10 -4 -10 -10z"></path>
<path d="M6927 2274 c-11 -12 3 -24 29 -24 13 0 24 -4 24 -10 0 -5 5 -10 10
-10 6 0 10 7 10 15 0 9 -9 15 -23 15 -13 0 -28 5 -33 10 -6 6 -13 7 -17 4z"></path>
<path d="M310 2250 c0 -6 7 -10 15 -10 8 0 15 2 15 4 0 2 -7 6 -15 10 -8 3
-15 1 -15 -4z"></path>
<path d="M787 2237 c-21 -32 -10 -42 43 -43 25 0 37 1 28 3 -9 2 -21 17 -27
34 -12 35 -24 37 -44 6z"></path>
<path d="M24 2234 c3 -9 6 -20 6 -25 0 -5 8 -9 18 -8 10 0 12 3 5 6 -7 2 -13
13 -13 24 0 10 -5 19 -11 19 -6 0 -8 -7 -5 -16z"></path>
<path d="M426 2235 c-3 -9 0 -15 9 -15 16 0 20 16 6 24 -5 3 -11 -1 -15 -9z"></path>
<path d="M570 2241 c0 -12 39 -25 48 -16 7 7 -17 25 -35 25 -7 0 -13 -4 -13
-9z"></path>
<path d="M730 2241 c0 -6 4 -13 10 -16 6 -3 7 1 4 9 -7 18 -14 21 -14 7z"></path>
<path d="M130 2232 c0 -12 19 -26 26 -19 2 2 -2 10 -11 17 -9 8 -15 8 -15 2z"></path>
<path d="M480 2226 c0 -15 18 -31 26 -23 7 7 -7 37 -17 37 -5 0 -9 -6 -9 -14z"></path>
<path d="M1685 2220 c-3 -5 1 -10 10 -10 9 0 13 5 10 10 -3 6 -8 10 -10 10 -2
0 -7 -4 -10 -10z"></path>
<path d="M522 2181 c-27 -23 -28 -31 -4 -31 11 0 24 11 30 25 14 30 3 32 -26
6z"></path>
<path d="M1082 2179 c3 -8 18 -15 34 -17 33 -4 24 11 -15 23 -17 5 -22 4 -19
-6z"></path>
<path d="M82 2168 c6 -18 28 -21 28 -4 0 9 -7 16 -16 16 -9 0 -14 -5 -12 -12z"></path>
<path d="M435 2171 c-6 -11 9 -23 19 -14 9 9 7 23 -3 23 -6 0 -12 -4 -16 -9z"></path>
<path d="M576 2165 c4 -8 7 -15 9 -15 2 0 5 7 9 15 3 9 0 15 -9 15 -9 0 -12
-6 -9 -15z"></path>
<path d="M750 2176 c0 -2 7 -6 15 -10 8 -3 15 -1 15 4 0 6 -7 10 -15 10 -8 0
-15 -2 -15 -4z"></path>
<path d="M1 2134 c0 -11 3 -14 6 -6 3 7 2 16 -1 19 -3 4 -6 -2 -5 -13z"></path>
<path d="M115 2130 c-3 -5 -12 -7 -20 -3 -8 3 -15 0 -15 -6 0 -6 14 -11 30
-11 20 0 30 5 30 15 0 17 -16 20 -25 5z"></path>
<path d="M470 2130 c0 -5 5 -10 10 -10 6 0 10 5 10 10 0 6 -4 10 -10 10 -5 0
-10 -4 -10 -10z"></path>
<path d="M683 2133 c4 -3 0 -15 -10 -25 -15 -16 -15 -18 0 -18 9 0 21 8 26 19
11 19 6 31 -12 31 -6 0 -7 -3 -4 -7z"></path>
<path d="M724 2131 c3 -5 16 -11 28 -14 22 -6 22 -5 4 8 -22 17 -40 20 -32 6z"></path>
<path d="M610 2118 c0 -7 4 -19 9 -27 11 -17 25 3 17 24 -7 18 -26 20 -26 3z"></path>
<path d="M780 2120 c0 -5 5 -10 11 -10 5 0 7 5 4 10 -3 6 -8 10 -11 10 -2 0
-4 -4 -4 -10z"></path>
<path d="M855 2120 c3 -5 10 -10 16 -10 5 0 9 5 9 10 0 6 -7 10 -16 10 -8 0
-12 -4 -9 -10z"></path>
<path d="M1695 2120 c-3 -5 -1 -10 4 -10 6 0 11 5 11 10 0 6 -2 10 -4 10 -3 0
-8 -4 -11 -10z"></path>
<path d="M520 2110 c0 -16 58 -42 66 -28 4 6 -1 17 -11 25 -22 15 -55 17 -55
3z"></path>
<path d="M1005 2110 c-3 -5 0 -10 9 -10 8 0 16 -5 18 -12 3 -7 9 -8 18 -3 10
6 9 11 -5 22 -22 16 -32 16 -40 3z"></path>
<path d="M410 2100 c-13 -8 -12 -10 3 -10 9 0 17 5 17 10 0 12 -1 12 -20 0z"></path>
<path d="M240 2090 c0 -5 5 -10 11 -10 5 0 7 5 4 10 -3 6 -8 10 -11 10 -2 0
-4 -4 -4 -10z"></path>
<path d="M796 2075 c-3 -9 -6 -25 -6 -36 0 -10 -4 -19 -10 -19 -5 0 -10 -7
-10 -15 0 -8 8 -15 17 -15 9 0 13 3 10 7 -4 3 1 12 11 20 11 9 11 12 2 7 -11
-5 -12 -4 -4 5 9 10 18 9 43 -3 17 -9 31 -21 31 -26 0 -5 7 -7 15 -4 20 8 19
24 0 24 -17 0 -32 10 -69 48 -20 21 -24 22 -30 7z"></path>
<path d="M845 2080 c-3 -5 -1 -10 4 -10 6 0 11 5 11 10 0 6 -2 10 -4 10 -3 0
-8 -4 -11 -10z"></path>
<path d="M150 2040 c0 -5 5 -10 10 -10 6 0 10 5 10 10 0 6 -4 10 -10 10 -5 0
-10 -4 -10 -10z"></path>
<path d="M680 2040 c0 -5 5 -10 10 -10 6 0 10 5 10 10 0 6 -4 10 -10 10 -5 0
-10 -4 -10 -10z"></path>
<path d="M427 2023 c10 -3 10 -7 0 -18 -8 -9 -16 -10 -25 -3 -7 6 -16 8 -19 4
-11 -10 18 -26 47 -26 20 0 22 2 10 10 -12 8 -9 10 12 10 20 0 26 4 22 15 -4
8 -18 15 -33 14 -14 0 -21 -3 -14 -6z"></path>
<path d="M625 2020 c-3 -6 1 -13 10 -16 19 -8 30 0 20 15 -8 14 -22 14 -30 1z"></path>
<path d="M50 2010 c0 -5 7 -10 15 -10 8 0 15 5 15 10 0 6 -7 10 -15 10 -8 0
-15 -4 -15 -10z"></path>
<path d="M735 2010 c-3 -5 1 -10 10 -10 9 0 13 5 10 10 -3 6 -8 10 -10 10 -2
0 -7 -4 -10 -10z"></path>
<path d="M2 1990 c0 -14 2 -19 5 -12 2 6 2 18 0 25 -3 6 -5 1 -5 -13z"></path>
<path d="M586 1991 c-10 -15 16 -51 36 -51 9 0 24 -7 33 -17 15 -15 16 -14 13
13 -2 19 -9 30 -23 32 -11 2 -27 11 -37 19 -10 9 -18 11 -22 4z"></path>
<path d="M511 1976 c-10 -11 -6 -20 15 -41 21 -21 29 -24 35 -13 4 7 4 17 -1
22 -6 6 -10 18 -10 28 0 21 -23 24 -39 4z"></path>
<path d="M672 1979 c2 -7 17 -16 32 -20 22 -6 27 -5 24 9 -2 10 -15 18 -32 20
-19 3 -27 0 -24 -9z"></path>
<path d="M844 1973 c2 -24 104 -67 123 -51 11 9 7 14 -22 24 -20 6 -46 10 -58
7 -16 -4 -18 -2 -8 5 11 8 10 12 -7 21 -27 15 -30 14 -28 -6z"></path>
<path d="M750 1969 c0 -5 5 -7 10 -4 6 3 10 8 10 11 0 2 -4 4 -10 4 -5 0 -10
-5 -10 -11z"></path>
<path d="M350 1956 c0 -9 7 -16 16 -16 9 0 14 5 12 12 -6 18 -28 21 -28 4z"></path>
<path d="M480 1944 c0 -8 5 -12 10 -9 6 3 10 10 10 16 0 5 -4 9 -10 9 -5 0
-10 -7 -10 -16z"></path>
<path d="M90 1940 c0 -5 7 -10 15 -10 8 0 15 5 15 10 0 6 -7 10 -15 10 -8 0
-15 -4 -15 -10z"></path>
<path d="M450 1885 c0 -8 5 -15 10 -15 6 0 10 7 10 15 0 8 -4 15 -10 15 -5 0
-10 -7 -10 -15z"></path>
<path d="M70 1882 c0 -5 7 -13 16 -16 10 -4 14 -1 12 6 -5 15 -28 23 -28 10z"></path>
<path d="M290 1876 c0 -9 7 -16 16 -16 9 0 14 5 12 12 -6 18 -28 21 -28 4z"></path>
<path d="M400 1850 c0 -12 17 -12 45 0 17 7 15 9 -12 9 -18 1 -33 -3 -33 -9z"></path>
<path d="M360 1830 c0 -13 18 -22 24 -11 3 5 -1 11 -9 15 -8 3 -15 1 -15 -4z"></path>
<path d="M447 1813 c-13 -12 -7 -23 12 -23 10 0 24 -7 31 -15 10 -12 16 -13
24 -5 13 13 -20 43 -37 33 -5 -3 -12 0 -16 6 -4 6 -10 8 -14 4z"></path>
<path d="M130 1790 c0 -5 4 -10 9 -10 6 0 13 5 16 10 3 6 -1 10 -9 10 -9 0
-16 -4 -16 -10z"></path>
<path d="M562 1770 c6 -9 20 -23 30 -29 19 -12 20 -12 3 17 -10 16 -23 29 -30
29 -10 0 -10 -5 -3 -17z"></path>
<path d="M297 1755 c-5 -10 0 -15 14 -15 12 0 19 5 17 12 -6 18 -25 20 -31 3z"></path>
<path d="M200 1741 c0 -11 4 -21 9 -21 18 0 21 18 6 30 -13 10 -15 9 -15 -9z"></path>
<path d="M360 1714 c0 -6 10 -14 23 -18 35 -9 47 -7 41 8 -7 18 -64 27 -64 10z"></path>
<path d="M456 1714 c-17 -12 -18 -16 -6 -27 9 -8 11 -8 6 0 -3 6 2 16 11 22
10 5 16 12 13 14 -3 3 -14 -1 -24 -9z"></path>
<path d="M153 1713 c-18 -6 -16 -23 1 -23 8 0 17 -6 19 -12 3 -7 6 -3 6 9 1
24 -8 33 -26 26z"></path>
<path d="M307 1693 c-12 -11 -8 -23 8 -23 8 0 15 7 15 15 0 16 -12 20 -23 8z"></path>
<path d="M225 1670 c3 -5 10 -10 16 -10 5 0 9 5 9 10 0 6 -7 10 -16 10 -8 0
-12 -4 -9 -10z"></path>
<path d="M20 1666 c0 -2 7 -6 15 -10 8 -3 15 -1 15 4 0 6 -7 10 -15 10 -8 0
-15 -2 -15 -4z"></path>
<path d="M100 1660 c0 -5 5 -10 11 -10 5 0 7 5 4 10 -3 6 -8 10 -11 10 -2 0
-4 -4 -4 -10z"></path>
<path d="M1867 1634 c-26 -19 -45 -39 -42 -45 4 -5 25 6 48 26 22 19 44 35 49
35 4 0 8 5 8 10 0 16 -13 11 -63 -26z"></path>
<path d="M4407 1643 c-3 -16 -3 -30 -1 -33 7 -7 24 23 24 43 0 27 -17 20 -23
-10z"></path>
<path d="M495 1650 c3 -5 10 -10 16 -10 5 0 9 5 9 10 0 6 -7 10 -16 10 -8 0
-12 -4 -9 -10z"></path>
<path d="M0 1630 c0 -5 5 -10 10 -10 6 0 10 5 10 10 0 6 -4 10 -10 10 -5 0
-10 -4 -10 -10z"></path>
<path d="M120 1631 c0 -5 9 -7 20 -4 11 3 20 7 20 9 0 2 -9 4 -20 4 -11 0 -20
-4 -20 -9z"></path>
<path d="M170 1627 c0 -19 26 -41 40 -32 5 3 17 -1 26 -9 20 -21 36 -20 32 1
-2 10 -16 20 -35 24 -18 3 -40 12 -48 19 -12 10 -15 10 -15 -3z"></path>
<path d="M1901 1600 c-23 -22 -49 -40 -56 -40 -13 0 -147 -115 -153 -132 -2
-4 4 -8 13 -8 9 0 42 27 73 60 34 35 66 60 78 60 21 0 63 39 83 78 16 30 12
28 -38 -18z"></path>
<path d="M427 1613 c18 -50 53 -81 53 -48 0 8 -4 15 -10 15 -5 0 -12 11 -16
25 -3 14 -12 25 -20 25 -9 0 -11 -6 -7 -17z"></path>
<path d="M75 1590 c3 -5 8 -10 11 -10 2 0 4 5 4 10 0 6 -5 10 -11 10 -5 0 -7
-4 -4 -10z"></path>
<path d="M143 1593 c-18 -7 -16 -23 2 -23 8 0 15 7 15 15 0 8 -1 15 -2 14 -2
0 -9 -3 -15 -6z"></path>
<path d="M196 1561 c-3 -5 1 -12 10 -15 25 -10 34 -7 28 9 -7 17 -30 20 -38 6z"></path>
<path d="M127 1523 c-4 -3 -7 -11 -7 -17 0 -6 5 -5 12 2 6 6 9 14 7 17 -3 3
-9 2 -12 -2z"></path>
<path d="M50 1490 c0 -5 6 -10 14 -10 8 0 16 -6 19 -12 4 -10 7 -10 18 -1 15
15 12 18 -23 27 -17 4 -28 2 -28 -4z"></path>
<path d="M4325 1490 c-3 -5 -1 -10 4 -10 6 0 11 5 11 10 0 6 -2 10 -4 10 -3 0
-8 -4 -11 -10z"></path>
<path d="M1810 1446 c-25 -23 -58 -50 -75 -59 -16 -8 -44 -29 -60 -45 -17 -17
-42 -32 -55 -34 -18 -2 -26 -11 -30 -33 -4 -16 -11 -39 -17 -50 -10 -20 -43
-118 -43 -129 0 -3 9 -6 20 -6 12 0 26 12 35 30 9 17 26 35 38 41 42 19 83 44
118 70 50 39 163 97 204 105 30 5 41 1 86 -35 59 -47 159 -96 223 -111 70 -15
250 -25 243 -13 -8 12 -87 35 -132 38 -16 2 -64 10 -105 20 -41 9 -90 20 -109
22 -19 3 -56 21 -81 39 -26 19 -51 34 -56 34 -5 0 -24 14 -42 30 -18 17 -37
30 -43 30 -5 0 -9 8 -9 19 0 14 -52 81 -63 81 -1 0 -22 -20 -47 -44z"></path>
<path d="M2460 1460 c0 -5 5 -10 11 -10 5 0 7 5 4 10 -3 6 -8 10 -11 10 -2 0
-4 -4 -4 -10z"></path>
<path d="M1645 1450 c-3 -5 -2 -10 4 -10 5 0 13 5 16 10 3 6 2 10 -4 10 -5 0
-13 -4 -16 -10z"></path>
<path d="M0 1430 c0 -5 5 -10 10 -10 6 0 10 5 10 10 0 6 -4 10 -10 10 -5 0
-10 -4 -10 -10z"></path>
<path d="M111 1424 c-16 -19 -11 -25 16 -18 13 4 20 11 16 20 -7 18 -14 17
-32 -2z"></path>
<path d="M192 1418 c5 -15 28 -23 28 -10 0 5 -7 13 -16 16 -10 4 -14 1 -12 -6z"></path>
<path d="M36 1393 c-11 -11 -6 -23 9 -23 8 0 15 4 15 9 0 13 -16 22 -24 14z"></path>
<path d="M160 1390 c0 -5 9 -14 20 -20 11 -6 20 -17 20 -25 0 -8 7 -15 15 -15
16 0 19 18 7 37 -10 16 -62 35 -62 23z"></path>
<path d="M4220 1374 c0 -8 5 -12 10 -9 6 3 10 10 10 16 0 5 -4 9 -10 9 -5 0
-10 -7 -10 -16z"></path>
<path d="M4158 1367 c6 -7 9 -24 6 -38 -5 -23 -5 -23 10 -5 23 29 20 56 -5 56
-17 0 -19 -3 -11 -13z"></path>
<path d="M317 1354 c-8 -8 1 -24 14 -24 5 0 9 7 9 15 0 15 -12 20 -23 9z"></path>
<path d="M85 1320 c-3 -5 1 -10 9 -10 8 0 18 5 21 10 3 6 -1 10 -9 10 -8 0
-18 -4 -21 -10z"></path>
<path d="M4210 1304 c0 -6 11 -11 25 -10 14 1 24 5 23 10 -4 14 -48 14 -48 0z"></path>
<path d="M252 1260 c-7 -11 -23 -20 -36 -20 -12 0 -41 -13 -62 -28 -21 -16
-54 -35 -72 -43 -17 -7 -32 -20 -32 -28 0 -9 -8 -12 -25 -9 -22 5 -25 2 -25
-23 0 -27 2 -28 20 -17 11 7 20 16 20 20 0 5 4 8 9 8 5 0 38 17 72 38 35 21
90 52 122 67 31 16 57 35 57 42 0 20 -34 15 -48 -7z"></path>
<path d="M4145 1240 c-8 -12 20 -24 35 -15 6 3 8 11 5 16 -8 12 -32 12 -40 -1z"></path>
<path d="M28 1213 c7 -3 16 -2 19 1 4 3 -2 6 -13 5 -11 0 -14 -3 -6 -6z"></path>
<path d="M61 1194 c0 -11 3 -14 6 -6 3 7 2 16 -1 19 -3 4 -6 -2 -5 -13z"></path>
<path d="M1510 1170 c0 -5 5 -10 10 -10 6 0 10 5 10 10 0 6 -4 10 -10 10 -5 0
-10 -4 -10 -10z"></path>
<path d="M4200 1079 c-111 -54 -226 -126 -216 -137 2 -2 23 6 47 17 28 14 46
18 53 11 6 -6 21 1 43 20 19 17 39 30 45 30 6 0 26 11 44 25 18 14 37 25 42
25 5 0 17 9 27 20 10 11 24 20 30 20 7 0 18 7 25 15 23 28 -11 17 -140 -46z"></path>
<path d="M1375 945 c-7 -47 -16 -76 -103 -306 -29 -75 -52 -139 -52 -144 0
-24 50 41 107 140 61 106 67 126 71 243 3 70 0 112 -6 112 -5 0 -13 -20 -17
-45z"></path>
<path d="M2645 940 c3 -5 8 -10 11 -10 2 0 4 5 4 10 0 6 -5 10 -11 10 -5 0 -7
-4 -4 -10z"></path>
<path d="M3320 811 c0 -11 5 -23 10 -26 6 -3 10 3 10 14 0 11 -4 23 -10 26 -5
3 -10 -3 -10 -14z"></path>
<path d="M1337 474 c-14 -15 -7 -32 12 -27 12 3 24 -3 35 -18 15 -22 16 -22
36 -4 28 25 25 32 -12 37 -18 3 -40 8 -49 12 -8 4 -18 3 -22 0z"></path>
<path d="M792 398 c-16 -79 -27 -398 -13 -398 6 0 11 17 11 38 1 47 17 278 26
355 8 73 -9 76 -24 5z"></path>
</g>
</svg>