 <svg version="1.0" xmlns="http://www.w3.org/2000/svg" width="700.000000pt" height="525.000000pt" viewBox="0 0 700.000000 525.000000" preserveAspectRatio="xMidYMid meet">
<metadata>
Created by potrace 1.12, written by Peter Selinger 2001-2015
</metadata>
<g transform="translate(0.000000,525.000000) scale(0.100000,-0.100000)" fill="#000000" stroke="none">
<path d="M0 4125 l0 -1125 33 0 32 0 -32 -26 c-22 -17 -33 -34 -33 -52 0 -26
1 -26 43 16 47 46 87 56 87 22 0 -13 -10 -24 -25 -30 -14 -5 -25 -13 -25 -17
0 -5 -18 -32 -40 -61 l-41 -53 3 -92 3 -92 20 33 c11 19 50 77 88 130 l67 97
-24 22 c-22 18 -23 23 -11 33 19 16 19 34 1 50 -19 15 -3 53 32 76 20 13 23
21 19 51 -6 32 -2 39 61 100 69 69 157 119 190 109 13 -4 45 15 108 64 89 70
119 84 206 95 37 5 63 19 134 73 85 65 114 102 163 207 8 17 10 14 10 -17 1
-21 6 -38 11 -38 6 0 10 15 10 34 0 18 7 65 16 103 15 67 19 73 87 136 180
166 297 240 420 268 50 11 74 10 175 -6 152 -23 184 -34 261 -83 67 -44 96
-48 46 -7 -94 77 -294 131 -450 123 -41 -2 -75 0 -75 5 0 14 48 82 76 108 16
14 56 46 89 71 33 25 110 92 170 148 61 56 141 120 180 143 38 22 94 58 125
79 135 95 287 190 312 195 52 10 108 -38 406 -352 84 -87 152 -164 152 -170 0
-5 -15 -26 -33 -45 -17 -20 -52 -58 -77 -85 -81 -91 -564 -585 -572 -585 -21
0 -79 67 -107 123 -21 42 -43 70 -69 87 -20 13 -48 35 -62 48 -22 21 -32 24
-77 19 -132 -14 -302 -170 -436 -402 -51 -87 -147 -294 -173 -372 -9 -26 -29
-61 -45 -77 -33 -33 -35 -40 -14 -90 9 -21 20 -60 25 -88 7 -35 18 -58 37 -74
49 -42 171 -58 227 -29 15 8 40 15 54 15 33 0 114 -51 180 -114 68 -65 86 -98
78 -146 -5 -32 -1 -46 27 -86 26 -38 42 -51 72 -58 91 -21 252 32 370 122 28
21 85 82 127 136 63 81 81 113 104 182 24 74 25 87 14 115 -7 17 -30 41 -51
54 -51 33 -53 38 -30 90 15 33 27 46 48 51 15 3 38 13 51 21 13 8 56 22 96 33
40 10 91 28 112 39 21 12 50 21 63 21 29 0 155 37 193 56 28 14 170 36 243 37
22 0 96 -9 165 -22 181 -32 315 -71 505 -146 166 -66 374 -115 486 -115 37 0
51 -5 73 -28 16 -17 38 -29 54 -30 15 0 49 -6 75 -12 27 -5 52 -8 57 -5 5 3
33 -1 62 -10 28 -8 77 -15 107 -15 l56 0 -35 -19 c-19 -10 -45 -32 -57 -50
-26 -38 -80 -185 -96 -259 -11 -51 -10 -54 13 -72 14 -10 22 -21 19 -24 -3 -4
-17 3 -32 14 -29 23 -53 26 -59 8 -4 -10 -10 -10 -31 -1 -23 11 -27 10 -27 -3
0 -12 -6 -15 -24 -10 -16 4 -26 1 -30 -9 -12 -31 -29 -16 -23 21 4 25 2 34 -6
31 -7 -2 -13 -14 -13 -27 -1 -14 -12 -31 -24 -40 -13 -8 -42 -33 -65 -55 -23
-22 -65 -53 -94 -70 -29 -16 -68 -42 -88 -57 -39 -30 -98 -37 -149 -18 -15 6
-28 9 -30 7 -2 -2 31 -42 74 -88 42 -47 113 -127 157 -177 87 -100 200 -196
340 -290 74 -49 118 -92 249 -236 101 -113 175 -186 205 -203 95 -55 188 -123
236 -173 28 -28 71 -67 98 -87 26 -19 61 -55 78 -79 16 -24 37 -44 45 -44 13
0 13 -2 -1 -16 -9 -10 -13 -23 -9 -33 3 -9 9 -26 11 -39 3 -12 9 -25 14 -28
12 -7 11 -81 -1 -89 -7 -4 -8 8 -4 34 10 64 -10 48 -23 -18 -8 -46 -22 -74
-69 -136 -33 -42 -66 -87 -74 -99 -57 -84 -191 -259 -230 -301 -25 -27 -84
-106 -129 -175 -46 -69 -97 -142 -113 -162 l-30 -38 78 0 78 0 -34 35 -33 34
25 33 c13 18 28 41 31 52 6 15 10 16 22 6 8 -7 15 -24 15 -38 0 -30 25 -51 62
-52 18 0 43 -13 67 -35 l39 -35 258 2 258 3 -37 37 c-20 21 -37 42 -37 47 0 5
-3 11 -7 13 -19 8 -213 245 -213 259 0 5 -6 9 -14 9 -7 0 -32 25 -55 55 -23
30 -51 63 -62 74 l-21 20 34 43 c19 24 45 60 57 81 13 20 27 37 31 37 12 0 40
-41 40 -60 1 -47 56 -60 116 -27 37 21 39 26 42 74 2 40 -3 64 -26 112 l-29
61 19 31 c10 17 23 54 29 82 9 49 8 54 -21 95 -44 63 165 -125 306 -275 62
-65 125 -132 141 -148 16 -17 44 -52 61 -77 18 -26 41 -53 52 -61 10 -7 45
-49 77 -93 32 -43 81 -104 110 -134 29 -31 64 -74 78 -95 15 -22 57 -68 93
-103 l67 -62 117 0 118 0 0 2625 0 2625 -1601 0 -1601 0 -38 -42 -38 -43 -31
18 c-34 20 -30 21 -90 -28 -13 -11 -61 -57 -105 -103 -45 -45 -85 -82 -91 -82
-10 0 -207 204 -247 256 l-19 24 -452 0 -452 -1 -50 -71 c-56 -81 -314 -323
-329 -308 -5 5 17 42 51 87 32 43 79 104 103 136 24 32 51 64 60 70 9 7 36 29
60 50 l44 37 -32 0 c-25 0 -44 -13 -95 -62 -35 -35 -74 -76 -86 -93 l-22 -30
6 39 c4 21 22 62 42 90 l35 51 -83 3 c-56 2 -85 -1 -88 -9 -15 -47 -158 -154
-246 -183 -27 -9 -45 -12 -40 -7 6 4 44 37 85 71 109 91 142 130 109 130 -12
0 -49 -29 -253 -203 -101 -87 -141 -116 -149 -108 -8 8 -8 16 -2 26 6 8 32 47
59 87 27 40 58 82 68 94 15 17 58 91 58 101 0 2 -9 3 -20 3 -10 0 -25 -10 -31
-22 -6 -13 -41 -67 -77 -121 l-66 -98 -18 23 c-10 13 -27 43 -38 68 -40 87
-46 95 -68 98 -12 2 -63 -20 -120 -52 -121 -68 -146 -78 -160 -64 -14 14 -7
31 40 100 21 31 38 59 38 62 0 4 -48 6 -106 6 l-107 0 -41 -45 c-51 -54 -95
-61 -121 -21 -26 40 -42 39 -101 -9 -100 -81 -128 -52 -66 68 2 4 -105 7 -237
7 l-241 0 0 -1125z m3015 985 c3 -5 -1 -10 -9 -10 -9 0 -16 5 -16 10 0 6 4 10
9 10 6 0 13 -4 16 -10z m-856 -37 c-32 -43 -96 -106 -122 -119 -15 -8 7 19 50
60 79 76 96 90 72 59z m863 -9 c37 -19 67 -52 68 -74 0 -16 -73 -90 -89 -90
-17 0 -91 90 -91 112 0 27 37 68 62 68 11 0 33 -7 50 -16z m318 -288 c0 -2 -8
-10 -17 -17 -16 -13 -17 -12 -4 4 13 16 21 21 21 13z m-2303 -563 c2 -6 -17
-31 -42 -57 -25 -26 -45 -51 -45 -57 0 -31 -83 -129 -206 -243 -76 -72 -156
-146 -176 -165 -57 -53 -68 -29 -20 40 21 30 50 77 63 104 17 35 62 83 162
174 76 69 144 128 151 131 7 3 29 24 51 48 36 41 55 48 62 25z m-197 -96
c-183 -164 -230 -212 -259 -267 -18 -33 -35 -60 -38 -60 -11 0 9 76 35 134 20
45 41 71 91 112 36 30 88 63 116 74 60 23 74 25 55 7z m1398 -294 c-2 -10 -14
-19 -26 -21 -21 -3 -22 -1 -12 17 13 26 43 28 38 4z m-2138 -971 c0 -17 -27
-45 -33 -35 -4 6 0 14 9 17 8 3 12 10 9 16 -3 5 -1 10 4 10 6 0 11 -4 11 -8z
m6045 -26 c19 -8 35 -19 35 -24 0 -5 -20 -15 -44 -22 -70 -19 -105 -46 -129
-98 l-22 -47 -3 42 c-4 57 19 98 76 134 54 34 44 32 87 15z m-6085 -42 c0 -3
-7 -12 -15 -20 -16 -17 -18 -14 -9 10 6 15 24 23 24 10z m5699 -2003 c12 -16
21 -43 21 -59 0 -29 -1 -30 -30 -22 -16 5 -30 5 -30 1 0 -4 -13 -8 -29 -9 -24
-2 -30 3 -36 25 -5 22 0 32 30 60 20 18 40 33 45 33 5 0 18 -13 29 -29z m-321
-384 c2 -11 -2 -14 -17 -10 -22 5 -26 14 -14 27 10 10 28 1 31 -17z m-7 -55
c19 -20 39 -42 42 -49 9 -15 -31 -83 -49 -83 -8 0 -14 -5 -14 -12 0 -14 -30
-48 -42 -48 -4 0 -8 7 -8 15 0 10 -9 14 -30 12 -37 -3 -38 -13 -2 -51 15 -16
1 -8 -30 18 l-57 48 36 51 c44 62 105 137 113 137 3 0 21 -17 41 -38z"></path>
<path d="M5350 216 c0 -7 7 -19 15 -26 12 -10 16 -9 21 5 4 10 1 21 -7 26 -20
12 -29 11 -29 -5z"></path>
<path d="M1797 4152 c-27 -28 -27 -29 -9 -45 10 -9 23 -17 29 -17 6 0 16 -7
24 -16 11 -13 15 -14 23 -2 6 7 23 21 39 31 15 10 27 21 27 26 0 10 -79 51
-96 51 -6 0 -22 -13 -37 -28z m60 -18 c3 -8 1 -20 -6 -27 -14 -14 -47 15 -37
32 10 16 36 13 43 -5z"></path>
<path d="M1311 3396 l-24 -25 27 -36 c37 -48 51 -41 51 26 0 63 -17 74 -54 35z"></path>
<path d="M1100 3255 c-7 -9 -11 -18 -8 -20 3 -3 11 1 18 10 7 9 11 18 8 20 -3
3 -11 -1 -18 -10z"></path>
<path d="M899 3043 c-170 -175 -318 -346 -252 -292 32 28 344 369 336 369 -5
0 -42 -35 -84 -77z"></path>
<path d="M2756 2958 c-4 -29 -10 -70 -13 -91 -8 -56 12 -69 31 -22 16 38 21
102 10 143 -10 37 -21 25 -28 -30z"></path>
<path d="M4670 2865 c0 -25 5 -45 10 -45 6 0 10 20 10 45 0 25 -4 45 -10 45
-5 0 -10 -20 -10 -45z"></path>
<path d="M3535 2870 c-3 -5 1 -10 9 -10 9 0 16 5 16 10 0 6 -4 10 -9 10 -6 0
-13 -4 -16 -10z"></path>
<path d="M3496 2835 c-11 -8 -17 -17 -14 -20 2 -3 13 4 23 15 21 23 18 25 -9
5z"></path>
<path d="M4660 2764 c-12 -31 -12 -34 -2 -34 8 0 32 43 32 55 0 16 -22 1 -30
-21z"></path>
<path d="M3460 2735 c0 -9 5 -15 11 -13 6 2 11 8 11 13 0 5 -5 11 -11 13 -6 2
-11 -4 -11 -13z"></path>
<path d="M538 2653 c-37 -42 -65 -79 -63 -82 5 -5 137 134 143 151 10 25 -21
-2 -80 -69z"></path>
<path d="M3392 2678 c-32 -20 -36 -43 -5 -31 14 5 15 1 10 -25 -5 -23 -3 -32
7 -32 8 0 15 18 19 52 4 28 5 53 4 54 -1 2 -17 -6 -35 -18z"></path>
<path d="M4170 2640 c0 -5 7 -10 15 -10 8 0 15 5 15 10 0 6 -7 10 -15 10 -8 0
-15 -4 -15 -10z"></path>
<path d="M3345 2620 c-3 -5 -1 -10 4 -10 6 0 11 5 11 10 0 6 -2 10 -4 10 -3 0
-8 -4 -11 -10z"></path>
<path d="M4150 2591 c0 -5 20 -31 45 -58 49 -53 50 -31 1 29 -31 37 -46 47
-46 29z"></path>
<path d="M3118 2556 c-28 -21 -21 -27 20 -20 45 8 51 12 32 24 -20 13 -32 12
-52 -4z"></path>
<path d="M3204 2539 c-3 -6 -1 -16 4 -21 13 -13 45 8 36 23 -7 12 -31 11 -40
-2z"></path>
<path d="M3000 2529 c0 -7 20 -34 45 -60 25 -26 45 -57 45 -67 0 -50 78 -57
94 -9 13 37 -2 61 -42 65 -20 2 -46 17 -73 43 -40 38 -69 50 -69 28z"></path>
<path d="M3845 2471 c-4 -7 -2 -18 4 -25 8 -10 9 -26 2 -57 -14 -58 -13 -63 3
-50 22 19 32 110 13 128 -10 11 -17 12 -22 4z"></path>
<path d="M3751 2412 c-37 -31 -40 -65 -5 -70 16 -2 27 7 43 34 20 34 22 64 4
64 -4 0 -23 -13 -42 -28z"></path>
<path d="M280 2365 c-8 -9 -8 -15 -2 -15 12 0 26 19 19 26 -2 2 -10 -2 -17
-11z"></path>
<path d="M107 2220 c-48 -49 -87 -93 -86 -97 0 -4 4 -17 8 -28 7 -18 10 -17
26 14 9 19 28 45 41 58 13 13 24 29 24 36 0 6 19 30 42 54 23 23 39 45 36 48
-3 3 -44 -35 -91 -85z"></path>
<path d="M2890 2291 c0 -12 6 -21 16 -21 9 0 14 7 12 17 -5 25 -28 28 -28 4z"></path>
<path d="M3952 2299 c2 -6 8 -10 13 -10 5 0 11 4 13 10 2 6 -4 11 -13 11 -9 0
-15 -5 -13 -11z"></path>
<path d="M2190 2290 c0 -49 169 -278 324 -440 237 -249 259 -271 264 -265 3 3
-19 31 -50 63 -30 31 -78 84 -105 117 -28 33 -86 96 -130 141 -89 90 -176 202
-247 317 -47 76 -56 87 -56 67z"></path>
<path d="M2826 2291 c-4 -5 -2 -12 3 -15 5 -4 12 -2 15 3 4 5 2 12 -3 15 -5 4
-12 2 -15 -3z"></path>
<path d="M2797 2213 c-4 -37 6 -73 21 -73 6 0 8 73 3 103 -4 22 -19 2 -24 -30z"></path>
<path d="M4010 2204 c-9 -10 -10 -18 -2 -26 12 -12 32 -2 32 17 0 21 -16 26
-30 9z"></path>
<path d="M2900 2190 c0 -11 5 -20 10 -20 6 0 10 9 10 20 0 11 -4 20 -10 20 -5
0 -10 -9 -10 -20z"></path>
<path d="M3722 2158 c-7 -7 -12 -18 -12 -25 0 -18 29 -16 37 3 8 21 -10 37
-25 22z"></path>
<path d="M2910 2140 c0 -5 5 -10 10 -10 6 0 10 5 10 10 0 6 -4 10 -10 10 -5 0
-10 -4 -10 -10z"></path>
<path d="M3565 2121 c-3 -5 -1 -12 5 -16 12 -7 30 2 30 16 0 12 -27 12 -35 0z"></path>
<path d="M4010 2120 c0 -5 5 -10 10 -10 6 0 10 5 10 10 0 6 -4 10 -10 10 -5 0
-10 -4 -10 -10z"></path>
<path d="M2825 2110 c-4 -6 -3 -16 3 -22 6 -6 12 -6 17 2 4 6 3 16 -3 22 -6 6
-12 6 -17 -2z"></path>
<path d="M3720 2060 c0 -5 5 -10 10 -10 6 0 10 5 10 10 0 6 -4 10 -10 10 -5 0
-10 -4 -10 -10z"></path>
<path d="M4028 2065 c-8 -8 13 -75 23 -75 9 0 0 61 -10 73 -4 4 -10 5 -13 2z"></path>
<path d="M2740 1945 c0 -8 5 -15 10 -15 6 0 10 7 10 15 0 8 -4 15 -10 15 -5 0
-10 -7 -10 -15z"></path>
<path d="M3707 1953 c-4 -3 -7 -15 -7 -26 0 -19 1 -20 20 -2 11 10 20 22 20
27 0 10 -24 11 -33 1z"></path>
<path d="M3855 1940 c-3 -5 -1 -10 4 -10 6 0 11 5 11 10 0 6 -2 10 -4 10 -3 0
-8 -4 -11 -10z"></path>
<path d="M3840 1900 c0 -5 5 -10 10 -10 6 0 10 5 10 10 0 6 -4 10 -10 10 -5 0
-10 -4 -10 -10z"></path>
<path d="M4063 1838 c-25 -28 -83 -161 -83 -193 0 -49 48 -56 126 -19 41 20
64 59 64 109 0 29 -9 45 -43 81 l-42 45 -22 -23z"></path>
<path d="M2620 1826 c0 -9 5 -16 10 -16 6 0 10 4 10 9 0 6 -4 13 -10 16 -5 3
-10 -1 -10 -9z"></path>
<path d="M3400 1810 c0 -5 5 -10 11 -10 5 0 7 5 4 10 -3 6 -8 10 -11 10 -2 0
-4 -4 -4 -10z"></path>
<path d="M3640 1801 c0 -6 5 -13 10 -16 6 -3 10 1 10 9 0 9 -4 16 -10 16 -5 0
-10 -4 -10 -9z"></path>
<path d="M3244 1747 c-8 -21 1 -47 16 -47 19 0 23 31 7 48 -15 14 -17 14 -23
-1z"></path>
<path d="M3686 1751 c-4 -5 -2 -12 3 -15 5 -4 12 -2 15 3 4 5 2 12 -3 15 -5 4
-12 2 -15 -3z"></path>
<path d="M3736 1702 c-3 -6 -1 -14 5 -17 15 -10 25 3 12 16 -7 7 -13 7 -17 1z"></path>
<path d="M2490 1684 c0 -8 5 -12 10 -9 6 4 8 11 5 16 -9 14 -15 11 -15 -7z"></path>
<path d="M3530 1670 c0 -5 7 -10 15 -10 9 0 18 -7 21 -15 9 -21 24 -19 24 4 0
19 -18 31 -46 31 -8 0 -14 -4 -14 -10z"></path>
<path d="M3790 1664 c0 -15 51 -77 134 -164 50 -52 119 -126 153 -165 34 -38
62 -65 63 -59 0 10 -123 152 -239 273 -33 36 -61 70 -61 76 0 7 -8 19 -18 28
-19 17 -32 22 -32 11z"></path>
<path d="M360 1627 c0 -2 38 -35 85 -72 47 -38 85 -70 85 -72 0 -2 -12 3 -27
11 -37 18 -124 36 -178 36 -24 0 -55 4 -70 10 -20 7 -34 6 -57 -6 -36 -19 -51
-13 -135 48 -29 21 -55 38 -58 38 -3 0 -5 -364 -5 -810 l0 -810 1144 0 1145 0
-15 44 c-11 33 -13 50 -5 64 10 18 7 20 -24 19 -55 -2 -89 30 -95 89 -4 39
-10 51 -30 61 -40 20 -50 42 -50 115 0 55 -5 78 -30 126 -16 33 -30 65 -30 71
0 6 -31 77 -70 157 -38 80 -73 156 -76 170 -8 32 -24 30 -59 -6 -16 -16 -35
-30 -42 -30 -8 0 -12 -4 -9 -8 3 -5 -4 -8 -16 -8 -12 1 -23 -5 -26 -13 -3 -10
0 -12 14 -7 11 3 -14 -26 -53 -65 -40 -39 -77 -69 -83 -67 -5 1 -38 25 -72 51
-35 27 -175 133 -313 236 -229 171 -421 318 -479 364 -19 15 -28 17 -45 8 -52
-27 -59 -29 -65 -24 -3 3 -2 13 3 22 4 9 7 28 7 43 -1 23 -22 44 -124 123
-109 83 -142 105 -142 92z m1501 -1023 c9 -11 22 -14 48 -9 20 4 40 11 46 16
14 14 25 11 25 -6 0 -9 13 -45 29 -80 l30 -65 -26 -20 c-36 -28 -63 -25 -114
12 -78 56 -89 69 -89 115 0 37 7 49 31 52 4 1 12 -6 20 -15z"></path>
<path d="M3615 1620 c-10 -17 12 -37 25 -24 8 8 6 15 -4 23 -10 9 -16 9 -21 1z"></path>
<path d="M3433 1603 c-7 -3 -13 -12 -13 -21 0 -15 2 -15 17 1 18 18 16 27 -4
20z"></path>
<path d="M3016 1591 c-4 -5 -2 -12 3 -15 5 -4 12 -2 15 3 4 5 2 12 -3 15 -5 4
-12 2 -15 -3z"></path>
<path d="M3686 1593 c-12 -12 -6 -44 9 -49 8 -4 15 -15 15 -26 0 -10 11 -29
25 -42 14 -13 25 -29 25 -35 0 -6 8 -14 18 -18 9 -3 29 -20 44 -37 14 -17 30
-27 34 -23 4 4 -12 29 -37 55 -68 71 -109 129 -109 151 0 21 -13 35 -24 24z"></path>
<path d="M4285 1555 c8 -57 32 -102 46 -88 14 14 -9 98 -33 120 -20 18 -20 17
-13 -32z"></path>
<path d="M3214 1575 c-4 -9 -2 -21 4 -27 15 -15 44 -1 40 19 -4 23 -36 29 -44
8z"></path>
<path d="M3300 1575 c0 -8 5 -15 10 -15 6 0 10 7 10 15 0 8 -4 15 -10 15 -5 0
-10 -7 -10 -15z"></path>
<path d="M2008 1519 c29 -28 56 -48 60 -44 9 8 -82 95 -100 95 -7 0 11 -23 40
-51z"></path>
<path d="M2951 1478 l-35 -41 -21 27 c-20 25 -45 35 -45 18 0 -4 11 -24 25
-44 30 -44 30 -48 7 -79 -26 -36 -22 -65 8 -61 14 2 48 2 76 2 34 -1 55 4 63
14 19 23 5 63 -28 81 l-30 15 30 29 c34 34 37 56 10 71 -26 13 -21 16 -60 -32z"></path>
<path d="M3470 1448 c0 -6 -8 -20 -17 -31 -17 -19 -17 -19 2 -16 11 3 20 9 20
16 0 6 3 15 8 19 10 11 9 24 -3 24 -5 0 -10 -5 -10 -12z"></path>
<path d="M4080 1425 c-7 -9 -11 -16 -9 -18 2 -1 23 -20 47 -42 29 -26 45 -36
52 -29 16 16 -14 78 -45 92 -32 15 -30 15 -45 -3z"></path>
<path d="M4404 1389 c-10 -16 5 -26 34 -21 23 3 35 -4 65 -37 42 -46 44 -57
20 -83 -15 -17 -15 -20 -1 -34 23 -23 38 -9 38 36 0 43 -33 128 -52 134 -32
10 -99 13 -104 5z"></path>
<path d="M3210 1370 c0 -5 5 -10 10 -10 6 0 10 5 10 10 0 6 -4 10 -10 10 -5 0
-10 -4 -10 -10z"></path>
<path d="M4793 1353 c-13 -2 -23 -9 -23 -15 0 -6 12 -8 31 -4 17 3 62 6 100 6
39 0 69 4 69 10 0 10 -131 12 -177 3z"></path>
<path d="M3882 1331 c4 -13 18 -16 19 -4 0 4 -5 9 -11 12 -7 2 -11 -2 -8 -8z"></path>
<path d="M3648 1311 c-46 -16 -108 -65 -108 -85 0 -5 -11 -21 -24 -35 -20 -23
-46 -79 -46 -102 0 -4 15 -17 34 -28 31 -20 38 -20 83 -9 26 7 54 17 62 22 23
17 151 194 151 208 0 17 -56 48 -83 47 -12 -1 -43 -9 -69 -18z"></path>
<path d="M4648 1313 c-10 -2 -18 -9 -18 -14 0 -11 39 -2 55 12 9 9 -6 10 -37
2z"></path>
<path d="M3885 1278 c-7 -18 22 -89 53 -127 20 -24 67 -36 78 -20 3 6 -12 30
-33 55 -96 114 -91 110 -98 92z"></path>
<path d="M2246 1271 c-8 -13 33 -46 43 -35 6 5 0 16 -14 27 -13 9 -26 13 -29
8z"></path>
<path d="M4150 1251 c0 -5 5 -13 10 -16 6 -3 10 -2 10 4 0 5 -4 13 -10 16 -5
3 -10 2 -10 -4z"></path>
<path d="M4400 1234 c0 -8 5 -12 10 -9 6 4 8 11 5 16 -9 14 -15 11 -15 -7z"></path>
<path d="M3340 1190 c0 -5 5 -10 10 -10 6 0 10 5 10 10 0 6 -4 10 -10 10 -5 0
-10 -4 -10 -10z"></path>
<path d="M4454 1185 c-7 -18 43 -78 61 -72 15 5 12 32 -5 32 -8 0 -17 11 -20
24 -7 30 -28 39 -36 16z"></path>
<path d="M1740 1182 c0 -13 57 -99 70 -107 15 -9 13 -5 -24 63 -26 47 -46 66
-46 44z"></path>
<path d="M2995 1180 c-3 -5 -1 -10 4 -10 6 0 11 5 11 10 0 6 -2 10 -4 10 -3 0
-8 -4 -11 -10z"></path>
<path d="M4050 1164 c0 -5 36 -50 80 -99 44 -50 80 -93 80 -96 0 -11 80 -70
115 -85 19 -8 35 -12 35 -10 0 3 -27 24 -60 46 -33 22 -84 71 -114 108 -61 76
-136 151 -136 136z"></path>
<path d="M5010 1134 c-6 -14 -10 -37 -10 -51 0 -16 -7 -27 -20 -30 -11 -3 -20
-9 -20 -14 0 -13 -92 -69 -112 -69 -20 0 -24 -15 -7 -26 7 -4 9 -24 5 -55 -4
-30 -3 -49 3 -49 5 0 13 21 17 46 4 28 13 48 23 51 9 4 31 19 49 35 18 15 37
28 42 28 22 0 17 -19 -12 -48 l-30 -32 28 -37 c16 -21 46 -55 66 -77 21 -21
38 -44 38 -51 0 -21 34 -44 78 -51 56 -9 54 8 -2 25 -50 14 -71 34 -81 72 -5
22 -1 31 26 52 43 34 33 44 -11 12 -41 -30 -52 -31 -75 -5 -23 25 -15 55 30
114 41 54 41 56 15 56 -14 0 -21 9 -26 36 -4 22 -2 40 5 47 14 14 15 47 1 47
-6 0 -15 -12 -20 -26z"></path>
<path d="M5147 1154 c-9 -10 16 -44 33 -45 10 0 11 -2 3 -6 -7 -2 -13 -16 -13
-30 0 -15 5 -23 13 -20 6 2 11 12 11 21 -2 21 5 20 33 -6 17 -16 23 -18 23 -7
0 22 -91 104 -103 93z"></path>
<path d="M3120 1130 c0 -5 5 -10 10 -10 6 0 10 5 10 10 0 6 -4 10 -10 10 -5 0
-10 -4 -10 -10z"></path>
<path d="M2396 1123 c-15 -15 -3 -34 31 -48 56 -24 58 -4 4 34 -16 11 -31 18
-35 14z"></path>
<path d="M3153 1103 c-13 -2 -23 -9 -23 -14 0 -15 53 -7 58 9 2 6 0 11 -5 11
-4 -1 -18 -4 -30 -6z"></path>
<path d="M3220 1089 c0 -5 5 -7 10 -4 6 3 10 8 10 11 0 2 -4 4 -10 4 -5 0 -10
-5 -10 -11z"></path>
<path d="M3390 1090 c0 -5 5 -10 11 -10 5 0 7 5 4 10 -3 6 -8 10 -11 10 -2 0
-4 -4 -4 -10z"></path>
<path d="M4420 1089 c0 -23 56 -73 65 -59 4 6 3 15 -1 19 -5 3 -21 17 -36 30
-21 18 -28 21 -28 10z"></path>
<path d="M3300 1041 c0 -10 42 -23 49 -15 7 6 -20 24 -36 24 -7 0 -13 -4 -13
-9z"></path>
<path d="M5090 1026 c0 -2 7 -6 15 -10 8 -3 15 -1 15 4 0 6 -7 10 -15 10 -8 0
-15 -2 -15 -4z"></path>
<path d="M3824 999 c-2 -5 12 -16 33 -26 21 -9 42 -19 46 -21 5 -2 7 3 5 13
-3 19 -75 48 -84 34z"></path>
<path d="M5260 980 c0 -5 5 -10 10 -10 6 0 10 5 10 10 0 6 -4 10 -10 10 -5 0
-10 -4 -10 -10z"></path>
<path d="M4450 973 c0 -4 16 -19 35 -33 18 -14 49 -49 67 -77 27 -43 48 -65
48 -50 0 11 -44 85 -60 102 -12 11 -26 27 -33 36 -13 19 -57 35 -57 22z"></path>
<path d="M2567 963 c-14 -13 -6 -33 13 -33 11 0 20 4 20 9 0 13 -26 32 -33 24z"></path>
<path d="M3940 942 c0 -5 9 -12 21 -15 13 -3 19 -1 16 6 -5 15 -37 22 -37 9z"></path>
<path d="M5047 943 c-4 -3 -7 -11 -7 -17 0 -6 5 -5 12 2 6 6 9 14 7 17 -3 3
-9 2 -12 -2z"></path>
<path d="M2616 918 c4 -6 36 -38 71 -71 35 -33 63 -67 63 -76 0 -9 9 -24 21
-34 16 -14 20 -28 18 -70 -1 -29 3 -74 9 -101 8 -39 7 -53 -6 -75 -14 -26 -14
-30 9 -71 13 -24 32 -47 42 -52 9 -4 25 -12 35 -16 24 -12 91 -112 91 -138 1
-21 -27 -54 -46 -54 -14 0 -44 -35 -36 -43 3 -4 16 -7 28 -7 27 0 49 -24 65
-73 l12 -37 409 0 c225 0 409 3 409 8 0 4 -32 39 -71 77 -39 39 -81 86 -94
105 -36 56 -103 120 -126 120 -19 0 -20 -2 -8 -17 7 -10 -2 -4 -21 13 -19 16
-52 41 -72 55 -21 13 -38 29 -38 36 0 7 -17 25 -37 40 -21 15 -64 50 -96 77
-31 27 -60 46 -64 43 -3 -4 4 -15 17 -25 23 -18 22 -19 -63 -14 -121 6 -133 2
-163 -62 -14 -29 -34 -63 -44 -74 -19 -20 -21 -20 -52 -5 -18 9 -27 18 -20 21
15 5 39 50 46 86 3 15 17 36 31 48 34 27 58 84 45 109 -6 10 -47 46 -93 81
-45 34 -110 85 -144 112 -117 95 -145 114 -127 84z m935 -655 c13 -16 12 -17
-3 -4 -17 13 -22 21 -14 21 2 0 10 -8 17 -17z"></path>
<path d="M5150 900 c0 -5 5 -10 11 -10 5 0 7 5 4 10 -3 6 -8 10 -11 10 -2 0
-4 -4 -4 -10z"></path>
<path d="M4270 860 c0 -13 28 -25 38 -16 3 4 0 11 -8 16 -20 13 -30 12 -30 0z"></path>
<path d="M5190 856 c0 -9 7 -16 16 -16 9 0 14 5 12 12 -6 18 -28 21 -28 4z"></path>
<path d="M4390 850 c0 -5 5 -10 11 -10 5 0 24 -13 42 -30 18 -16 39 -30 47
-30 9 0 31 -13 50 -30 19 -16 41 -29 48 -30 6 0 12 -4 12 -8 0 -10 81 -64 87
-59 2 3 -9 15 -25 28 -16 13 -49 40 -72 59 -39 32 -90 63 -147 89 -11 5 -24
15 -28 20 -8 14 -25 14 -25 1z"></path>
<path d="M3931 811 c-17 -16 -31 -35 -31 -43 0 -14 41 -58 107 -114 23 -20 45
-44 48 -55 7 -21 25 -26 25 -6 0 19 -58 85 -88 99 -30 15 -40 51 -22 74 15 17
-1 19 -18 2 -6 -6 -15 -8 -19 -4 -5 4 7 20 25 35 17 15 29 31 25 34 -11 12
-20 8 -52 -22z"></path>
<path d="M4200 800 c0 -14 29 -32 40 -25 17 11 11 22 -15 27 -14 3 -25 2 -25
-2z"></path>
<path d="M4038 759 c-16 -21 -28 -44 -28 -49 0 -19 21 -10 29 13 5 12 18 31
30 41 24 21 27 36 9 36 -7 -1 -25 -19 -40 -41z"></path>
<path d="M4600 789 c0 -15 87 -105 95 -97 7 7 -75 108 -87 108 -5 0 -8 -5 -8
-11z"></path>
<path d="M3847 779 c7 -7 15 -10 18 -7 3 3 -2 9 -12 12 -14 6 -15 5 -6 -5z"></path>
<path d="M4770 712 c0 -26 -7 -45 -20 -57 -11 -10 -20 -23 -20 -28 0 -6 9 -2
20 8 15 13 24 15 31 8 14 -14 3 -33 -17 -33 -8 0 -12 -4 -9 -10 3 -5 0 -10 -7
-11 -7 -1 -2 -4 12 -8 21 -6 26 -3 33 18 9 32 -2 151 -14 151 -5 0 -9 -17 -9
-38z"></path>
<path d="M4072 697 c-27 -29 -28 -37 -3 -37 26 0 66 34 57 48 -11 18 -30 14
-54 -11z"></path>
<path d="M4920 690 c0 -5 5 -10 10 -10 6 0 10 5 10 10 0 6 -4 10 -10 10 -5 0
-10 -4 -10 -10z"></path>
<path d="M4930 631 c0 -22 16 -36 24 -22 8 12 -3 41 -15 41 -5 0 -9 -9 -9 -19z"></path>
<path d="M5020 620 c0 -5 7 -10 15 -10 8 0 15 5 15 10 0 6 -7 10 -15 10 -8 0
-15 -4 -15 -10z"></path>
<path d="M4660 590 c0 -12 50 -33 58 -25 7 7 -29 34 -45 35 -7 0 -13 -5 -13
-10z"></path>
<path d="M4890 560 c0 -5 6 -10 14 -10 8 0 18 5 21 10 3 6 -3 10 -14 10 -12 0
-21 -4 -21 -10z"></path>
<path d="M4830 550 c0 -5 9 -10 20 -10 11 0 20 5 20 10 0 6 -9 10 -20 10 -11
0 -20 -4 -20 -10z"></path>
<path d="M4471 494 c-18 -15 -40 -24 -53 -22 -20 3 -23 -2 -24 -32 -2 -44 -22
-120 -36 -137 -5 -7 -8 -19 -5 -26 7 -19 -3 -32 -40 -51 -18 -9 -33 -21 -33
-26 0 -14 7 -13 35 6 33 21 69 15 73 -13 5 -34 15 -28 35 22 27 65 54 95 83
93 27 -3 40 -32 29 -67 -8 -27 6 -27 22 -1 11 17 17 18 44 8 17 -6 39 -24 48
-39 9 -16 19 -29 24 -29 22 0 -20 69 -49 80 -14 6 -56 30 -94 55 -38 25 -71
45 -73 45 -3 0 -12 -18 -21 -40 -9 -22 -20 -40 -26 -40 -16 0 -12 66 5 80 8 7
15 25 15 39 0 38 57 92 88 85 24 -7 29 5 10 24 -17 17 -22 15 -57 -14z"></path>
<path d="M4640 450 c0 -5 5 -10 10 -10 6 0 10 5 10 10 0 6 -4 10 -10 10 -5 0
-10 -4 -10 -10z"></path>
<path d="M4690 441 c0 -11 39 -26 47 -17 8 8 3 12 -24 20 -13 4 -23 3 -23 -3z"></path>
<path d="M2705 400 c-3 -5 -1 -10 4 -10 6 0 11 5 11 10 0 6 -2 10 -4 10 -3 0
-8 -4 -11 -10z"></path>
<path d="M2573 338 c-21 -10 -32 -28 -18 -28 10 0 65 30 65 35 0 8 -23 4 -47
-7z"></path>
<path d="M2490 300 c0 -5 4 -10 9 -10 6 0 13 5 16 10 3 6 -1 10 -9 10 -9 0
-16 -4 -16 -10z"></path>
<path d="M4685 260 c-3 -5 1 -10 9 -10 8 0 18 5 21 10 3 6 -1 10 -9 10 -8 0
-18 -4 -21 -10z"></path>
<path d="M4060 200 c0 -5 5 -10 10 -10 6 0 10 5 10 10 0 6 -4 10 -10 10 -5 0
-10 -4 -10 -10z"></path>
<path d="M4520 180 c0 -11 5 -20 10 -20 6 0 10 9 10 20 0 11 -4 20 -10 20 -5
0 -10 -9 -10 -20z"></path>
<path d="M2773 170 c-24 -10 -43 -24 -43 -29 0 -12 83 24 88 38 5 14 5 14 -45
-9z"></path>
<path d="M4390 130 c0 -11 5 -20 10 -20 6 0 10 9 10 20 0 11 -4 20 -10 20 -5
0 -10 -9 -10 -20z"></path>
<path d="M2350 110 c0 -5 5 -10 10 -10 6 0 10 5 10 10 0 6 -4 10 -10 10 -5 0
-10 -4 -10 -10z"></path>
<path d="M4540 80 c19 -16 38 -29 43 -30 14 0 7 21 -10 27 -10 4 -24 13 -31
20 -7 7 -19 13 -25 13 -6 0 4 -13 23 -30z"></path>
<path d="M4280 63 c0 -11 53 -63 64 -63 6 0 5 5 -2 12 -20 20 -14 28 18 22 18
-4 30 -2 30 4 0 6 -23 15 -50 21 -60 13 -60 13 -60 4z"></path>
</g>
</svg>